<svg xmlns="http://www.w3.org/2000/svg" xmlns:xlink="http://www.w3.org/1999/xlink" version="1.1" id="Layer_1" x="0px" y="0px" viewBox="-382 208.7 202 143.9" enable-background="new -382 208.7 202 143.9" xml:space="preserve">
<g>
	<path d="M-373.7 306.9c0-3.3 0-3.7-1.6-3.9l-0.7-0.1c-0.2-0.2-0.2-0.8 0-0.9c2.4-0.2 5.2-0.3 8.5-0.3c3.2 0 5.5 0.3 8 1.2 c4.1 1.5 6.9 5.1 6.9 10.1c0 3.8-1.9 7.6-6.1 9.8c-2.4 1.2-5.3 1.6-8.4 1.6c-2.1 0-3.7-0.2-4.9-0.2c-1.3 0-2.8 0-4.3 0.1 c-0.3-0.1-0.3-0.7-0.1-1l0.7-0.1c1.6-0.2 1.9-0.3 1.9-3.9C-373.7 319.3-373.7 306.9-373.7 306.9z M-369.8 318 c0 3.3 0.2 5.1 3.8 5.1c6 0 8.7-4.3 8.7-10c0-6.7-3.9-10-9.6-10c-1.4 0-2.5 0.3-2.7 0.5c-0.2 0.2-0.3 0.9-0.3 2.5V318z"/>
	<path d="M-325.7 313.1c0 6.7-5.1 11.7-11.9 11.7c-7.7 0-12.1-5.4-12.1-11.4c0-6.9 5-12 12.1-12 C-329.8 301.3-325.7 306.9-325.7 313.1z M-345.1 312.4c0 4.7 2 11.1 7.8 11.1c3.9 0 7-2.9 7-9.7c0-5.1-2.3-11-7.7-11 C-341.4 302.7-345.1 305.1-345.1 312.4z"/>
	<path d="M-307.7 319.3c0 3.6 0.3 3.7 1.9 3.9l0.7 0.1c0.2 0.2 0.2 0.8-0.1 1c-1.5-0.1-3-0.1-4.5-0.1c-1.5 0-3.1 0-4.6 0.1 c-0.3-0.1-0.3-0.7-0.1-1l0.7-0.1c1.6-0.2 1.9-0.3 1.9-3.9v-12.6c0-3.6-0.3-3.7-1.9-3.9l-0.7-0.1c-0.2-0.2-0.2-0.8 0.1-1 c1.5 0.1 3 0.1 4.6 0.1c1.5 0 3 0 4.5-0.1c0.3 0.1 0.3 0.7 0.1 1l-0.7 0.1c-1.6 0.2-1.9 0.3-1.9 3.9V319.3z"/>
	<path d="M-281 318.5c0 1 0 5.2 0.1 6c-0.3 0.4-0.7 0.5-1.2 0.5c-0.5-0.7-1.5-1.9-4-4.6l-7.9-9.1c-2.2-2.5-3.3-3.8-3.9-4.3 c-0.1 0-0.1 0.4-0.1 2.2v6.6c0 2.5 0 5.7 0.6 6.7c0.3 0.5 0.9 0.7 1.7 0.8l0.7 0.1c0.3 0.2 0.3 0.9-0.1 1c-1.3-0.1-2.6-0.1-3.9-0.1 c-1.4 0-2.3 0-3.5 0.1c-0.3-0.2-0.3-0.7-0.1-1l0.7-0.2c0.6-0.1 1.3-0.2 1.5-0.8c0.4-1.1 0.4-4 0.4-6.7v-8c0-2.6 0-3.2-1.1-4.2 c-0.4-0.3-1.3-0.6-1.8-0.7l-0.5-0.1c-0.2-0.2-0.2-0.9 0.1-1c1.3 0.1 3.2 0.1 4 0.1c0.7 0 1.5 0 2.3-0.1c0.6 1.5 4.3 5.7 5.5 7 l3.4 3.7c1.4 1.6 4.6 5.2 4.9 5.4c0.1-0.1 0.1-0.3 0.1-0.8v-6.6c0-2.5 0-5.7-0.6-6.7c-0.3-0.5-0.8-0.7-1.7-0.8l-0.8-0.1 c-0.3-0.2-0.3-0.9 0.1-1c1.3 0.1 2.6 0.1 3.9 0.1c1.5 0 2.3 0 3.6-0.1c0.3 0.2 0.3 0.7 0.1 1l-0.8 0.2c-0.6 0.1-1.2 0.2-1.5 0.8 c-0.5 1.1-0.5 4-0.5 6.7L-281 318.5L-281 318.5z"/>
	<path d="M-257.7 304.7c0-1.4 0-1.5-0.9-1.5h-1.9c-3.1 0-4 0.4-5.3 3.1c-0.2 0.2-0.9 0.1-1.1-0.2c0.6-1.8 1.1-3.9 1.3-5.1 c0.1-0.1 0.2-0.1 0.4-0.1c0.1 0 0.3 0 0.3 0.1c0.2 0.8 0.6 0.9 2.9 0.9h13.8c1.7 0 2.2-0.1 2.6-0.9c0.1-0.1 0.3-0.1 0.4-0.1 c0.2 0 0.4 0.1 0.4 0.2c-0.3 1.4-0.6 4.3-0.5 5.4c-0.2 0.3-0.7 0.3-1.1 0.1c-0.4-2.6-1.1-3.3-4.7-3.3h-1.9c-0.9 0-0.9 0.1-0.9 1.5 v14.6c0 3.6 0.3 3.7 1.9 3.9l1.2 0.1c0.2 0.2 0.2 0.8-0.1 1c-2-0.1-3.5-0.1-5-0.1c-1.5 0-3.1 0-5.3 0.1c-0.3-0.1-0.3-0.8-0.1-1 l1.4-0.2c1.6-0.1 1.9-0.2 1.9-3.8L-257.7 304.7L-257.7 304.7z"/>
	<path d="M-234.4 313.4c-1.7 0-1.8 0.1-1.8 1v5c0 3.6 0.3 3.7 1.9 3.9l1 0.1c0.2 0.2 0.2 0.8-0.1 1c-1.8-0.1-3.3-0.1-4.8-0.1 c-1.5 0-3 0-4.3 0.1c-0.3-0.1-0.3-0.7-0.1-1l0.5-0.1c1.6-0.2 1.9-0.3 1.9-3.9v-12.6c0-3.6-0.3-3.7-1.9-3.9l-0.7-0.1 c-0.2-0.2-0.2-0.8 0.1-1c1.5 0.1 3.1 0.1 4.6 0.1c1.5 0 3 0 4.3-0.1c0.3 0.1 0.3 0.8 0.1 1l-0.6 0.1c-1.6 0.2-1.9 0.3-1.9 3.9v4.1 c0 0.9 0.1 1 1.8 1h7.9c1.7 0 1.8-0.1 1.8-1v-4.1c0-3.6-0.3-3.7-1.9-3.9l-0.7-0.1c-0.2-0.2-0.2-0.8 0.1-1c1.6 0.1 3.1 0.1 4.6 0.1 c1.5 0 3 0 4.4-0.1c0.3 0.1 0.3 0.8 0.1 1l-0.6 0.1c-1.6 0.2-1.9 0.3-1.9 3.9v12.6c0 3.6 0.3 3.7 1.9 3.9l0.7 0.1 c0.2 0.2 0.2 0.8-0.1 1c-1.5-0.1-3-0.1-4.5-0.1c-1.6 0-3.1 0-4.6 0.1c-0.3-0.1-0.3-0.7-0.1-1l0.7-0.1c1.6-0.2 1.9-0.3 1.9-3.9v-5 c0-0.9-0.1-1-1.8-1L-234.4 313.4L-234.4 313.4z"/>
	<path d="M-209.7 315.9c-0.9 0-0.8 0-1.2 0.9l-1.4 4.1c-0.7 2-0.5 2.1 0.7 2.3l1 0.2c0.2 0.2 0.2 0.8-0.1 1 c-1.1-0.1-2.2-0.1-3.6-0.1c-1.1 0-2.2 0-3.4 0.1c-0.2-0.2-0.3-0.7 0-1l1-0.2c1-0.1 1.4-0.4 1.9-1.6c0.4-0.9 0.9-2.3 1.7-4.1 l4.6-12.1c0.4-1.1 0.7-1.9 0.6-2.5c1.2-0.2 2.3-1.6 2.4-1.6c0.3 0 0.4 0.1 0.6 0.3c0.5 1.5 1 3.1 1.5 4.6l4.9 14.2 c0.8 2.3 0.9 2.5 2.7 2.8l0.5 0.1c0.3 0.2 0.3 0.8 0 1c-1.4-0.1-2.6-0.1-4.4-0.1c-1.5 0-2.9 0.1-4.1 0.1c-0.3-0.2-0.3-0.8-0.1-1 l0.7-0.1c1.2-0.1 1.3-0.3 0.9-1.8l-1.6-4.6c-0.3-0.9-0.4-0.9-1.4-0.9H-209.7L-209.7 315.9z M-205.6 314.4c0.9 0 1.1-0.1 0.8-0.9 l-1.4-4.1c-0.6-1.8-0.8-2.4-0.9-2.7h-0.1c-0.1 0.2-0.4 1.1-1 2.7l-1.4 4c-0.4 1-0.3 1 0.5 1L-205.6 314.4L-205.6 314.4z"/>
	<path d="M-187.5 319.3c0 3.6 0.3 3.7 1.9 3.9l0.7 0.1c0.2 0.2 0.2 0.8-0.1 1c-1.5-0.1-3-0.1-4.5-0.1c-1.5 0-3.1 0-4.6 0.1 c-0.3-0.1-0.3-0.7-0.1-1l0.7-0.1c1.6-0.2 1.9-0.3 1.9-3.9v-12.6c0-3.6-0.3-3.7-1.9-3.9l-0.7-0.1c-0.2-0.2-0.2-0.8 0.1-1 c1.5 0.1 3 0.1 4.6 0.1c1.5 0 3 0 4.5-0.1c0.3 0.1 0.3 0.7 0.1 1l-0.7 0.1c-1.6 0.2-1.9 0.3-1.9 3.9V319.3z"/>
</g>
<g>
	<g>
		<path d="M-346.4 334.5c-0.5 0.1-0.7 0.3-1.1 1.2c-0.8 1.9-1.6 3.4-2.2 4.9c-0.2 0.4-0.3 0.7-0.4 0.9c0 0-0.1 0-0.2 0s-0.2 0-0.2 0 c-0.2-0.7-0.9-2.1-1.4-3.1c-0.5 1-1 2-1.4 3.1c0 0-0.1 0-0.2 0c-0.1 0-0.2 0-0.2 0c-0.2-0.5-0.5-1.1-0.8-1.8l-2.1-4.5 c-0.2-0.5-0.3-0.7-0.8-0.8l-0.3-0.1c-0.1-0.1-0.1-0.3 0-0.3c0.4 0 0.9 0 1.3 0c0.4 0 0.8 0 1.3 0c0.1 0.1 0.1 0.2 0 0.3l-0.3 0.1 c-0.1 0-0.3 0.1-0.3 0.2s0.1 0.3 0.3 0.7l1.3 2.8c0.4 0.8 0.7 1.4 0.8 1.6c0.2-0.4 0.5-1 0.7-1.5c0.1-0.2 0.2-0.4 0.2-0.4 c0-0.1 0-0.2-0.1-0.3l-1.2-2.4c-0.2-0.4-0.3-0.6-0.6-0.6l-0.3-0.1c-0.1-0.1-0.1-0.3 0-0.3c0.5 0 0.8 0 1.2 0c0.4 0 0.9 0 1.3 0 c0.1 0 0.1 0.2 0 0.3l-0.3 0.1c-0.1 0-0.2 0.1-0.2 0.2c0 0.1 0 0.2 0.1 0.4c0.2 0.6 0.5 1.1 0.7 1.6c0.2-0.4 0.4-0.8 0.5-1.2 c0.2-0.4 0.2-0.7 0.2-0.8c0-0.1-0.1-0.1-0.2-0.2l-0.3-0.1c-0.1-0.1-0.1-0.3 0-0.3c0.3 0 0.6 0 1 0c0.4 0 0.7 0 1 0 c0.1 0.1 0.1 0.3 0 0.3l-0.3 0.1c-0.4 0.1-0.5 0.2-0.9 0.9c-0.2 0.4-0.5 1-0.8 1.5c-0.1 0.1-0.1 0.3-0.1 0.3c0 0 0 0.1 0.1 0.3 l0.5 1c0.2 0.5 0.5 1.2 0.6 1.4c0.6-1.3 1.2-2.8 1.7-4.2c0.2-0.5 0.3-0.9 0.3-1c0-0.1-0.2-0.1-0.4-0.2l-0.2-0.1 c-0.1-0.1-0.1-0.3 0-0.3c0.4 0 0.7 0 1.1 0s0.7 0 1.1 0c0.1 0.1 0.1 0.2 0 0.3L-346.4 334.5z"/>
		<path d="M-345.4 335.7c0-1.2-0.1-1.2-0.6-1.3l-0.2 0c-0.1-0.1-0.1-0.3 0-0.3c0.4 0 0.9 0 1.4 0h2.1c0.7 0 1.3 0 1.5 0 c0 0.2 0.1 1.1 0.2 1.5c0 0.1-0.3 0.1-0.4 0c-0.2-0.6-0.3-0.9-0.7-1c-0.3-0.1-0.6-0.1-0.9-0.1h-0.7c-0.5 0-0.5 0-0.5 0.7v1.9 c0 0.3 0 0.3 0.3 0.3h0.5c1 0 1.1 0 1.2-0.5l0.1-0.4c0.1-0.1 0.3-0.1 0.4 0c0 0.3 0 0.7 0 1.1c0 0.4 0 0.8 0 1.2 c-0.1 0.1-0.3 0.1-0.4 0l-0.1-0.4c-0.1-0.5-0.3-0.5-1.2-0.5h-0.5c-0.3 0-0.3 0-0.3 0.3v1.4c0 0.6 0 1 0.2 1.1 c0.1 0.2 0.3 0.2 1.2 0.2c1.4 0 1.6-0.3 2-1.2c0.1-0.1 0.3 0 0.4 0.1c-0.1 0.5-0.3 1.3-0.5 1.6c-0.5 0-1.4 0-2.7 0h-1.3 c-0.5 0-1.2 0-1.7 0c-0.1 0-0.1-0.2 0-0.3l0.4 0c0.5-0.1 0.6-0.1 0.6-1.3L-345.4 335.7L-345.4 335.7z"/>
		<path d="M-336.2 335.8c0-1.1 0-1.2-0.5-1.3l-0.2 0c-0.1-0.1-0.1-0.3 0-0.3c0.8-0.1 1.7-0.1 2.8-0.1c1 0 1.8 0.1 2.6 0.4 c1.3 0.5 2.3 1.7 2.3 3.3c0 1.2-0.6 2.5-2 3.2c-0.8 0.4-1.7 0.5-2.7 0.5c-0.7 0-1.2-0.1-1.6-0.1c-0.4 0-0.9 0-1.4 0 c-0.1 0-0.1-0.2 0-0.3l0.2 0c0.5-0.1 0.6-0.1 0.6-1.3L-336.2 335.8L-336.2 335.8z M-334.9 339.4c0 1.1 0.1 1.6 1.2 1.6 c2 0 2.8-1.4 2.8-3.3c0-2.2-1.3-3.2-3.1-3.2c-0.5 0-0.8 0.1-0.9 0.2s-0.1 0.3-0.1 0.8C-334.9 335.5-334.9 339.4-334.9 339.4z"/>
		<path d="M-320.6 337.8c0 2.2-1.7 3.8-3.9 3.8c-2.5 0-3.9-1.8-3.9-3.7c0-2.2 1.6-3.9 3.9-3.9C-321.9 334-320.6 335.8-320.6 337.8z M-326.9 337.6c0 1.5 0.7 3.6 2.5 3.6c1.3 0 2.3-0.9 2.3-3.2c0-1.7-0.7-3.6-2.5-3.6C-325.7 334.4-326.9 335.2-326.9 337.6z"/>
		<path d="M-313.7 335.1c0-0.5 0-0.5-0.3-0.5h-0.6c-1 0-1.3 0.1-1.7 1c-0.1 0.1-0.3 0-0.4-0.1c0.2-0.6 0.4-1.3 0.4-1.7 c0 0 0.1 0 0.1 0c0 0 0.1 0 0.1 0c0.1 0.3 0.2 0.3 1 0.3h4.5c0.5 0 0.7 0 0.8-0.3c0 0 0.1 0 0.1 0c0.1 0 0.1 0 0.1 0.1 c-0.1 0.5-0.2 1.4-0.2 1.8c-0.1 0.1-0.2 0.1-0.3 0c-0.1-0.9-0.4-1.1-1.5-1.1h-0.6c-0.3 0-0.3 0-0.3 0.5v4.8c0 1.2 0.1 1.2 0.6 1.3 l0.4 0c0.1 0.1 0.1 0.3 0 0.3c-0.6 0-1.1 0-1.6 0c-0.5 0-1 0-1.7 0c-0.1 0-0.1-0.3 0-0.3l0.5-0.1c0.5 0 0.6-0.1 0.6-1.2 L-313.7 335.1L-313.7 335.1z"/>
		<path d="M-306.2 337.9c-0.6 0-0.6 0-0.6 0.3v1.6c0 1.2 0.1 1.2 0.6 1.3l0.3 0c0.1 0.1 0.1 0.3 0 0.3c-0.6 0-1.1 0-1.6 0 c-0.5 0-1 0-1.4 0c-0.1 0-0.1-0.2 0-0.3l0.2 0c0.5-0.1 0.6-0.1 0.6-1.3v-4.1c0-1.2-0.1-1.2-0.6-1.3l-0.2 0c-0.1-0.1-0.1-0.3 0-0.3 c0.5 0 1 0 1.5 0c0.5 0 1 0 1.4 0c0.1 0 0.1 0.3 0 0.3l-0.2 0c-0.5 0.1-0.6 0.1-0.6 1.3v1.3c0 0.3 0 0.3 0.6 0.3h2.6 c0.6 0 0.6 0 0.6-0.3v-1.3c0-1.2-0.1-1.2-0.6-1.3l-0.2 0c-0.1-0.1-0.1-0.3 0-0.3c0.5 0 1 0 1.5 0c0.5 0 1 0 1.4 0 c0.1 0 0.1 0.3 0 0.3l-0.2 0c-0.5 0.1-0.6 0.1-0.6 1.3v4.1c0 1.2 0.1 1.2 0.6 1.3l0.2 0c0.1 0.1 0.1 0.3 0 0.3c-0.5 0-1 0-1.5 0 c-0.5 0-1 0-1.5 0c-0.1 0-0.1-0.2 0-0.3l0.2 0c0.5-0.1 0.6-0.1 0.6-1.3v-1.6c0-0.3 0-0.3-0.6-0.3L-306.2 337.9L-306.2 337.9z"/>
		<path d="M-299.1 335.7c0-1.2-0.1-1.2-0.6-1.3l-0.2 0c-0.1-0.1-0.1-0.3 0-0.3c0.4 0 0.9 0 1.4 0h2.1c0.7 0 1.3 0 1.5 0 c0 0.2 0.1 1.1 0.2 1.5c0 0.1-0.3 0.1-0.4 0c-0.2-0.6-0.3-0.9-0.7-1c-0.3-0.1-0.6-0.1-0.9-0.1h-0.7c-0.5 0-0.5 0-0.5 0.7v1.9 c0 0.3 0 0.3 0.3 0.3h0.5c1 0 1.1 0 1.2-0.5l0.1-0.4c0.1-0.1 0.3-0.1 0.4 0c0 0.3 0 0.7 0 1.1c0 0.4 0 0.8 0 1.2 c-0.1 0.1-0.3 0.1-0.4 0l-0.1-0.4c-0.1-0.5-0.3-0.5-1.2-0.5h-0.5c-0.3 0-0.3 0-0.3 0.3v1.4c0 0.6 0 1 0.2 1.1 c0.1 0.2 0.3 0.2 1.2 0.2c1.4 0 1.6-0.3 2-1.2c0.1-0.1 0.3 0 0.4 0.1c-0.1 0.5-0.3 1.3-0.5 1.6c-0.5 0-1.4 0-2.7 0h-1.3 c-0.5 0-1.2 0-1.7 0c-0.1 0-0.1-0.2 0-0.3l0.4 0c0.5-0.1 0.6-0.1 0.6-1.3V335.7z"/>
		<path d="M-289.9 335.8c0-1.1 0-1.2-0.5-1.2l-0.3 0c-0.1-0.1-0.1-0.3 0-0.3c0.7-0.1 1.6-0.1 2.5-0.1c0.9 0 1.6 0.1 2.1 0.4 c0.6 0.3 1 0.8 1 1.6c0 1-0.8 1.5-1.3 1.7c-0.1 0 0 0.1 0 0.2c0.9 1.5 1.4 2.4 2 2.9c0.3 0.3 0.6 0.3 0.8 0.3c0.1 0 0.1 0.2 0 0.2 c-0.1 0-0.3 0.1-0.7 0.1c-1.1 0-1.6-0.4-2.3-1.5c-0.3-0.5-0.6-1.1-0.9-1.5c-0.2-0.3-0.3-0.4-0.7-0.4c-0.3 0-0.3 0-0.3 0.2v1.4 c0 1.2 0.1 1.2 0.6 1.3l0.2 0c0.1 0.1 0.1 0.3 0 0.3c-0.5 0-1 0-1.5 0c-0.5 0-1 0-1.5 0c-0.1 0-0.1-0.2 0-0.3l0.2 0 c0.5-0.1 0.6-0.1 0.6-1.3L-289.9 335.8L-289.9 335.8z M-288.6 337.4c0 0.4 0 0.4 0.5 0.4c1.1 0 1.6-0.5 1.6-1.6 c0-0.9-0.6-1.6-1.5-1.6c-0.6 0-0.6 0-0.6 0.5L-288.6 337.4L-288.6 337.4z"/>
		<path d="M-281.4 339.9c0 1.2 0.1 1.2 0.6 1.3l0.2 0c0.1 0.1 0.1 0.3 0 0.3c-0.5 0-1 0-1.5 0c-0.5 0-1 0-1.5 0 c-0.1 0-0.1-0.2 0-0.3l0.2 0c0.5-0.1 0.6-0.1 0.6-1.3v-4.1c0-1.2-0.1-1.2-0.6-1.3l-0.2 0c-0.1-0.1-0.1-0.3 0-0.3c0.5 0 1 0 1.5 0 c0.5 0 1 0 1.5 0c0.1 0 0.1 0.2 0 0.3l-0.2 0c-0.5 0.1-0.6 0.1-0.6 1.3V339.9z"/>
		<path d="M-272.8 340.3c0 0.4 0.1 0.7 0.3 0.8c0 0 0 0.1 0 0.2c-0.1 0-0.3 0-0.5 0.1c-0.7 0.2-1.5 0.3-2.1 0.3 c-1.3 0-2.6-0.4-3.4-1.2c-0.7-0.7-1-1.6-1-2.5c0-0.9 0.3-1.9 1-2.6c0.8-0.8 2-1.3 3.5-1.3c0.5 0 1.1 0.1 1.5 0.2 c0.3 0.1 0.6 0.1 0.7 0.1c0 0.3 0.1 0.9 0.1 1.8c-0.1 0.1-0.3 0.1-0.4 0c-0.2-1.1-1-1.6-2.1-1.6c-1.9 0-2.9 1.4-2.9 3.3 c0 0.9 0.2 1.8 0.8 2.5c0.6 0.7 1.5 0.9 2.1 0.9c0.5 0 0.8-0.1 1-0.3c0.1-0.1 0.1-0.3 0.1-0.7v-0.4c0-0.8 0-0.8-0.7-1l-0.4-0.1 c-0.1-0.1-0.1-0.3 0-0.3c0.4 0 1 0 1.7 0c0.5 0 0.9 0 1.3 0c0.1 0.1 0.1 0.2 0 0.3l-0.2 0c-0.4 0.1-0.5 0.2-0.5 0.8L-272.8 340.3 L-272.8 340.3z"/>
		<path d="M-268.7 337.9c-0.6 0-0.6 0-0.6 0.3v1.6c0 1.2 0.1 1.2 0.6 1.3l0.3 0c0.1 0.1 0.1 0.3 0 0.3c-0.6 0-1.1 0-1.6 0 c-0.5 0-1 0-1.4 0c-0.1 0-0.1-0.2 0-0.3l0.2 0c0.5-0.1 0.6-0.1 0.6-1.3v-4.1c0-1.2-0.1-1.2-0.6-1.3l-0.2 0c-0.1-0.1-0.1-0.3 0-0.3 c0.5 0 1 0 1.5 0c0.5 0 1 0 1.4 0c0.1 0 0.1 0.3 0 0.3l-0.2 0c-0.5 0.1-0.6 0.1-0.6 1.3v1.3c0 0.3 0 0.3 0.6 0.3h2.6 c0.6 0 0.6 0 0.6-0.3v-1.3c0-1.2-0.1-1.2-0.6-1.3l-0.2 0c-0.1-0.1-0.1-0.3 0-0.3c0.5 0 1 0 1.5 0c0.5 0 1 0 1.4 0 c0.1 0 0.1 0.3 0 0.3l-0.2 0c-0.5 0.1-0.6 0.1-0.6 1.3v4.1c0 1.2 0.1 1.2 0.6 1.3l0.2 0c0.1 0.1 0.1 0.3 0 0.3c-0.5 0-1 0-1.5 0 c-0.5 0-1 0-1.5 0c-0.1 0-0.1-0.2 0-0.3l0.2 0c0.5-0.1 0.6-0.1 0.6-1.3v-1.6c0-0.3 0-0.3-0.6-0.3L-268.7 337.9L-268.7 337.9z"/>
		<path d="M-259.8 335.1c0-0.5 0-0.5-0.3-0.5h-0.6c-1 0-1.3 0.1-1.7 1c-0.1 0.1-0.3 0-0.4-0.1c0.2-0.6 0.4-1.3 0.4-1.7 c0 0 0.1 0 0.1 0c0 0 0.1 0 0.1 0c0.1 0.3 0.2 0.3 1 0.3h4.5c0.5 0 0.7 0 0.8-0.3c0 0 0.1 0 0.1 0c0.1 0 0.1 0 0.1 0.1 c-0.1 0.5-0.2 1.4-0.2 1.8c-0.1 0.1-0.2 0.1-0.3 0c-0.1-0.9-0.4-1.1-1.5-1.1h-0.6c-0.3 0-0.3 0-0.3 0.5v4.8c0 1.2 0.1 1.2 0.6 1.3 l0.4 0c0.1 0.1 0.1 0.3 0 0.3c-0.6 0-1.1 0-1.6 0c-0.5 0-1 0-1.7 0c-0.1 0-0.1-0.3 0-0.3l0.5-0.1c0.5 0 0.6-0.1 0.6-1.2V335.1 L-259.8 335.1z"/>
		<path d="M-249.1 335.1c0-0.5 0-0.5-0.3-0.5h-0.6c-1 0-1.3 0.1-1.7 1c-0.1 0.1-0.3 0-0.4-0.1c0.2-0.6 0.4-1.3 0.4-1.7 c0 0 0.1 0 0.1 0c0 0 0.1 0 0.1 0c0.1 0.3 0.2 0.3 1 0.3h4.5c0.5 0 0.7 0 0.8-0.3c0 0 0.1 0 0.1 0c0.1 0 0.1 0 0.1 0.1 c-0.1 0.5-0.2 1.4-0.2 1.8c-0.1 0.1-0.2 0.1-0.3 0c-0.1-0.9-0.4-1.1-1.5-1.1h-0.6c-0.3 0-0.3 0-0.3 0.5v4.8c0 1.2 0.1 1.2 0.6 1.3 l0.4 0c0.1 0.1 0.1 0.3 0 0.3c-0.6 0-1.1 0-1.6 0c-0.5 0-1 0-1.7 0c-0.1 0-0.1-0.3 0-0.3l0.5-0.1c0.5 0 0.6-0.1 0.6-1.2 L-249.1 335.1L-249.1 335.1z"/>
		<path d="M-241.5 337.9c-0.6 0-0.6 0-0.6 0.3v1.6c0 1.2 0.1 1.2 0.6 1.3l0.3 0c0.1 0.1 0.1 0.3 0 0.3c-0.6 0-1.1 0-1.6 0 c-0.5 0-1 0-1.4 0c-0.1 0-0.1-0.2 0-0.3l0.2 0c0.5-0.1 0.6-0.1 0.6-1.3v-4.1c0-1.2-0.1-1.2-0.6-1.3l-0.2 0c-0.1-0.1-0.1-0.3 0-0.3 c0.5 0 1 0 1.5 0c0.5 0 1 0 1.4 0c0.1 0 0.1 0.3 0 0.3l-0.2 0c-0.5 0.1-0.6 0.1-0.6 1.3v1.3c0 0.3 0 0.3 0.6 0.3h2.6 c0.6 0 0.6 0 0.6-0.3v-1.3c0-1.2-0.1-1.2-0.6-1.3l-0.2 0c-0.1-0.1-0.1-0.3 0-0.3c0.5 0 1 0 1.5 0c0.5 0 1 0 1.4 0 c0.1 0 0.1 0.3 0 0.3l-0.2 0c-0.5 0.1-0.6 0.1-0.6 1.3v4.1c0 1.2 0.1 1.2 0.6 1.3l0.2 0c0.1 0.1 0.1 0.3 0 0.3c-0.5 0-1 0-1.5 0 c-0.5 0-1 0-1.5 0c-0.1 0-0.1-0.2 0-0.3l0.2 0c0.5-0.1 0.6-0.1 0.6-1.3v-1.6c0-0.3 0-0.3-0.6-0.3L-241.5 337.9L-241.5 337.9z"/>
		<path d="M-233.2 339.9c0 1.2 0.1 1.2 0.6 1.3l0.2 0c0.1 0.1 0.1 0.3 0 0.3c-0.5 0-1 0-1.5 0c-0.5 0-1 0-1.5 0 c-0.1 0-0.1-0.2 0-0.3l0.2 0c0.5-0.1 0.6-0.1 0.6-1.3v-4.1c0-1.2-0.1-1.2-0.6-1.3l-0.2 0c-0.1-0.1-0.1-0.3 0-0.3c0.5 0 1 0 1.5 0 c0.5 0 1 0 1.5 0c0.1 0 0.1 0.2 0 0.3l-0.2 0c-0.5 0.1-0.6 0.1-0.6 1.3V339.9z"/>
		<path d="M-224.5 339.6c0 0.3 0 1.7 0 1.9c-0.1 0.1-0.2 0.2-0.4 0.2c-0.2-0.2-0.5-0.6-1.3-1.5l-2.6-2.9c-0.7-0.8-1.1-1.2-1.3-1.4 c0 0 0 0.1 0 0.7v2.2c0 0.8 0 1.8 0.2 2.2c0.1 0.2 0.3 0.2 0.6 0.3l0.2 0c0.1 0.1 0.1 0.3 0 0.3c-0.4 0-0.8 0-1.3 0 c-0.5 0-0.8 0-1.1 0c-0.1-0.1-0.1-0.2 0-0.3l0.2-0.1c0.2 0 0.4-0.1 0.5-0.3c0.1-0.3 0.1-1.3 0.1-2.2v-2.6c0-0.9 0-1-0.4-1.4 c-0.1-0.1-0.4-0.2-0.6-0.2l-0.2 0c-0.1-0.1-0.1-0.3 0-0.3c0.4 0 1 0 1.3 0c0.2 0 0.5 0 0.8 0c0.2 0.5 1.4 1.9 1.8 2.3l1.1 1.2 c0.5 0.5 1.5 1.7 1.6 1.7c0 0 0-0.1 0-0.3v-2.2c0-0.8 0-1.8-0.2-2.2c-0.1-0.2-0.3-0.2-0.6-0.3l-0.3 0c-0.1-0.1-0.1-0.3 0-0.3 c0.4 0 0.8 0 1.3 0c0.5 0 0.8 0 1.2 0c0.1 0.1 0.1 0.2 0 0.3l-0.3 0.1c-0.2 0-0.4 0.1-0.5 0.3c-0.2 0.3-0.2 1.3-0.2 2.2 L-224.5 339.6L-224.5 339.6z"/>
		<path d="M-216 340.3c0 0.4 0.1 0.7 0.3 0.8c0 0 0 0.1 0 0.2c-0.1 0-0.3 0-0.5 0.1c-0.7 0.2-1.5 0.3-2.1 0.3 c-1.3 0-2.6-0.4-3.4-1.2c-0.7-0.7-1-1.6-1-2.5c0-0.9 0.3-1.9 1-2.6c0.8-0.8 2-1.3 3.5-1.3c0.5 0 1.1 0.1 1.5 0.2 c0.3 0.1 0.6 0.1 0.7 0.1c0 0.3 0.1 0.9 0.1 1.8c-0.1 0.1-0.3 0.1-0.4 0c-0.2-1.1-1-1.6-2.1-1.6c-1.9 0-2.9 1.4-2.9 3.3 c0 0.9 0.2 1.8 0.8 2.5c0.6 0.7 1.5 0.9 2.1 0.9c0.5 0 0.8-0.1 1-0.3c0.1-0.1 0.1-0.3 0.1-0.7v-0.4c0-0.8 0-0.8-0.7-1l-0.4-0.1 c-0.1-0.1-0.1-0.3 0-0.3c0.4 0 1 0 1.7 0c0.5 0 0.9 0 1.3 0c0.1 0.1 0.1 0.2 0 0.3l-0.2 0c-0.4 0.1-0.5 0.2-0.5 0.8L-216 340.3 L-216 340.3z"/>
		<path d="M-214.3 341.2c-0.2-0.2-0.3-1-0.3-1.7c0.1-0.1 0.3-0.1 0.3 0c0.2 0.6 0.8 1.7 1.9 1.7c0.8 0 1.3-0.5 1.3-1.2 c0-0.6-0.3-1.1-1.1-1.6l-0.5-0.3c-0.8-0.5-1.6-1.1-1.6-2.1c0-1.1 0.8-2 2.4-2c0.6 0 1 0.1 1.5 0.2c0.1 0.2 0.2 1 0.2 1.5 c-0.1 0.1-0.3 0.1-0.4 0c-0.2-0.6-0.6-1.3-1.5-1.3c-0.9 0-1.2 0.6-1.2 1.2c0 0.5 0.3 1 1 1.3l0.7 0.4c0.7 0.4 1.5 1.1 1.5 2.2 c0 1.3-1 2.2-2.6 2.2C-213.5 341.6-214.1 341.3-214.3 341.2z"/>
	</g>
</g>
<g>
	<polygon fill="#EE3624" points="-304.7,217.9 -294.8,217.9 -294.8,270.8 -304.7,261.2"/>
	<polygon fill="#EE3624" points="-259.5,217.9 -269.4,217.9 -269.4,270.8 -259.5,261.2"/>
	<polygon fill="#184C8A" points="-288.5,217.9 -288.5,276.4 -282.1,282.2 -275.6,276.4 -275.6,217.9"/>
	<polygon fill="#A71E22" points="-304.7,217.9 -294.8,270.8 -304.7,261.2"/>
	<polygon fill="#1750A3" points="-282.1,282.2 -282.1,224.1 -288.5,217.9 -288.5,276.4"/>
	<polygon fill="#A71E22" points="-259.5,217.9 -269.4,270.8 -259.5,261.2"/>
	<polygon fill="#152E54" points="-282.1,224.1 -275.6,217.9 -275.6,276.4 -282.1,282.2"/>
</g>
</svg>
