<?xml version="1.0" encoding="UTF-8" standalone="no"?>
<!-- Generator: Adobe Illustrator 18.1.1, SVG Export Plug-In . SVG Version: 6.00 Build 0)  -->
<svg id="Layer_1" xmlns="http://www.w3.org/2000/svg" xml:space="preserve" viewBox="0 0 567.1 595.3" version="1.1" y="0px" x="0px" xmlns:xlink="http://www.w3.org/1999/xlink" enable-background="new 0 0 567.1 595.3">
<g fill="#F08231">
	<path clip-rule="evenodd" d="m29.7 291.7c0 140.1 113.7 253.8 253.9 253.8s253.8-113.7 253.8-253.9-113.7-253.8-253.9-253.8c-140.1 0-253.8 113.7-253.8 253.9m-6.7 0c0-143.9 116.7-260.6 260.5-260.6 143.9 0 260.6 116.6 260.6 260.5s-116.6 260.5-260.5 260.5c-143.9 0.1-260.5-116.5-260.6-260.4" fill-rule="evenodd"/>
	<path clip-rule="evenodd" d="m46.4 291.7c0 131 106.2 237.2 237.2 237.2s237.3-106.2 237.2-237.2c0-131-106.3-237.3-237.3-237.2-131-0.1-237.2 106.2-237.1 237.2m-10.8 0c0-136.9 111-248 247.9-248s248 111 248 248c0 136.9-111 247.9-248 248-136.9-0.1-247.9-111.1-247.9-248" fill-rule="evenodd"/>
	<path clip-rule="evenodd" d="m81.9 291.7c0 111.3 90.3 201.6 201.7 201.6s201.7-90.4 201.7-201.7c0-111.4-90.4-201.7-201.7-201.7-111.4 0.1-201.7 90.4-201.7 201.8m-6.1 0c0-114.8 93-207.9 207.7-207.9 114.8 0 207.8 93 207.9 207.8 0 114.7-93 207.8-207.8 207.8-114.7 0.1-207.8-93-207.8-207.7" fill-rule="evenodd"/>
	<path clip-rule="evenodd" d="m98.5 291.7c0 102.2 82.9 185.1 185.1 185 102.2 0 185.1-82.9 185.1-185.1s-82.9-185.1-185.1-185c-102.3 0-185.1 82.9-185.1 185.1m-12.3 0c0-109 88.3-197.5 197.3-197.5s197.4 88.4 197.5 197.4c0 109-88.4 197.4-197.4 197.4-109 0.1-197.4-88.3-197.4-197.3" fill-rule="evenodd"/>
	<path clip-rule="evenodd" d="m150.8 243.8v2.9h45.7v-2.9h-45.7m0 6.8v6.1h3.5v-6.1h-3.5m47.2 0h-3.5v6.1h3.5v-6.1m-9.3 0v6.1h3.3v-6.1h-3.3m-6.7 0v6.1h3.5v-6.1h-3.5m-6 0v6.1h3.5v-6.1h-3.5m-7 0v6.1h3.7v-6.1h-3.7m-6.2 0v6.1h3.6v-6.1h-3.6m-6.1 0v6.1h3.4v-6.1h-3.4m-12.3-9.5h57.8v17.4h-57.8v-17.4" fill-rule="evenodd"/>
	<path clip-rule="evenodd" d="m200.7 354s-0.2 5.1 2.9 6.6 4.3 1.5 5.1 0.8c0.7-0.7 1.2-2.7 1.2-2.7s1.2 2.1 0.8 3.5c-0.5 1.4-1.1 2.7-2.4 3.5-1.3 0.9-4.1 1.3-5.8 0.7-1.7-0.7-5.1-2.9-5.2-5.6-0.2-2.6 1-4.2 1.7-5s1.7-1.8 1.7-1.8z" fill-rule="evenodd"/>
	<path clip-rule="evenodd" d="m175.9 376.9s1.7 2 4.6 2.5c2.8 0.4 7.5 0.7 9.5 0.7s4.4 0.6 7.2 1.6c2.5 0.9 4.2 1.7 5 2.5 0.6 0.7 1.7 3.4 2.6 5.2s2.6 4.4 2.6 4.4-1.4 0.2-3.4-0.9c-1.9-1.2-2.8-2.5-6.5-3.1-3.6-0.6-7.7-0.3-11.2-1.5s-5.8-2.7-7.9-5.2c-2.7-3.1-2.5-6.2-2.5-6.2z" fill-rule="evenodd"/>
	<path clip-rule="evenodd" d="m367.5 390.7s1-7.5 7.4-11.6c6.3-4.2 8.7-2.5 11.9-3 3.1-0.4 7.2-2.1 7.2-2.1s-0.8 3.8-4.8 6.9c-4.1 3.1-6.4 4.6-10.9 4.8-4.6 0.3-6.7 2-7.8 2.8-1.2 0.8-3 2.2-3 2.2z" fill-rule="evenodd"/>
	<path clip-rule="evenodd" d="m359.3 355.5s-0.2 4.9 2.4 7.2c2.6 2.2 6.2 2.9 8.8 0.8 2.6-2.2 3.5-5.7 2.8-7.8-0.6-2.2-3.9-5.3-3.9-5.3s0 4.4-1.6 6c-1.6 1.6-3.4 3-5 2.3s-3.5-3.2-3.5-3.2z" fill-rule="evenodd"/>
	<path clip-rule="evenodd" d="m254.9 283.5h-1.3l-1.3 1.2 0.1 1.6 1.1 1.3h1.5l1.2-1.4v-1.4l-1.3-1.3m3 1.2v1.6l1.4 1.3h1.5l1.4-1.3v-1.5l-1.5-1.4h-1.3l-1.5 1.3m5.9 0.1v1.4l1.4 1.4h1.5l1.4-1.4v-1.5l-1.2-1.2h-1.7l-1.4 1.3m6.4-0.1l0.1 1.5 1.4 1.2h1.6l1.3-1.3v-1.6l-1.4-1.1h-1.8l-1.2 1.3m6.6 0.1l0.1 1.5 1.3 1.2h1.6l1.2-1.2v-1.5l-1.2-1.4h-1.8l-1.2 1.4m7.7-1.3l-1.3 1.4v1.4l1.3 1.3h1.6l1.2-1.4v-1.3l-1.2-1.4h-1.6m4.9 1.3v1.3l1.3 1.5h1.9l1.3-1.3v-1.5l-1.5-1.2h-1.7l-1.3 1.2m7.9-1.3l-1.3 1.3v1.4l1.4 1.4h1.9l1.2-1.3v-1.4l-1.3-1.3h-1.9m5.3 1.1l-0.1 1.5 1.2 1.3h1.7l1.2-1.3v-1.4l-1.1-1.3h-1.8l-1.1 1.2m6.2 0.1l0.1 1.6 1.4 1.2h1.5l1.4-1.2v-1.6l-1.2-1.2h-1.7l-1.5 1.2m-55.5-5.2s-0.1 1.2-0.1 2.4c0 0.1-1.9 1.6-2.9 2.2 0 0-0.1 2-0.2 2l-1.6 1.6-0.1-1.2h-0.9v2.1c0 0.1 1.8 0.1 1.9 0 0.7-0.9 1.5-1.2 1.6-2.1 0.1-1 0.1-1.6 0.1-1.6l2.6-2.2h4.2l2.6-2.2h46.2l2.6 2.3h3.4l2.1 1.9 0.1 1.6 2.4 2.3h2.3v-2.9h-0.8v1.7h-0.8l-2.1-2v-1.4l-1.5-1-0.6-1.2v-2.3l13.1 10.4h-84.1s2.2-3.7 3.3-4.6c1-0.9 2.8-2.2 3.6-2.9s3.6-2.9 3.6-2.9" fill-rule="evenodd"/>
	<polygon points="231.7 126.2 233 124.6 271.7 149.2 270.8 150.7" clip-rule="evenodd" fill-rule="evenodd"/>
	<polygon points="243.4 122 244.7 120.7 274.1 146.7 272.9 148.2" clip-rule="evenodd" fill-rule="evenodd"/>
	<polygon points="253.5 119.2 255.2 117.9 276.5 145.3 275.2 146.3" clip-rule="evenodd" fill-rule="evenodd"/>
	<polygon points="264.2 117.6 265.7 116.8 278.9 144.3 277.5 144.9" clip-rule="evenodd" fill-rule="evenodd"/>
	<polygon points="274.6 116 276.3 115.8 281.4 143.6 279.7 143.8" clip-rule="evenodd" fill-rule="evenodd"/>
	<polygon points="283.4 115.2 285.2 115.4 284.1 143.4 282.6 143.4" clip-rule="evenodd" fill-rule="evenodd"/>
	<polygon points="292.2 115.4 294 115.9 286.9 143.6 285.5 143.3" clip-rule="evenodd" fill-rule="evenodd"/>
	<polygon points="300.7 116.4 302.3 117.3 289.6 144.9 288 144.1" clip-rule="evenodd" fill-rule="evenodd"/>
	<polygon points="310.2 117.7 311.6 118.8 291.9 146 290.6 145.1" clip-rule="evenodd" fill-rule="evenodd"/>
	<polygon points="292.8 146.6 293.8 147.8 322.6 121.3 321.5 119.8" clip-rule="evenodd" fill-rule="evenodd"/>
	<polygon points="294.5 148.7 295.4 150.2 333.8 125.1 332.9 123.2" clip-rule="evenodd" fill-rule="evenodd"/>
	<path clip-rule="evenodd" d="m321.4 249.6l2.1 5.3h-1.7l-2.3-5.3h1.9m14.7 0l2.2 1.2s-1.6 1.8-3 1.9c-1.5 0.1-4.6-0.8-7.3-1.9-0.6-0.3-1.4-0.7-2.2-1.2h10.3m15.8 0c-2.1 1.3-5.1 2.6-7.7 2.6-3 0-4.2-1.9-4.2-1.9h-1.2l-0.1-0.7h13.2m16.1 0v5.4h3.6v-5.4h2.6v5.4h3.3v-5.4h2.9v5.4h3.7v-5.4h2.4v5.4h3.6v-5.4h3.2v5.4h3.6v-5.4h2.5v5.4h3.8v-5.4h2.5v5.4h3.9v-5.4h2.2v5.4h3.5v-5.4h4.2v7.6h-57.8v-7.6h6.3" fill-rule="evenodd"/>
	<path clip-rule="evenodd" d="m323.2 242c0.9 1.3 1.9 2.5 2.4 2.8 0.7 0.3 1.7 0.2 1.7 0.2v0.9l0.8 0.5s0.6-1.6 1.2-2.1c0.5-0.5 0.9-1.3 0.9-1.3s-0.3-0.4-0.8-1h8c-0.5 0.3-1.1 0.6-1.4 0.6-1 0-1.6 1.7-1.8 2.7s-1.9 2-1.9 2 1 0.7 2.7 1.6l1.1 0.6h-10.3c-2.7-1.7-6-4.2-6-4.2l1.6 4.2h-1.9l-2.9-7-0.1-0.6 6.7 0.1m20.3 0c0.5 1 0.4 2 0.4 2l-1 1.2-0.7-1.4s-1.2 1.2-0.5 2c0.7 1 2.2 1.1 4.3 0.5 2.2-0.7 5.2-2.1 7.3-4.4h6.6c-1.6 1.8-5.4 5.7-7.1 6.9l-0.9 0.6h-13.2l-0.1-0.6-0.7-1v-1.6l-0.9-1s0.4-0.9 1.2-1.7 2.5-1 2.5-1l-0.4-0.6h3.2m76.2 0.1v7.5h-4.2v-0.5h-3.5v0.6h-2.2v-0.6h-3.9v0.6h-2.5v-0.6h-3.8v0.6h-2.6v-0.6h-3.6v0.6h-3.2v-0.6h-3.6v0.6h-2.4v-0.6h-3.7v0.6h-2.9v-0.6h-3.3v0.6h-2.6v-0.6h-3.7v0.6h-6.1v-7.6h57.8m-52.1 0.8v2.9h47.6v-2.9h-47.6" fill-rule="evenodd"/>
	<path clip-rule="evenodd" d="m319.9 227c0.3 1.7 0.2 3.6 0.2 3.6s1.6 0.3 2.8 0.8c1.3 0.6 1.7 1.6 1.7 1.6s-2 1.8-2.9 2.9c-0.9 1 0 3.6 0.9 5.2 0.2 0.3 0.4 0.6 0.6 1h-6.7l-0.1-0.4s-2.8-4.6-3.4-6.1c-0.6-1.6-1.2-4.3-1.2-4.3l-1.8-4.3h9.9m4.7 0l3.3 5.3s0.3-2.4 0.6-3.4c0.4-1 1.1-1.9 1.1-1.9h15.4c-0.3 0.5-0.6 1-0.9 1.6-1.3 2.8-3 5.7-2.8 7.5s0.9 4.4 1.8 5.6c0.1 0.1 0.2 0.3 0.3 0.4h-3.1l-0.4-0.6-0.5-1s-1.2 1-2.2 1.6h-8c-0.8-1-1.8-2.5-2.1-4-0.4-2.2-0.3-4.1-0.3-4.1l-4.3-7h2.1m40 0c-0.9 1.3-2 2-2 2s0.2 0.5 0.8 0.5c0.7 0 1.5-0.1 1.5-0.1s0.2 1.4 0.8 2.4c0.6 1 2.3 1.4 2.3 1.4v-6h4.6v0.1h37.5v-0.1h3.5v11.1h-45.8v-2.3l-2.7-2.4s-1 1.3-1.5 2.7c-0.6 1.5-0.7 3-0.7 3h56.8v2.9h-57.8v-2.9s-0.7 1.2-1.4 2.2c-0.1 0.1-0.4 0.4-0.6 0.7h-6.6c0.1 0 0.1-0.1 0.1-0.1 2.1-2.3 4.1-3.6 4.3-5.1s-0.4-2.9-1.7-3.9c-1.4-1.1-1.8-2-1.8-2s-1.7-2.5-2.8-3.3c-0.3-0.1-0.5-0.4-0.7-0.6h13.9m8.6 2.9v6h4.3v-6h-4.3m31.2 0v6h4.4v-6h-4.4m-2.3 0h-3.2v6h3.2v-6m-9.5 0v6h3.3v-6h-3.3m-5.9 0v6h3.3v-6h-3.3m-6.1 0v6h3.4v-6h-3.4m-22.4-0.1l0.3 2.3 1.5 0.3v-2.4l-1.8-0.2" fill-rule="evenodd"/>
	<path clip-rule="evenodd" d="m305.8 211.9l5.8 14s0.2-0.7 0.2-1.4c0-0.8 0.5-4.9 1.5-6.7s1.8-3.1 1.8-3.1l-1.6-2.7h2.4l1.1 1.8s0.9-0.5 1.9-1.1 4.4-1 5-0.7c0.7 0.2 0.9 1.7 0.9 1.7l1.2 1.2c0.7 0.7 2 2.8 2.4 3.5 0.5 0.7 0.8 1 1.2 1.6 0.3 0.6 1.2 1 1.7 0.8 0.5-0.3 0.5-1.2 0.2-1.7-0.3-0.6-1.8-1-2.4-1.7s-0.7-1.6-0.7-1.6l-3.1-3.8h2.3l1.8 2.2s2.3-1.1 3.7-1c1.5 0.1 2.9 0.5 4.4 2.7 1.6 2.3 1.3 6.6 1.3 6.6s0.9 0.9 1.4 0.9c0.6 0 0.3-2.6 0.3-4 0.1-1.4 0.3-3.2 1-3.9s1.7-1.5 1.7-1.5l-2.4-2.1h2.8l1.2 1s0.3-0.4 0.9-1h4.2c-0.1 0.2-0.1 0.5-0.1 0.7 0 0.7-0.4 1.5-0.4 1.5l-0.9 0.8-0.1 1 7.1 6.5s2.7 0 3.3 0.2c0.5 0.2 1.2-0.1 1.2-0.1s0.6-2.2 0-3.6c-0.6-1.4-1.1-4-2.1-5.1-0.4-0.5-0.9-1.2-1.5-1.9h11l5.6 3.4v-3.4h35.5v8.6h-35.3l-0.1-3.1-6-3.7s-0.7 2-0.3 3.4c0.2 0.7 1 0.8 1.9 1.5 0.8 0.7 0.9 2.2 0.9 2.2s-0.9-0.7-1.7-0.7c-0.7 0-1 1.3-1.2 2.4-0.2 1-0.9 3.1-1.8 4.4v0.1h-14c-0.8-0.8-1.2-1.7-1.2-1.7l-1.8-1.2s-1.3 1-2.5 2.9h-15.4l-0.2-2.6-1.2-1.2v-0.7l-1.5-1-0.2-0.7s-1.1-1.2-1.4-2.1-1-2.5-1-2.5l-1.7-0.8-0.9-0.1-0.7 1-0.7 0.4h-0.5l-0.2 1.8 5.2 8.4h-2l-3.5-5.9s0.2 3.1 0.7 5c0.1 0.3 0.1 0.6 0.1 1h-9.9l-6.1-15.1h1.5m62.2 15.1v-5.2h45.6v5.2h-3.5v-2.2l-37.5-0.1v2.3h-4.6m12.3-12.7v3.7h3.2v-3.7h-3.2m6.1 0v3.7h2.9v-3.7h-2.9m5.7 0l0.1 3.7h2.9v-3.7h-3m6.5 0v3.7h3.1v-3.7h-3.1m-46.3 7.5l-0.2 3 1.2 1 1.4-1.7-2.4-2.3" fill-rule="evenodd"/>
	<path clip-rule="evenodd" d="m299.5 196.8l6.3 15.1h-1.9l-6.2-15.1h1.8m7.1 0l9.2 15.1h-2.4l-8.9-15.1h2.1m8.8 0l12.2 15.1h-2.3l-12.3-15.1h2.4m11.6 0l-0.1 0.1 16.7 14.9h-2.8l-16.1-14.7-2.2-0.3h-0.1 4.6m17.4 0l3.7 2.2s0.5-0.5 0.9-1.7c0-0.1 0.1-0.3 0.1-0.5h7.5 0.1c0.5 0.2 2.1 1.2 2.7 1.4 0.7 0.1 1.4-0.3 2.4-0.5 0.5-0.1 1.3-0.5 1.9-0.8h6.6l9.2 3.9v-3.9h6l0.1 2.7h3.1v-2.7h3.4l0.1 2.6h3.1v-2.6h5.8v3.9h-20.5v1h27.8v10.1h-35.4v-10l3.2-0.1-5.8-2.9-0.1 1.6s-0.5-0.4-1.2-0.7c-0.7-0.2-1.9 0.3-2.5 1.1s-1.5 1.7-1.7 2.9c-0.3 1.3-0.1 3.1 0.1 4.2 0.3 1.1 0.7 2.9 0.7 2.9l1.7 1h-11c-0.8-0.9-1.6-1.7-2.3-2-1.4-0.4-2.4-0.4-3 0.3-0.5 0.5-1 1.1-1.2 1.7h-4.2c0.7-1 1.9-2.4 2.2-3.3 0.5-1.4 0.5-4.2 0.3-4.8s-2.7-1.4-3.6-1.7c-1-0.3-3.7-1-3.7-1l-1.2-1.5s-1.5-0.7-3.2-1.9c-0.3-0.2-0.6-0.6-1.1-0.8h9m35.6 10.5h21.4v-2h-21.3l-0.1 2m-23.7-7.8l-1.7 1.4-0.8 2.1s1.6 1.2 2.2 1.4c0.5 0.3 1.8-0.9 2.6-1.9s0-1.5-0.5-2.2c-0.6-0.9-1.8-0.8-1.8-0.8" fill-rule="evenodd"/>
	<path clip-rule="evenodd" d="m297.8 196.8l-8.9-21.7 1.4-0.7 9.3 22.4h-1.8m6.7 0l-13.6-22.9 1.3-0.7 14.3 23.6h-2m8.4 0l-4-4.9s-1.7-0.7-2.2-1.2-0.5-1.7-0.9-2.5c-0.3-0.8-0.9-1.4-1.4-1.7-0.4-0.3-0.9-0.1-0.9-0.1l0.1-1-10.9-13.1 1.2-0.9 11.8 13.8s0.7 0.1 1.6 0.7 2.8 2.5 2.8 2.5l2.3-0.3 0.2-0.5-1.3-0.5-0.4-1.6-2.4-2.4c-1-1-5.6-4.7-5.6-4.7h-1.5l-0.2-0.6 0.6-0.7-7.2-6.8 1-1 8.2 7 0.8-0.5 2.3-0.5-10.8-7.3 0.8-1.1 7.3 4.5 1.5 0.1 0.4-0.9 0.4-0.7-9.5-4.4 0.8-1.3 10.7 4.9 1-0.2s1.4 0.1 1.8-0.3c0.5-0.3 0-1.8 0-1.8l-13.5-3.9 0.6-1.5 10.3 3s2.2-0.1 3.3 0c1 0.1 2.2 1 2.2 1l1.2 0.1-0.1-2.7-16.6-2.2 0.1-1.4 14.2 1.8 0.1-1.1 0.5-0.4 1-1.2-0.5-0.5-15.6 0.3v-1.4l14.8-1-0.8-1s1.3-0.9 2.2-1.2c0.8-0.4 1.2-1.6 1.2-1.6l-17.5 3.7-0.2-1.3 19.6-4.8 0.1-2.2s-1.4-0.8-1.3-1.2 1.1-1.9 1.1-1.9l-20.6 8.5-0.6-1.4 25.1-10.9 1.4-1.5h1.7l23.7-10.1 0.9 1.9-25.8 10.9v3.7s0.6 0.3 0.9 1c0.3 0.6 0.8 1.4 0.8 1.4l40.4-9.2 0.5 2-17.1 3.8s4.6 3.1 6.3 5.1 2.9 4.9 2.9 4.9l24.1-1 0.2 1.9-23.6 1s-0.4 2.2-0.9 3.4c-0.6 1.3-1.5 2.7-1.5 2.7l0.5 1.2c0.2 0.5 0.5 1.4 0.5 1.4s1.4-0.2 2.4-0.7c1-0.5 3.1-0.5 3.1-0.5s0.1 1-0.5 1.4c-0.5 0.3-0.6 1.5-0.6 1.5l25.1 3.1v-3.1l4.1-4.1 4.3 4.3v11.7l6.1 6.1v11.9h-5.8v-0.9h-3.2v0.9h-3.4v-0.5h-3.3l0.1 0.8h-6v-10.7l-21-6.3-1.5 0.7s-0.2 1.5-1 2.4-2.9 1.5-2.9 1.5 0 3.1 0.1 3.7c0.1 0.7 0.7 1.4 0.7 1.4l16.4 7.3h-6.6c0.3-0.2 0.5-0.4 0.5-0.4l-0.6-0.6-9-4.1s0.5 1.2 0.5 2.6c0 1.3 1 2.1 1.5 2.4h-7.5c0.4-1.4 0.7-3.7 0.5-5-0.3-1.5-1.3-2.9-1.3-2.9l-11.2-5s-0.3 1.2-0.7 2.1c-0.3 0.7-1.2 1.7-1.3 2.7s0.3 2.7 0.3 2.7l9 5.3h-9c-2-1.6-5.4-4.1-5.4-4.1l-1.6-0.2v1.6s-0.1 0.5-0.4 1.2c-0.3 0.5-0.8 1.2-1 1.6h-4.6l-1.3-0.9-1.7-0.1-1.4-1.2-5.4-1.2 2.7 3.4h-2.8m47.3-28.1s0 2.5-0.5 4.4-1.4 5-1.4 5l21.6 6.6 6.6-6v-6.9l-26.3-3.1m22.9 24.6v1.1h14.4v-1.1h-14.4m7.5-17.5l-0.8 1.6v2.5h2v-2.5l-1.2-1.6m-2.3 11.4l0.1 1.1h0.7v1.1h2.7l0.2-1.3 1.2-0.1v-0.8h-4.9m-66.2-29.7l0.1 3.6 1.3-0.1 0.2-1.5 0.7-0.4-0.1-1-2.2-0.6m1.8 13.7l-1.9 1.8 2 1.6 1.8-2-1.9-1.4m-7.9 5.6l0.7 0.9 0.3 1.3h0.9l0.3 1.1h1.3l0.1-1.4-0.7-0.3 0.2-0.7-1.7-1.5-1.4 0.6m11.9 4.9l-0.2 1.1-0.7 0.3 0.2 0.9h0.6l0.4 1 1.5 0.1-0.1-3.5-1.7 0.1m4.4-6.9l0.1 1.6 2.9 0.1 0.2-1.5-0.9-0.1-0.7-1h-0.7l-0.2 0.9h-0.7m-18.4 8.8s0.3 2.4 1.5 3.1c1.1 0.7 2.8 1.7 3.9 1.9 1.2 0.3 2.4 0.3 2.4 0.3l0.5 0.7s1 0.2 1.5 0.1 1.2-0.1 1.2-0.1-0.1-1.4-0.6-2c-0.5-0.5-1.2-0.3-1.9-1-0.8-0.7-1.5-1.7-1.5-1.7l-2.5-0.2-0.5-0.5h-1.6l-0.5-0.5h-1.9m30.7-16.2l0.3 1.4h0.9l1.2-1.4v-0.7h-1.1l-0.6 0.5-0.7 0.2m8.2-3.8l-0.2 1.2 0.7 0.2 0.6 1h0.9l0.1-1.3-1-1-1.1-0.1m-2.4 14.1l0.7 1.2 0.8 0.5 0.8-1.2-2.3-0.5m-10.7-2.8s0.7 1.7 0.5 2.7c0 1 0 1.3-0.9 1.6-0.8 0.4-1.7 1.2-1.7 1.2s1.2 1.9 1.9 2.4c0.7 0.5 8.6 3.9 8.6 3.9l0.2-1.9s-2.2-2-2.9-3.4-0.8-2.4-1-3.3c-0.2-1-1-2.3-1-2.3l-3.7-0.9m-9.6-10.1s-2.4 0.5-2.8 1.6c-0.5 1 0.9 2 1.7 2 0.7 0 2.5-0.1 3 0.3 0.6 0.4 0.4 1.4 0.4 1.4l2 0.1v1.5l8.7 2.4s0-1.2-0.2-2.2c-0.3-0.9-1.2-1.6-1.9-2.6s-2-1.2-2.9-0.9c-0.7 0.3-1.6 1.4-1.6 1.4s-0.3-1.3 0-2.4c0.3-1 1.2-1.7 1.2-1.7l-7.6-0.9m1.5-7.6s0.4 0.7 1 0.9 1.4 1 1.4 1-0.7 0-1.3 0.1c-0.5 0.1-0.5 0.6-1.3 0.9s-1.7 0.5-1.7 0.5l0.1 2.6 10.1 1.1s3.3-1.1 5.6-3.1c2.2-2 3.1-4.4 3.1-4.4l-17 0.4m-3.6-8.1s1.5 0.8 3.4 2c2 1.3 3.6 2.3 3.6 2.3l-1.3 1.9 15.1-0.5s0-2.8-0.9-5.1-0.3-2.1-1.5-2.9-2.9-1.4-2.9-1.4l-15.5 3.7" fill-rule="evenodd"/>
	<path clip-rule="evenodd" d="m215 292.1s4.6-2.5 7.3-4.4 2.9-4.3 2.9-4.3 0.5-0.2 1.2 0.2c0.7 0.5 1 0.8 1 0.8s0.7-2.6 0-4.2c-0.7-1.6-1.4-2-2.3-2.3-0.9-0.2-2.7 0.2-2.7 0.2s0.3-2.1 2.9-3.5c2-1 3.9-0.5 5 0.3 1 0.8 2.7 3.9 2.7 3.9s1.4-2.2 0.3-3.5c-1-1.4-3.8-4.2-3.8-4.2s2.1-1.8 3.1-3.5c0.9-1.7 1.7-3.7-0.8-5.5-2.8-1.9-5.4 1-5.4 1s-0.7-2.4 1.2-4.1c2-1.7 4.6-1.5 6.3-0.7s3.3 1.8 3.9 2.9c0.5 1.2 1.4 2.9 1.4 2.9s1.9-1.4 1.8-3.3c-0.1-2-2.4-5.1-2.4-5.1s0.9-0.5 1.9-1c1-0.4 2.2-1.4 2.2-1.4s3.1 4.1 3.3 7.2c0.3 3.2-0.9 5.4-2.1 6.9-1.3 1.6-4.4 2.9-4.4 2.9s0.8 2.4 0.3 5.4c-0.6 2.9-2.2 4.8-4 7.1s-4.8 5.5-8.4 7.2-6 3.1-8.3 3.4c-2.6 0.8-4.1-1.3-4.1-1.3z" fill-rule="evenodd"/>
	<path clip-rule="evenodd" d="m186.1 360.8c0.9 0.5 1.9 1.3 2.2 2 1.1 1.7 1.9 2.7 1.7 4.4-0.1 1.8-1.1 4.1-2.6 5.3-1.5 1.1-3.4 3.4-3.4 3.4h-16.8s-1.8-2.4-3.3-3.5c-1.4-1.1-3.1-3.3-3.1-5.6 0-2.4 1.6-4.3 3-5.4 0.2-0.1 0.4-0.3 0.6-0.5h21.7m-18.9 2.9s-2.3 0.8-2.3 3.1 2 2.9 2 2.9h17.3s2.1-0.5 2.1-3.1-2.4-2.9-2.4-2.9h-16.7" fill-rule="evenodd"/>
	<path clip-rule="evenodd" d="m157 345.7c-1.1 1.8-1.5 2.2-1 3.3 0.6 1.2 2.7 0.9 2.3 2.6-0.3 1.7-1.6 3.5-4.2 3.5s-6.4-1-6.6-6.6c0-1.1 0.1-2 0.3-2.8h9.2m25.6 0c-1.1 1.5-1.2 3.1-1.2 3.1s1.6 1.6 2.5 3.3c1 1.7 0.5 2.6 0.5 3.4s-0.7 2.8-0.7 2.8l0.3 1.2s1 0.5 2 1.2h-21.7c1.2-0.8 2.2-1.2 2.2-1.2v-1.4s-1.7-1.5-1.8-3.2 2-3.7 2-3.7l1.8-2.5v-1.7s-0.4-0.7-1.1-1.4l15.2 0.1m20.5 0c-0.2 2.3-1.4 4.3-2.5 5.4-1.4 1.4-2 2.7-4.8 2.9-2.7 0.3-4.6-0.5-5.4-1.9s-1.4-2.7-0.2-3.3 2.5-0.3 2.5-0.3 2.5-0.2 2.5-2.8h7.9m-28 7.4c-1 0-1.7 1-1.7 1.8s1 1.4 1.8 1.4 1.6-0.8 1.6-1.6c0-0.7-0.7-1.6-1.7-1.6m-6.5 7.3l13.7-0.1v-0.9s-4.3-0.8-7-0.8-6.7 1-6.7 1v0.8" fill-rule="evenodd"/>
	<path clip-rule="evenodd" d="m163.9 323c2.5 2.8 7.4 9.4 7.4 9.4v-7.5s-1.1-0.6-2.6-1.9h11.9c-1.8 1.6-3.3 2.7-3.3 2.7v5.6s0.6 0.5 1.6-0.5c1-1.1 2.4-5.2 5-7.8h7.8c-1.3 0.7-2.6 1.4-3.5 2.3-2.2 1.9-3.7 3.5-5.5 6.1s-2.1 5.1-2.6 6.3c-0.5 1.3-0.7 3-0.7 3s2.9-2.1 6.6-3.3c3.7-1.2 7.7-2.5 11.2-0.7s5.6 3.9 6 7c0.1 0.7 0.1 1.3 0 1.9h-8c0-0.3 0-0.7-0.1-1.1-0.8-3.6-5.6-2.9-7.5-2.2s-3.9 1.9-5 3.3h-15.1c-0.9-1.1-2.4-2.2-4.1-2.3-3-0.1-5.2 0.2-6.4 2.1 0 0.1-0.1 0.2-0.1 0.2h-9.1c1-3.5 3.7-5.3 6.1-6.4 2.8-1.3 6.1-2 9.8-1 3.7 0.9 6.8 3.4 6.8 3.4v-3.9s-0.6-2-4.1-5.6c-3.5-3.5-6.3-5.8-10.5-6.8-4.1-1-7-0.7-8.6 0.1-1.6 0.9-2.8 2.4-3.2 4.5-0.3 2.1-0.2 3.4 0.7 4.4s1.6 1.6 1.6 1.6-2.1 0.5-3.8-1c-1.7-1.6-2.2-3.5-2.2-5.2s-0.1-2.9-0.1-2.9-0.8 4.3-1.8 6.1c-1 1.8-2.3 3.8-5.4 4.4-3.1 0.7-6.3-0.5-8.7-2.7s-3.4-4.2-2.9-6.6c0.4-2.4 2-3.7 2-3.7s0.4 4.6 4.1 4.6c2.5 0 6.1-3.2 9.3-6h27m59.2 0.1c-1.7 1.8-3.7 3.6-6.3 4.3-3.8 1-5.6 0.6-6.7-0.2-1.1-1-2.4-3-2.4-3s-0.7 2.7-1.8 3.9c-1.2 1.3-1 1.9-2.7 2.6-1.6 0.7-2.9 0.6-2.9 0.6s3.9-3.1 2-6.3c-0.5-0.7-1-1.3-1.4-1.9h22.2" fill-rule="evenodd"/>
	<path clip-rule="evenodd" d="m129.2 300.4c-0.8 0.3-1.2 0.8-1 1.4 0.5 1.3 3 3.9 2 4.8-0.9 0.9-3.1 0.5-4.6-0.2-1.5-0.8-2.8-2.7-2.7-4.4 0-0.5 0.2-1 0.4-1.6h5.9m22.8 0c-3.9 1.2-8.2 2.3-11.5 1.6-3.2-0.6-4.7-1.1-6.9-1.6h18.4m11.1 0c0 0.2 0.1 0.3 0.2 0.6 0.9 1.6 1.6 3.4 2.3 5.4s1.2 7.7 2 9.2c0.9 1.6 3.9 4.1 3.9 4.1v-19.3h5.8v19.3c0 0.8 1.9 0.6 3.2-1.9 1.2-2.5 2.4-6.7 3.1-10 0.8-3.3 3.1-5.2 3.9-6.5 0.2-0.3 0.4-0.6 0.5-0.9h4.1c0.6 1.4 0.7 2.8 0.2 5-0.9 3.5-1.9 5.3-4.2 8.5-2.2 3.1-3.9 5.6-6.1 7.9-0.4 0.5-0.9 0.9-1.3 1.3h-11.9c-0.9-0.8-2-1.9-2.9-3.3-2.3-3.4-6.1-7-6.8-10.6-0.7-3.7 0.2-6.6 1.1-8.2 0.1-0.2 0.2-0.3 0.4-0.6h2.5m51.5 0c-0.5 0.5-1.2 0.8-1.9 0.9-1.6 0.1-2.6 0-3-0.9h4.9m-77.6 22.6c1.5-1.2 2.9-2.4 4.1-3.1 3.9-2.3 6.6-3 10.5-3 3.8 0 9.5 3.2 11.7 5.4 0.1 0.2 0.3 0.4 0.6 0.6h-26.9m46.8 0.1c0.1-0.1 0.3-0.2 0.4-0.3 2.7-2.6 6.1-5.9 11.7-8.2s10.2 0.1 12.7 1.2c2.4 1.1 5.7 3.5 8.7 4.1 3.1 0.6 3.2 0.5 5.3-0.5 2.2-1 4.4-2.7 4.4-2.7s0.1 2.4-1.9 4.4l-2 2h-22.1c-1.4-1.5-2.7-1.8-4.6-1.6-1.4 0.2-3.2 0.8-4.9 1.6h-7.7" fill-rule="evenodd"/>
	<path clip-rule="evenodd" d="m120.9 285.3c0.1 0.2 0.1 0.3 0.2 0.4 1 2.2 1.5 3.7 2.2 4.2s1.8 0.1 1.8 0.1-0.6-0.5-1.3-2.2c-0.5-0.9-0.8-1.7-1.2-2.6h7.7v0.3c-0.1 2 0.3 4.4 0.3 4.4s1.1-0.9 3.4-1.6c2.3-0.7 4.5-0.8 5.5 0s0.8 2.3 0.6 3.1c-0.3 0.8-1.5 0.5-2.6 1-1.1 0.4-2.6 1.4-1.4 2.2 1.1 0.8 2.4 2.9 6.1 2.9 3.6 0 5.4 0 9.6-1.6 4.2-1.5 5.8-3.1 6.6-3.8 0.8-0.8 0.9-1.2 0.9-1.2s-2.2-2.2-3.5-4.3c-0.3-0.5-0.6-1-0.9-1.4h4.6s0 0.1 0.1 0.1c0.4 1.7 1.9 3 3.1 2.6 1.1-0.3 2.5-0.7 2.5-0.7l1.5-2h4.3l-1.1 1.8-2.9 4.7s0.4 0.5 1 0.9c0.7 0.3 2.2 0.5 2.9 0.5s1-1.6 1-1.6v-6.2h5.4l-0.1 6.9s0.3 1.5 1 1.6 2.5-0.1 3.7-1c1.2-0.7 3.9-2.7 3.9-2.7l-5.7-4.8h5.9l2.1 1.6s1.2-0.2 2-1.2c0.1-0.1 0.1-0.2 0.2-0.4h4.9c-0.1 0.3-0.3 0.5-0.4 0.7-0.8 1.3-2.1 2.9-2.1 2.9s2.1 1.7 5.2 2.5c3.2 0.7 4.7 0.7 6.8 0.2 2.2-0.5 4.5-0.8 4.7-1.7 0.3-0.9 1-1.5-0.3-2.4-0.9-0.7-1.7-1.5-1.6-2.2h6.9c0.1 0.3 0.2 0.6 0.3 1.1 0.2 2.2 0 3.7-0.5 4.8-0.6 1.2-1 1.4-1 1.4s1.4 0.3 2.3 1.4c0.9 1.2 1.6 3 0.8 4.4-0.4 0.8-1 1.6-1.6 2.1h-4.9v-0.1c-0.4-1 1.4-2 0.7-3-0.8-1.2-2-1.7-3.7-1.7-1.7 0.2-7.8 0.4-10.7-0.7-2.9-1.2-6.1-2.2-6.1-2.2s-3.5 2.4-6.2 3.6c-2.7 1.1-6.3 1.7-6.3 3.2v0.9h-5.8v-2.2s-2.2-0.5-4.5-1.4c-2.2-0.9-4.1-2.3-4.1-2.3s-5.6 4.1-9.7 5.4c-0.4 0.2-0.7 0.3-1.1 0.4h-18.4c-0.3-0.1-0.5-0.1-0.8-0.1-1.4-0.3-2.7-0.2-3.5 0.1h-5.9c0.6-1.5 1.6-3 1.6-3s-1.4-1.6-2.8-1.9c-1.4-0.3-4.1-1.1-5.8-4.1-1.5-2.4-1.8-3.9-2-6.1h6.2m39.6 15.1c1.2-1.4 3.3-2.8 3.3-2.8s-1.1 1.4-0.7 2.8h-2.6m27.5 0c0.6-0.8 1.2-1.4 0.8-2.3-0.5-1.1-0.9-3.2-0.9-3.2s0.9-0.1 2.6 2.6c0.7 1.1 1.2 1.9 1.5 2.8h-4" fill-rule="evenodd"/>
	<path clip-rule="evenodd" d="m114.2 285.3c-0.1-0.5-0.1-1.1-0.3-1.7-0.4-3.2-1.1-4.7-2.2-5.4-1.2-0.7-1.4-1-0.5-1.2 0.8-0.2 1.7-1.4 3.7-0.9 2 0.4 2.9 0.3 3.9 2.7 0.9 2.2 1.2 4.4 2 6.5h-6.6m8.4 0c-0.3-0.8-0.6-1.8-0.7-3-0.3-2.4 0.6-5.3 0.6-5.3s-1.1 0.1-3.3-1c-2.2-1.2-3.2-4.6-2.5-7.3 0.7-2.6 2.7-7.5 1.7-9.9-0.9-2.4-0.9-4.1-2.5-3.9-1.6 0.1-2.5 1.2-2.5 1.2s-2.2-1.2-2-2.7c0.1-1.6 0.5-3.5 3.6-4 3-0.4 5.4 0.1 6.4 1.5s2.3 3.4 2.3 3.4 1.8-3.2 2.7-5.9c0.9-2.7 1.8-5.8 0-7.7s-4.4-4.1-4.1-6.7c0.3-2.7 1.2-4.9 1.8-5.9l0.9-1.5s-2-2.7-4-4.5c-2-1.8-3.2-2.5-2.8-4 0.4-1.4 0.5-2.1 1.6-2.1 1 0 1.5 0.2 1 0.7-0.5 0.4-1.2 0.8-0.5 1.4 0.8 0.6 2 0.7 3.1 1.6 1.2 0.9 3.2 1.3 4 2.6 0.7 1.3 1.6 1.5 1.4 2.3-0.1 0.7 0 0.7 0 0.7l1.8-2.4s-0.9-2.9-0.9-4.7 0.3-5.2 1.6-8.2c1.2-3.1 2.7-5.2 2.7-5.2s0.2-0.7-0.1-1.2c-0.4-0.4 0-2.4-1.6-2.6-1.5-0.2-3-0.3-3-0.3s1.9-2.2 4.2-1.9c2.3 0.3 3.5 1.4 4.8 4.3 1.2 2.8 2.4 6.1 1.7 9.2s-1.4 4.6-3.2 6.8-4.9 4.2-5.8 5.9-1.4 2.8-1.4 4.3 1.2 4.8 1.2 4.8 0.7-3.6 1.5-5.7c0.8-2.2 2.5-4.2 4.3-5.6s2.7-2.4 3.7-2.2c1.2 0.1 3 1.1 3.5 3s0.7 4.1 0.2 5.1c-0.4 1-0.9 1.1-1.4 0.6-0.4-0.6-0.9-0.8-1.2-1.7s-0.3-2.1-0.3-2.1-0.6 0-1.1 0.6c-0.6 0.6-0.9 0.3-1.1 1.8-0.3 1.5-0.4 4.4-0.8 6.3-0.5 2-1.2 4-2.9 5.8-1.6 1.8-2.9 2-3.5 3.3-0.6 1.2-0.5 1.2-0.9 3.6s-1.2 3.5-2.2 5.6c-1 2-2.7 4.6-2.7 4.6s1.7-0.3 4.1-0.2c2.4 0.1 4.1 0.4 4.9 2.8s0.4 4.4-1.3 5.2c-1.5 0.8-3.3 1-3.3 1s0.8-1.6 0.3-2.6c-0.5-1-0.9-2.2-2.4-2-1.5 0.1-3.6 1.5-4.5 3.4-0.9 1.8-1.6 3.9-1.6 6.3s0.9 4.6 0.9 4.6 3.2-2.4 4.7-2.4c1.4 0 3.6 0.5 4.2 1.7 0.6 1.3 0.1 1.7-0.5 2.3-0.7 0.6-2.5-0.3-2.9 0.6-0.5 0.8-0.8 2.2 0.2 3.6 0.9 1.4 1.6 2.2 1.6 4h-7.7m32.2-0.1c-0.9-1.4-1.8-2.3-1.8-2.3h-15.7v-23.1h73.7v22.4l-15.1 0.8s-0.3 1.1-0.8 2.1h-4.9c0.6-1 0.9-2.4 0.9-2.4h-8.4l3.1 2.4h-5.9l-2.8-2.4-0.1 2.4h-5.4v-1.5l-0.9 1.5h-4.3l1.8-2.4h-8.4s-0.9 0.7-0.5 2.4h-4.5m52.7 0.1c0-0.3 0.1-0.5 0.4-0.8 1-0.9 3.6-1 4.6-0.5 0.8 0.3 1.6 0.3 1.9 1.4h-6.9m-64.4-23l-2.2 2.1 3.2 1.2-0.1 1.3 2.8 0.1 2.4-1.8 1.9 1.2 0.5 1h1.8l0.3-0.8 1.6-1.4h0.9s1 0.8 1.8 1.4c0.8 0.7 1.5 1.8 1.5 1.8h4.3l3.2-2c0.8-0.5 1.6-1.5 1.6-1.5l0.6-0.4 1 1.3 1.3 1.1h1.7l1.8-1.1 0.5-1 1.6 0.1 1.6 1.9 1.7-0.1 1.8-1 1.2-0.9 2.5 1.7 0.9 0.8h1.6s2.2-1.5 3-2c0.7-0.4 2.8-0.7 2.8-0.7s1.4 0.6 1.8 1.2c0.5 0.6 1.2 1.5 1.2 1.5h0.8s0.5-1.2 1-1.5c0.6-0.3 1-0.9 1-0.9l1.4-0.1 1.6 1.7 1.7 0.2 0.3-1.7 1.4-0.2 2.5-0.7-1.5-1.2-1.4-0.9h-62.9m62 9.3l1-0.2 0.8-1.2 0.6 0.5 2 0.2v-1.2l-1.1-1h-2.7l-1.9 1.2h-1.5l-0.4-1.2h-3.3l-1.1 1.3-0.8 0.1-1.2-1.5h-3.3l-2.9 2.9 0.1 6.3h2.8v-6s0.5-0.9 1.5-0.9 1.5 0.9 1.5 0.9l0.1 6h3.2v-6.1s0.9-1 1.7-0.9 1.7 0.7 1.7 0.7v6.2h3.2v-6.1m-21.7 6.3h2.6v-6.5l-2.5-2.7h-2.8l-0.8 1.3h-2.1l-1-1.3h-3.1l-1.1 1.5-1.3-0.1-1.1-1.3h-3.1l-2.9 2.4v6.8h2.9l0.1-5.8s0.6-1.2 1.7-1.2c1.2 0 1.3 1.3 1.3 1.3v5.6h3.5v-5.7s0.5-1.3 1.7-1.3c1.3 0 1.7 1.4 1.7 1.4v5.6h3.4v-5.7s0.6-1 1.7-1 1.1 1.1 1.1 1.1l0.1 5.6m-44.5-6.3l1.8 0.2s0.4-0.8 1.4-0.8c0.9 0 1.4 1.4 1.4 1.4v5.6h4.4v-5.5s0.2-1.5 1.4-1.5c1.1 0 1.4 1.5 1.4 1.5v5.5h3.7v-5.3s0.1-1.3 1.3-1.3c1.1 0 1.4 1.3 1.4 1.3v5.3h3.5v-7.8h-2.4l-0.9-1.5h-2.5l-1.9 1.3-1 0.1-0.3-0.6h-1l-0.7-0.9h-1.6l-1.9 1.9h-2l-1.6-1.9h-2.4l-1.5 1.5v1.5" fill-rule="evenodd"/>
	<path clip-rule="evenodd" d="m379.3 350.7c-0.3 0.3-0.6 0.5-1 0.7-2.3 1.2-4.3 0.5-6.2-0.7h7.2m23.5 0c-0.1 1.7-0.5 4.6-0.5 4.6l4 2.2 2.3 2.6-0.1 6.5s-1.6 1.4-2.9 2.7c-1.2 1.4-4.8 4.1-4.8 4.1l-14.3-0.4-7.3-7.3 0.3-5.1 5-5.6s-0.5-2.1-0.5-4.3h18.8m15.3 0c-1.7 1.2-3.5 1.4-5.7 0h5.7m-32.7 9.5s-2.5 0.7-2.5 3c0 2.4 2.4 3 2.4 3h16.8s2.3-0.9 2.3-3.1c0-2.3-2.5-2.8-2.5-2.8h-16.5m8.3-8.9c-1 0.1-1.4 0.8-1.4 1.6s0.8 1.7 1.9 1.7c1 0 1.2-1.2 1.2-1.9s-0.6-1.6-1.7-1.4m-7.2 6.1h14.1l-0.1-0.9s-4.5-0.6-6.8-0.6-7.2 0.6-7.2 0.6v0.9" fill-rule="evenodd"/>
	<path clip-rule="evenodd" d="m369.2 328.1c1 0.6 1.9 0.9 1.9 0.9s-1.6 0.5-3.2 0.2c-0.9-0.1-1.5-0.5-2.2-1.1h3.5m18.6 0c1.1 2.3 1.8 4.2 1.8 4.2v-4.2h6.7l0.1 4.6s0.7-1.2 1.5-2.9c0.2-0.4 0.5-1 1-1.7h6.1c-4.4 3-6.7 6-6.7 6v2.9s4.6-2.9 7.3-3.4c2.7-0.4 5.9-0.5 9.3 0.8 3.4 1.4 6.3 3.9 7.1 7.1 0.7 3.3-0.5 6-2.7 8.1-0.5 0.4-0.9 0.8-1.3 1h-5.7c-0.2-0.1-0.3-0.2-0.5-0.3-3-2.2-0.5-4.9 0.7-5.4 1.3-0.6 1.9-0.2 1.9-0.2s0.3-0.4 0.3-1.4c0-0.9-1-2-2.9-3.1-2-1-4.7-0.9-7.3-0.1-2.6 0.7-4.7 3.5-4.7 3.5s1 0.8 1.8 1.9c0.7 1 1.2 3.2 1.1 4.8v0.3h-18.8c0-0.8 0.1-1.6 0.3-2.2 0.7-2.5 2.9-5.3 2.9-5.3s-2.5-3.4-4.5-4.3c-2-0.9-4.7 0-7.1 1.6-2.2 1.5-0.2 5.4-0.2 5.4s2.7-0.9 4.5 0c1.5 0.8 1.2 3.2-0.6 4.8h-7.2c-0.5-0.3-0.9-0.5-1.3-0.9-2.2-1.8-3.8-4.3-3.1-7.8 0.7-3.4 5.6-7.5 10.6-8.4s10 2.7 10 2.7-2.7-4.9-5.2-8.3l4.8 0.2m42.1 0c-0.3 0.5-0.8 1-1.7 1.6-2 1.2-3 2-3 2s-0.3-1.2-0.1-2c0.1-0.5 0.5-1 0.8-1.6h4m15.7 0c-0.5 0.5-1.2 1.1-1.8 1.6-3 2.4-7.1 2.5-9.1 1.5-1.2-0.6-1.8-1.8-2.1-3.1h13" fill-rule="evenodd"/>
	<path clip-rule="evenodd" d="m375.7 313c3.3 1.8 5.9 4.9 7.7 7.1 1.5 1.8 3.1 5.2 4.3 7.9h-4.6c-0.6-0.8-1.2-1.5-1.6-2-2.7-3-6.1-5-9.3-5-3.1 0-4.9 2.5-4.9 4.5 0 1 1 1.9 2 2.5h-3.4l-1.4-1.4c-1.6-1.4-2.8-3.9-2.8-3.9s-4.3 3.9-7.7 3.6c-3.4-0.2-4.1-0.4-7-4.1-2.9-3.6-2.2-8.2-2.2-8.2s2.4 2.2 5.2 3.4c2.8 1.3 4.4 0 8.5-1.7 2.1-0.8 3.7-2 5.6-2.9h11.6m11.2 0.2c1.3 2.4 2.6 4.6 2.6 4.6v-4.6h6.7v2.9c0 0.8 0 1.8 0.9 1.7s1.9-1.6 3.3-2.9c0.5-0.5 1-1.1 1.3-1.7h5.2c-1.4 2.2-3.3 4.5-5.1 6.3-2.8 3.1-5.6 3.4-5.6 3.4v5.4h-6.7v-5.6s-1.6-0.8-3.4-2.6c-1.7-1.8-3.3-4.4-4.9-6.9h5.7m11.9 15.1c1.4-2.2 3.9-5.3 6.6-7.6 3.5-3.1 10.4-7.1 14.8-7.3 4.4-0.3 7.5 1.7 11 3.4 3.5 1.6 6.4 4.2 8.7 5.6 2.2 1.5 3.2 1 5.4-0.1s2.2-5.2 2.2-5.2 1 2.7 1.1 5.2c0.1 2-1.1 4.1-3 6h-13c-0.2-0.8-0.3-1.7-0.4-2.4-0.3-1.8-1.2-2.8-1.2-2.8s0 2.2-0.3 3.4c-0.2 0.7-0.3 1.2-0.7 1.8h-3.9c0.3-0.5 0.5-1.2 0.3-2.2-0.4-1.9-2.1-3.8-7.1-3.8s-8.2 2-13.1 5.3c-0.3 0.2-0.7 0.4-1 0.7h-6.4" fill-rule="evenodd"/>
	<path clip-rule="evenodd" d="m358 297.8c0.1 1 0.2 1.7 0.2 1.7s-1 0.3-2.3-0.3c-0.5-0.3-1.3-0.8-1.9-1.4h4m22.8 0c0.3 0.7 0.9 1.4 1.6 1.9 1.1 0.9 2.8 3.9 2.2 4.3s-0.7 1.5-0.1 3.7c0.3 1 1.3 3.2 2.5 5.3h-5.7c-0.1-0.1-0.1-0.2-0.2-0.4-1.6-2.6-4.4-8.3-4.8-10.2-0.2-1.2 0.1-3 0.5-4.6h4m15.5 0v15.2h-6.7v-15.2h6.7m12.4 0c0.1 0.3 0.3 0.6 0.5 1 1.5 3.3 0.3 6.5-0.4 9.9-0.3 1.4-1 2.8-1.9 4.2h-5.2c0.5-1 0.9-2 1.2-3.3 0.6-2 0-4.4 0-6.4 0-1.9 0.7-2.7 1.2-3.6 0.3-0.5 0.4-1.2 0.5-1.9h4.1m17.7 0.1c-0.1 0.1-0.3 0.1-0.6 0.1-2.1 0.3-4.3 0.3-6.5-0.1h7.1m19.2 0c-0.6 2.3-2.6 4-4.1 4.6-1.8 0.8-2.9-0.5-2.9-0.5s1.2-1.2 1.8-2.2c0.3-0.5 0.2-1.2-0.2-1.9h5.4m-81.7 15.2c1.8-0.9 3.9-1.7 6.6-1.6 1.9 0 3.7 0.6 5.2 1.6h-11.8" fill-rule="evenodd"/>
	<path clip-rule="evenodd" d="m342.3 282.8c1.6 2.4 4.2 4.1 6.5 5.6 2.9 1.8 6.8 2.2 6.8 2.2s-1.1-2.9-1.3-4.5c-0.2-1.5 0.1-2.5 0.5-3.2h6.4c0.4 0.3 0.6 0.7 0.6 0.7s-1.5 1.2-1.8 2.2c-0.3 1-0.2 2.7 2.2 3.4s4.4 0.3 8.4 0.1 6.7-3.1 6.7-3.1-1.4-1.2-2-2.4l-0.4-0.9h4.3c0.3 0.2 0.5 0.5 0.8 0.7 0.9 0.5 1.1 0.2 1.1 0.2l1.1-0.9h5.7l-3.6 3.9s0.4 0.7 1.4 1.5 1.9 1 2.7 1 1-1.2 1-1.2v-5.2h6.3l0.3 5.4s0.5 1.9 1.2 2.1c0.7 0.1 2-0.3 2.9-0.9s1.6-1.6 1.6-1.6-0.5-0.2-1-0.9c-0.5-0.6-3.2-3-4.5-4.1h6.1l2.1 2.5s0.7 0.7 1.6 0 1.7-1.5 2.2-2.3v-0.2h5.2c-0.2 0.5-0.5 1.1-0.9 1.7-1.2 1.8-2.9 3.6-2.9 3.6s2.9 2.4 6.3 3.5c3.4 1.2 6.7 1 10.1 1s6.1-2.1 6.7-3.2c0.5-1.1-0.5-1.1-1.2-1.8-0.8-0.7-4.2-1.4-4.5-2s1.1-2.2 2.8-2.8h3.3c1 0.3 2 1 3.3 1.5 2.5 1 4.7 3.5 4.7 3.5v-0.9s-1.4-2.2-1.8-3.1c-0.2-0.3-0.2-0.7-0.1-1.1h15c-0.5 1.8-1.3 3.6-2.7 5-2.4 2.4-5.4 2.4-6.4 2.5-1.2 0.1-1.5 1.4-1.5 1.4s2.2 1.5 2.2 4.6c0 0.6-0.2 1.1-0.3 1.6h-5.4c-0.4-0.5-0.9-0.9-1.5-1.3-1.5-1-2.9-0.7-5.2-0.3-2.2 0.5-4.6 1.3-7.1 1.6h-7.1c-0.5-0.1-1-0.1-1.5-0.3-2.6-0.5-4.9-2.1-7.6-3.7s-4.1-2.7-4.1-2.7-2.5 1.6-4.4 2.2c-2 0.5-5.4 2.4-5.4 2.4v2.2h-6.7v-2s0.1-0.1-0.4-0.8c-0.6-0.7-3.1-1.9-5.6-3.4s-3.6-1.9-3.6-1.9-1.7 0.9-3.4 1.6c-1.7 0.7-4.7 1-7.7 1.6-3.1 0.6-7.5 0.4-9 1-1.6 0.6-1.8 1.9-1.8 3.3 0 0.3 0 0.6 0.1 0.8h-4c-0.7-0.7-1.2-1.6-1.5-2.4-0.4-1.6 1-2.9 1-2.9s-2.8 0-4.8-0.3c-1.9-0.3-4.1-1.4-7.8-3.4-3-1.7-5.3-3.7-7-6.1h8.3m34.4 14.7c0.3-1.2 0.6-2.2 1-2.9 0.9-1.6 2.9-2.2 2.9-2.2s-0.4 2.5-0.4 3.5c0 0.5 0.1 1.1 0.5 1.6h-4m27.9 0c0.1-0.7 0.1-1.4 0.1-1.8 0.1-1 1.4-2.7 1.4-2.7s0.1 0.7 0.3 1.5c0.2 0.7 1 0.7 2.2 3.1h-4" fill-rule="evenodd"/>
	<path clip-rule="evenodd" d="m333.9 282.8c-0.4-0.5-0.7-1-1-1.5-1.9-2.9-2.8-4.5-3.5-8.2s0-4.7 0-4.7-1.7-0.5-2.4-1.1c-0.8-0.6-2.3-2.7-2.7-4.3-0.3-1.6-0.7-3.7-0.4-6 0.3-2.2 2.8-5.8 2.8-5.8l2.9 1.9s-1.8 4.7-1.7 6.9c0.1 2.3 1.3 3.2 1.3 3.2s0.8-0.1 1.7-0.7c0.9-0.7 1.5-1.8 2.7-3.3 1.2-1.4 2.9-2.2 4.3-2.4 1.4-0.1 2.6-0.4 3.7 0.6 1.2 1 0.8 2.4-0.5 2.9-1.4 0.5-2.3-1.2-3.5-0.9s-2.1 2.2-1.9 4.1c0.2 2 2.8 4 3.2 5.2 0.5 1.2-0.7 4.2-0.7 4.2s0.1-0.4 1.1-0.6c1-0.2 2.4-0.4 4.1 0.1s1 2.7 1 2.7-1.4 0.2-2.4 1.2c-1 1-1.7 1.7-0.5 4.8 0.2 0.6 0.5 1 0.7 1.5h-8.3m20.9 0.2c0.1-0.1 0.1-0.1 0.1-0.2 0.5-0.7 1.4-1.4 1.4-1.4h-1.4v-23.3h73.8v23.3h-14.7s-0.1 0.6-0.5 1.5h-5.2c0.4-0.8 0.6-1.5 0.6-1.5h-7.7l1.2 1.5h-6.1c-0.4-0.3-0.6-0.5-0.6-0.5v0.5h-6.3l-0.1-1.5-1.4 1.5h-5.7l1.8-1.5h-5.5s0.3 0.9 0.8 1.5h-4.3l-0.7-1.4h-14.3s0.6 0.7 1 1l0.3 0.3-6.5 0.2m75-0.1c0.3-0.1 0.5-0.1 0.8-0.2 0.9-0.2 1.6-0.1 2.5 0.2h-3.3m9.5 0c0.1-1 0.6-2.3 1-3.7 0.5-2 0-4.2-0.3-5.5-0.4-1.2-2.7-1.3-2.7-1.3s1.2-2.2 2.5-2.9c1.4-0.5 2.4-0.7 4.1-0.2 1.5 0.5 3.4 2.3 3.4 2.3s0-3.4-0.1-4.8c-0.2-1.5-1.2-5.2-2.1-7.3-0.8-2-2.2-2.5-3.4-3.1-1.2-0.5-1.9-0.2-1.9-0.2s-1.5 1.1-0.9 1.2c0.6 0.1 0.7 0.5 0.8 1.7s-1.5 1.8-3.2 1.8-3.1-2.2-3.4-3.7c-0.3-1.7 0.3-3.3 1.3-4.4 1.2-1.2 3.1-1.8 4.8-1.8s2.3 0.2 2.3 0.2-0.7-1.9-1.3-3.1c-0.6-1.1-1.6-2.3-2.3-4.1s-1.8-3.8-2.7-4.8-3.1-2.9-4.4-5c-1.4-2.1-1.6-5.3-1.5-7.6s-1.9-4-3.1-4.2c-1.3-0.2-1.3 0.4-1 0.9 0.2 0.6-0.3 2-1.5 2s-2.2-1.6-2.2-3.5c0-2 1.4-4.4 5.5-4.8 4.1-0.5 6.3 2.4 6.3 2.4s-3.1-4.4-4.4-6.5c-1.4-2-1.8-4.1-2-6.4-0.2-2.2 0.3-5.8 1-7.5 0.7-1.8 3.4-4.4 4.8-4.8 1.4-0.3 3.9 0.1 4.3 1.4 0.5 1.2-0.7 1.1-2.5 1.8-1.7 0.7-1.8 1-1.7 3.7s3.8 6.9 4.9 10.4c1 3.5 0.5 6.8 0.5 6.8s0.1-0.2 0.6-0.9c0.5-0.7 3-2.2 4.4-2.4 1.5-0.3 3.1 0 4.4 1.1 1.4 1.2 2.4 2.3 3.2 4.4 0.8 2 0 3.3 0 3.3s-0.8-1.4-1.5-2.5c-0.7-1.1-2.6-1.7-3.3-1s-0.7 1.2-0.5 2.5c0.1 1.3 0.2 6.1-0.3 9.4-0.6 3.3-3.2 3.2-3.7 5-0.6 1.8 0 2.5 0.7 5.5 0.8 3 3 7.1 3 7.1s1-1.3 1.7-2.7c0.7-1.4 2.2-2.6 3.8-3.1s2.2-0.8 4 0.3c1.7 1.1 2.4 2.1 3.4 4.4 0.9 2.4-0.5 4.2-1.6 5.2s-2.7 0.8-2.7 0.8 0.6-1 1-1.9c0.3-1-0.5-1.8-1.3-3-0.8-1.1-1.9-1.1-2.9 0.1s-0.2 3.1 0.2 4.9c0.5 1.8 0.6 4.1 0.7 7.1 0.1 2.9 0.1 5.2-0.1 6.5-0.3 1.4-0.1 3.2-0.1 3.2s0.6 0.2 1.4-0.2c0.8-0.5 2.4-1 3.7-0.5s2.2 1.6 2.6 2.7c0.5 1.2 0 2.2 0 2.2s-1.6-0.5-2.4-0.3c-0.8 0.1-1.1 1.7-1.2 3.8-0.1 1-0.2 2.2-0.6 3.5h-15.5m8-9.7s-0.2 0.5-0.7 1.7c-0.4 1.2-0.3 2.9-0.6 4.2-0.2 1.2-0.2 1.9-0.2 1.9s0.9-0.3 1.7-2.5c1-2.1 1-3.5 1.6-4.1 0.5-0.7 0.9-1.8 0.9-1.8l-2.7 0.6m-11.3-52.1s-0.3 1-0.4 2 0 2.6 0.9 4.2 1.2 3.5 1.2 3.5 0.6-0.7 0.9-1.9c0.3-1.3-0.1-2.2-0.7-4.2-0.5-2.2-1.9-3.6-1.9-3.6m-77.4 41.9s1 0 2 0.5c0.9 0.4 1.4 2.2 1.4 2.2l2.6 0.1 1.6-1.8h1.6l1 1v1.2h2.5v-0.8l1.3-1.3h1.6l2.8 2.9h4.7l3.4-3h1.8l1.9 2h2l1.7-1.6h1.4l1.7 1.6h1.7l2.7-2.2h1.2l2.6 2.6h1.4l4.1-2.4h2.7l2.2 2.4h1.5l2.1-2.5h1.3l1.7 1.9h2l-0.3-1.7 2.7-1.2-0.7-1.2-2-0.7h-61.5l-1.4 0.8-1 1.2m-1.9 5.6v1.4h1.6l0.7-0.5h1.4l0.7 0.8v6h4.4v-5.8l0.9-0.9h1l0.9 0.9v5.9h3.7v-5.9l0.9-0.9h1.2l0.9 0.9v5.9h3.6v-7.6h-2.2l-1.5-1.6h-2.1l-1.9 1.4h-1.4l-1.4-1.4h-2l-2.1 2.1h-2l-1.7-2.1h-2l-1.6 1.4m25.3 7.8h2.7v-6.1l0.7-0.8h1.3l1.2 0.8v6.1h3.3v-6.3l0.8-0.8h1.2l1.1 1v6.1h3.4v-6.4l0.8-0.7h1.2l1.2 1v6.1h2.5v-6.6l-2.5-2.5h-2.7l-1.2 1.2h-1.6l-1-1h-3.1l-1.2 1.2h-1l-1.3-1.4h-3.2l-2.6 2v7.1m24.8 0h2.8v-6.3l0.8-0.8h1.4l1 1v6.1h3.3v-6.1l0.9-0.9h1.1l0.9 0.9v6.1h3.4v-6.4l1.2-1.2 0.9-0.1 0.6 0.7h1.8v-1l-1.4-1.1h-2.4l-1.6 1.1h-1.4l-1.1-1.1h-3.1l-0.8 1.4h-1.4l-1-1.4h-3.3l-2.7 2.7v6.4" fill-rule="evenodd"/>
	<path clip-rule="evenodd" d="m291.2 270.8s-2 1.6-2 2.6c0.2 1 2 2.2 2 2.2s1.9-1.4 1.9-2.2c0-1-1.9-2.6-1.9-2.6m-14.6-0.1s-1.7 1.5-1.8 2.6c-0.1 1 2 2.4 2 2.4s1.7-1.4 1.8-2.2c0.1-1.1-2-2.8-2-2.8m-5.7 0.7l-1.7 1.8 1.7 1.8 1.8-1.8-1.8-1.8m26.1-0.1l-2 1.8 2 2 1.8-2-1.8-1.8m4.3 0.8l-0.8 1.3 1 0.9h0.9l1-1.1-1-1h-1.1m-36 0l-0.7 1 0.7 1h1.2l0.9-1.1-0.8-1-1.3 0.1m17.7-1.2l-1.2 1.3v2l1 1 2.1 0.1 1.3-1.2 0.1-1.8-1.3-1.4h-2m-22 6l-0.1-1.2-0.8-1.3 0.1-1.2 0.5-0.5 0.2-0.9 1.6-1.1 1.2-1.4h40.5l2.6 2.5v0.9h0.8v2.4l-0.8 0.6v1.2h-45.8" fill-rule="evenodd"/>
	<polygon points="261 277 260.9 275.8 260 274.5 260.2 273.2 260.7 272.8 261 271.9 262.5 270.8 263.7 269.4 304.2 269.4 306.9 271.9 306.9 272.8 307.6 272.8 307.6 275.1 306.9 275.8 306.9 277" clip-rule="evenodd" fill-rule="evenodd"/>
	<path clip-rule="evenodd" d="m294.6 264.7v1.4h1.4v-1.4h-1.4m4-0.1l-0.2 1.5h1.6v-1.4l-1.4-0.1m-8.6 0.1v1.2h1.6l0.1-1.2h-1.7m-13.6 0.2v1.3l1.4 0.1 0.1-1.4h-1.5m-4.2 0l0.1 1.4h1.6v-1.4h-1.7m-4.3 1.4h1.5l0.1-1.3h-1.5l-0.1 1.3m15.2-2.7l-0.8 1v1.2l0.7 0.9 1.7 0.1 0.9-0.8 0.1-1.6-0.9-0.9-1.7 0.1m-19.6-0.2l1.3-1.6h1.2v0.7h1.4v-0.7h1.3v0.7h1.1v-0.7h1.2v0.7h1.2v-0.7h1.7v0.7h1.3v-0.8h0.9v0.8h1.6v-0.8h1.4v0.8h1.2v-0.8h1.2v0.8h1.3v-0.8h1.4v0.8h1.4v-0.8h1.5v0.8h1.5v-0.8h1.2v0.8h1.2v-0.8h1.2v0.8h1.2v-0.8h1.3v0.8h1.4v-0.8h1.3v0.8h1.3v-0.8h1.1v0.8h1.5v-0.8l1 0.1 1.5 1.3v5.1h-40.3v-4.8" fill-rule="evenodd"/>
	<path clip-rule="evenodd" d="m298.6 254.1v3.7s1.4 0 1.9-0.2c0.6-0.1 1.2-1.2 1-1.9-0.1-0.7-0.4-1.6-1-1.6h-1.9m-29.2 0.1h-1.8s-0.7 0.9-0.7 1.8 0.9 1.7 0.9 1.7l1.7-0.2v-3.3m5.2-0.5l-1.3 1.2v1.7l1.1 1.5h1.9l1.4-1.5-0.1-1.7-1.4-1.3-1.6 0.1m8.3-0.6l-1.5 1.3-0.1 1.8 1.4 1.4 2.1 0.3 1.5-1.4 0.2-2-1.7-1.3h-1.9m8 0.4l-1.5 1.6v1.4l1.4 1.5h1.8l1.2-1.6v-1.4l-1.3-1.6-1.6 0.1m-26.2 7.2l-2-3.5-0.1-3.1 3.1-2.7h1.3v-1h0.7v1h1.2v-1h1.4v1h1.3v-1h1.2v1h1.2v-1h1.5v1h1.4v-1h1v1h1.7v-1h1.2v1h1.4v-1h1.2v1h1.5v-1h1.5v1h1v-1h1.4v1h1.1v-1h1.3v1h1v-1h1.5v1h1.6v-1h1.3v1h1.4v-1h1.4v1h1.2v-1h1.1v1.2h1.1l2.3 2.2v3.4l-2.4 3.5h-38" fill-rule="evenodd"/>
	<path clip-rule="evenodd" d="m283.7 219.7s1.8-0.7 1.9-1.4c0.1-1.6-1.9-3.4-1.9-3.4s-2.2 2-2.2 3.3c0.1 0.6 2.2 1.5 2.2 1.5m1.7-8.4s0.1 1.5 0.2 1.8 2.4 2.2 2.4 2.2l0.6 3.7 0.9-0.1s0-2.2-0.1-3.1c-0.2-0.9-0.9-1.5-1.7-2.4s-0.5-1.7-0.9-2.2c-0.5-0.6-1.4 0.1-1.4 0.1m-4.3 0c-0.6-0.3-1.4-0.2-1.6 0.5s-0.2 1.2-0.7 1.9c-0.5 0.8-1.2 1.5-1.4 2-0.1 0.4 0.2 2.9 0.2 2.9s0.3 0.7 0.8 0.7c0.5 0 0.9-0.7 0.9-0.7v-2.9s0.3-0.9 0.8-1.4 1.2-1.4 1.2-1.4 0.4-1.3-0.2-1.6m-4.4 11.2l-2.7-2.7v-4.5l5.2-5.1h8l5.4 4.8v4.4l-3.2 3.1h-12.7" fill-rule="evenodd"/>
	<path clip-rule="evenodd" d="m283.7 219.7s1.8-0.7 1.9-1.4c0.1-1.6-1.9-3.4-1.9-3.4s-2.2 2-2.2 3.3c0.1 0.6 2.2 1.5 2.2 1.5z" fill-rule="evenodd"/>
	<path clip-rule="evenodd" d="m279.7 225.5v2.2h2.8v-2l-2.8-0.2m5.6 0l0.1 2h2.9v-2h-3m-1.1 2.9s-2.1 1.6-2.4 2.4 0 2.5 0 2.5l1.7 1h1.4l1.5-1.5c0.5-0.5 0-1.4-0.1-1.9-0.3-1-2.1-2.5-2.1-2.5m6.6-0.8s-0.8 0.3-0.8 0.8-0.6 1.2-1.2 1.9c-0.7 0.8-0.5 1.6-0.1 2.3 0.3 0.7 0.1 1.2 0.1 1.2s1.7 0.3 2.7-1.2c0.9-1.3 0-2.2-0.3-3.1-0.4-0.9-0.4-1.9-0.4-1.9m-13.6-0.4s-0.4 2.3-0.7 3.1-0.1 1.7 0.3 2.5c0.5 0.8 1.9 1.4 1.9 1.4s0.3-0.2 0.6-1c0.2-0.8 0.8-1 0.7-1.8-0.3-0.9-1.3-1.6-1.8-2.1-0.6-0.7-1-2.1-1-2.1m-2.5 8.8l-2.3-3.1v-3.3s0.6-1.6 1.3-2.7c1-1.7 2.7-3.4 2.7-3.4h13.9l3.1 3.4 0.9 2.5 0.1 4-1.8 2.6h-17.9" fill-rule="evenodd"/>
	<path clip-rule="evenodd" d="m278 241s-0.2 1 0.3 1.5c0.4 0.4 1 0.7 1 0.7s0.8-0.4 1.1-0.8c0.3-0.5 0.1-1.5 0.1-1.5l-2.5 0.1m9.2 0s-0.2 0.8 0.3 1.2c0.4 0.5 1.2 1 1.2 1s0.7-0.4 1-1c0.3-0.5 0.2-1.4 0.2-1.4l-2.7 0.2m-12.9 0.5l-0.5 1.4s-0.7 0.7-1.2 1.5c-0.6 0.8-0.3 2.2 0.5 2.7 0.8 0.6 1.7 1.5 1.7 1.5s1.2-1 1.6-1.9c0.5-0.8 0.3-2.5 0.3-2.9-0.2-0.5-2.4-2.3-2.4-2.3m19.2-0.3s-1.5 1.5-1.7 2.3-0.7 1.7-0.5 2.4c0.3 0.8 1.8 2.3 1.8 2.3s1.4-1 1.9-1.3c0.6-0.4 1.1-2.2 0.6-2.8-0.6-0.6-0.9-0.3-1.3-1-0.3-0.6-0.8-1.9-0.8-1.9m-9.2-0.1s-1 2.1-1.6 2.9-1.4 1.8-1.2 2.6 1.6 1.7 1.6 1.7h2.5s1.2-1.4 1.5-2c0.2-0.5-0.7-1.7-1.4-2.4-0.6-0.9-1.4-2.8-1.4-2.8m9.5-4.2v0.9l1 1 1.9 1.3-0.1 1.6 0.7 0.5 0.1 1 0.8 0.4v4.2l-0.9 0.7-0.2 1.2h-26.2v-1.5l-1-0.5-0.1-3.9 1-0.8-0.2-0.9 0.7-0.6-0.1-1.8 1.4-0.8 2-1 0.1-0.9h1.2v0.9h1.1v-0.9h1.4v0.9h1.3v-0.9h1.4v0.9h1.4v-0.9h1.4v0.9h1.4v-0.9h1.3v0.9h1.2v-0.9h1.2v0.9h1.4v-0.9h1.2v0.9h1.3v-0.9h0.9" fill-rule="evenodd"/>
	<path clip-rule="evenodd" d="m282.9 171.2l-1.2 10.9s-0.7 1.5-0.6 2.3c0.1 0.7 1.1 1 1.9 1s1.1 0 1.8-1.2c0.7-1.1-0.3-2-0.3-2l-1.6-11m-0.1 17.9l-1.7 1.8v1l0.8 0.7h1.8l1.4-1-0.1-0.7-2.2-1.8m-3.1-13.2l-2.4 9.4s0.5-0.9 1.1-1.5c0.6-0.5 1.4-1.4 1.4-1.4v-6.5m6.7-0.2l-0.1 6.5s0.8 1.1 1.5 2 1.6 2.2 1.6 2.2l-3-10.7m-3.1-21.4c-2.2 0-3 1.5-3 2.9 0 2 1.4 3 3.1 3s3-1.5 3-3c0-1.4-1-2.9-3.1-2.9m-3.5 7.2s-2.7-1.2-2.7-4.2c0-3.1 2.5-5.9 6.1-5.9s6.3 2.4 6.1 5.5c-0.2 3.2-3.2 5.1-3.2 5.1l0.1 13.4 1.8-0.1 26 95.8-1.7 0.7-22.3-82.8-3.5 5.4-7.5 0.1-3-4.8-19.6 81.4-1.8-0.5 23.1-95.2 2 0.3v-14.2" fill-rule="evenodd"/>
	<path clip-rule="evenodd" d="m283.1 198.2l2.1 1.8s2.4-0.9 1.9-1.8-1.9-2.2-3.6-2c-1.7 0.1-4 0.5-4 1.7s1.4 2.4 1.4 2.4l2.2-2.1m0.3 4.7s-0.9 0.5-0.9 1.1 1 1.3 1 1.3 0.9-0.7 0.9-1.4c0-0.6-1-1-1-1m-3.8 6.3l-5-5.2 1.4-4.9s1-1.9 1.8-2.5c0.8-0.7 2.1-1.4 2.1-1.4h6.4s1 0.4 1.8 1.2c0.7 0.8 1.9 2.6 1.9 2.6l1.9 5.1-4.8 5.1h-7.5" fill-rule="evenodd"/>
	<path clip-rule="evenodd" d="m279.6 209.2l-5-5.2 1.4-4.9s1-1.9 1.8-2.5c0.8-0.7 2.1-1.4 2.1-1.4h6.4s1 0.4 1.8 1.2c0.7 0.8 1.9 2.6 1.9 2.6l1.9 5.1-4.8 5.1h-7.5z" fill-rule="evenodd"/>
	<polygon points="260.9 278.8 260.9 279.7 306.5 279.7 306.5 278.8 305.4 278.8 305.4 277.9 304.1 277.9 304.1 278.8 301.8 278.8 301.8 277.9 300.6 277.9 300.6 278.8 298.7 278.8 298.7 277.9 297.4 277.9 297.4 278.8 295.4 278.8 295.4 277.9 294.1 277.9 294.1 278.8 292.3 278.8 292.3 277.9 291 277.9 291 278.8 289 278.8 289 277.9 287.6 277.9 287.6 278.8 285.7 278.8 285.7 277.9 284.2 277.9 284.2 278.8 282.5 278.8 282.5 277.9 281.1 277.9 281.1 278.8 279.2 278.8 279.2 277.9 277.8 277.9 277.8 278.8 275.8 278.8 275.8 277.9 274.5 277.9 274.5 278.8 272.3 278.8 272.3 277.9 271 277.9 271 278.8 269.6 278.8 269.6 277.9 268.1 277.9 268.1 278.8 266 278.8 266 277.9 264.7 277.9 264.7 278.8 262.8 278.8 262.8 277.9 261.5 277.9 261.5 278.8" clip-rule="evenodd" fill-rule="evenodd"/>
	<path clip-rule="evenodd" d="m235.1 409.5c-2 0.5-4.2 0.9-7 1.1-2.3 0.1-4.3-0.3-6.1-1.1h13.1m34.5-0.1c0.1 0.1 0.3 0.1 0.5 0.2 1.2 0.4 2.6 0.3 4.1-0.2h42.5c-1.1 0.8-2.2 1.7-3.4 2.6-5.6 3.9-11.1 4.5-15.4 4.1-4.3-0.5-7.2-3.5-8-4-0.8-0.4-2.7 0-2.7 0s-3.2 1.9-6.6 3.2c-3.4 1.4-9 1.7-12.6 1-3.2-0.6-9-3.9-12.2-6.9h13.8" fill-rule="evenodd"/>
	<path clip-rule="evenodd" d="m211.8 386.8c3.6 2.6 4.7 5.7 7.1 9.8 2.4 4.2 7 5.8 10.4 6 3.4 0.3 7.3-0.7 10.7-1.4 3.4-0.8 6.1-2.6 6.1-2.6s-3.7 0.1-6.1 0.3c-2.4 0.1-4.4-0.8-7.4-2.3-3.1-1.4-5.6-4.4-7.5-6.1-1.3-1.1-2-2-2.8-3.5h3.7c1 1.2 2 2.2 2.6 2.7 1.2 0.8 3.2 0.8 3.2 0.8l-1.7 0.4s0.1 0.5 1 1.3 4.5 3.8 6.3 4.4c1.8 0.5 3.9 0 3.9 0s0.1-0.7-2-1.8c-2.1-1.2-5.3-3.9-6.2-4.8-0.7-0.7-1.5-1.7-2.7-3h5.4l0.4 0.4c2.2 2.5 5.8 3.3 5.8 3.3s-1.4-1.2-2.2-2c-0.4-0.4-1-0.9-1.7-1.6h6c0.5 0.6 1.2 1.1 2 1.3 1.6 0.5 2.6 0 4.2-0.3 0.8-0.1 1.5-0.5 2.3-0.9h10l-0.1 0.1s0.1-0.1 0.3-0.1h23.2c0.4 0.5 0.5 0.8 0.5 0.8s0.2-0.3 0.6-0.8h22.8c0.4 0.3 0.7 0.6 0.7 0.6v-0.6h21c-1.8 1-3.2 1.8-3.2 1.8s1.8-0.2 3.3-0.5c0.8-0.2 1.8-0.7 2.9-1.3h7.6c-1.3 1.2-3.6 3.2-3.6 3.2l2.2 1.6s3.2-2.8 5.1-4.8h3.4c-1.1 1.8-2.3 3.2-4.8 5.5-4.1 3.7-8.4 5.3-11.6 5.8-3.2 0.6-6.4 0.7-6.4 0.7s0.8 0.7 1.9 1c1.2 0.3 4.2 1 8.6 1.4 4.4 0.5 10.9-1.2 14.4-3.1 3.5-1.8 3.6-4.6 4.8-7.5 0.6-1.6 1.5-2.9 2.4-3.8h8c-0.2 0.7-0.5 1.4-0.9 2.3-1.2 2.9-3.6 7.6-7.5 14-4 6.5-12.7 4.6-18.6 4-5.8-0.7-16-3.2-16-3.2s-2.9 2.5-6.9 5.5h-42.5c2.2-0.7 4.4-2 5.9-2.8 2.5-1.1 5.6-4.1 5.6-4.1s-0.7-1.6-2-1.4c-1.3 0.3-3.2 2.3-3.2 2.3l-1.8-1.8c-0.9-0.9-0.9-2.9 0.4-4.8 1.3-1.8 4.3-3.6 4.3-3.6s-3.4-0.9-5-2.3c-1.6-1.3-2.5-4.1-2.5-4.1s-3.9 4.5-8.8 7.7c-5 3.3-9.9 6.1-9.9 6.1s2.8 2.4 4.8 4.3c2 1.7 4.5 3.3 7.5 4.3h-13.9c-0.3-0.3-0.6-0.5-0.9-0.8-3.1-3.2-3.8-5.1-3.8-5.1s-6.9 3.4-10.9 4.5c-1.8 0.5-3.3 1-5 1.4h-13c-2.2-0.9-4.1-2.4-5.8-3.9-3.1-2.7-5-8.3-7.5-12.6-1.1-2-2.5-4.2-3.8-6.2h6.9m76.8 6.4s4.8 1.4 5.7 3.6 1.1 2.9 0.4 3.9c-0.7 0.9-1.4 2.4-1.4 2.4s-1.1-1.7-2.1-2c-0.9-0.2-2 1.6-2 1.6s2.7 0.7 3.9 2.2c1.2 1.6 3.6 3.6 8.4 3.6 4.7 0 7.5-2.2 10-4.5s4.5-3.6 4.5-3.6-2.7-0.4-5.7-2.5c-2.9-2-6.5-5.2-8.4-6.8-1.8-1.6-3.2-3-4.1-3s-2.5 1.3-3.6 2.5c-1 1.3-5.6 2.6-5.6 2.6m-40.1 4.1l7.8-5.2c3.1-2 5.6-4.6 5.6-4.6s-4.9 1.1-6.7 1.4c-1.7 0.4-3.3 0.5-3.3 0.5s-0.3 1.5-1.2 3.6c-0.9 2.1-2.2 4.3-2.2 4.3m63.6-9.5s2.4 2.4 5 3.8c2.5 1.3 3.1 2.4 4.5 3.3 1.5 0.8 4 1.5 4 1.5s0.2-3-0.8-4.4c-1-1.5-1.5-2.5-3.9-3.4-2.5-0.7-4.2-1.1-5.8-1.7-1.7-0.6-3 0.9-3 0.9m25.4 2.9s-2.9 1.6-4.3 2.4-3.6 1.5-3.6 1.5l1.9 2.2s1.8-0.9 4.1-1.9 4.2-2.5 4.2-2.5l-2.3-1.7" fill-rule="evenodd"/>
	<path clip-rule="evenodd" d="m221.9 379.3c0.3 1.3 0.8 2.5 1.4 3.7 0.5 1.1 1.5 2.5 2.6 3.8h-3.7c-0.3-0.6-0.7-1.4-1.2-2.3-0.8-1.4-1.3-3.4-1.7-5.3h2.6m10 0.1c0.5 2.3 2.2 5.4 3.9 7.6h-5.4c-0.4-0.5-0.8-1-1.3-1.6-1.6-1.8-3.2-4.5-3.6-6h6.4m4.8 0c-0.1 1 0.5 2.3 1.3 3.4 1 1.4 3.5 1.7 3.5 1.7l-0.9-0.9c-0.7-0.7-1-2-0.8-3.1 0.1-0.4 0.2-0.8 0.5-1.2h2c-0.6 0.9-0.1 1.9 1.4 3.2 1.4 1.2 3 0.2 4.7-0.8s0.7-1.4 1.2-2.2l0.2-0.2h5c1.4 0.8 2.9 1.2 2.9 1.2s0-0.4-0.1-1.2h1.6c0.1 0.3 0.3 0.8 0.5 1.2l0.8 2.4s1-0.4 1.9-1.2c0.6-0.5 0.7-1.5 0.7-2.5l2.1 0.1c-0.1 1-0.4 2.1-0.6 3.2-0.6 2.4-1.6 3.8-1.9 4.3h-10c0.8-0.5 1.4-1 2-1.4 1.2-0.9 2.4-3.4 2.4-3.4s-3-0.5-4.1-0.2c-1 0.2-0.9 1.3-1.8 2.1s-1.4 1.3-3 2c-1.7 0.7-4.7-0.3-4.7-0.3s0.3 0.6 0.9 1.2h-6c-0.5-0.7-1.1-1.4-1.6-2.3-1-1.7-1.7-3.1-2.4-4.7-0.1-0.1-0.2-0.3-0.2-0.6l2.5 0.2m86.4 0c0.8 0.9 1.8 1 3 1.2 1.1 0.1 1.5-0.5 1.8-1.2h3.2v0.5c0 1.8-1.7 2.1-1.7 2.1s0.8 1.3 2.4 1c1.7-0.2 1.7-1 3-2.4 0.3-0.4 0.6-0.8 0.8-1.2h2.8c-0.1 0.7-0.5 1.6-0.9 2.5-0.6 1.6-3.5 3.6-5.9 5h-21l0.1-2s-2.5-2-3-4.2c-0.2-0.5-0.2-1-0.3-1.4h15.7m23.8 0.1c-0.4 1.4-0.9 2.6-0.9 2.6s1.7-1.4 2.7-2.6h4.4c-0.5 1-1 2.1-1.6 3.3-0.9 1.8-1.5 3.1-2.2 4.3h-3.4c0.2-0.4 0.5-0.6 0.7-0.9 1.5-2 1.9-4.8 1.9-4.8l-3.5 1.8s-1.6 2.5-2.8 3.7c-0.1 0-0.1 0-0.1 0.1h-7.6c0.9-0.6 2-1.3 2.9-1.9 1.8-1.1 3.2-3 3.8-5.6h5.7m24.9 0c-0.1 0.4-0.5 0.9-1 1.2-0.9 0.7-1.5 0.7-2.6 2.3-0.7 1.1-1 2.3-1.6 4h-8c0.8-0.9 1.6-1.6 2.3-2.3 1.3-1.3 3.6-2.3 4.8-2.7 1.3-0.4 2-1.9 3.2-2.4 0.2-0.1 0.5-0.1 0.8-0.2h2.1m-166.8 7.6c-1.5-2.4-2.7-4.3-2.7-4.3s5.6 1.6 9.3 4.1l0.2 0.2h-6.8m57.6 0c0.9-0.5 3.3-2 5.4-3.7 2.6-2.2 5.1-3.7 7.4-3.7 2.4 0 3.2 0.7 5.9 2.3 2 1.1 3.7 3.7 4.5 5.1h-23.2m24.5 0c0.7-1.1 2.1-2.8 3.3-3.9 1.8-1.7 4.8-3.1 6.9-3.4 2.2-0.4 4.2 0.3 6.1 1.7 1.5 1.1 5 4.3 6.5 5.6h-22.8m28.4-4.9s2.6 2.6 3.8 3.7c1.2 1 3.4 1.4 6.1 1.2 2.7-0.1 4.6-2 4.6-2s-4.6-1-6.5-1.5c-2-0.4-2-2.6-4.2-3.1-2.1-0.5-3.8 1.7-3.8 1.7" fill-rule="evenodd"/>
	<path clip-rule="evenodd" d="m220.7 371.7c0.5 1.6 0.9 3.3 0.9 4.8 0 1.1 0.1 2 0.3 2.9h-2.7c-0.5-2.1-0.7-4.2-0.9-5.9-0.1-0.6-0.1-1.2-0.3-1.7h2.7m5.5-0.1m6.7 0c-0.9 2.4-1 3.7-1.1 6.1-0.1 0.4 0 0.9 0.1 1.6h-6.4c-0.1-0.3-0.1-0.6-0.1-0.8 0.1-1.2 0.9-0.8 3-1.1 2.2-0.3 2.2-2.8 1.7-3.9-0.3-0.5-1.1-1.2-1.8-1.8h4.6m9.5-0.1v0.3c-0.2 2.4-1.5 4.1-3.1 4.8-1.4 0.7-2 1-2.4 2-0.1 0.1-0.1 0.3-0.2 0.5h-2.7c-0.4-1.6 0.1-3.1 0.7-3.7 0.8-0.8 2.2-0.5 3.3-1 1.1-0.6 1.8-1.5 1.7-2.9h2.7m14.7 0c0 0.1 0.1 0.1 0.1 0.1 0.4 0.8 2.2 2.3 2.2 2.3s0.5-1.3 0.8-2.4h2.2c0.8 1.1 1.6 2.2 2.1 3.2 0.7 1.5 0.8 2.9 0.6 4.4h-2.1c-0.1-0.6-0.1-1.1-0.2-1.7-0.2-1.5-1.8-3.2-1.8-3.2s-0.6 1.4-0.9 2.4c-0.3 0.9-1.2 1.9-1.2 1.9s0.1 0.3 0.2 0.7h-1.6c0-0.2-0.1-0.4-0.1-0.7-0.3-1.2-1.6-2.9-3.1-4.8-1.6-1.9-3.7-1.8-3.7-1.8s0.9 2.2 1.2 3.7c0.3 1.4 1.2 2.5 2.7 3.4 0.1 0.1 0.2 0.1 0.3 0.2h-5c0.4-0.7 1.1-1.2 1.1-1.2s-0.2-0.3-0.7-1c-0.4-0.6-0.9-1.7-1.2-3.4-0.1-0.6-0.4-1.4-0.6-2h8.7m29.4-0.1c-1.3 0.6-2.8 1.2-4.4 1.7-4.4 1.3-8.5 2-14.2-0.6-0.7-0.3-1.4-0.7-2-1.1h20.6m20.2 0c0 0.3-0.1 0.5-0.1 0.7-0.3 1.4-1.2 3-1.2 3s-4.8-2.2-7.8-3.5c-0.1 0-0.2-0.1-0.3-0.1h9.4m11.4-0.1c-1 0.5-1.5 1.8-2 2.8-0.7 1.2-0.8 3 0.4 3.5 1.3 0.4 2.3-0.3 3-1.7 0.5-1.5 0.5-2.7 0.9-3.3 0.3-0.5 0.8-1.2 0.8-1.2s-0.1-0.1-0.3-0.1h2c-0.3 0.8-0.5 1.6-0.7 2.4-0.6 2.2-0.6 2.9 0.3 4.4 0.1 0.3 0.3 0.5 0.6 0.8h-15.7c-0.2-1.6 0.1-3.3 0.5-5.8 0.1-0.5 0.2-1.2 0.4-1.8h9.8m14.4-0.1c0.5 1.8 3 2 4.7 3.4 1.6 1.2 1.7 2.6 1.2 4.2h-2.8c0.7-1.1 0.9-1.9 0.9-1.9s-1.1-0.3-2.6-1c-1.5-0.7-2.9-1.4-3.9-4.2-0.2-0.2-0.2-0.4-0.2-0.6h2.7m10.9 0.1c-0.3 0.4-0.5 0.8-0.7 1.3-0.7 1.7 1.5 2.9 3 3.1 1.6 0.3 2-0.4 2-0.4s0 0.4-0.3 2.1c-0.1 0.5-0.3 0.9-0.4 1.5h-5.6c0.1-0.3 0.1-0.5 0.2-0.7 0.5-3.1-1.4-3.9-2.1-5.6-0.2-0.5-0.5-0.9-0.7-1.3h4.6m11.9 0c0.1 0.3 0.1 0.7 0.1 1-0.1 1.7-0.9 3.7-2.3 6.6h-4.4c0.3-0.4 0.6-0.8 0.7-1 0.7-1.2 1-4.2 1-5.5 0-0.3 0-0.7 0.1-1.1h4.8m-115 7.7c0.4-0.6 0.9-1.1 1.4-1.4 0.8-0.5 1-1.3 1-1.3s0.5-0.2 0.7 0.7c0.3 0.9-0.5 1.2-1.1 2h-2m87.6 0c0.1-0.3 0.2-0.6 0.3-0.8 0.3-0.9-0.9-2.8-0.9-2.8s1.5 0.7 2.4 1.4c1 0.7 1.3 0.8 1.4 2.2h-3.2m41.8 0c1.1-0.4 2.3-0.7 2.3-0.7s-0.1 0.3-0.2 0.7h-2.1" fill-rule="evenodd"/>
	<path clip-rule="evenodd" d="m217.3 364.1c1.3 0.7 2.4 1.3 4.4 2 2.1 0.7 3 0.9 3 0.9s-0.5-0.8-1.8-1.9c-0.5-0.4-0.9-0.7-1.3-1h5.2c2.3 2.1 3.8 4.1 3.8 4.1s0.7-2 1-4.1h3.6c0.1 0.7 0.1 1.4 0.1 2 0 1.4-1.3 3.1-2.3 5.5h-4.6c-0.8-0.7-1.6-1.2-1.6-1.2l-0.5 1.2c-0.1-0.1-1.1-0.5-2.2-1-0.8-0.4-1.8-1.4-2.6-1.7-0.8-0.2-2.5-1.8-2.5-1.8s1 2.1 1.8 4.5h-2.6c-0.5-2.2-1.4-3.8-2.1-5.3-0.5-0.9-1-1.7-1.4-2.2h2.6m22.8 0c1.6 2.7 2.4 5.5 2.2 7.5h-2.7v-0.1c0-0.4-1.2-2.2-1.1-2 0.1 0.3-0.8 1-0.8 0.8 0.2-1.4-0.1-3.3-0.3-4.1-0.2-0.7-0.8-1.5-1.3-2.2h4m7.3 0.1c0.5 0.9 1.2 1.8 1.9 2.4 1.5 1.2 5.4 4.4 5.4 4.4s1.2-2 0.8-3.7c-0.3-1.7-1.3-2.4-2.5-2.9-0.1-0.1-0.3-0.1-0.4-0.2h4.6c0.5 1.4 0.9 2.4 0.9 2.4s-0.2-0.9-0.5-2.4h1.4c0.2 1.3 0.5 2.3 0.6 2.9 0.5 1.6 1.6 3.1 2.6 4.6h-2.2c0.1-0.4 0.1-0.8 0.1-1.1-0.2-1-1.9-3-1.9-3s-0.5 1.3-0.9 2c-0.4 0.7-0.5 1.4-0.3 2h-8.7c-0.4-1.2-0.9-2.1-0.9-2.1s1.1 0.2 1.8 0.6c0.7 0.4 1.6 0.6 1.6 0.6s-0.7-1.2-1.8-1.8c-1-0.7-1.7-1.2-2.5-2.6-0.5-0.9-0.8-1.5-1.2-2.2h2.1m20.8 0.1c0.1 0.3 0.3 0.5 0.6 0.7 2.4 2.8 5.5 3.2 8.5 2.3 3.1-1 4.8-2.7 4.8-2.7s-0.3-0.2-0.8-0.3h10.6c1.7 0.3 3.6 0.7 5.6 1.2 4.8 1.2 9.2 4.2 9.2 4.2s0.1 1 0 2.1h-9.4c-3.1-1.2-7.5-1.8-7.5-1.8s-1.3 0.8-3.3 1.8h-20.6c-2.8-1.9-4.4-4.9-5.3-7.5h7.6m44.5 0c-0.4 0.9-0.7 1.4-0.7 1.4s0.6-0.5 1.3-1.4h5c-1.1 0.9-2 1.9-2.2 2.5-0.3 1-0.2 2.5 0.8 2.6 0.9 0.1 2.3-1.7 3.3-2.1 1-0.5 1.9-1.2 2.6-2.2 0.2-0.3 0.4-0.5 0.5-0.9h2c-0.3 0.9-0.8 2-1.2 2.8-0.6 1-1.2 0.9-2.2 1.5-0.9 0.6-1.4 2.1-1.4 2.1s0.8-0.2 1.7-0.6c0.9-0.3 1.7-0.7 1.7-0.7s-0.5 1.1-1 2.4h-2c-0.4-0.1-1.3-0.4-2.2-0.2-0.2 0.1-0.4 0.1-0.6 0.2h-9.8c0.6-2.1 1.4-4.8 2.3-7.5h2.1m23.2 0.1c-0.1 0.3-0.3 0.5-0.4 0.7-0.8 1.1-2.1 1-3.1 4.8-0.2 0.9-0.2 1.6 0 2h-2.7c-0.8-2.3-0.7-3.5 0.1-6.1 0.2-0.4 0.3-0.9 0.6-1.4h5.5m3.9 0c0.2 2.5 1.1 4.8 1.1 4.8s1.6-2.7 2.6-3.7c0.3-0.3 0.7-0.6 1.1-1.1h5.2c-0.2 0.6-0.2 1.1-0.2 1.1s1-0.5 1.9-1.1h3.4c-0.3 0.7-0.5 1.4-0.7 2.7-0.3 1.4 0.9 3 1.2 4.8h-4.8c0.2-0.9 0.5-1.7 0.5-1.7l-0.8-0.2 1.3-1.2c0.5-0.6 0.5-1 0.5-1.7s0.8-2.4 0.8-2.4-0.7 0.9-1.5 1.4c-0.8 0.4-1.4 1.6-1.4 1.6l-0.8 1.5-0.2-0.9s-0.5 0.7-2.2 1.5c-1.2 0.5-2.4 1.1-3.3 2.1h-4.7c-1-1.2-2.5-2.1-2.8-2.7-0.4-0.8 0.8-2.5 1-3.3 0-0.3 0.1-0.9 0.1-1.6h2.7" fill-rule="evenodd"/>
	<path clip-rule="evenodd" d="m215.8 356.6c1.7 1.3 4.3 2.8 7.1 4.5 1.4 1 2.7 2 3.9 3h-5.2c-1-0.6-2.1-1.2-3.2-2.3-1.5-1.4-4.1-2.5-6.3-5.2h3.7m17.1 0c2.6 1.9 4.7 4.1 6.2 6 0.3 0.5 0.7 1 1 1.5h-4.1c-0.6-0.8-1.2-1.5-1.2-1.5s0.1 0.6 0.2 1.5h-3.6c0.1-0.6 0.1-1.2 0-1.9-0.3-2.4-2.2-4.1-4.2-5.7h5.7m12.2 0.1c0.2 0.3 0.4 0.6 0.6 0.8 1 1.3 2.3 2.5 3.6 3 1.3 0.4 2.2-0.1 2.2-0.1s0.5-1.4 0-2.3c-0.2-0.5-0.6-0.9-1.3-1.4h4.2c0.6 1.8 1.9 5.3 2.8 7.6h-4.6c-1.1-0.5-2.8-1.1-3.8-1.4s-2.6-0.7-2.6-0.7 0.5 1 1.2 2h-2c-0.1-0.4-0.3-0.8-0.5-1.3-0.5-1.2-0.7-1.9-0.7-1.9s0.1 0 0.9 0.2c0.8 0.3 2.2 0 2.2 0s-0.6-0.4-1.4-1.1c-0.7-0.6-1.8-2.2-2.7-3.5l1.9 0.1m12.9 0c0.3 2.7 0.8 5.4 1.1 7.6h-1.4c-0.3-2-0.9-5-1.5-7.6h1.8m9 0c-1 2.8-0.4 5.4 1.2 7.6h-7.7c-0.5-1.3-0.7-2.5-0.8-3.5-0.1-1.2-0.2-2.5-0.1-4h7.4m19.1-0.1c-0.3 0.3-0.8 0.8-1 1.4-0.4 1-0.4 2.4 1.7 4.2 1.2 1.1 2.9 1.6 5.1 2h-10.6c-0.5-0.2-1.1-0.4-1.6-0.7-1.2-0.6-2.2-1.8-2.5-4.2-0.1-0.8-0.2-1.7-0.1-2.7h9m13.1 0c-0.5 2.6-2.9 4.3-6 4.5-3.4 0.1-5-1.6-5.4-2.7-0.3-0.7-0.8-1.4-1-1.8h12.4m16.1 0c-0.2 0.5-0.2 0.9-0.4 1.4-0.7 2.7-1.6 4.8-2.2 6.2h-2.2c0.5-1.6 1-3.2 1.4-4.7 0.2-1 0.5-1.9 0.6-2.9h2.8m4.1 0c-0.3 0.5-0.5 0.9-0.6 1.5-0.1 2 0.7 2.5 2 2.5s2.5-1.7 3.6-2.9c0.2-0.3 0.5-0.7 0.9-1.1h2.5c-0.5 0.6-1 1.1-1.7 1.5-1.6 1-2.7 3.4-2.7 3.4s0.7 0.1 1.7-0.3c1-0.4 1.7-0.4 1.7-0.4s-0.9 1.4-1.2 2.4c-0.2 0.3-0.2 0.6-0.3 1h-2c0.5-0.8 0.8-1.4 0.8-1.4s-1.5-0.6-3.5 0.1c-0.7 0.3-1.6 0.7-2.2 1.3h-5c0.5-0.6 1-1.2 1.4-2 0.6-1.2 1.4-3.2 2-5.6h2.6m23.7 0c-0.9 0.9-1.8 1.9-2.5 3.1-0.7 1.3-0.9 2.9-0.8 4.4h-2.9v-2.3s-0.3 1.3-1 2.3h-5.5c1.3-2.6 4.2-5.7 6-7.6h6.7m13.8 0.1c-2.2 2.5-4.9 4.9-5.8 5.7-0.7 0.5-1.1 1.3-1.3 1.8h-5.2c1.2-1.1 3-2.7 5-4.4 1-0.9 2.1-2 3.1-3.1h4.2m-142.2 7.5c-0.4-0.5-0.5-0.8-0.5-0.8s1.5 0 2.9 0.7c0.1 0.1 0.2 0.2 0.3 0.2h-2.7m136.8-0.1c0.4-0.2 0.9-0.5 1.3-0.7 1.1-0.7 2.8-2 2.8-2s0 1-0.4 2c-0.2 0.3-0.2 0.4-0.3 0.6h-3.4" fill-rule="evenodd"/>
	<path clip-rule="evenodd" d="m213.3 341.5c0.6 2.2 1.5 3.4 4.1 6s5.4 3.6 10.4 6c1.9 0.9 3.6 2 5.2 3.1h-5.7c-0.2-0.1-0.4-0.3-0.5-0.4-2.3-1.7-5.8-2.2-8.8-3.7-3.1-1.5-5.3-6.7-5.3-6.7s0.5 6.5 1.2 8.6c0.3 0.8 1 1.5 1.9 2.3h-3.8c-0.2-0.2-0.4-0.5-0.5-0.8-2.3-3.3-2.4-5.6-1.8-9.7 0.2-1.5 0.7-3.2 1.4-4.6h2.2m28.8-0.1c1 0.8 2.1 1.4 2.7 1.6 1.4 0.5 3.4-0.3 3.6-1.6h2.1c0.1 0.5 0.3 1 0.4 1.4 0.7 3.1 2.7 10.9 3.6 13.5 0 0.1 0.1 0.1 0.1 0.2h-4.2c-0.6-0.4-1.4-0.9-2.4-1.4-2.1-1.2-4.5-1.6-4.5-1.6s0.9 1.6 1.8 3h-1.9l-0.6-0.9c-0.9-1.4-1.8-3.7-1.8-3.7s0.5 0.4 1.5 0.7c0.9 0.3 1.2-0.1 1.2-0.1s-1.9-1.8-2.6-2.7c-0.7-0.8-1.3-1.1-2-3.1-0.8-1.9-2.2-4.1-2.2-4.1s0.5 0.3 1.2 0.4c0.7 0.1 1.4 0.5 2.1 0.7 0.8 0.3 1.7 0.3 1.7 0.3s-1.4-1.3-2.1-2c-0.2-0.1-0.5-0.3-0.8-0.6h3.1m13.8 0c0.3 2.3 0.9 5.4 1.2 8.1 0.2 1.8 0.5 4.4 0.9 7h-1.8c-0.3-1.2-0.5-2.4-0.7-3.3-0.8-3.1-2-8.5-2.4-11.8h2.8m46.8 0c-1.4 2.8-4.3 4.2-8.8 4.8-4.9 0.7-9.5 0.8-14.5 2.2-5 1.3-8.7 1.9-11.3 5.8-0.5 0.8-0.9 1.5-1.2 2.2h-7.3c0.2-2.9 1.3-6.3 4.6-9.4 5-4.8 10.3-5.3 14.4-5.4 1.9-0.1 4.4-0.1 6.7-0.2h17.4m14.9 0c0 1.2-0.1 2.3-0.2 3.3-0.3 2.4-1.1 7.5-2.2 11.8h-2.7c0.7-3.5 1-6.7 1.5-9.3 0.3-1.5 0.4-3.8 0.4-5.8h3.2m12.4 0c0 0.1 0.5 0.1 1.3 0h2.9c-0.4 0.9-0.5 1.8-1.2 3.3-0.8 1.8-1.7 3.2-3 4-1.2 0.7-2.6 2.9-2.6 2.9s0.5-0.1 1.9-0.5c1.3-0.3 1.7-0.6 1.7-0.6l-1.6 3.2c-0.5 1-1 1.9-1.7 2.7h-2.5c1.4-1.6 3.4-3.8 3.4-3.8s-4.4 1.1-6.2 1.7c-1.1 0.4-2.5 1.1-3.2 2.1h-2.7c0.4-1.3 0.7-2.7 1.1-4.3 0.7-3.3 1.4-6.9 1.8-10.8h10.6m32.4 0.1l0.3 2.4c0.3 3.4-0.9 6-3.1 9.4-0.7 1.1-1.6 2.2-2.6 3.3h-4.2c2.1-2.1 4-4.4 4.9-5.9 1.5-2.2 1.6-8 1.6-8s-1.2 2.8-2.4 4.4c-1.3 1.6-4.8 3.7-7.8 5.5-2 1.2-4.1 2.3-5.9 3.9h-6.6s0.1 0 0.1-0.1c2.2-2.2 4.7-3.9 7.8-5.6s7.6-3.4 9.9-4.9c1.8-1.1 2.8-2.9 3.5-4.5h4.5m-85.3 15.2c0.3-1.6 1.3-3.4 3.9-5.5 4.1-3.3 8.5-2.8 12.3-2.2 3.9 0.7 6.2 4.2 5.9 7.1 0 0.2-0.1 0.4-0.1 0.5h-12.5c-0.1-0.2-0.2-0.3-0.2-0.3s-0.2 0.1-0.4 0.3h-8.9m-36.8-11.4s2.5 3.3 3.7 4.8c1.3 1.6 4.2 2.7 5.4 2.9 1.1 0.1 1.1-1.7 0.8-2.9-0.4-1.1-1.2-1.9-3.5-3.1-2.3-1.3-6.4-1.7-6.4-1.7m91.6-2.1s-1.2-0.1-3.6 0.4c-2.4 0.6-4.4 1.5-5.7 3.3-1.2 1.8-1.7 3.1-1.5 4.1 0.1 0.9 0.3 1.2 1.5 1 1.1-0.3 2.8-1 4.2-2.6s2.3-2.8 3.2-3.8c0.7-1 1.9-2.4 1.9-2.4" fill-rule="evenodd"/>
	<path clip-rule="evenodd" d="m235 326.4c0.4 0.6 0.9 1.2 1.6 1.6 1.3 0.8 2.7 0.5 3.7-0.3 0.4-0.3 0.5-0.8 0.6-1.3h4.7c1 0.6 2 1.3 2.8 2 1.5 1.4 2.9 3.6 2.9 3.6l0.7-0.5s1.2-1.4 1-3.1c0-0.6-0.4-1.4-1-2.1h7.1c0.1 1.8 0.3 3.5 0.3 3.5l2.2 1.8s-0.2-3.3-0.1-4.8c0-0.1 0.1-0.3 0.1-0.5h3.2c-0.3 3.3-0.3 6.9-0.3 6.9s-0.7 1-1.7 1.7c-1 0.7-3 0.3-4.8 0.3-1.7 0-2.5 1.3-2.5 2.7 0 0.5 0.2 1.8 0.5 3.5h-3c0-0.8-0.1-1.4-0.1-1.8 0-2.6 0.6-5.4 2.2-6.4 1.5-0.9 2.5-2 2.5-2s-4.4-0.7-6.3 3.1c-1.5 3.1-1.4 4.9-0.9 7.2h-2.1c0-0.1 0-0.1 0.1-0.1 0.1-1.5 0.5-3.2-1.4-4.7-2-1.6-5.8-3.2-7.4-3.8s-4.5-1.2-4.5-1.2 2.6 4.4 3.8 6.5c0.7 1.1 2 2.4 3.1 3.3h-3.3c-0.9-1-2.4-2.6-3.3-4-1.2-1.8-2-4.4-2.2-5.9-0.2-1.4-2.2-2.8-2.2-2.8s0.4 0 1.3 0.3c0.9 0.3 1 0.4 1.9 1s1.9 0.3 1.9 0.3l-1-0.9s-2-1.4-3.3-2.6c-0.2-0.2-0.4-0.3-0.5-0.6h3.7m48.8 0.1c-1.1 0.5-2.2 1.1-2.7 1.4-1.1 0.7 0 1.6 1.1 1.8 1.2 0.2 3.5 0.3 7.7 0.5 4.2 0.1 8.1 0.3 10.9 2.6 2.9 2.3 3.4 5 2.2 8.2l-0.3 0.6h-17.4c2.7-0.1 5.2-0.2 6.7-0.7 2.8-0.9 3.7-2.7 3.7-2.7s-0.6-0.3-1.7-0.7c-1.1-0.5-4-0.8-7.7-1-3.7-0.3-7-0.6-9.9-2.2-3-1.6-3.5-4.3-2.8-6.7 0.1-0.4 0.3-0.8 0.5-1h9.7m23.5-0.1c0.3 2.6 0.5 4.8 0.5 4.8l2.2-1.8s0.2-1.4 0.3-3.1h8.8c-0.9 2.1-0.6 4.1-0.6 4.1s2.4-0.9 2.9-2c0.4-1-0.2-0.6 1.4-2.1h10.1c0.1 0.1 0.3 0.2 0.6 0.2 0.4 0.1 0.8 0 1.2-0.2h4.1l-0.6 0.6c-1.5 1.1-3.1 2-3.1 2s0.7 0.2 1.7 0c0.9-0.2 2.4-0.2 2.4-0.2s-1.7 1.2-2.4 2.4c-0.7 1.3-0.4 2.5-1.5 5-1.2 2.4-2.6 3.3-3.7 3.8-0.9 0.5-1.4 1.2-1.6 1.4h-10.4l0.3-3.3c0.3-5.1-1.2-5.3-2.6-6.1s-4.9-1.7-4.9-1.7 0.3 0.9 0.6 1.7c0.3 0.8 1.4 1.1 2.7 1.7 1.3 0.5 1.4 0.7 1.8 2.2 0.3 0.9 0.3 3.3 0.1 5.6h-3.1c0-2.1-0.2-4-0.2-4.8-0.1-1.4-0.5-1.4-1.4-1.4-0.9-0.1-5.9 0-5.9 0s-1.2-0.7-1.9-1.6c-0.7-0.9-0.4-4.4-0.4-6.9 0-0.1 0-0.2-0.1-0.4h2.7m-96.3 15.2c1.1-2.6 2.4-4.7 2.4-4.7s-0.7 2.4-0.1 4.6v0.1h-2.3m120.3 0c0.4-0.1 0.9-0.2 1.4-0.4 1.4-0.5 2.4-1.4 2.4-1.4s-0.1 0.4-0.7 1.4c-0.1 0.1-0.1 0.3-0.2 0.4h-2.9m26.4 0c0.3-0.5 0.5-1 0.7-1.5 0.9-2 0.3-5.6 0.3-5.6s1.2 1.1 2.2 2.6c0.6 1.1 1.1 2.5 1.5 4.5h-4.7m-23.6-12.9s-2.4 1.7-5 2.2c-2.6 0.6-5 2.2-5.8 4-1 1.8-1 3.8-0.3 4.6 0.5 0.9 1.8 1.8 3.6 0.8s3.6-3.2 4.8-5c1-1.7 2.7-6.6 2.7-6.6" fill-rule="evenodd"/>
	<path clip-rule="evenodd" d="m229.4 318.9c0.2 0.2 0.5 0.4 0.7 0.6 0.7 0.7 1.5 0.9 1.5 0.9s0.2-0.6-0.2-1.1c-0.1-0.1-0.2-0.3-0.3-0.4h11.7c0.4 0.6 0.9 1.1 1.8 1.1 1.2 0.1 2-0.6 2.3-1.1h3.3c0.1 0.1 0.3 0.2 0.3 0.3 0.9 1 5.4 5.3 5.4 5.3s1-1.4 1-2.5c0-0.7-0.7-2-1.5-3.1h5.2c-0.6 1.2-1.2 2.8-1.5 4.1-0.2 0.9-0.2 2.2-0.1 3.4h-7.1c-0.9-1.1-2.2-2.2-3.5-3.2-2.2-1.6-4.4-1.2-6.3-1.7-1.8-0.5-5.7-0.8-7.3-1.2-1.6-0.3-2.2-1.4-2.2-1.4s0.8 4.4 1.4 5.8c0.3 0.6 0.6 1.2 1 1.7h-3.5c-0.9-1-1.4-2.3-1.7-4.4-0.3-1.4-0.7-2.5-1-3.1h0.6m36.8 0c-0.5 1.2-0.8 2.5-1.1 3.7-0.2 0.9-0.4 2.4-0.5 3.9h-3.2c0.2-1.6 0.7-4.1 1.2-5.7 0.1-0.5 0.4-1.2 0.6-1.8h3m22.1-0.1c0.5 0.4 0.8 1 0.9 1.4 0.7 1.8-0.4 3.4-2.2 4.4-0.9 0.5-2.1 1.1-3.2 1.7h-9.9c1-1.7 3.3-2.6 5.6-3.4 2.9-1 5.7-2.3 5.8-2.9 0.1-0.3-0.3-0.8-0.8-1.3h3.8m17.8 0c0.2 0.6 0.4 1.4 0.5 2.2 0.3 1.4 0.5 3.5 0.7 5.4h-2.5c0-2.2-0.6-5.2-1.9-7.5h3.2m7.1-0.1c-1.8 2.8-0.7 6.4-0.7 6.4s1.6-3.1 2.7-4.3c0.8-0.9 1.6-1.5 2.7-2.1h5.3c0.5 0.2 1.1 0.3 1.7 0.4 0.4 0 0.8-0.1 1.2-0.4h10.1c-0.6 0.3-1.3 0.6-2.1 0.8-2.3 0.5-4.2 0.3-7.1 0.9-3 0.7-5.7 2.1-7.3 4.6-0.3 0.4-0.5 0.7-0.6 1.1h-8.8c0.1-1.9 0.1-4.1-0.3-5.2-0.3-0.7-0.5-1.5-0.9-2.3h4.1m26.3 0.1c0.1 0.4 0.2 0.7 0.2 0.7s0.5-0.3 1-0.7c0-0.1 0.1-0.1 0.1-0.1h1.2l-0.3 0.6c-0.5 0.9-0.5 1.5-1 3.3-0.5 1.6-0.9 2.7-2 3.7h-4.1c1.2-0.7 2.3-2.4 3.1-3.9 0.5-1 0.5-2.6 0.4-3.7h1.4m-98.7 7.7c0.1-0.7 0-1.5 0-1.5s1.2-0.1 2.6 0.5c0.6 0.2 1.4 0.5 2.1 1h-4.7m81.9 0c0.1 0 0.2-0.1 0.2-0.3 1.8-1.7 2.4-1.6 5.1-2.4 2.6-0.7 4.5-0.5 4.5-0.5s-0.7 0.5-0.9 1.4c-0.2 0.7 0.2 1.4 1.2 1.8h-10.1" fill-rule="evenodd"/>
	<path clip-rule="evenodd" d="m229.5 311.3c0.3 0.6 0.9 0.7 0.9 0.7s0.2 0.2 0.4 1.8c0.3 1.6 1.4 3.1 2.4 3.9 1 0.9 3.4 0.5 5.1-0.5 1.7-0.9 1.4-2.8 1.4-2.8s-1.2 0.3-2.1 0.4c-1 0.1-2.2-0.4-3.1-0.9-1-0.5-1.3-2.5-1.3-2.5s0.7-0.2 1.9-0.2h0.6 100c-0.6 0.5-1.3 1-1.8 1.2-1.2 0.3-1.4 1-2.4 1.1s-0.9 2-0.9 2 1.9 1 3.4 1.2c1.5 0.2 2.7-0.8 4.3-1.7 1.2-0.7 2-2.4 2.5-3.7h2.6c-0.2 0.3-0.4 0.8-0.6 1.2-1 2.2-2 3.5-2.8 4.7-0.3 0.6-0.4 1.2-0.4 1.6h-1.4c-0.1-0.8-0.2-1.4-0.2-1.4s-0.6 0.7-1.7 1.4h-10.1c0.7-0.6 1.3-1.5 1.9-2.3 1-1.1 1.4-5.1 1.4-5.1s-3.5 1.5-4.8 2c-1.2 0.4-4.1 0.8-9 3.3-1.1 0.5-1.9 1.3-2.4 2.1h-4.1c-0.7-1.7-1.6-3.3-2.2-3.8-0.9-0.7-2.4-0.5-2.4-0.5s0.9 1.9 1.6 4.4h-3.3c-0.1-0.4-0.3-0.7-0.5-1-1.8-2.6-4.5-3.4-4.5-3.4l-14.2 0.2s3 2.2 4.7 4.2h-3.7c-0.3-0.3-0.5-0.5-0.8-0.7-1-0.7-3.2-2.4-5.2-3.1s-6.2-0.8-9-0.1c-1.6 0.4-2.7 2-3.3 4h-3c0.5-1.7 0.9-3.6 0.9-3.6s-1.4 0.7-2.4 1.7c-0.3 0.4-0.8 1.1-1.1 1.9h-5.2c-0.5-0.6-1-1.2-1.5-1.6-1.6-1-4.9-2.8-6.6-3.4-1.7-0.5-2.6-0.3-4.1-0.7-1.5-0.5-3.2-1.3-3.2-1.3s1 4.4 2 5.6c0.3 0.5 0.6 1 0.8 1.4h-11.7c-0.4-0.5-0.8-1.2-1.5-2.1-0.9-1.2-1.9-1.7-2.2-3.3-0.1-0.7-0.1-1.4-0.1-2.2h2m-0.7 7.5c-0.2-0.5-0.3-0.7-0.3-0.7s0.4 0.3 0.9 0.7h-0.6m18.1 0c0-0.2 0.1-0.3 0.1-0.4 0-0.7-0.5-1.5-0.5-1.5s2.6 1 3.7 1.9h-3.3m71.1-0.1c0.4-0.3 0.9-0.5 1.5-0.7 1.8-0.9 3.2-1.3 3.5-1.4-0.1 0.1-0.5 0.3-0.3 1.2 0.1 0.4 0.3 0.7 0.7 1h-5.4m22.8-0.1c0.5-0.4 1.8-1.2 1.8-1.2s-0.2 0.5-0.6 1.2h-1.2" fill-rule="evenodd"/>
	<path clip-rule="evenodd" d="m231.4 306.5c-0.2 1.1-1.5 2.2-1.9 3.5-0.1 0.5 0 0.9 0.1 1.2h-2.3c0.1-1 0.2-2 0.5-3.4 0.1-0.6 0.2-1 0.2-1.4h3.4m11.5 0.1v2h1.5v-2h1.2v2h1.6v-2h2.4v2h1.6v-2h1.2v2h1.6v-2h2.2v2h1.6v-2h1.2v2h1.7v-2h2.2v2h1.6v-2h1v2h1.7v-2h1.4v2h1.8v-2h3.1c-0.5 0.3-1.2 0.8-1.2 0.8s0.9 1.2 1.5 1.2h1.2l0.1-2h1.7c-0.1 0.2-0.1 0.4-0.1 0.7 0 1.8 1.7 1.9 1.7 1.9v-2.6h1.5c-0.1 0.2-0.1 0.4-0.1 0.7 0 1.8 1.9 1.9 1.9 1.9v-2.6h1.4l0.1 1.4 0.8 1.2h1.4v-2.6h1.1v2.6h1l1.2-1.2-0.1-1.4h1.6v2.6s1.9 0 1.9-1.8c0-0.3-0.1-0.5-0.1-0.8h1.6v2.6s1.7 0 1.7-1.8c0-0.3-0.1-0.5-0.1-0.8h1.6v2h1.2c0.5 0 1.4-1.2 1.4-1.2s-0.3-0.5-0.8-0.9h2.4v2h1.6v-2h1.6v2h1.7v-2h1.3v2h1.5v-2h1.7v2h1.6v-2h1.3v2h1.8v-2h1.5v2h1.5v-2h1.1v2h1.6v-2h2v2h1.8v-2h1.2v2h1.7v-2h6.5c0.1 0.3 0.2 0.5 0.3 0.8 0.8 1.5 1.6 0.7 2.5 0.9s0.9 1.4 0.9 1.4-0.8 0.9-1.7 1.7h-100c0.8-0.1 1.3-0.6 1.6-2.2 0.2-1-0.2-1.8-0.8-2.5h6.1m100.5 0c0.3 0.3 0.6 0.7 0.7 1.2 0.3 1.2-0.1 2.2-0.8 3.6h-2.6c0.2-0.5 0.4-0.9 0.5-1.2 0.4-1.2 0.4-2 0.4-2s-0.6-0.7-1.2-1.6h3m-105.4 3.4v1.2h97.4v-1.2h-97.4" fill-rule="evenodd"/>
	<path clip-rule="evenodd" d="m227 301.8c0.3 0.2 0.6 0.4 1 0.6 1.9 1.1 2.4 2 3.1 3.2 0.2 0.3 0.2 0.5 0.2 0.8h-3.3c0.2-0.9 0-1-0.2-1.7-0.3-0.8-2.1-1.8-3.6-3h2.8m10.5 0.1c0.7 0.9 1.6 1.7 1.6 1.7h1.5v-0.8h1.8v0.8h1.2v-0.8h1.7v0.8h1.8v-0.8h1.8v0.8h1.4v-0.8h1.8v0.8h1.6v-0.8h1.6v0.8h1.6v-0.8h1.6v0.8h1.8v-0.8h1.6v0.8h1.5v-0.8h1.8v0.8h1.6v-0.8h1.7v0.8h1.4v-0.8h1.8v0.8h1.6v-0.8h1.8v0.8h1.6v-0.8h1.7v0.8h1.7v-0.8h1.5v0.8h1.8v-0.8h1.4v0.8h1.6v-0.8h1.6v0.8h1.7v-0.8h1.6v0.8h1.6v-0.8h1.7v0.8h1.8v-0.8h1.6v0.8h1.5v-0.8h1.6v0.8h1.8v-0.8h1.8v0.8h1.4v-0.8h1.8v0.8h1.6v-0.8h1.8v0.8h1.4v-0.8h1.5v0.8h1.5v-0.8h1.7v0.8h1.6v-0.8h1.6v0.8h1.7v-0.8h1.7v0.8h1.6v-0.8h1.4v0.8h1.5v-0.5s1.1-0.3 2-1.2h4.7c-1.2 1-2 3.2-1.7 4.7h-6.5v-0.2h-1.7v0.2h-1.2v-0.2h-1.8v0.2h-2v-0.2h-1.6v0.2h-1.1v-0.2h-1.5v0.2h-1.5v-0.2h-1.8v0.2h-1.3v-0.2h-1.5v0.2h-1.7v-0.2h-1.5v0.2h-1.3v-0.2h-1.7v0.2h-1.6v-0.2h-1.6v0.2h-2.4c-0.2-0.1-0.5-0.2-0.8-0.2h-1v0.2h-1.6c-0.3-1.2-1.6-1.2-1.6-1.2v1.2h-1.6c-0.4-1.2-1.8-1.2-1.8-1.2v1.2h-1.6v-0.2l-1-0.9h-1.1v1.2h-1.1v-1.2h-1.3l-1 0.9v0.2h-1.4v-1.2s-1.4 0-1.8 1.2h-1.5v-1.2s-1.2 0-1.5 1.2h-1.7v-0.2h-1c-0.1 0-0.3 0.1-0.5 0.2h-3.1v-0.2h-1.8v0.2h-1.4v-0.2h-1.7v0.2h-1v-0.2h-1.6v0.2h-2.2v-0.2h-1.7v0.2h-1.2v-0.2h-1.6v0.2h-2.2v-0.2h-1.6v0.2h-1.2v-0.2h-1.6v0.2h-2.4v-0.2h-1.6v0.2h-1.2v-0.2h-1.5v0.2h-6.4c-0.7-0.8-1.6-1.4-2.3-2.2-1-0.9-1.4-1.8-2-2.5h5.5m105.5 0c-1 0.8-1.7 1.7-1.5 2.5 0.1 0.7 1.1 1.4 1.9 2.2h-3.1c-0.4-0.3-0.6-0.7-1-1-1.2-1.1-0.7-2.2-0.7-2.2s0.7-0.7 1.6-1.5h2.8" fill-rule="evenodd"/>
	<path clip-rule="evenodd" d="m226.8 296.2c0.9 1 2.3 1.5 4.3 2.7 2.4 1.4 4 2.9 4 2.9s-0.5-1.5-0.7-2.2c-0.3-0.7-0.1-1.4-0.1-1.4s0.2-0.5 1.4-1.4c0.3-0.2 0.6-0.4 0.7-0.7h3.9l-0.2 0.2c-0.7 0.7-2 1.3-2.7 2.4-0.8 1-0.8 1.9-0.1 3 0 0.1 0.1 0.1 0.1 0.1h-5.4c-0.3-0.4-0.7-0.7-1.2-0.9-1.5-0.8-1.2-0.1-2.6-0.7s-4.2-3.7-4.2-3.7 0.2 1.6 0.9 2.9c0.5 1.1 0.9 1.6 2 2.4h-2.9c-0.1-0.1-0.3-0.3-0.5-0.4-1.6-1.4-1.8-3.7-1.4-5.2v-0.1h4.7m18.6 0.1l-0.1 2.7h2.4v-2.7h1.6l0.1 2.8 2.4-0.1-0.1-2.7h2.2v2.9l2.4-0.1-0.1-2.8h3.5v2.1l1 0.8h1l1-0.8 0.1-2.1h2.5l-0.5 0.5 0.1 1 1 0.9h1.4l-0.1-2.4h3v2.4l1.5 1.3 1.6-0.1v-1.5h-0.9l0.1-2.1h3.7l0.1 2.1 1.5 1.6 1.3-0.1 0.1-3.6h2.3l0.1 2.1 1.9 2 3.4-0.1 1.9-1.8-0.1-2.1h2.5v3.5l1.4 0.1 1.5-1.5v-2.1h3.9l0.1 2h-0.9v1.6h1.2l1.5-1.5 0.2-2.1h3l0.2 2.4h1.2l1-1.3v-0.7l-0.5-0.4h2.3l0.1 2.1 0.7 0.8h1.7l0.7-0.7v-2.2h2.6l0.2 2.6h2.3v-2.6h2.4v2.7h2.3v-2.7h1.4l0.2 2.7h2.2v-2.7h2c-0.1 0.3-0.1 0.5-0.1 1.1-0.1 1.3 1.1 1 1.7 2 0.5 1-0.1 2.4-0.1 2.4h-87.3s-0.1-1.4 0.5-1.8c0.5-0.3 0.8-0.3 1.8-0.8 0.9-0.5 0.8-1 0.9-1.9 0-0.3-0.1-0.7-0.2-1h2.1m88.3-0.1l0.5 0.5v2.2l-0.1 1.3s1.7-1.3 3-2.2c1.2-0.7 2.2-1.1 3.4-1.9h3.3c-0.1 0.1-0.3 0.3-0.3 0.4-0.5 0.6-1.2 1.2-2.6 1.8-1.4 0.7-3.6 2.2-5.3 3.3-0.1 0.1-0.2 0.1-0.3 0.2h-4.7l0.2-0.2c0.9-0.9 0.5-2.1 0.3-3.5-0.1-0.7-0.4-1.4-0.8-2h3.4m13.3 0.1c0 0.4-0.1 0.9-0.2 1.3-0.5 1.6-1.9 2.9-3.2 3.8-0.2 0.2-0.4 0.3-0.6 0.5h-2.7l0.7-0.7c1.1-1.2 2.7-2.2 3.6-3.1 0.5-0.5 0.5-1.3 0.4-1.9h2" fill-rule="evenodd"/>
	<path clip-rule="evenodd" d="m222.3 296.2c0.4-1.4 1.4-2.4 2.1-3.2 0.8-0.8 2.2-1.2 2.2-1.2l-0.8 1.5c-0.3 0.7-0.2 1 0.7 2.4 0.1 0.2 0.3 0.3 0.4 0.5h-4.6m14.2 0c0.9-0.7 1.7-1.4 2.8-2.4 1.4-1.3 2.8-3 2.8-3h1.5v1h1.6v-1h2v1h1.7v-1h1.5v1h1.6v-1h1.5v1h1.7v-1h1.6v1h1.7v-1h1.6v1h1.6v-1h1.7v1h1.8v-1h1.7v1h1.6v-1h1.5v1h1.5v-1h1.9v1h1.5v-1h1.7v1h1.5v-1h1.7v1h1.7v-1h1.6v0.9h1.5v-0.9h2v1h1.7v-1h1.3v1h1.7v-1h1.4v1h1.6v-1h1.6v1h1.5v-1h1.7v1h1.7v-1h1.6v1h1.8v-1h1.6v1h1.6v-1h1.7v1h1.6v-1h1.6v1h1.6v-1h1.6v1h1.7v-1h1.6v1h1.8v-1h1.7v1h1.6v-1h1.4v1h1.3v-1h1.4v0.8h0.8l4.9 4.6h-3.3c-0.4-0.6-0.8-1.1-1-1.5-0.4-0.9-1-2.5-1-2.5s-0.7 2.1-1.4 3c-0.4 0.6-0.5 0.7-0.6 1h-2v-0.5h-2.4v0.5h-1.4v-0.6h-2.3v0.6h-2.4v-0.6h-2.5v0.6h-2.6v-0.3l-0.9-0.9h-1.4l-1 1v0.1h-2.3l-0.8-0.6-1.2 0.3v0.3h-3v-0.3l-1.6-1.3h-1.4l0.1 1.3 0.7 0.1v0.3h-3.9v-0.2l-1.5-1.4h-1.3v1.5h-2.5v-0.6l-2-2.1-3.2 0.1-2 2.2v0.5h-2.3v-1.3l-1.6-0.1-1.4 1.2v0.2h-3.7v-0.2l0.8-0.1-0.1-1.3h-1.6l-1.4 1.3v0.3h-3v-0.5h-1.5l-0.4 0.5h-2.5v-0.2l-0.8-1h-1.4l-1 0.9v0.3h-3.5v-0.3l-2.3-0.1v0.4h-2.2v-0.4l-2.4 0.1v0.3h-1.6v-0.4h-2.3v0.4h-2.1c-0.2-0.5-0.5-1-0.7-1.3-0.3-0.6-0.6-1.8-0.6-1.8s-0.3 0.8-0.5 1.4c-0.3 0.6-0.6 1.2-1.2 1.7h-3.8m104.1 0c0.2-0.1 0.5-0.2 0.7-0.4 1.7-0.9 2.4-1.3 2.7-2 0.3-0.8-0.7-1.7-0.7-1.7s0.1-0.1 0.7 0.3c0.6 0.4 1.7 0.9 2.3 1.7 0.3 0.6 0.7 1.2 0.7 2.1h-2c-0.2-0.6-0.4-1-0.4-1s-0.4 0.5-0.7 1h-3.3" fill-rule="evenodd"/>
	<path clip-rule="evenodd" d="m328.4 388.6s1.8-0.2 3.3-0.5c1.4-0.3 3.8-1.9 5.8-3.2 1.9-1.2 3.5-3.2 3.9-6.3 0.5-3.1-1.4-3.9-2.1-5.6-0.7-1.8-3-3.2-3.5-4-0.4-0.8 0.8-2.5 1-3.3 0.1-0.8 0.1-3.9 0.1-3.9s-0.5 1.8-1.4 3c-0.8 1.1-2.1 1-3.1 4.8-0.9 3.9 2.5 3.7 4.7 5.4 2.3 1.8 1.5 3.9 0.3 6.7-1 2.9-9 6.9-9 6.9z" fill-rule="evenodd"/>
	<path clip-rule="evenodd" d="m304.6 314.5s1.5 3.1 2 6.5c0.6 3.4 1.2 10.2 1.2 10.2l2.2-1.8s0.8-6.1 0-8.3-2.1-5.5-3-6.1-2.4-0.5-2.4-0.5z" fill-rule="evenodd"/>
	<path clip-rule="evenodd" d="m210.8 241.4c1.3 1.3 2.7 2 2.7 2l1.5-2h2.1l-2.6 3.2s2.5 2.3 5.4 3.4 5.5 1.5 7 0.7c1.5-0.7 0.9-2.1 1.6-2.8s1.9-0.5 2.5 0.5c0.5 1 0.5 3.6-0.5 5.2s-4.5 2.5-6.5 2.4-6.3-1-9.3-2.7c-2.9-1.6-7.5-5.2-10.1-9.9h6.2m28.6 0c0 0.7 0 1.5-0.2 1.8-0.4 0.6-0.3 1.8-0.3 1.8s0.3 1 1 1.8c0.7 0.7 1 1.4 2.2 0.4 1.1-0.9 2.4-2.6 2.7-4.3 0.1-0.5 0.2-1.1 0.3-1.6h7.7c-0.9 1.6-1.8 2.9-1.8 2.9l-4.5 12.2-1.5-0.4 2.2-6.7s-1.2 1.2-2.4 2c-1.3 0.8-4.1 2.7-5.6 3.1-1.5 0.3-3.4 0.8-4.6 0.7-1.3-0.1-2.5-1.3-2.5-1.3s0.8-1.9 1.4-2.1c0.5-0.1 2-0.3 2-0.3s1.7-1.6 1-2.8c-0.7-1.3-1.2-3.1-2.5-3.7-1.4-0.6-2.5-0.7-3.5-1.4-1-0.8-2-1.5-2.7-1.4s-1 0.9-1.4 1.8c-0.3 1-0.8 2-1.6 2.2s-1.8-0.1-1.8-0.1 0.1-1.2 0.6-1.9c0.4-0.5 1.1-1.8 1.5-2.6h14.3" fill-rule="evenodd"/>
	<path clip-rule="evenodd" d="m155.4 226.3v2.3h36.6v-2.3h4.1v13.7h-45.7v-13.6h5m56.8-0.1c0.3 0.4 0.9 1.1 1.4 1.2s0.8-0.6 1-1.2h3.7l-1.4 1.3-2.2 3.3s-2.9 3.6-3.7 4.1c-0.7 0.6-1.8 2.3-2.2 3.2-0.5 0.9 0.3 1.6 1.7 2.9 0.1 0.1 0.2 0.1 0.2 0.2h-6.2c-0.1-0.2-0.3-0.4-0.3-0.6-2.5-5-0.8-8.1-0.8-8.1s-0.9-2.4-1.5-3.1c-0.5-0.6-1.3-1.8-2-3.3h12.3m25.5 0.1c0 1 0.4 2.3 1 3.3 0.7 1.2 1.3 4.6 1.3 4.6l4.3-7.9h2l-6.3 10.7 0.1 3.1-0.7 0.5v0.7h-14c0.1-0.2 0.1-0.5 0.2-0.6 0.1-0.8 0.1-1.3 0.1-1.3s1.1 0.5 1-0.6c-0.1-1-1.1-0.5-1.1-0.5s0.4-1.5-0.5-2.9c-0.9-1.4-1.6-2.2-1.6-2.2l-6.6 8h-2.1l7.9-10.3s-0.1-0.2-0.2-0.7-1-2.4-1.6-3.5l-0.3-0.6h17.1m20.2 0.2l-1.4 3.9s-0.3 5.3-1.2 7c-0.4 0.9-1.4 2.6-2.3 4.1h-7.7c0.2-1.2 0.4-2.3 0-3.3-0.6-1.4-2-2.6-2-2.6s0.8-0.9 1.8-1.4c1-0.5 2.1-0.9 2.1-0.9s0.4-1 0.3-1.7c-0.1-0.8-0.7-1.7-0.7-1.7s0.6-1.6 1.2-2.6l0.6-0.9 9.3 0.1m-102.5 6.2v5.4h4.3v-5.4h-4.3m31.9 0v5.4h4.7v-5.4h-4.7m-6.1 0v5.4h3.4v-5.4h-3.4m-18.6 0v5.4h3.4v-5.4h-3.4m6.5 0v5.4h3.5v-5.4h-3.5m6.3 0v5.4h3.1v-5.4h-3.1" fill-rule="evenodd"/>
	<path clip-rule="evenodd" d="m191.4 203.7l-2.2 1.1v17.5h-32.3v-18.6h34.5m15.8 0c0.2 0.4 0.5 1 0.8 1.4 0.4 0.5 0.8 1.4 0.8 1.4l1-0.5 2-0.5 0.3-1.3-0.2-0.5h9.4c-1.4 1.1-2.6 2.4-3.1 3-0.9 1.2-0.3 3.2-0.3 3.2s1.2 1.1 1.8 2c0.7 0.9 1.9 2.7 1.9 2.7l11.4-11h2.5l-12.5 12s2.3 0.9 3.4 1.6 0.8 2 0.7 3.6c-0.1 2.2-1.7 1.6-1.6 1.9 0.4 1.1 2 2.5 3.4 1.2 1-0.9 1-4.9 1-4.9l2.9-2.9 3.2-0.9 9.2-11.6h2.2l-9.4 11.7 0.7 1.1h1.8l1.6-1.7s-0.5-1.2 0.5-1.8 2.2-1.1 3.4-0.8 4.9 1.7 4.9 1.7l5.7-10.3h2l-6 11.2s1.7 0.5 2.4 1.9c0.8 1.5 0.8 3.9 1 4.7 0.3 0.8 1 2.4 1 2.4l7.7-20.2h1.6l-8.4 22.6h-9.3l0.7-1.4-0.6-3.1-2.6 4.5h-2l4.4-8s-1-0.9-1.8-1.2c-0.8-0.2-1.7-0.1-2.8 0.1s-2 2.4-3 3.8c-1 1.5-2.7 3.2-3.1 4.4-0.1 0.3-0.2 0.5-0.2 0.8h-17c-0.5-0.8-0.9-1.3-0.9-1.3l-1.4 1.3h-3.7c0.1-0.2 0.1-0.4 0.2-0.6 0.3-0.7-0.2-2.2-0.2-2.2l-2.6 2.5s0.1 0.1 0.1 0.3h-12.1c-0.1-0.2-0.2-0.5-0.3-0.8-0.7-1.7-0.3-3.6-0.3-3.6l-2-1.3 1.1-1.7-6.5 4.6h4.1v2.9h-4.1v-0.1h-36.6v0.1h-5v-2.8h38.6l12.2-9.2s0.9-1 1-2.1 0.3-4.4-0.1-5.2c-0.5-0.8-0.5-1.9-0.5-1.9l-1.5-0.7-1.2-0.3-0.3-0.5h8.6m28.3 17.1l2.4 0.3 0.7-1.4s-1.2-0.8-1.7-0.7c-0.4 0.1-0.7 0.7-0.7 0.7l-0.7 1.1m-19 1.4l1.2 0.5s0.5-0.3 1.1-1c0.7-0.6 0.9-1.2 0.9-1.2l-0.5-1.2-2.7 2.9m-8.8 4.3l2.7-0.9 7.7-7.5s-1.7-2.3-2.7-3.5c-1-1.3-2.2-3.5-2.2-3.5l-3.1 2.2s-0.3 0.9-0.5 2.3-1.2 3.9-1.2 3.9-1.1 0.9-1.3 2.1c-0.1 1.1-0.1 3.7-0.1 3.7l0.7 1.2m-45.1-18.9v1.7h20.9v-1.7h-20.9m0 9v3.5h3.4v-3.5h-3.4m21.7 0h-3.5v3.5h3.5v-3.5m-9.4 0v3.5h3v-3.5h-3m-6.1 0v3.5h3.3v-3.5h-3.3" fill-rule="evenodd"/>
	<path clip-rule="evenodd" d="m156.9 203.7v-0.2h31.1l23.9-11.8v-1.2l1.2-1v-2.7s-0.9-0.1-2.4-0.9l-3.1-1.7v-1.6l-22.1 7.7-0.3 12.2h-23l-0.2-15.7 6.7-7.4 0.3-11 4.2-5.1 3.7 4.6 0.3 6.9 25.2-4.7s0.8-0.4-0.2-0.9c-0.9-0.5-2.2-0.9-2.2-0.9s1.2-1.3 2.2-1.7c0.9-0.5 2.4-1 2.4-1s-0.3-0.9 0.2-1.5c0.5-0.7 1.8-1.8 2.4-2.4 0.5-0.6 1.4-1.5 1.4-1.5l0.1-2.3h-25.8v-1.7l26-0.2s1.2-3.2 2.8-5.1c1.6-2 4.8-5 4.8-5l-16-2.9 0.2-1.9 38.6 7.2 1.3-0.7v-6.2s-1.2-0.3-2.2-0.5c-1-0.1-2.2-0.1-2.2-0.1l-0.3-1-18.4-7.2 1-1.9 19.2 7.7s1.8-0.3 2.6 0 2.2 1.8 2.2 1.8l27.5 11.1-0.5 1.6-21.8-8.5-0.3 1.1-0.7 0.3 0.2 3.7 21.9 4.1-0.3 1.6-17.7-3.2s-0.1 0.7 0.5 1c0.5 0.3 0.9 0.8 0.9 0.8l1.4 0.8h0.7l0.5 1 13.6 0.4v1.5h-16.2v1.2l1.6 1.1-1.2 0.2v0.8l15.3-2.6v1.4l-17.2 3.3v0.8l3.8 0.1 1.2 1.2 12-3.9 0.6 1.5-12.6 4.1s0.4 1.4 0.9 1.6 1.9 0.3 1.9 0.3l9.9-4.8 0.7 1.4-10.4 5.2 0.8 1.2 1.7 0.1 8.2-5.7 0.7 1.4-10.8 7.8 1.8 0.2 0.6 0.9 0.7-0.2 8.3-7.7 0.9 1.2-8 8 0.7 0.7-0.5 1.2h-1.4l-0.4 1.4-1 0.6h-2.2l-4.6 4.8s-0.2 1.5 0.3 2c0.4 0.6 1 1.2 1 1.2s1.8-1 2.4-1.6c0.5-0.6 14.3-17.3 14.3-17.3l1.4 1-10.7 13.2s-1.5 3.9-2.7 5.4c-1.2 1.6-5.2 4.1-5.2 4.1l-7.3 9h-2.2l5.9-7.4s-3.2-0.3-5.2 0.4l-4.8 1.7-5.6 5.4h-2.5l6.7-6.5s-0.7-1.2-2.5-2.2c-1.8-1.2-5.2 1.4-7.8 2.4-2.4 1.1-2.4 3.5-4.9 4.2-0.8 0.2-2.1 1.1-3.2 2.1h-9.4l-0.5-0.9s-0.7-1.7-1.1-2.6c-0.3-0.9-1.5-0.2-1.5-0.2s-0.7 0.3-1.2 0.7l-1.7 1 0.2 1 0.9 0.7s0.1 0.1 0.1 0.4h-8.7l-1.5-2.8-5.6 2.8h-34.7m99.6 0.2l17.4-31.2 1.1 0.7-16.4 30.4h-2.1m8.2 0.1l11.3-29.6 1.1 0.7-10.7 29h-1.7m-87.3-27l0.2 2.2 7 8 0.5 1.5 22.6-7.5s-0.2-1.4-0.4-2.4c-0.3-1-0.5-1.6-0.8-2.7-0.3-1-1-2.4-1-2.4l0.5-2-1-0.1-27.6 5.4m30.6-12.1l1.8 1.8 1.4-0.7-2-1.8-1.2 0.7m6.1 11.6l-0.9 0.7 0.3 0.8h1.4v-1l1-0.2 0.2-1-1.4-0.2-0.6 0.9m3.1-12.3l0.1 1.4h0.9l0.1-0.6 0.7-0.3 0.1-0.7 0.7-0.3-0.5-1-0.7 0.4v0.6h-0.6l-0.8 0.5m15.2 11.3c-0.2 0.7 0 1.1 0.5 1.3 0.5 0.3 0.9-0.1 1-0.7 0.1-0.5 0-0.7-0.5-0.9-0.3-0.1-0.8-0.4-1 0.3m5.3 8.4c-0.3 0.1-0.3 0.2-0.1 0.2-0.5 0.3-1.4 0.7-1.4 1.2-0.1 0.8 0.9 1.5 1.5 1.5 0.5 0 1.7-0.7 1.7-1.3 0-0.5-1.4-1-1.8-1.3 0.3-0.2 0.5-0.3 0.1-0.3m3.1-10.7s-0.7 1.2-0.2 1.5c0.4 0.2 1.6 0.1 1.6 0.1l0.3 0.7 0.8-0.2v-0.8l0.6-0.4-0.2-0.8h-0.8s0.1-1.2-0.5-1.2c-0.5-0.2-1.7 0-1.7 0l0.1 1.1m1.9-15.1l-0.7 0.8-0.6 0.6 0.7 0.4 0.1 2 0.7-0.1 0.8-0.2 0.1-1.5-0.2-1.2-0.9-0.8m4.6 11.6l0.5 1 0.7 1 0.7-0.2 0.6-0.7 0.7-1.2-0.7-0.4-1.1 0.2-1.4 0.3m1.3 18.8l-2.2-0.7s-0.6-0.8-1.6-0.3-1.9 1.5-2.7 2.2c-0.7 0.7-1.9 1.1-1.3 1.7 0.6 0.5 1.7 1.4 2.5 1 0.8-0.5 2.2-1.5 2.2-1.5l0.7-1.2 1.3 0.1 1.1-1.3m-30.2 1.9s0.5 3-0.5 3.7c-0.9 0.7-1.8 1.1-1.8 1.1s0.4 1.5-0.1 2.9c-0.5 1.4-0.8 2-0.8 2l0.3 1.7s1.3 0.7 2.2-0.2c0.9-0.7 1.7-2.7 3.5-4.3s3.3-3.1 4.8-3.7c1.6-0.7 4.9-3.2 4.9-3.2l-2.9-4.1-9.6 4.1m-1.3-1.3l12.8-5.7-1.4-1.5-1.5-0.1-0.9-1.2s0.2-1.6 0.5-2.4-0.2-1.5-0.2-1.5l-2.2 0.6s-0.3 1.1-1.2 2.9c-0.9 1.9-1.1 2.3-2.2 3.6-1 1.4-3.7 3.9-3.7 3.9v1.4m7.9-21s0.4 1.2 0 1.7c-0.3 0.5-1.2 1.4-1.2 1.4l0.3 4.3 3.1-0.4s2.7-1.4 3.9-2.2c1.1-0.8 3.1-2 3.1-2l3.7-0.4 0.3-2s-1-0.2-1.3-0.9-0.9-1.5-0.9-1.5l-11 2m-7.1-9.8l0.3 1.6s2.9-0.2 4.5 0.3c1.6 0.6 2.7 1.2 3.3 2 0.7 1 1.8 1.5 1.8 1.5s-0.6 1.2-1.2 1.4c-0.7 0.2-1.8 1.2-1.8 1.2l10.5-1.8 0.1-2.7s-0.4-0.8-1-1.6c-0.5-0.8-0.9-1.9-0.9-1.9h-15.6m3.7-11.4s-3.7 1.5-4.1 2.3c-0.5 0.7-0.3 2.7-0.3 3.8 0 1.2 0.2 3.2 0.2 3.2l14.3-0.1s0-1.8 1.2-3.1c1.3-1.2 5.2-2.9 5.2-2.9l-16.5-3.2m-22.7 53.2s3.3-0.1 4.5-0.5 4.3-1.7 5.2-2.5 1.9-3 1.9-3l-11.6 6m-25.6-23.1l-1.8 3.2v1.7l3.6-0.1-0.1-1.8-1.7-3m-7.4 18.1v1.1h14.5v-1l-14.5-0.1m2.4 2.7l-0.1 3.9h3.1v-3.9h-3m6.4-0.1l0.1 3.9h3v-3.9h-3.1m-4.6-8.7l0.2 0.8 1.8 1.5h2l1.8-1.4v-0.9h-5.8" fill-rule="evenodd"/>
		<path d="m52.6 311.4l16.6-1.9 0.4 3.3-7.4 0.9 8.2 5.9 0.5 4.5-7.2-5.5-9.4 7.8-0.5-4.3 7.2-5.5-3.1-2.4-5 0.6-0.3-3.4z"/>
		<path d="m54.6 327.4l16.5-2.7 0.5 3.3-16.4 2.7-0.6-3.3z"/>
		<path d="m55.6 333.5l16.3-3.5 0.7 3.2-9.5 9 10.9-2.3 0.6 3-16.3 3.5-0.7-3.3 9.3-8.9-10.7 2.3-0.6-3z"/>
		<path d="m67.4 356l2.7-0.8 2.1 7-6.4 1.9c-0.9-0.5-1.7-1.3-2.6-2.4s-1.5-2.4-1.9-3.7c-0.5-1.7-0.6-3.2-0.3-4.7 0.3-1.4 1.1-2.7 2.2-3.7s2.4-1.8 4-2.2c1.7-0.5 3.3-0.6 4.7-0.3 1.5 0.3 2.8 1 3.9 2.2 0.8 0.9 1.5 2.1 1.9 3.6 0.6 2 0.6 3.6 0.1 5s-1.4 2.4-2.8 3.2l-1.6-3c0.7-0.5 1.2-1.1 1.5-1.8s0.3-1.6 0-2.5c-0.4-1.4-1.2-2.4-2.4-3-1.1-0.6-2.6-0.6-4.4-0.1-1.9 0.6-3.2 1.4-3.9 2.5s-0.8 2.4-0.4 3.7c0.2 0.7 0.6 1.3 1 1.9 0.5 0.6 1 1.1 1.5 1.5l2-0.6-0.9-3.7z"/>
		<path d="m66.7 373.4l15.4-6.5 2 4.6-9.3 7.2 11.6-1.7 2 4.7-15.4 6.5-1.2-2.9 12.1-5.1-13.4 2-1.3-3 10.8-8.1-12.1 5.1-1.2-2.8z"/>
		<path d="m81.6 387.3c1.5-0.8 2.9-1.2 4.2-1.3 0.9-0.1 1.8 0 2.7 0.3s1.7 0.7 2.3 1.2c0.9 0.7 1.6 1.7 2.2 2.9 1.1 2.2 1.4 4.3 0.7 6.3s-2.2 3.6-4.6 4.9c-2.4 1.2-4.6 1.6-6.6 1s-3.6-2-4.8-4.1c-1.1-2.2-1.4-4.3-0.7-6.3 0.7-2.1 2.2-3.7 4.6-4.9zm1.7 3c-1.7 0.9-2.7 1.9-3.2 3.1s-0.4 2.4 0.3 3.6c0.6 1.2 1.6 2 2.8 2.3s2.7 0 4.4-0.9 2.8-1.9 3.2-3.1 0.3-2.4-0.3-3.6-1.6-2-2.8-2.3c-1.3-0.3-2.7 0-4.4 0.9z"/>
		<path d="m83.3 408l14.2-8.8 1.7 2.8-5.9 11.7 9.5-5.9 1.7 2.6-14.2 8.8-1.8-2.9 5.7-11.5-9.3 5.8-1.6-2.6z"/>
		<path d="m102 425.2l2.3-1.7 4.3 5.8-5.3 3.9c-1-0.2-2.1-0.6-3.3-1.4s-2.2-1.7-3-2.8c-1-1.4-1.6-2.8-1.8-4.3s0.1-2.9 0.8-4.2 1.7-2.4 3-3.4c1.4-1 2.9-1.7 4.4-1.9s3 0 4.4 0.7c1.1 0.5 2.1 1.4 3 2.7 1.2 1.7 1.8 3.2 1.8 4.7 0 1.4-0.5 2.8-1.6 3.9l-2.5-2.3c0.5-0.7 0.8-1.4 0.8-2.2s-0.3-1.6-0.9-2.4c-0.9-1.2-1.9-1.9-3.2-2s-2.6 0.3-4.1 1.4c-1.6 1.2-2.5 2.4-2.8 3.7s0 2.5 0.9 3.7c0.4 0.6 1 1 1.6 1.5 0.6 0.4 1.3 0.7 1.9 0.9l1.7-1.2-2.4-3.1z"/>
		<path d="m103.7 437.4l12.7-10.9 2.2 2.6-5.6 4.9 10.1 0.3 3 3.4-9-0.5-3.4 11.7-2.8-3.3 2.9-8.6-3.9-0.3-3.8 3.3-2.4-2.6z"/>
		<path d="m126.7 438.5l2.4 2.4-6.4 6.4c-1 1-1.6 1.7-1.9 2.1-0.4 0.6-0.5 1.2-0.4 1.9s0.5 1.3 1.1 2c0.7 0.7 1.3 1 1.9 1.1s1.2-0.1 1.6-0.4c0.5-0.3 1.2-1 2.1-1.9l6.5-6.5 2.4 2.4-6.2 6.2c-1.4 1.4-2.5 2.3-3.2 2.8-0.7 0.4-1.5 0.7-2.2 0.8s-1.5-0.1-2.3-0.4-1.7-1-2.6-1.9c-1.1-1.1-1.8-2.1-2.2-3-0.3-0.8-0.4-1.7-0.4-2.4 0.1-0.8 0.3-1.4 0.6-2 0.5-0.8 1.4-1.9 2.8-3.2l6.4-6.4z"/>
		<path d="m130 464.7l9.1-10.4-3.7-3.2 1.9-2.1 9.9 8.7-1.8 2.1-3.7-3.2-9.1 10.4-2.6-2.3z"/>
		<path d="m144.4 462.8l1.5-2.8 1.8-2.2 2.7 2.2-1.8 2.2-2.4 2.1-1.8-1.5z"/>
		<path d="m144.1 469.6l2.8 1.7c-0.5 1-0.6 1.9-0.5 2.6 0.2 0.8 0.7 1.5 1.5 2.1 0.9 0.6 1.7 1 2.4 0.9 0.7 0 1.2-0.3 1.6-0.8 0.2-0.3 0.4-0.7 0.3-1 0-0.4-0.2-0.8-0.5-1.3-0.2-0.3-0.8-1.1-1.7-2.2-1.2-1.4-1.9-2.6-2.1-3.6-0.3-1.3 0-2.6 0.8-3.6 0.5-0.7 1.1-1.2 2-1.5 0.8-0.3 1.7-0.4 2.7-0.1 1 0.2 1.9 0.7 3 1.5 1.7 1.2 2.7 2.5 3 3.9s0 2.7-0.8 4l-2.8-1.9c0.4-0.8 0.5-1.4 0.4-2-0.2-0.6-0.6-1.1-1.4-1.7s-1.5-0.9-2.2-0.9c-0.4 0-0.8 0.2-1 0.5s-0.3 0.7-0.2 1.1c0.1 0.5 0.7 1.4 1.8 2.7s1.8 2.3 2.2 3.1 0.5 1.6 0.5 2.5c-0.1 0.8-0.4 1.7-1 2.5s-1.3 1.3-2.2 1.7-1.9 0.4-2.9 0.2-2.1-0.8-3.3-1.6c-1.7-1.3-2.7-2.6-3-4.1-0.6-1.6-0.3-3.1 0.6-4.7z"/>
		<path d="m167.4 472.3l2.9 1.7-4.7 7.8c-0.7 1.2-1.2 2-1.3 2.5-0.2 0.7-0.2 1.3 0 1.9 0.3 0.6 0.8 1.2 1.6 1.7s1.5 0.7 2.1 0.6 1.1-0.3 1.5-0.8 0.9-1.2 1.6-2.3l4.8-7.9 2.9 1.7-4.5 7.5c-1 1.7-1.8 2.9-2.4 3.5s-1.2 1-1.9 1.3c-0.7 0.2-1.5 0.3-2.4 0.2s-1.9-0.5-3-1.2c-1.3-0.8-2.3-1.6-2.8-2.3s-0.9-1.5-0.9-2.2c-0.1-0.8-0.1-1.5 0.1-2.1 0.3-0.9 0.9-2.2 1.9-3.8l4.5-7.8z"/>
		<path d="m173.7 495.4l7.5-14.9 2.9 1.5 1.1 13.1 5-10 2.8 1.4-7.5 14.9-3-1.5-1.1-12.9-4.9 9.8-2.8-1.4z"/>
		<path d="m188.3 502.6l6.8-15.2 3.1 1.4-6.8 15.3-3.1-1.5z"/>
		<path d="m197.9 506.6l0.5-17.7 3.4 1.3-0.6 13 8.3-10 3.3 1.3-11.5 13.5-3.4-1.4z"/>
		<path d="m208.7 510.8l5-15.9 11.8 3.7-0.8 2.7-8.6-2.7-1.1 3.4 8 2.5-0.8 2.7-7.9-2.5-1.4 4.3 8.8 2.8-0.8 2.7-12.2-3.7z"/>
		<path d="m223.9 515.4l3.8-16.2 6.9 1.6c1.7 0.4 3 0.8 3.7 1.3s1.2 1.1 1.5 2c0.3 0.8 0.3 1.8 0.1 2.7-0.3 1.2-0.9 2.1-1.8 2.8-0.9 0.6-2.1 0.9-3.6 0.7 0.6 0.6 1.1 1.2 1.4 1.8s0.7 1.6 1.2 3.1l1.2 3.6-3.9-0.9-1.5-4.1c-0.5-1.5-0.9-2.4-1.2-2.8-0.2-0.4-0.5-0.7-0.8-0.9s-0.8-0.4-1.6-0.6l-0.7-0.1-1.6 6.8-3.1-0.8zm5.5-8.6l2.4 0.6c1.6 0.4 2.5 0.6 3 0.5 0.4 0 0.8-0.2 1.1-0.5s0.5-0.6 0.6-1.1 0.1-1-0.1-1.4-0.6-0.7-1.1-1c-0.2-0.1-1.1-0.3-2.4-0.6l-2.6-0.6-0.9 4.1z"/>
		<path d="m240.7 513.7l3.3 0.2c0 1.1 0.3 2 0.8 2.6s1.3 1 2.3 1.2c1.1 0.2 1.9 0.1 2.5-0.3 0.6-0.3 1-0.8 1.1-1.5 0.1-0.4 0-0.7-0.2-1s-0.5-0.6-1.1-0.9c-0.4-0.2-1.2-0.6-2.5-1.1-1.7-0.7-2.9-1.5-3.5-2.2-0.9-1.1-1.2-2.2-1-3.5 0.1-0.8 0.5-1.6 1.1-2.2s1.4-1.1 2.3-1.3 2.1-0.2 3.3-0.1c2 0.3 3.5 1 4.4 2.1s1.3 2.4 1.1 3.9l-3.4-0.4c0-0.9-0.2-1.5-0.6-2-0.4-0.4-1.1-0.7-2-0.9-0.9-0.1-1.7-0.1-2.3 0.2-0.4 0.2-0.6 0.5-0.7 0.9s0 0.8 0.3 1.1c0.4 0.4 1.3 0.9 2.9 1.6 1.6 0.6 2.7 1.2 3.4 1.8 0.7 0.5 1.2 1.2 1.5 2s0.4 1.7 0.2 2.7c-0.2 0.9-0.6 1.8-1.2 2.5-0.7 0.7-1.5 1.2-2.5 1.5s-2.3 0.3-3.7 0c-2.1-0.3-3.6-1.1-4.6-2.2-0.9-1.3-1.3-2.9-1.2-4.7z"/>
		<path d="m255.5 521.4l1.9-16.6 3.4 0.4-1.9 16.6-3.4-0.4z"/>
		<path d="m265.4 522.4l1-13.8-4.9-0.4 0.2-2.8 13.2 0.9-0.2 2.8-4.9-0.4-1 13.8-3.4-0.1z"/>
		<path d="m279.9 523.1l0.1-7-6-9.7 3.9 0.1 3.9 6.6 3.9-6.6h3.9l-6.2 9.6-0.1 7h-3.4z"/>
		<path d="m295.3 514.8c-0.1-1.7 0-3.1 0.4-4.3 0.3-0.9 0.7-1.7 1.3-2.4s1.3-1.3 2-1.7c1-0.5 2.2-0.8 3.5-1 2.5-0.2 4.5 0.4 6.1 1.8s2.5 3.4 2.7 6.2c0.2 2.7-0.3 4.8-1.6 6.5s-3.2 2.6-5.7 2.8-4.5-0.4-6.1-1.8c-1.4-1.5-2.3-3.5-2.6-6.1zm3.5-0.4c0.2 1.9 0.7 3.3 1.7 4.2s2.1 1.3 3.5 1.2c1.3-0.1 2.4-0.7 3.2-1.7s1.1-2.5 0.9-4.4-0.7-3.3-1.7-4.2c-0.9-0.8-2.1-1.2-3.4-1.1-1.4 0.1-2.5 0.7-3.2 1.7-0.9 0.9-1.2 2.4-1 4.3z"/>
		<path d="m315.1 521.2l-2.6-16.5 11.3-1.8 0.4 2.8-7.9 1.2 0.6 3.9 6.8-1.1 0.5 2.8-6.9 1.1 1.1 7-3.3 0.6z"/>
		<path d="m338.2 516.8l-3.3-13.5-4.8 1.2-0.7-2.8 12.8-3.2 0.7 2.8-4.8 1.2 3.3 13.5-3.2 0.8z"/>
		<path d="m348.6 514.2l-5.1-15.9 11.8-3.7 0.9 2.7-8.6 2.7 1.1 3.5 7.9-2.5 0.8 2.7-7.9 2.5 1.4 4.3 8.9-2.8 0.8 2.7-12 3.8z"/>
		<path d="m371.3 499.6l3.4-0.3c0.2 1.9-0.1 3.5-0.8 4.7-0.7 1.3-1.9 2.2-3.6 2.9-2.1 0.8-4.1 0.8-5.9-0.1-1.9-0.9-3.3-2.5-4.3-5-1-2.6-1.2-4.8-0.4-6.8 0.8-1.9 2.2-3.4 4.4-4.2 1.9-0.8 3.7-0.8 5.3-0.2 1 0.4 1.9 1.1 2.7 2.2l-2.8 2c-0.5-0.7-1.2-1.2-1.9-1.4-0.8-0.2-1.6-0.2-2.4 0.1-1.2 0.4-2 1.2-2.3 2.3-0.4 1.1-0.2 2.6 0.5 4.4 0.8 2 1.7 3.2 2.7 3.7 1.1 0.6 2.1 0.6 3.3 0.2 0.8-0.3 1.5-0.9 1.8-1.7 0.4-0.6 0.5-1.6 0.3-2.8z"/>
		<path d="m379.6 502.8l-7.3-15 3.1-1.5 2.9 5.9 5.9-2.8-2.9-5.9 3-1.5 7.3 15-3 1.5-3.2-6.5-5.9 2.9 3.2 6.6-3.1 1.3z"/>
		<path d="m395 495.1l-8.4-14.4 2.8-1.6 11.5 6.2-5.6-9.7 2.7-1.6 8.4 14.4-2.9 1.7-11.3-6.1 5.5 9.5-2.7 1.6z"/>
		<path d="m404.6 479.9c-1-1.4-1.6-2.7-1.8-3.9-0.2-0.9-0.2-1.8 0-2.8 0.2-0.9 0.5-1.7 0.9-2.5 0.6-1 1.5-1.8 2.6-2.6 2-1.4 4.1-1.9 6.2-1.5s3.9 1.8 5.4 4 2.1 4.4 1.8 6.4c-0.3 2.1-1.5 3.8-3.5 5.2s-4.1 1.9-6.1 1.5c-2.2-0.3-4-1.5-5.5-3.8zm2.8-2c1.1 1.6 2.2 2.5 3.5 2.8s2.5 0.1 3.6-0.7c1.1-0.7 1.7-1.8 1.9-3.1 0.1-1.3-0.3-2.7-1.4-4.3s-2.2-2.5-3.5-2.8c-1.2-0.3-2.4-0.1-3.6 0.7-1.1 0.8-1.8 1.8-1.9 3.1-0.2 1.3 0.3 2.7 1.4 4.3z"/>
		<path d="m425 475.6l-10.3-12.9 2.6-2.1 8.5 10.7 6.5-5.2 1.8 2.2-9.1 7.3z"/>
		<path d="m430.1 461c-1.1-1.3-1.9-2.5-2.3-3.7-0.3-0.9-0.4-1.8-0.4-2.7s0.2-1.8 0.6-2.6c0.5-1 1.2-2 2.2-2.9 1.8-1.7 3.8-2.4 5.9-2.3s4.1 1.2 5.9 3.2 2.7 4 2.7 6.1-1 4-2.7 5.6c-1.8 1.7-3.8 2.5-5.9 2.3-2.2-0.1-4.2-1.1-6-3zm2.5-2.5c1.3 1.4 2.6 2.1 3.9 2.3 1.3 0.1 2.5-0.3 3.4-1.2 1-0.9 1.5-2 1.4-3.3 0-1.3-0.7-2.7-2-4.1s-2.6-2.2-3.8-2.3c-1.3-0.1-2.4 0.3-3.4 1.2s-1.5 2.1-1.5 3.3c0 1.4 0.7 2.7 2 4.1z"/>
		<path d="m450.5 444l-2.1-1.9 4.9-5.3 4.9 4.5c0 1-0.2 2.1-0.7 3.5-0.5 1.3-1.3 2.5-2.2 3.5-1.2 1.3-2.5 2.1-3.9 2.6-1.4 0.4-2.8 0.4-4.3 0-1.4-0.5-2.7-1.2-3.9-2.3-1.3-1.2-2.2-2.5-2.7-4s-0.5-2.9-0.1-4.4c0.3-1.2 1-2.3 2.1-3.5 1.4-1.5 2.8-2.4 4.3-2.7 1.4-0.3 2.8 0 4.2 0.8l-1.8 2.9c-0.8-0.4-1.5-0.5-2.3-0.3-0.8 0.1-1.5 0.6-2.2 1.3-1 1.1-1.5 2.3-1.4 3.5 0.1 1.3 0.8 2.5 2.2 3.8 1.5 1.4 2.8 2 4.2 2.1 1.3 0 2.5-0.5 3.4-1.5 0.5-0.5 0.9-1.1 1.2-1.8s0.4-1.4 0.5-2l-1.6-1.4-2.7 2.6z"/>
		<path d="m464.9 436.7l-5.5-4.4-11.3-1.2 2.5-3.1 7.6 1-2.8-7.1 2.4-3 3.8 10.8 5.5 4.4-2.2 2.6z"/>
		<path d="m476.8 420.6l-11.6-7.6-2.7 4.1-2.4-1.6 7.3-11 2.4 1.6-2.7 4.1 11.5 7.7-1.8 2.7z"/>
		<path d="m482.7 411.5l-14.5-8.3 1.7-2.9 5.7 3.3 3.2-5.7-5.7-3.3 1.7-2.9 14.5 8.2-1.7 2.9-6.3-3.6-3.3 5.8 6.3 3.6-1.6 2.9z"/>
		<path d="m483.4 393.6c-1.6-0.7-2.7-1.6-3.6-2.5-0.6-0.7-1.1-1.5-1.4-2.4s-0.5-1.7-0.4-2.6c0-1.1 0.4-2.3 0.9-3.6 1.1-2.2 2.6-3.7 4.6-4.3 2-0.7 4.3-0.4 6.7 0.7 2.5 1.1 4 2.7 4.8 4.7s0.6 4.1-0.4 6.3c-1.1 2.2-2.6 3.7-4.6 4.4s-4.2 0.4-6.6-0.7zm1.4-3.2c1.7 0.8 3.2 1 4.4 0.7 1.3-0.4 2.2-1.2 2.7-2.4 0.6-1.2 0.6-2.4 0.1-3.6s-1.6-2.2-3.4-3c-1.7-0.8-3.2-1-4.4-0.7-1.2 0.4-2.1 1.2-2.7 2.4-0.6 1.3-0.7 2.5-0.2 3.7 0.6 1.1 1.7 2.1 3.5 2.9z"/>
		<path d="m498.9 379.7l-15.6-5.9 1.2-3.1 12.9-2.4-10.4-4 1.1-2.9 15.6 5.9-1.2 3.2-12.7 2.4 10.2 3.9-1.1 2.9z"/>
		<path d="m488.9 358.8l1.9-6.4c0.4-1.3 0.7-2.2 1-2.8s0.7-1.1 1.2-1.5 1-0.7 1.7-0.8c0.7-0.2 1.3-0.1 2 0.1 0.8 0.2 1.4 0.6 1.9 1.2s0.8 1.3 0.9 2c0.6-0.9 1.3-1.5 2.1-1.8 0.9-0.3 1.7-0.3 2.6-0.1 0.7 0.2 1.4 0.6 2 1.1s1 1.2 1.2 1.9 0.3 1.5 0.1 2.4c-0.1 0.5-0.5 1.9-1 3.9l-1.6 5.5-16-4.7zm3.6-2.5l3.7 1.1 0.6-2.1c0.4-1.2 0.6-2.1 0.7-2.3 0.1-0.6 0-1.1-0.2-1.5s-0.6-0.7-1.1-0.8-0.9-0.1-1.3 0.1-0.7 0.5-0.9 1l-0.9 2.7-0.6 1.8zm6.3 1.9l4.2 1.3 0.9-3c0.3-1.2 0.5-1.9 0.5-2.2 0-0.5 0-1-0.3-1.4-0.2-0.4-0.6-0.7-1.2-0.8-0.5-0.1-0.9-0.1-1.3 0-0.4 0.2-0.7 0.4-1 0.8s-0.6 1.3-1.1 2.8l-0.7 2.5z"/>
		<path d="m493.3 343.5l0.7-3.3 8.8 1.9c1.4 0.3 2.3 0.5 2.8 0.5 0.7 0 1.3-0.2 1.8-0.6 0.5-0.5 0.9-1.1 1.1-2.1 0.2-0.9 0.2-1.7-0.1-2.2-0.3-0.6-0.7-0.9-1.2-1.1s-1.4-0.5-2.7-0.8l-9.1-2 0.7-3.3 8.6 1.9c2 0.4 3.3 0.8 4.1 1.2s1.4 0.8 1.8 1.4c0.5 0.6 0.8 1.3 0.9 2.2s0.1 2-0.2 3.2c-0.3 1.6-0.8 2.7-1.3 3.4s-1.1 1.3-1.8 1.6c-0.7 0.4-1.3 0.5-2 0.5-1 0-2.4-0.2-4.2-0.6l-8.7-1.8z"/>
		<path d="m513.1 330.2l-16.5-2.3 1-7c0.3-1.8 0.6-3 1-3.8s1-1.3 1.8-1.7 1.7-0.5 2.7-0.3c1.3 0.2 2.2 0.7 2.9 1.5s1 2 1 3.5c0.5-0.7 1.1-1.2 1.6-1.6 0.6-0.4 1.6-0.9 2.9-1.5l3.5-1.6-0.6 4-3.9 1.9c-1.4 0.7-2.3 1.1-2.7 1.4s-0.7 0.6-0.8 0.9c-0.2 0.3-0.3 0.9-0.4 1.6l-0.1 0.7 6.9 1-0.3 3.3zm-9-4.7l0.3-2.5c0.2-1.6 0.3-2.6 0.2-3s-0.3-0.8-0.6-1c-0.3-0.3-0.7-0.4-1.2-0.5s-1 0-1.4 0.2c-0.4 0.3-0.7 0.6-0.8 1.2-0.1 0.3-0.2 1.1-0.4 2.4l-0.4 2.6 4.3 0.6z"/>
		<path d="m515.2 314l-16.6-1.5 0.3-3.4 16.6 1.5-0.3 3.4z"/>
		<path d="m123.5 365.9c-0.7 0.3-1.2 0.4-1.7 0.2-0.4-0.2-0.8-0.6-1.1-1.3l-0.6-1.3 2.5-5-1.9 0.8c-0.6 0.3-1.2 0.3-1.7 0.1-0.2-0.1-0.4-0.3-0.6-0.4-0.2-0.3-0.4-0.5-0.5-0.9l-0.4-1c-0.3-0.8-0.3-1.6 0-2.3 0.4-0.7 1-1.2 1.9-1.6 0.4-0.2 0.9-0.3 1.2-0.4 0.4 0 0.7 0 1.1 0.2 0.7 0.2 1.3 0.7 1.6 1.4l1.1-0.4c0.3-0.1 0.6-0.2 0.8-0.1-0.2-0.4-0.3-0.8-0.3-1.1s0-0.7 0.2-1.1c0.3-0.7 0.8-1.2 1.5-1.5s1.4-0.3 2.1 0 1.2 0.9 1.6 1.7c0.2 0.4 0.3 0.8 0.3 1.2s0 0.8-0.2 1.1c-0.2 0.7-0.8 1.2-1.6 1.6l-4.2 1.8 0.1 0.2c0.1 0.3 0.2 0.4 0.2 0.6 0.1 0.2 0.1 0.3 0.1 0.5 0 0.1 0 0.3-0.1 0.5s-0.2 0.5-0.4 0.8l-1 2 9.3-4 1.3 3.2-10.6 4.5zm-4-9.9l1.9-0.8c-0.2-0.6-0.7-0.8-1.4-0.5-0.3 0.1-0.5 0.3-0.6 0.5s-0.1 0.4 0 0.6l0.1 0.2zm8.5-2.2c0.2-0.1 0.4-0.3 0.5-0.5s0.1-0.5 0-0.8-0.3-0.4-0.6-0.6c-0.2-0.1-0.5-0.1-0.8 0-0.2 0.1-0.4 0.3-0.6 0.5-0.1 0.2-0.1 0.5 0 0.8s0.3 0.5 0.5 0.5c0.5 0.2 0.8 0.2 1 0.1z"/>
		<path d="m138.6 375.7c-0.3 0.2-0.6 0.3-1 0.3h-0.9c0 0.2-0.1 0.4-0.3 0.6-0.1 0.2-0.3 0.4-0.6 0.5l-7 3.7-1.6-3 6.8-3.6c0.2-0.1 0.4-0.2 0.3-0.3s-0.2-0.2-0.5-0.2l-8.7 0.3-1.5-2.8 6.7-3.6c0.1-0.1 0.3-0.1 0.4-0.1 0.2 0 0.3 0 0.4 0.1-0.2-0.4-0.3-0.7-0.4-1.1s0-0.7 0.1-1.1c0.2-0.7 0.6-1.2 1.3-1.6s1.4-0.4 2-0.2c0.7 0.2 1.3 0.7 1.7 1.5 0.2 0.4 0.4 0.8 0.4 1.2 0.1 0.4 0 0.8-0.1 1.1-0.2 0.7-0.7 1.3-1.5 1.7l-2.4 1.3c-0.2 0.1-0.5 0.2-0.9 0.4s-0.9 0.3-1.4 0.5c-0.3 0.1-0.5 0.1-0.7 0.2s-0.5 0.1-0.9 0.2l1.5-0.3c1-0.2 1.7-0.2 2-0.2h1.4 0.3c0.1 0 0.2 0.1 0.4 0.1l0.5 0.2 0.4-0.6c0.1-0.1 0.2-0.2 0.4-0.3s0.3-0.2 0.3-0.2c0.7-0.4 1.4-0.4 2.1-0.2s1.3 0.8 1.7 1.6 0.6 1.6 0.3 2.4c-0.1 0.4-0.2 0.7-0.4 0.9 0 0.2-0.3 0.4-0.6 0.6zm-4.6-8.6c0.6-0.3 0.7-0.7 0.4-1.3-0.1-0.2-0.3-0.4-0.6-0.5-0.3 0-0.5 0-0.7 0.1-0.6 0.3-0.7 0.8-0.4 1.3 0.1 0.2 0.3 0.4 0.6 0.4 0.2 0.1 0.4 0.1 0.7 0zm3.6 6.8c0.2-0.1 0.4-0.3 0.5-0.6 0.1-0.2 0.1-0.5-0.1-0.8-0.1-0.3-0.3-0.4-0.6-0.6-0.3-0.1-0.5-0.1-0.8 0.1-0.2 0.1-0.4 0.3-0.5 0.6 0 0.3 0 0.6 0.2 0.9 0.1 0.3 0.4 0.4 0.6 0.6 0.2-0.1 0.4-0.1 0.7-0.2z"/>
		<path d="m136.1 392.3l-1.9-2.9 8.3-5.3c0.7-0.4 0.8-1 0.4-1.6l-1.1-1.8c-0.4-0.6-0.9-0.7-1.6-0.3l-0.7 0.4-1.9-2.9 0.8-0.5c0.5-0.3 0.9-0.5 1.4-0.6s0.9 0 1.4 0.1c0.9 0.3 1.8 0.9 2.5 2l1.7 2.7c1.4 2.1 1.1 3.9-0.9 5.1l-8.4 5.6z"/>
		<path d="m152.1 397.1l-5.9 4.3c-0.7 0.5-1.4 0.7-2.1 0.6-0.8-0.1-1.4-0.5-2-1.3-0.3-0.4-0.5-0.7-0.6-1.1-0.1-0.3-0.1-0.7-0.1-1.1 0.1-0.7 0.5-1.3 1.1-1.8s1.3-0.6 2-0.5 1.4 0.5 1.9 1.2v-0.2c0-0.1 0-0.3 0.1-0.3l3.3-2.5c0.6-0.5 0.7-1 0.3-1.6l-1.2-1.7c-0.5-0.6-1-0.6-1.6-0.1l-0.7 0.5-2.1-2.7 0.8-0.6c0.8-0.6 1.7-0.8 2.7-0.7 1 0.2 1.9 0.8 2.7 1.8l1.9 2.6c0.4 0.5 0.6 1 0.8 1.4 0.2 0.5 0.2 1 0.2 1.4-0.1 0.9-0.6 1.7-1.5 2.4zm-7.3 2.7c0.5-0.4 0.6-0.9 0.2-1.4-0.2-0.2-0.4-0.3-0.7-0.4-0.3 0-0.5 0.1-0.7 0.2-0.5 0.4-0.6 0.9-0.2 1.4 0.2 0.2 0.4 0.3 0.6 0.3 0.3 0.1 0.6 0 0.8-0.1z"/>
		<path d="m156.3 393.7l-7.6-9.4c1.3-1 2.6-1.4 3.9-1.1 1.4 0.3 2.6 1.1 3.6 2.4s1.6 2.6 1.7 4.1c0.1 1.6-0.4 3-1.6 4zm-0.7-3.6c0.1-0.2 0.2-0.4 0.2-0.7v-0.9c-0.2-0.6-0.5-1.2-0.9-1.7-0.5-0.6-0.9-1-1.5-1.2-0.5-0.2-1-0.2-1.5 0l3.7 4.5z"/>
		<path d="m154.3 414.7l-2.3-2.6 7.7-6.9-9.9 4.5-1.4-1.6c-0.5-0.6-0.8-1.1-0.8-1.6 0-0.3 0.1-0.5 0.2-0.8 0.2-0.3 0.4-0.5 0.7-0.8l4.1-3.5c0.1-0.1 0.3-0.2 0.4-0.2 0.2-0.1 0.3-0.1 0.4 0-0.3-0.3-0.5-0.6-0.6-1-0.1-0.3-0.2-0.7-0.2-1.1 0-0.7 0.3-1.4 0.9-1.9s1.2-0.7 1.9-0.7 1.4 0.4 2 1.1 0.9 1.4 0.9 2.1c0 0.8-0.4 1.4-1 2l-2.6 2.1-3.3 2.6 1.1-0.6c0.4-0.2 0.7-0.4 1.1-0.5l0.6-0.3 6.8-3.2 1.3 1.4c0.7 0.8 1 1.6 0.9 2.4-0.1 0.7-0.4 1.3-1.1 1.9l-7.8 7.2zm1.8-14.5c0.5-0.4 0.5-0.9 0.1-1.4-0.2-0.2-0.4-0.3-0.7-0.3s-0.5 0.1-0.7 0.3c-0.5 0.4-0.5 0.9-0.1 1.4 0.2 0.2 0.4 0.3 0.7 0.3 0.2-0.1 0.5-0.1 0.7-0.3z"/>
		<path d="m167.4 422.4c-0.7 0.8-1.6 1.2-2.5 1.2s-1.8-0.4-2.8-1.3l-3-2.8c-0.9-0.9-1.4-1.8-1.4-2.7 0-0.4 0.1-0.9 0.2-1.3 0.2-0.4 0.5-0.8 0.9-1.3l0.7-0.8c0.4-0.4 0.9-0.7 1.5-0.7 0.4 0 0.9 0.1 1.2 0.3-0.2-0.3-0.4-0.7-0.4-1.1-0.1-0.5 0.1-1 0.5-1.4l1.5-1.5c0.6-0.6 1.2-0.9 1.9-0.9s1.5 0.3 2.2 0.9c0.6 0.6 1 1.3 1 2s-0.2 1.4-0.8 1.9c-0.5 0.6-1.1 0.9-1.8 0.9-0.7 0.1-1.3-0.2-1.9-0.8-0.3 0.3-0.2 0.6 0.1 1l1.3 1.2-1.6 1.7-1.1-1c-0.5-0.4-0.9-0.4-1.4 0.1l-0.5 0.5c-0.6 0.6-0.5 1.2 0.2 1.9l1.5 1.4c0.7 0.7 1.3 0.7 1.9 0.1l6.8-7.2 2.5 2.3-6.7 7.4zm-0.5-10.9c0.5-0.5 0.5-0.9 0-1.4-0.2-0.2-0.4-0.3-0.7-0.2-0.3 0-0.5 0.2-0.7 0.3-0.5 0.5-0.5 1 0 1.4 0.2 0.2 0.4 0.2 0.7 0.2 0.2 0 0.5-0.1 0.7-0.3z"/>
		<path d="m175.5 433.7l-2.7-2.2 6.2-7.7c0.5-0.6 0.5-1.2-0.1-1.7l-1.6-1.3c-0.6-0.5-1.1-0.4-1.6 0.2l-0.5 0.6-2.7-2.1 0.6-0.8c0.3-0.5 0.7-0.8 1.1-1s0.8-0.3 1.3-0.4c1 0 2 0.4 3 1.2l2.5 2c2 1.6 2.2 3.3 0.8 5.2l-6.3 8z"/>
		<path d="m189.1 440.4c-0.9 1.2-1.9 1.4-3.3 0.5l-1.4-0.9 1.3-5.8v-0.4-0.3c0-0.2-0.2-0.4-0.5-0.6l-0.5-0.4c-0.3-0.2-0.5-0.2-0.7 0.1l-0.3 0.4c0.6 0.4 0.9 1 1 1.7s0 1.3-0.5 2c-0.4 0.6-1 1-1.7 1.1s-1.5 0-2.2-0.5c-0.4-0.3-0.7-0.6-0.9-0.9s-0.4-0.6-0.5-1c-0.1-0.8 0-1.5 0.5-2.2l1.9-2.7c0.5-0.8 1.1-1.2 1.8-1.2 0.4 0 0.7 0 1.1 0.1s0.8 0.3 1.2 0.6l2.1 1.4c0.6 0.4 1 0.8 1.1 1.1 0.2 0.3 0.2 0.8 0 1.4l-0.4 1.2-0.8 1.9-0.3 0.7c0.2-0.3 0.3-0.5 0.4-0.7s0.3-0.5 0.4-0.7l1.2-2 1.4-2.1c0.4-0.7 0.4-1.2-0.3-1.7l-2.5-1.7c-0.6-0.4-1.2-0.3-1.6 0.3l-0.1 0.1-2.8-1.9 0.2-0.3c0.6-0.8 1.4-1.3 2.4-1.5 1-0.1 2 0.2 3.1 0.9l3.4 2.3c1.1 0.7 1.7 1.5 1.9 2.4s0 1.8-0.7 2.7l-4.4 6.6zm-6.4-4.8c0.4-0.5 0.3-1-0.2-1.3-0.2-0.2-0.5-0.2-0.8-0.2-0.3 0.1-0.5 0.2-0.6 0.4-0.4 0.6-0.3 1 0.2 1.4 0.2 0.1 0.4 0.2 0.7 0.1 0.3 0 0.5-0.2 0.7-0.4z"/>
		<path d="m202.7 426.5c-1 1.6-2.2 2.5-3.7 2.7-1.5 0.3-3.1-0.1-4.8-1.2-1.2-0.7-2-1.6-2.5-2.6-0.2-0.5-0.3-1-0.3-1.5s0.2-1 0.5-1.5c0.2-0.3 0.4-0.6 0.7-0.8s0.6-0.3 0.9-0.4c0.7-0.2 1.4 0 2.1 0.4s1.1 1 1.3 1.7 0.1 1.3-0.3 1.9c-0.2 0.3-0.4 0.5-0.6 0.7-0.2 0.1-0.4 0.2-0.7 0.3 0.8 0.5 1.5 0.6 2.3 0.4s1.4-0.7 1.9-1.5l0.1-0.2c0-0.1 0.1-0.1 0.1-0.2s0.1-0.1 0.1-0.1l2.9 1.9zm-7.7-2.1c0.3-0.5 0.2-0.9-0.3-1.3-0.2-0.1-0.4-0.2-0.7-0.1-0.2 0-0.4 0.2-0.6 0.4-0.3 0.5-0.2 1 0.3 1.3 0.1 0.1 0.2 0.1 0.4 0.1h0.4c0.2 0 0.4-0.1 0.5-0.4z"/>
		<path d="m202.2 446.4c-0.5 1-1.2 1.5-2.1 1.8-0.9 0.2-1.9 0-3-0.6l-3.6-2c-1.1-0.6-1.8-1.4-2-2.3-0.1-0.4-0.2-0.9-0.1-1.3 0.1-0.5 0.3-0.9 0.5-1.4l0.5-0.9c0.3-0.5 0.7-0.9 1.3-1.1 0.4-0.1 0.9-0.1 1.3 0-0.3-0.2-0.5-0.6-0.7-1-0.2-0.5-0.1-1 0.2-1.5l1.1-1.9c0.4-0.7 1-1.2 1.7-1.4s1.5-0.1 2.3 0.4c0.8 0.4 1.3 1 1.5 1.7s0.1 1.4-0.3 2-0.9 1.1-1.6 1.3c-0.6 0.2-1.3 0.1-2-0.3-0.2 0.4-0.1 0.7 0.4 0.9l1.6 0.9-1.1 2-1.3-0.7c-0.6-0.3-1-0.2-1.3 0.4l-0.3 0.6c-0.4 0.7-0.2 1.3 0.6 1.8l1.8 1c0.8 0.5 1.4 0.3 1.8-0.4l4.9-8.6 3 1.7-5.1 8.9zm-3.1-10.4c0.3-0.6 0.2-1-0.3-1.3-0.2-0.2-0.5-0.2-0.7-0.1-0.3 0.1-0.5 0.2-0.6 0.5-0.3 0.6-0.2 1 0.3 1.3 0.2 0.1 0.4 0.1 0.7 0.1 0.2-0.1 0.4-0.3 0.6-0.5z"/>
		<path d="m209.6 451.2c-0.3 0.7-0.8 1.2-1.5 1.4s-1.5 0.2-2.3-0.2-1.4-1-1.7-1.7c-0.2-0.7-0.2-1.4 0.2-2.2l4.8-9.8 3.1 1.5-3.3 6.8-0.3 0.3s-0.1 0-0.2 0.1c-0.1 0-0.1 0.1-0.2 0.1 0.4 0.2 0.7 0.4 1 0.6 0.2 0.3 0.4 0.6 0.6 1 0.2 0.7 0.2 1.4-0.2 2.1zm-1.6-0.9c0.3-0.6 0.2-1-0.4-1.3-0.2-0.1-0.5-0.1-0.7 0-0.3 0.1-0.4 0.3-0.5 0.5-0.3 0.6-0.2 1.1 0.4 1.3 0.2 0.1 0.5 0.1 0.7 0 0.1 0 0.3-0.2 0.5-0.5z"/>
		<path d="m221.9 459.1l-3.2-1.3 3.9-9.6-6.9 8.4-2-0.8c-0.7-0.3-1.2-0.7-1.4-1.1-0.1-0.2-0.2-0.5-0.2-0.8s0.1-0.6 0.2-1l2.1-4.9c0.1-0.1 0.2-0.3 0.3-0.4s0.2-0.2 0.4-0.2c-0.4-0.2-0.7-0.4-1-0.6s-0.5-0.5-0.6-0.9c-0.3-0.7-0.3-1.4 0-2.1s0.7-1.2 1.4-1.4c0.7-0.3 1.4-0.3 2.3 0.1s1.4 0.9 1.7 1.6 0.3 1.4 0 2.2l-1.4 3.1-1.8 3.8 0.8-1c0.2-0.3 0.5-0.6 0.7-0.9 0.2-0.2 0.3-0.4 0.4-0.5l4.7-5.8 1.7 0.7c1 0.4 1.6 1 1.9 1.7 0.2 0.6 0.2 1.4-0.2 2.2l-3.8 9.5zm-4.7-13.8c0.2-0.6 0.1-1-0.5-1.3-0.2-0.1-0.5-0.1-0.8 0-0.2 0.1-0.4 0.3-0.5 0.5-0.2 0.6-0.1 1 0.5 1.3 0.2 0.1 0.5 0.1 0.7 0 0.3-0.1 0.4-0.3 0.6-0.5z"/>
		<path d="m237 463.9l-3.3-1 2.9-9.4c0.2-0.8 0-1.3-0.7-1.5l-3.4-1.1c-0.7-0.2-1.2 0.1-1.4 0.8l-1 3.2-1.2 3.6 0.6-1.1 1.5-3.4c0.2-0.6 0.6-1 1.2-1.2 0.5-0.3 1.1-0.3 1.7-0.1 0.7 0.2 1.1 0.6 1.4 1.2s0.3 1.2 0.1 1.9-0.6 1.1-1.1 1.5c-0.5 0.3-1.1 0.4-1.9 0.2l-0.5-0.2-2.4 4.4-2.4-0.7c-1.6-0.5-2.1-1.4-1.7-2.8l2.3-7.5c0.3-1 0.9-1.7 1.8-2.1 0.4-0.2 0.9-0.3 1.5-0.3 0.5 0 1.1 0.1 1.8 0.3l4.1 1.3c1.3 0.4 2.2 1 2.7 1.8s0.6 1.7 0.3 2.8l-2.9 9.4zm-3-8.5c0.1-0.3 0.1-0.5 0-0.7 0-0.2-0.2-0.3-0.5-0.4-0.1 0-0.2-0.1-0.3 0-0.1 0-0.2 0.1-0.3 0.1-0.2 0.1-0.3 0.3-0.4 0.5s-0.1 0.5 0 0.7 0.3 0.3 0.5 0.4h0.3c0.1 0 0.2-0.1 0.3-0.1 0.1-0.1 0.3-0.3 0.4-0.5z"/>
		<path d="m251.8 446.7l-3.3-0.8c0.3-1-0.1-1.7-0.9-1.9l-1.3-0.3c-0.6-0.1-0.9 0.1-1.1 0.6l-0.1 0.5 0.8 0.2c1.8 0.4 2.5 1.4 2.1 3.1l-2.7 11.4c0 0.1-0.1 0.3-0.2 0.4 0 0-0.1 0.1-0.2 0.1 0 0-0.1 0.1-0.2 0.1 0.4 0.1 0.8 0.2 1.1 0.4s0.5 0.5 0.7 0.8c0.4 0.6 0.5 1.3 0.3 2.1s-0.6 1.3-1.2 1.7-1.4 0.5-2.2 0.3c-0.9-0.2-1.6-0.6-2-1.3-0.4-0.6-0.5-1.3-0.3-2.2l3.4-14.4c0.2-0.7-0.1-1.1-0.7-1.3l-2.4-0.6 0.5-2.1c0.2-0.9 0.7-1.6 1.5-1.9 0.7-0.4 1.6-0.4 2.7-0.2l3.2 0.7c1.2 0.3 2 0.8 2.4 1.6 0.3 1.1 0.3 2 0.1 3zm-6.7 16.4c0.2-0.6-0.1-1.1-0.7-1.2-0.2-0.1-0.5 0-0.7 0.1-0.2 0.2-0.3 0.4-0.4 0.6-0.2 0.7 0.1 1.1 0.7 1.2 0.2 0.1 0.5 0 0.7-0.1 0.1-0.1 0.3-0.3 0.4-0.6z"/>
		<path d="m262.3 466.1c-0.1 0.7-0.5 1.3-1.1 1.8-0.3 0.2-0.6 0.3-1 0.4-0.3 0.1-0.7 0.1-1.2 0-0.4-0.1-0.7-0.2-1.1-0.4-0.3-0.2-0.6-0.4-0.8-0.7-0.4-0.6-0.6-1.3-0.5-2l-3.7 2-3.1-0.5 1.2-7.5c0-0.2 0.1-0.3 0.2-0.4l0.3-0.3c-0.4-0.1-0.8-0.2-1.1-0.4s-0.6-0.4-0.8-0.7c-0.5-0.6-0.6-1.3-0.5-2.1 0.1-0.7 0.5-1.3 1.1-1.7s1.4-0.6 2.2-0.4c0.5 0.1 0.9 0.2 1.2 0.4s0.6 0.4 0.9 0.7c0.4 0.6 0.6 1.3 0.5 2.2l-1.2 7.5 2.7-1.3c0.5-0.2 0.9-0.3 1.3-0.2 0.4 0 0.6-0.1 0.6-0.5l1.2-7.5 3.4 0.5-1.2 7.6c-0.1 0.3-0.2 0.5-0.5 0.7 0.4 0.2 0.7 0.6 0.9 1.1 0.2 0.7 0.2 1.2 0.1 1.7zm-9.4-10c0.1-0.6-0.1-1-0.8-1.1-0.3 0-0.5 0-0.7 0.2s-0.3 0.4-0.4 0.6c-0.1 0.7 0.2 1 0.8 1.1 0.3 0 0.5 0 0.7-0.2 0.3-0.1 0.4-0.3 0.4-0.6zm7.5 9.6c0.1-0.7-0.2-1-0.8-1.1-0.3 0-0.5 0-0.7 0.2s-0.3 0.4-0.4 0.7c-0.1 0.7 0.1 1.1 0.8 1.2 0.2 0 0.5 0 0.7-0.2 0.2-0.3 0.4-0.5 0.4-0.8z"/>
		<path d="m273.3 449.6l-3.3-0.3c0.1-1-0.3-1.6-1.2-1.7l-1.4-0.1c-0.6-0.1-0.9 0.2-1 0.8v0.5l0.8 0.1c1.8 0.2 2.7 1.1 2.5 2.8l-1.1 11.7c0 0.1-0.1 0.3-0.2 0.4l-0.1 0.1s-0.1 0.1-0.2 0.1c0.4 0 0.8 0.1 1.1 0.3s0.6 0.4 0.9 0.7c0.5 0.5 0.6 1.2 0.6 2-0.1 0.7-0.4 1.4-1 1.9s-1.3 0.7-2.2 0.6-1.6-0.4-2.1-0.9c-0.5-0.6-0.7-1.3-0.6-2.2l1.4-14.7c0.1-0.7-0.2-1.1-0.9-1.2l-2.4-0.2 0.2-2.2c0.1-0.9 0.5-1.6 1.2-2.1s1.6-0.6 2.6-0.5l3.3 0.3c1.2 0.1 2.1 0.6 2.6 1.3 0.4 0.5 0.6 1.4 0.5 2.5zm-4.4 17.1c0.1-0.7-0.2-1-0.9-1.1-0.3 0-0.5 0-0.7 0.2s-0.3 0.5-0.3 0.7c-0.1 0.7 0.2 1.1 0.8 1.1 0.2 0.1 0.5 0 0.7-0.2 0.2-0.1 0.3-0.4 0.4-0.7z"/>
		<path d="m284.5 467.8c0 1.5-0.9 2.2-2.5 2.2l-1.6-0.1-2-5.5c-0.1-0.1-0.1-0.3-0.2-0.4s-0.2-0.2-0.2-0.3c-0.1-0.2-0.4-0.2-0.8-0.2h-0.6c-0.3 0-0.5 0.1-0.5 0.5v0.5c0.7 0 1.3 0.3 1.8 0.9 0.5 0.5 0.7 1.1 0.7 1.9s-0.3 1.4-0.8 2c-0.5 0.5-1.3 0.8-2.1 0.7-0.5 0-0.9-0.1-1.2-0.2-0.4-0.1-0.7-0.3-1-0.6-0.5-0.5-0.8-1.3-0.8-2.1l0.1-3.3c0-0.9 0.3-1.6 0.9-2 0.3-0.2 0.6-0.4 1-0.5s0.9-0.2 1.4-0.1l2.5 0.1c0.7 0 1.2 0.1 1.5 0.4 0.3 0.2 0.5 0.6 0.7 1.1l0.4 1.2 0.4 2 0.2 0.8v-0.9c0-0.3 0-0.5-0.1-0.8l-0.1-2.3 0.1-2.5c0-0.8-0.3-1.2-1.1-1.3l-3-0.1c-0.8 0-1.2 0.4-1.2 1.2v0.2l-3.4-0.1v-0.3c0-1 0.4-1.9 1.2-2.5s1.8-1 3.1-0.9l4.1 0.1c1.3 0 2.2 0.4 2.9 1 0.6 0.6 0.9 1.5 0.9 2.6l-0.7 7.6zm-8-0.6c0-0.7-0.3-1-0.9-1-0.3 0-0.5 0.1-0.7 0.3s-0.3 0.4-0.3 0.7c0 0.7 0.3 1 0.9 1 0.3 0 0.5-0.1 0.7-0.3 0.1-0.2 0.3-0.4 0.3-0.7z"/>
		<path d="m299.1 465.8c0.1 1.1-0.2 2-0.8 2.6-0.6 0.7-1.5 1.1-2.8 1.1l-4.1 0.2c-1.3 0.1-2.3-0.2-2.9-0.8-0.3-0.3-0.6-0.6-0.8-1.1-0.2-0.4-0.3-0.9-0.4-1.5v-1c0-0.6 0.1-1.2 0.5-1.6 0.3-0.4 0.6-0.6 1-0.7-0.4 0-0.8-0.2-1.1-0.5-0.4-0.3-0.6-0.8-0.6-1.3l-0.1-2.1c0-0.8 0.2-1.5 0.7-2.1s1.2-0.9 2.2-0.9c0.9 0 1.6 0.2 2.2 0.6 0.5 0.5 0.8 1.1 0.9 1.9 0 0.7-0.2 1.4-0.6 1.9s-1.1 0.8-1.9 0.9c0 0.4 0.3 0.6 0.8 0.6l1.8-0.1 0.1 2.3-1.5 0.1c-0.6 0-0.9 0.4-0.9 1.1l0.1 0.7c0 0.8 0.5 1.2 1.5 1.1l2.1-0.1c1-0.1 1.4-0.5 1.4-1.3l-0.5-9.8 3.4-0.2 0.3 10zm-8.3-7.2c0-0.7-0.4-1-1-0.9-0.3 0-0.5 0.1-0.7 0.3s-0.2 0.5-0.2 0.7c0 0.7 0.4 1 1 1 0.2 0 0.4-0.1 0.6-0.4 0.2-0.1 0.3-0.3 0.3-0.7z"/>
		<path d="m298.9 453.9l-12.1 1.2c-0.1-1.6 0.3-2.9 1.3-3.9 1-0.9 2.4-1.5 4-1.7 1-0.1 2 0 2.9 0.3l-0.2-2 3.4-0.3 0.7 6.4zm-3.4-1.4c-0.1-0.2-0.3-0.4-0.5-0.5-0.2-0.2-0.5-0.3-0.8-0.4-0.6-0.2-1.2-0.3-2-0.2-0.7 0.1-1.3 0.3-1.8 0.6s-0.7 0.7-0.8 1.2l5.9-0.7z"/>
		<path d="m316.5 465c0.2 1.3-0.5 2.1-2 2.3l-1.6 0.2-3.4-7.7-1.1 8.4-1.6 0.3c-0.8 0.1-1.4 0.1-1.8-0.2-0.4-0.2-0.7-0.7-0.8-1.5l-0.8-5.5c0-0.2 0-0.3 0.1-0.4 0-0.2 0.1-0.3 0.2-0.4-0.4 0.1-0.8 0.1-1.1 0-0.4-0.1-0.7-0.2-1-0.5-0.6-0.5-0.9-1-1.1-1.8-0.1-0.7 0.1-1.4 0.5-2s1.1-0.9 2-1.1c0.5-0.1 0.9-0.1 1.3 0s0.7 0.2 1 0.5c0.6 0.4 1 1 1.1 1.9l0.3 2.3c0 0.3 0.1 0.6 0.1 1.1 0 0.4 0.1 1 0.1 1.8 0.1 0.4 0.1 1.1 0.1 2.1l0.1-1.6 0.2-2.2 0.7-6.4 1.3-0.2 2.6 5.9 1 2.6c0.1 0.2 0.1 0.3 0.1 0.4s0.1 0.2 0.2 0.5l-0.5-2-0.6-2.8-0.7-5 3.4-0.5 1.7 11.5zm-12.3-7.3c-0.1-0.7-0.4-0.9-1.1-0.8-0.3 0-0.5 0.2-0.6 0.4s-0.2 0.5-0.2 0.7c0.1 0.7 0.5 0.9 1.1 0.8 0.3 0 0.5-0.2 0.6-0.4 0.2-0.2 0.2-0.5 0.2-0.7z"/>
		<path d="m327.8 454.3l-3.5 0.8c-0.2-0.8-0.7-1.2-1.4-1l-2 0.5c-0.4 0.1-0.6 0.3-0.8 0.5-0.1 0.2-0.2 0.5-0.1 0.9l0.1 0.6 4.1-1c0.6-0.1 1.1-0.2 1.5-0.2 0.5 0 0.9 0.1 1.2 0.2 0.7 0.3 1.1 1 1.4 2l0.8 3.6c0.2 0.8 0.1 1.5-0.3 2.2s-1 1.1-2 1.3c-0.4 0.1-0.8 0.1-1.2 0.1s-0.7-0.2-1-0.4c-0.6-0.4-1-1-1.2-1.7s-0.1-1.4 0.3-2 1-1 1.8-1.2h-0.2c-0.2 0-0.2-0.1-0.2-0.2l-0.2-1c0-0.1-0.1-0.2-0.2-0.3h-0.3c-0.1 0-0.3 0-0.6 0.1l-6.5 1.6-0.8-3.2c-0.1-0.5-0.1-1-0.1-1.4 0.1-0.4 0.2-0.8 0.5-1.2 0.5-0.7 1.3-1.2 2.4-1.5l4.1-1c1.2-0.3 2.1-0.2 2.8 0.3 0.9 0.5 1.3 1.4 1.6 2.6zm-0.5 7.6c-0.1-0.7-0.5-0.9-1.1-0.8-0.3 0.1-0.4 0.2-0.6 0.4-0.1 0.3-0.1 0.5-0.1 0.8 0.2 0.7 0.6 0.9 1.2 0.8 0.3-0.1 0.4-0.2 0.5-0.4 0.1-0.3 0.1-0.5 0.1-0.8z"/>
		<path d="m339.1 447.2c0.6 1.8 0.5 3.3-0.2 4.6s-2 2.2-3.8 2.8c-1.3 0.4-2.5 0.5-3.6 0.2s-1.8-1-2.2-2c-0.2-0.7-0.2-1.3 0.2-2 0.3-0.6 0.9-1.1 1.7-1.4s1.5-0.2 2.1 0.1c0.3 0.1 0.6 0.3 0.8 0.6 0.2 0.2 0.4 0.5 0.5 0.9 0 0.1 0.1 0.3 0.1 0.4v0.4c0 0.2 0 0.4-0.1 0.6 0.3-0.1 0.6-0.3 0.8-0.4 0.2-0.2 0.4-0.4 0.5-0.7s0.2-0.6 0.2-1c0-0.3-0.1-0.7-0.2-1.1-0.1-0.2-0.2-0.5-0.4-0.8l3.6-1.2zm-6.2 4.4c-0.2-0.6-0.6-0.8-1.1-0.6s-0.7 0.6-0.5 1.1c0.2 0.6 0.5 0.8 1.1 0.6 0.4-0.2 0.6-0.6 0.5-1.1zm8.5 2.7c0.5 1.7 0.5 3.2-0.3 4.6-0.7 1.3-2 2.2-3.8 2.8-1.3 0.4-2.5 0.5-3.6 0.2s-1.8-1-2.1-2c-0.2-0.7-0.2-1.3 0.2-2 0.3-0.6 0.9-1.1 1.7-1.4s1.5-0.2 2.1 0.1c0.7 0.3 1.1 0.8 1.3 1.5 0 0.1 0.1 0.3 0.1 0.4v0.4c0 0.2 0 0.4-0.1 0.6 0.6-0.2 1.1-0.6 1.4-1.2 0.1-0.3 0.2-0.6 0.2-0.9s-0.1-0.7-0.2-1.1c-0.1-0.2-0.2-0.5-0.4-0.8l3.5-1.2zm-6.3 4.4c-0.2-0.6-0.5-0.8-1.1-0.6s-0.8 0.5-0.6 1.1 0.5 0.8 1.1 0.6 0.8-0.6 0.6-1.1z"/>
		<path d="m354.9 451.7c0.4 1.1 0.5 1.9 0.2 2.5s-1 1.2-2.2 1.6l-4.1 1.7-1.6-3c-0.4 0.2-0.8 0.3-1.1 0.3-0.4 0-0.7-0.1-1.1-0.2-0.6-0.3-1.1-0.8-1.4-1.5-0.2-0.7-0.3-1.4 0-2.1 0.2-0.7 0.7-1.2 1.5-1.5s1.5-0.4 2.1-0.1c0.3 0.1 0.6 0.3 0.9 0.6s0.5 0.6 0.8 1l1.7 3.2 0.7-0.3c0.5-0.2 0.6-0.5 0.5-0.9l-2.5-6.2c-0.3-0.8-0.8-1-1.5-0.7l-2.5 1c-0.7 0.3-0.9 0.8-0.6 1.5l0.2 0.4-3.2 1.3-0.2-0.6c-0.4-0.9-0.4-1.9 0.1-2.7 0.4-0.9 1.3-1.6 2.4-2l3.5-1.5c1.2-0.5 2.2-0.6 3-0.2 0.8 0.3 1.5 1 1.9 2l2.5 6.4zm-7.8 0.1c-0.3-0.7-0.7-0.9-1.3-0.7-0.2 0.1-0.4 0.3-0.5 0.6s0 0.5 0.1 0.8c0.3 0.7 0.7 0.9 1.3 0.7 0.2-0.1 0.4-0.3 0.5-0.6 0-0.3 0-0.5-0.1-0.8z"/>
		<path d="m367.7 444.9c0.3 0.5 0.4 1 0.5 1.5 0.1 0.4 0 0.9-0.1 1.3-0.2 0.8-1 1.5-2.2 2.1l-3.6 1.8c-0.7 0.3-1.2 0.5-1.7 0.7-0.5 0.1-1 0.1-1.4-0.1-0.8-0.3-1.5-0.9-2-2l-1.2-2.4c-0.4-0.7-0.4-1.5-0.2-2.2 0.1-0.4 0.3-0.7 0.6-1s0.6-0.5 1-0.8c0.8-0.4 1.6-0.5 2.3-0.3s1.2 0.7 1.6 1.4c0.3 0.6 0.4 1.2 0.2 1.9-0.2 0.6-0.6 1.1-1.2 1.6 0.4 0.7 0.9 0.9 1.6 0.6l2.4-1.2c0.7-0.3 0.9-0.8 0.5-1.4l-2.9-5.6c-0.4-0.7-0.9-0.9-1.5-0.6l-2.4 1.2c-0.7 0.3-0.8 0.9-0.5 1.6l0.2 0.4-3.1 1.6-0.3-0.6c-0.2-0.5-0.4-0.9-0.4-1.4 0-0.4 0-0.9 0.2-1.4 0.4-0.9 1.1-1.7 2.3-2.2l3.4-1.7c1.2-0.6 2.2-0.7 3-0.5 0.8 0.3 1.5 0.9 2 1.9l2.9 5.8zm-8.1 1c-0.3-0.6-0.7-0.8-1.3-0.5-0.3 0.1-0.4 0.3-0.5 0.6s0 0.5 0.1 0.8c0.3 0.6 0.7 0.7 1.3 0.4 0.2-0.1 0.4-0.3 0.5-0.6 0-0.2-0.1-0.4-0.1-0.7z"/>
		<path d="m381.9 437.9c0.4 0.6 0.5 1.2 0.4 1.7s-0.5 0.9-1.1 1.3l-1.2 0.8-5.3-1.7 1.1 1.8c0.4 0.6 0.5 1.1 0.4 1.6 0 0.2-0.2 0.5-0.4 0.7s-0.4 0.5-0.8 0.7l-0.9 0.6c-0.7 0.5-1.5 0.6-2.3 0.3s-1.4-0.8-1.9-1.6c-0.3-0.4-0.4-0.8-0.5-1.2s-0.1-0.7 0-1.1c0.1-0.8 0.5-1.4 1.2-1.8l-0.6-1c-0.2-0.3-0.3-0.5-0.2-0.7-0.4 0.2-0.7 0.4-1.1 0.5-0.3 0.1-0.7 0-1.1 0-0.7-0.2-1.3-0.6-1.7-1.2s-0.5-1.3-0.3-2 0.7-1.4 1.4-1.8c0.4-0.3 0.8-0.4 1.2-0.5s0.8-0.1 1.2 0c0.7 0.1 1.3 0.6 1.8 1.3l2.4 3.9 0.2-0.1 0.6-0.3c0.1-0.1 0.3-0.1 0.4-0.1h0.5c0.2 0 0.5 0.1 0.8 0.2l2.2 0.7-5.3-8.9 2.9-1.8 6 9.7zm-12.6-2.6c-0.1-0.2-0.3-0.3-0.6-0.4s-0.5 0-0.8 0.1c-0.2 0.1-0.4 0.4-0.5 0.6 0 0.3 0 0.5 0.1 0.8 0.2 0.2 0.3 0.4 0.6 0.5s0.5 0 0.8-0.2c0.2-0.1 0.4-0.3 0.4-0.6 0.1-0.3 0.1-0.5 0-0.8zm3.5 8.1l-1.1-1.8c-0.6 0.3-0.7 0.8-0.3 1.5 0.2 0.3 0.4 0.4 0.6 0.5 0.2 0 0.4 0 0.6-0.1l0.2-0.1z"/>
		<path d="m388.8 432.4c0.4 0.6 0.6 1.3 0.5 2s-0.5 1.4-1.3 1.9c-0.7 0.5-1.5 0.8-2.2 0.7s-1.3-0.5-1.8-1.3l-6.3-8.8 2.8-2 4.4 6.1c0.1 0.1 0.1 0.3 0.2 0.4v0.2 0.2c0.4-0.3 0.7-0.4 1-0.5s0.7-0.1 1.1-0.1c0.6 0.2 1.2 0.5 1.6 1.2zm-1.5 1.1c-0.4-0.5-0.8-0.6-1.4-0.2-0.2 0.1-0.4 0.4-0.4 0.6 0 0.3 0.1 0.5 0.2 0.7 0.4 0.6 0.8 0.6 1.4 0.3 0.2-0.1 0.3-0.3 0.4-0.6 0-0.3-0.1-0.6-0.2-0.8z"/>
		<path d="m400.9 426l-2.7 2.2-6.2-7.6c-0.5-0.6-1.1-0.7-1.6-0.2l-2.1 1.7c-0.6 0.5-0.6 1-0.1 1.7l1.6-1.3 1.5 1.8c-0.4 0.3-0.7 0.8-0.8 1.3s0 0.9 0.3 1.3l3.7 4.5-2.6 2.2-3.7-4.5c-0.5-0.6-0.7-1.2-0.5-1.9 0-0.4 0.2-0.7 0.3-1s0.4-0.6 0.7-0.9l-2.1 1.7-1-1.2c-0.3-0.4-0.6-0.8-0.7-1.2s-0.1-0.9-0.1-1.4c0.2-1 0.8-1.9 1.7-2.7l2.7-2.2c1-0.8 2-1.2 2.9-1.2 1 0 1.8 0.5 2.5 1.3l6.3 7.6z"/>
		<path d="m410.4 413.9c1 1.1 1 2.2-0.2 3.3l-1.2 1.1-5.4-2.4c-0.1 0-0.3-0.1-0.4-0.1s-0.3-0.1-0.4-0.1c-0.2 0-0.4 0.1-0.7 0.4l-0.5 0.4c-0.2 0.2-0.3 0.5-0.1 0.8l0.4 0.4c0.5-0.5 1.1-0.7 1.8-0.7s1.3 0.3 1.8 0.9 0.8 1.2 0.8 2c0 0.7-0.3 1.4-1 2.1-0.3 0.3-0.7 0.5-1 0.7s-0.7 0.3-1.1 0.3c-0.8 0-1.5-0.3-2-0.9l-2.3-2.4c-0.6-0.7-0.9-1.3-0.8-2 0-0.4 0.1-0.7 0.3-1.1s0.5-0.7 0.8-1.1l1.8-1.7c0.5-0.5 0.9-0.8 1.3-0.8 0.4-0.1 0.8 0 1.3 0.3l1.1 0.6 1.7 1.2 0.7 0.4c-0.3-0.2-0.4-0.4-0.7-0.6-0.2-0.2-0.4-0.3-0.6-0.5l-1.7-1.6-1.7-1.8c-0.6-0.6-1.1-0.6-1.7-0.1l-2.1 2.1c-0.6 0.5-0.6 1.1 0 1.6l0.1 0.1-2.5 2.4-0.2-0.2c-0.7-0.7-1-1.6-1-2.6 0.1-1 0.6-1.9 1.5-2.8l2.9-2.8c0.9-0.9 1.8-1.3 2.7-1.3s1.8 0.4 2.5 1.2l5.8 5.3zm-6 5.4c-0.5-0.5-0.9-0.5-1.4-0.1-0.2 0.2-0.3 0.4-0.3 0.7s0.1 0.5 0.3 0.7c0.5 0.5 0.9 0.5 1.4 0.1 0.2-0.2 0.3-0.4 0.3-0.7-0.1-0.3-0.2-0.5-0.3-0.7z"/>
		<path d="m397.3 400.1c1.3 1.2 2 2.4 2.2 3.6 0.3 1.4-0.3 2.9-1.7 4.3l-2.6 2.8-1.1-1.1c0.4-0.4 0.5-0.9 0.4-1.4-0.4 0.5-0.9 0.7-1.5 0.6-0.5 0-1-0.2-1.4-0.7-0.2-0.2-0.3-0.4-0.4-0.6-0.1-0.3-0.2-0.5-0.2-0.9 0-0.6 0.2-1.2 0.6-1.6 0.5-0.5 1-0.8 1.7-0.8 0.3 0 0.6 0.1 0.9 0.2s0.5 0.2 0.7 0.5c0.4 0.4 0.7 0.8 0.9 1.3 0.1 0.3 0.2 0.5 0.3 0.7s0.1 0.5 0.1 0.7l0.5-0.5c0.6-0.6 0.8-1.3 0.7-2.1-0.1-0.4-0.2-0.7-0.5-1.1-0.2-0.4-0.5-0.8-0.9-1.1l-0.2-0.2-0.3-0.3 1.8-2.3zm-3.5 5.8c-0.4-0.4-0.8-0.4-1.2 0.1-0.1 0.1-0.2 0.3-0.3 0.5 0 0.2 0.1 0.4 0.3 0.7 0.4 0.4 0.8 0.4 1.2-0.1 0.2-0.2 0.3-0.3 0.3-0.5 0-0.1-0.1-0.4-0.3-0.7z"/>
		<path d="m420.5 406l-2.3 2.6-7.4-6.5c-0.6-0.5-1.2-0.5-1.7 0l-1.4 1.6c-0.5 0.6-0.4 1.1 0.1 1.7l0.6 0.5-2.3 2.6-0.7-0.7c-0.4-0.4-0.7-0.8-0.9-1.2s-0.3-0.8-0.3-1.4c0-1 0.5-1.9 1.3-2.9l2.1-2.4c1.7-1.9 3.4-2.1 5.2-0.5l7.7 6.6z"/>
		<path d="m426.5 392.8c1.8 1.3 1.9 3 0.3 5.1l-2.1 2.8c-1.6 2.1-3.2 2.4-5 1.1l-2.4-1.8 2.1-2.7 2.2 1.7c0.5 0.4 1 0.3 1.5-0.3l1.3-1.7c0.5-0.6 0.4-1.1-0.1-1.5l-2.2-1.7c-0.4-0.3-0.9-0.2-1.3 0.3l-4.1 5.4-2.5-1.9c-0.9-0.7-1.3-1.4-1.4-2.4 0-0.9 0.3-1.9 1.1-2.9l2.3-3c0.7-0.9 1.5-1.4 2.4-1.5 0.8-0.1 1.5 0.2 2.3 0.7l0.3 0.2-2.2 2.9c-0.3-0.2-0.6-0.3-0.8-0.3s-0.5 0.1-0.7 0.4l-1.3 1.7c-0.4 0.6-0.4 1 0.1 1.4l0.6 0.5 2.6-3.4c0.7-1 1.4-1.5 2.2-1.7 0.7-0.2 1.5 0 2.3 0.6l2.5 2z"/>
		<path d="m436.1 379.1c0.6 0.4 1.1 1 1.3 1.7 0.1 0.3 0.1 0.7 0 1.1s-0.2 0.7-0.5 1.1c-0.2 0.3-0.5 0.6-0.7 0.8-0.3 0.2-0.6 0.4-1 0.5-0.7 0.1-1.4 0-2-0.4l0.4 4.2-1.7 2.7-6.4-4.1-0.3-0.3c-0.1-0.1-0.1-0.2-0.1-0.4-0.2 0.4-0.5 0.6-0.8 0.8s-0.6 0.4-1 0.5c-0.7 0.2-1.4 0-2.1-0.4-0.6-0.4-1-1-1.2-1.7-0.2-0.8 0-1.5 0.5-2.3 0.2-0.4 0.5-0.7 0.8-0.9 0.3-0.3 0.6-0.4 1-0.5 0.7-0.2 1.4-0.1 2.2 0.4l6.4 4.1-0.1-3c0-0.5 0.1-0.9 0.3-1.2s0.1-0.6-0.2-0.8l-6.5-4.1 1.9-2.9 6.5 4.1c0.3 0.2 0.4 0.4 0.4 0.7 0.4-0.3 0.8-0.4 1.4-0.4 0.5 0.2 1 0.4 1.5 0.7zm-12.9 4.7c-0.5-0.4-1-0.2-1.3 0.3-0.1 0.2-0.2 0.5-0.1 0.7 0.1 0.3 0.2 0.4 0.5 0.6 0.6 0.4 1 0.3 1.3-0.3 0.1-0.2 0.2-0.4 0.1-0.7-0.1-0.2-0.2-0.4-0.5-0.6zm11.8-3.1c-0.6-0.3-1-0.3-1.4 0.3-0.1 0.2-0.2 0.5-0.1 0.7 0.1 0.3 0.2 0.5 0.5 0.6 0.6 0.4 1 0.3 1.4-0.3 0.1-0.2 0.2-0.4 0.1-0.7s-0.3-0.5-0.5-0.6z"/>
		<path d="m442.3 365.2c1 0.5 1.6 1.2 1.9 2s0.1 1.9-0.5 3.1l-1.8 3.4c-0.6 1.2-1.4 2-2.2 2.2-0.4 0.1-0.9 0.1-1.3 0.1-0.5-0.1-1-0.2-1.5-0.5l-3.5-1.9-0.3-0.3c-0.1-0.1-0.2-0.3-0.2-0.4-0.2 0.4-0.4 0.7-0.7 0.9s-0.6 0.4-1 0.5c-0.7 0.2-1.4 0.2-2.1-0.2-0.7-0.3-1.1-0.9-1.3-1.6s-0.1-1.5 0.3-2.3c0.2-0.4 0.4-0.7 0.7-1s0.6-0.4 1-0.6c0.7-0.2 1.4-0.2 2.2 0.2l6.5 3.4c0.6 0.3 1.1 0.2 1.4-0.5l1.1-2.2c0.4-0.7 0.2-1.2-0.4-1.5l-8.9-4.6 1.6-3.1 9 4.9zm-11.3 5.6c-0.6-0.3-1-0.2-1.3 0.4-0.1 0.2-0.2 0.5-0.1 0.7s0.3 0.4 0.5 0.5c0.6 0.3 1 0.2 1.3-0.4 0.1-0.2 0.1-0.5 0.1-0.7-0.1-0.1-0.2-0.3-0.5-0.5z"/>
		<path d="m453.8 370l-1.4 3.1-1.7-0.8c-0.1 0-0.1-0.1-0.2-0.2v-0.1c-0.3 0.7-0.8 1.2-1.5 1.4s-1.4 0.2-2.1-0.2c-0.7-0.3-1.2-0.8-1.4-1.5-0.3-0.7-0.2-1.4 0.1-2.2 0.4-0.9 0.9-1.4 1.6-1.7s1.4-0.3 2.2 0.1l4.4 2.1zm-5.3-0.1c-0.6-0.3-1-0.1-1.3 0.5s-0.1 1 0.5 1.3 1 0.1 1.3-0.5c0.2-0.6 0-1-0.5-1.3z"/>
		<path d="m441.4 351.2l-1.4 3.3c-0.8-0.3-1.4-0.2-1.6 0.5l-0.8 1.9c-0.2 0.4-0.2 0.7-0.1 0.9s0.3 0.4 0.7 0.6l0.6 0.2 1.6-3.9c0.2-0.6 0.5-1 0.7-1.4 0.3-0.4 0.6-0.6 0.9-0.9 0.6-0.4 1.4-0.4 2.4 0.1l3.4 1.5c0.7 0.3 1.3 0.8 1.6 1.5s0.3 1.5-0.1 2.3c-0.2 0.4-0.4 0.8-0.6 1-0.2 0.3-0.5 0.5-0.9 0.6-0.7 0.3-1.4 0.3-2.1 0s-1.2-0.8-1.4-1.5c-0.3-0.7-0.2-1.4 0.1-2.2-0.1 0.1-0.1 0.1-0.2 0.1-0.1 0.1-0.2 0.1-0.3 0.1l-0.9-0.4c-0.2-0.1-0.3-0.1-0.3 0l-0.2 0.2c-0.1 0.1-0.1 0.3-0.3 0.6l-2.6 6.2-3-1.3c-0.5-0.2-0.9-0.4-1.2-0.7s-0.5-0.7-0.7-1.1c-0.3-0.8-0.2-1.8 0.2-2.8l1.6-3.9c0.5-1.2 1.1-1.9 1.9-2.1 0.9 0 1.8 0.1 3 0.6zm5.8 4.9c-0.6-0.3-1.1-0.1-1.3 0.5-0.1 0.2-0.1 0.5 0 0.7s0.3 0.4 0.5 0.5c0.6 0.2 1.1 0.1 1.3-0.5 0.1-0.2 0.1-0.5 0-0.7s-0.3-0.4-0.5-0.5z"/>
		<path d="m436.2 349.3l-4.2 11.3c-1.5-0.6-2.5-1.5-2.9-2.8s-0.4-2.8 0.2-4.4c0.4-1 0.9-1.8 1.6-2.5l-1.9-0.7 1.2-3.2 6 2.3zm-2.7 2.4c-0.2 0-0.5 0.1-0.7 0.2s-0.5 0.3-0.7 0.5c-0.5 0.4-0.8 1-1.1 1.7s-0.3 1.3-0.2 1.8c0.1 0.6 0.3 1 0.7 1.3l2-5.5z"/>
</g>
</svg>
