<?xml version="1.0" encoding="UTF-8" standalone="no"?>
<!-- Generator: Adobe Illustrator 18.1.1, SVG Export Plug-In . SVG Version: 6.00 Build 0)  -->
<svg id="Layer_1" xmlns="http://www.w3.org/2000/svg" xml:space="preserve" viewBox="0 0 350 149" version="1.1" y="0px" x="0px" xmlns:xlink="http://www.w3.org/1999/xlink" enable-background="new 0 0 350 149">
<path d="m220.7 85.3c0.1-0.1 1.1 3.5 1.1 3.5-16 5.7-26.6 12.9-26.6 12.9s9.4-8.9 25.5-16.4"/>
<path d="m223.1 98.5c0.1 0-0.3-4.3-0.3-4.3-19.7 7.2-29.7 15.6-29.7 15.6s11.5-6.5 30-11.3"/>
<path d="m222.5 109.3c0.1 0 0.7-5.2 0.6-5.2-22.2 6.2-32.3 13.4-32.3 13.4s13.3-5.1 31.7-8.2"/>
<path d="m220.5 115.1s-6.2 13.4-37.1 11.8c0 0 9.5-6.6 37.1-11.8"/>
<path d="m232.6 74.4v-44.9h30.7v36.2s-17 3.5-30.7 8.7"/>
<path d="m232.6 80.1v5.1c16.3-4.8 30.7-7.1 30.7-7.1v-7c0 0.1-13.9 2.7-30.7 9"/>
<path d="m232.6 96.1v-5.2c17.6-5.4 30.7-7.3 30.7-7.3v7c0 0.1-18.1 2.5-30.7 5.5"/>
<path d="m232.6 101.6c12.4-3.1 30.7-5.5 30.7-5.5v7.9s-14.4 1.1-30.7 3.6v-6z"/>
<path d="m232.6 113v12h30.7v-15.6s-13.2 1-30.7 3.6"/>
<path d="m289.7 125v-17.3c7.3-0.5 30.7-0.7 30.7-0.7v18h-30.7z"/>
<path d="m289.7 102.4v-8.9c15.5-1.1 30.7-1.1 30.7-1.1v9.3s-14-0.1-30.7 0.7"/>
<path d="m289.7 88.1v-7.9c14.1-1.4 30.7-1.4 30.7-1.4v8.3c0-0.1-15.8-0.1-30.7 1"/>
<path d="m289.7 74.8v-7.9c16.3-1.9 30.7-1.7 30.7-1.7v8.2s-12.2-0.1-30.7 1.4"/>
<path d="m289.7 61.5c13.5-1.6 30.7-1.7 30.7-1.7v-11.2h18.3v-19.1h-67.1v19.1h18.1v12.9z"/>
<path d="m182.2 90.8h-28.6v6.3c0 7.2 0.9 12.7 2.7 16.6s5.6 7.1 11.5 9.6c0.2 0.1 2.3 1.1 6.3 2.1 0 0 0.8-7.1 8.5-17.9 0 0-0.3-1.4-0.4-5v-11.7z"/>
<path d="m220.5 58.5v-3.8c0-7.6-0.9-12.9-2.7-16.1s-5.6-5.8-11.2-7.9-12.5-3.1-20.5-3.1c-7.3 0-13.6 1-18.7 2.9-5.2 1.9-8.9 4.6-11.2 7.9-2.3 3.4-3.5 8.7-3.5 16.1 0 5.1 0.8 9.2 2.5 12.5 1.6 3.3 3.7 5.8 6.2 7.7 2.5 1.8 7.6 4.8 15.3 8.9 7.7 4 12.5 6.9 14.5 8.7 0.6 0.5 1.4 1.4 2.1 4.1 7.1-6 14.9-10.9 24.8-15.7-0.1-0.1-0.1-0.1-0.2-0.3-3-3.8-12.2-9.6-26-16.2-4.8-2.3-7.7-4.2-8.7-5.9-1.1-1.6-1.6-4-1.6-7.2 0-2.5 0.5-4.3 1.4-5.5 1-1.2 2.4-1.8 4.2-1.8 1.7 0 3 0.5 3.7 1.4s1.1 3 1.1 6.3v7.1h28.5z"/>
<path clip-rule="evenodd" d="m93.1 94.1l-2.5-10.2-15.2-4.2c-2.4 1.9-4.9 3.9-7.3 5.8 3.6 5.8 4.2 12.4 3.1 13.5-8.3-4.4-5.5-18.8-4.5-20.3 5.1-2.8 8.8-3.5 14.3-3.4l-2.2-10.3-4.6-3.3 4.6-4.8c14.4 10.1 16.4 28.7 14.3 37.2m51.8-61.6c-8-3.1-16-5.9-25.4-7.5l3.5-7.8c-5.9-3.1-21.6-2.6-32.9-1.6-6.3-1.3-11.2-1.8-17.4-1.8-1.4 1.9-2.9 3.6-4.3 5.5-10.7-2.3-29.2 1.9-41.4 10.8l-1.4 9.5 0.9 0.9c-6.8 4.3-9.7 7.1-13.4 11.8-0.4 4.9-0.9 9.9-1.3 14.8l8.5 0.1c4.8-5.6 10.8-9.6 16.2-12.5-27.8 47.3 7.5 86.4 46.7 83.9 33-2.1 70.9-44.1 45-94.4l10.5-3.2 6.2-8.5z" fill-rule="evenodd"/>
<path fill="#fff" clip-rule="evenodd" d="m26.9 40.2l-0.5-0.9c57-40.9 113 35.7 64.9 83.9-0.2 0.2-11.9 2-11.9 2.2 50.1-35.8 8-120.1-52.5-85.2" fill-rule="evenodd"/>
<path fill="#fff" clip-rule="evenodd" d="m13.3 66.3c26.8-29.3 59-27.5 74.8-1.2-11.8-17.8-42.8-25.9-68.3 1.2h-6.5z" fill-rule="evenodd"/>
<path fill="#fff" clip-rule="evenodd" d="m73.4 19.9c59.7 12.8 55.2 67.6 41.4 92.1-1.9-0.3-2.9 2.6-0.5 3.2 2.5 0.5 3.3-2.4 1.5-2.9 19.8-36.6 10.6-82.4-38.2-97.4 50.8 3.8 67.7 57 52.4 88-15.2 30.8-47.5 45.1-79.9 26.5 27.9 11.6 58.4-7.9 62.3-46.5 4-37.5-24.9-59.2-39-63" fill-rule="evenodd"/>
<polygon points="135 34.8 143.4 33.1 138.2 40.3 129.8 42.7" fill="#fff" clip-rule="evenodd" fill-rule="evenodd"/>
<path fill="#fff" clip-rule="evenodd" d="m134.1 34.2c2.6-0.6 5.4-1.2 8-1.8-7.3-2.8-14.8-5.3-23.1-6.7-2 0.7-3.7 1.5-5.7 2.2 9.3 1.5 14.5 3.5 20.8 6.3" fill-rule="evenodd"/>
<path fill="#fff" clip-rule="evenodd" d="m112.8 27.2l-1.4-0.9 0.9-5.5 9.3-2.5-3 6.7c0-0.1-5.5 2.4-5.8 2.2" fill-rule="evenodd"/>
<path fill="#fff" clip-rule="evenodd" d="m112.2 19.9l9.5-2.6c-5.8-2.2-21.1-2.3-28.6-1 6.5 0.6 12.9 1.8 19.1 3.6" fill-rule="evenodd"/>
<path fill="#fff" clip-rule="evenodd" d="m75.4 73.7c-3-2-6.3-4.1-9.3-6.1-48.6 9.1-11.1 61.3 5 32.4-20 5.5-27.3-27.9 4.3-26.3" fill-rule="evenodd"/>
<polygon points="80 74.2 78.2 65.4 66.1 57.4 67 67.1" fill="#fff" clip-rule="evenodd" fill-rule="evenodd"/>
<path fill="#fff" clip-rule="evenodd" d="m76 81.2l13.6 3.8c14.4 83.2-108.9 25.3-37.6-35.2 4.3-0.3 7.1-0.2 10.9 0.5-3.5 2.9-7 5.9-10.5 8.8-6.3 2.7-18.7 8.7-20.2 28.6-3.4 44.9 68.3 41.2 43.8-6.5" fill-rule="evenodd"/>
<path fill="#fff" clip-rule="evenodd" d="m73.3 61.2l4.8-4.9c-2.3-1.7-4.7-3-7.3-3.9l-6.4 4.1h1.7l7.2 4.7z" fill-rule="evenodd"/>
<path clip-rule="evenodd" d="m62.8 56.6c-2.6 0.3-5.2 0.7-7.9 1.6l8.9-7.7c2 0.3 4 0.8 6 1.6l-7 4.5z" fill-rule="evenodd"/>
<path fill="#fff" clip-rule="evenodd" d="m65.5 79.5c-11.1 7.7-0.7 22.1 4.9 20-4.7-3.1-7-10.7-4.9-20" fill-rule="evenodd"/>
</svg>
