<?xml version="1.0" encoding="utf-8"?>
<!-- Generator: Adobe Illustrator 18.1.1, SVG Export Plug-In . SVG Version: 6.00 Build 0)  -->
<svg version="1.1" id="Layer_1" xmlns="http://www.w3.org/2000/svg" xmlns:xlink="http://www.w3.org/1999/xlink" x="0px" y="0px"
	 viewBox="58 0 461 97" enable-background="new 58 0 461 97" xml:space="preserve">
<g id="Layer_2_1_" display="none">
	<rect x="58" y="0.3" display="inline" width="461" height="722.5"/>
</g>
<path fill="#7373DD" d="M334.5,48.5c0,0,0,1.1-0.1,3.3c0,0.5,0,1.1-0.1,1.8c-0.1,0.7-0.2,1.4-0.3,2.1c-0.1,0.8-0.2,1.6-0.4,2.5
	c-0.2,0.9-0.4,1.8-0.7,2.8c-1.1,3.8-2.7,8.5-5.7,13.2c-3,4.8-7.2,9.6-12.8,13.8c-5.6,4.1-12.8,7.3-20.9,8.6c-1,0.2-2,0.2-3.1,0.3
	l-1.6,0.1l-0.8,0.1h-0.9c-2,0-4,0.1-6.2-0.3c-1.1-0.1-2.2-0.2-3.3-0.4c-1.1-0.2-2.2-0.5-3.2-0.7c-1.1-0.2-2.1-0.6-3.2-0.9l-1.6-0.5
	l-0.8-0.3l-0.8-0.3c-1-0.5-2.1-0.9-3.2-1.4c-1.1-0.5-2-1.1-3.1-1.6l-1.5-0.9c-0.5-0.3-1-0.7-1.5-1c-1-0.7-2-1.3-2.9-2
	c-3.7-2.9-7-6.5-9.8-10.5c-2.8-4-4.9-8.5-6.5-13.2l-1-3.6l-0.2-0.9l-0.2-0.9l-0.3-1.8c-0.2-1.2-0.4-2.5-0.4-3.7l-0.1-1.9l-0.1-0.9
	v-0.5v-0.2v-0.1c0-0.1,0,0.1,0-0.3l0.2-3.4l0.1-0.8c0-0.3,0-0.6,0.1-0.9l0.3-1.9l0.3-1.9l0.2-1l0.2-0.9l1-3.6
	c0.4-1.2,0.8-2.3,1.3-3.5c0.2-0.6,0.4-1.2,0.7-1.7l0.8-1.7l0.8-1.6c0.3-0.6,0.6-1.1,0.9-1.6c0.7-1,1.3-2.1,2-3.1
	c0.7-1,1.5-1.9,2.2-2.9c0.4-0.5,0.7-1,1.1-1.4l1.2-1.3l1.2-1.3l0.6-0.6c0.2-0.2,0.4-0.4,0.7-0.6c0.9-0.8,1.8-1.6,2.7-2.3
	c0.9-0.7,1.9-1.4,2.9-2c0.5-0.3,1-0.7,1.5-1l1.5-0.9c1-0.5,2-1.2,3.1-1.6c1.1-0.5,2.1-0.9,3.2-1.4c4.3-1.6,8.6-2.8,12.9-3.1
	c2.1-0.3,4.3-0.2,6.4-0.3h0.4h0.2h0.1c0,0,0.3,0,0.2,0l0.7,0.1l1.5,0.1l1.5,0.1c0.5,0,1,0.1,1.5,0.2c1,0.2,2,0.4,3.1,0.6
	c0.5,0.1,1,0.2,1.5,0.3c0.5,0.1,1,0.3,1.4,0.4c0.9,0.3,1.9,0.6,2.8,0.8c0.9,0.3,1.8,0.7,2.7,1.1c1.8,0.7,3.4,1.6,5,2.5
	c0.8,0.4,1.6,0.9,2.3,1.4s1.5,1,2.2,1.5c5.6,4.2,9.9,9,12.8,13.8c3,4.8,4.7,9.4,5.7,13.2c0.2,1,0.5,1.9,0.7,2.8
	c0.2,0.9,0.3,1.7,0.4,2.5c0.1,0.8,0.2,1.5,0.3,2.1c0.1,0.7,0.1,1.3,0.1,1.8C334.4,47.3,334.5,48.5,334.5,48.5L334.5,48.5z M334,48.5
	c0,0-0.1-1.1-0.2-3.2c0-0.5,0-1.1-0.1-1.8c-0.1-0.6-0.2-1.3-0.3-2.1c-0.1-0.8-0.2-1.6-0.4-2.4c-0.2-0.9-0.5-1.8-0.7-2.7
	c-1.1-3.8-2.8-8.3-5.8-12.9c-3-4.6-7.3-9.2-12.9-13C308,6.7,301,3.9,293.3,3c-1-0.1-1.9-0.1-2.9-0.2l-1.5-0.1h-0.7
	c-0.2,0-0.5,0-0.7,0c-2,0.1-4,0.1-6,0.5c-4,0.5-8,1.8-11.9,3.4c-0.9,0.5-1.9,0.9-2.9,1.4c-1,0.5-1.8,1.1-2.8,1.6l-1.4,0.8
	c-0.4,0.3-0.9,0.6-1.3,1c-0.9,0.7-1.7,1.3-2.6,2c-3.3,2.8-6.2,6.1-8.7,9.8c-2.4,3.7-4.3,7.8-5.7,12c-1.3,4.3-1.8,8.7-1.9,13.3
	c0.1,4.4,0.7,9,1.9,13.2c1.4,4.3,3.2,8.3,5.7,12c2.5,3.6,5.4,7,8.7,9.8c0.8,0.7,1.7,1.3,2.6,2c0.4,0.3,0.9,0.7,1.3,1l1.4,0.8
	c0.9,0.5,1.8,1.2,2.8,1.6c1,0.5,1.9,0.9,2.9,1.4c3.9,1.6,7.9,2.9,11.9,3.4c2,0.4,4,0.4,6,0.5c0.2,0,0.5,0,0.7,0h0.7l1.5-0.1
	c1-0.1,2,0,2.9-0.2c7.7-0.9,14.7-3.7,20.3-7.4c5.6-3.8,9.9-8.4,12.9-13c3.1-4.6,4.8-9.1,5.8-12.9c0.2-1,0.5-1.9,0.7-2.7
	c0.2-0.9,0.3-1.7,0.4-2.4c0.1-0.8,0.2-1.5,0.3-2.1c0.1-0.6,0.1-1.2,0.1-1.8C333.9,49.6,334,48.5,334,48.5L334,48.5z"/>
<circle fill="#5750AD" cx="288" cy="48.5" r="46.2"/>
<g>
	<g>
		<g>
			<path fill="#E5E5E5" d="M337.9,48.4v-0.7h2.9v0.7H337.9z M343.6,48.4v-0.7h2.9v0.7H343.6z M349.2,48.4v-0.7h2.9v0.7H349.2z
				 M355,48.4v-0.7h2.9v0.7H355z M360.6,48.4v-0.7h2.9v0.7H360.6z M366.3,48.4v-0.7h2.9v0.7H366.3z M372,48.4v-0.7h2.9v0.7H372z
				 M377.7,48.4v-0.7h2.9v0.7H377.7z"/>
		</g>
		<g>
			<rect x="383.4" y="47.7" fill="#E5E5E5" width="1.4" height="0.7"/>
		</g>
	</g>
	<circle fill="#E5E5E5" cx="384.7" cy="48" r="2.2"/>
</g>
<g>
	<path fill="#5750AD" d="M407.8,48.9c0,0-0.1-1.1-0.8-1.7c-0.4-0.3-0.8-0.4-1.1-0.4v2.1h-0.5v-2.3c-0.1-0.3-0.4-0.8-0.9-1
		c-0.5-0.2-0.9-0.1-1.2-0.1v2.3h-0.5v-2.6c-0.2-0.3-0.6-0.5-1.3-0.6c-0.4,0-0.7,0.1-0.9,0.3v2.3h-0.5v-4.1c1.6-0.5,2.8-2,2.8-3.8
		c0-2.2-1.8-4-4-4c-2.2,0-3.9,1.8-3.9,4c0,1.7,1.1,3.1,2.6,3.7v6.8c0,0-1.3-2.7-2.4-3.1c-1.1-0.4-1.8,0.3-1.8,0.3s1.2,2.3,2.1,4.8
		c0.6,1.6,0.8,3.5,1.3,4.4c1.3,2.4,3,2.6,5,2.6c2,0,4.7,0.2,5.4-1.5C408,55.8,407.8,48.9,407.8,48.9L407.8,48.9z M396.8,39.3
		c0-1.2,1-2.2,2.2-2.2c1.2,0,2.3,1,2.3,2.2c0,0.8-0.4,1.5-1.1,1.9v-1.5c0,0-0.3-1.5-1.2-1.5c-0.9,0-1.3,1.3-1.3,1.3v1.6
		C397.1,40.7,396.8,40.1,396.8,39.3L396.8,39.3z"/>
</g>
<path fill="#FFFFFF" d="M276.8,53.4l-2.6-9h1.7l1.7,5.8l1.5-5.8h1.1l1.5,5.8l1.7-5.8h1.7l-2.6,9h-1.4l-1.5-5.8l-1.5,5.8H276.8z"/>
<path fill="#FFFFFF" d="M286,53.4v-1.6h1.7v1.6H286z"/>
<path fill="#FFFFFF" d="M290.9,49.2c0.2-0.2,0.4-0.4,0.6-0.5c0.2-0.1,0.4-0.3,0.7-0.4s0.6-0.2,0.9-0.2v1.7c-0.4,0-0.7,0-1,0.1
	c-0.3,0.1-0.5,0.2-0.7,0.3c-0.2,0.1-0.4,0.3-0.6,0.4v2.7h-1.7v-6.2c0-0.5,0.1-0.9,0.3-1.2c0.2-0.4,0.5-0.7,0.9-1
	c0.4-0.3,0.8-0.5,1.2-0.6c0.5-0.1,0.9-0.2,1.5-0.2c0.5,0,1,0.1,1.4,0.2c0.5,0.1,0.9,0.3,1.2,0.6c0.4,0.3,0.7,0.6,0.9,1
	c0.2,0.4,0.3,0.8,0.3,1.3v6.2h-1.7v-6.2c0-0.4-0.2-0.8-0.6-1.1c-0.4-0.3-0.9-0.4-1.5-0.4s-1.1,0.1-1.5,0.4c-0.4,0.3-0.6,0.6-0.6,1.1
	V49.2z"/>
<path fill="#FFFFFF" d="M298.4,53.4v-1.6h1.7v1.6H298.4z"/>
<path fill="#FFFFFF" d="M314,50.2c0,1-0.3,1.8-1,2.4c-0.7,0.6-1.6,0.9-2.9,0.9c-0.5,0-0.9-0.1-1.2-0.2s-0.6-0.2-0.8-0.3v-1.7
	c0.2,0.1,0.4,0.2,0.6,0.3c0.2,0.1,0.4,0.2,0.6,0.2c0.2,0.1,0.5,0.1,0.8,0.1c0.3,0,0.6,0,0.8-0.1s0.5-0.1,0.7-0.3s0.3-0.3,0.5-0.5
	s0.2-0.5,0.2-0.8c0-0.5-0.2-0.9-0.5-1.3c-0.3-0.4-0.8-0.6-1.5-0.6c-0.3,0-0.6,0-0.9,0c-0.3,0-0.5,0.1-0.7,0.1
	c-0.2,0.1-0.4,0.1-0.6,0.1v-5.6h5.3v1.5h-3.5V47h0.6c0.5,0,1,0.1,1.4,0.2c0.4,0.1,0.8,0.3,1.1,0.6c0.3,0.3,0.6,0.6,0.8,1
	C313.9,49.2,314,49.7,314,50.2z"/>
<path fill="#FFFFFF" d="M315.3,45.7c0-0.4,0.1-0.7,0.2-1s0.3-0.6,0.6-0.9s0.6-0.5,0.9-0.6c0.4-0.2,0.8-0.2,1.2-0.2
	c0.4,0,0.8,0.1,1.2,0.2c0.4,0.2,0.7,0.4,1,0.6s0.5,0.6,0.6,0.9c0.2,0.3,0.2,0.7,0.2,1c0,0.5-0.1,0.9-0.3,1.2c-0.2,0.3-0.5,0.7-0.8,1
	c0.5,0.3,0.8,0.7,1.1,1.2s0.4,1,0.4,1.5c0,0.9-0.3,1.6-0.9,2.2c-0.6,0.5-1.4,0.8-2.5,0.8c-1.1,0-2-0.3-2.5-0.8
	c-0.6-0.5-0.9-1.3-0.9-2.2c0-1.1,0.5-2,1.5-2.7c-0.4-0.3-0.7-0.6-0.8-1C315.4,46.5,315.3,46.1,315.3,45.7z M318.3,48.6
	c-0.2,0-0.4,0-0.6,0.1c-0.2,0.1-0.4,0.2-0.5,0.3c-0.2,0.1-0.3,0.3-0.4,0.5c-0.1,0.2-0.1,0.5-0.1,0.8c0,0.6,0.2,1,0.5,1.3
	c0.3,0.3,0.7,0.4,1.1,0.4s0.8-0.1,1.1-0.4c0.3-0.3,0.5-0.7,0.5-1.3c0-0.5-0.2-0.9-0.5-1.2C319.1,48.8,318.7,48.6,318.3,48.6z
	 M317,45.8c0,0.4,0.1,0.8,0.3,1c0.2,0.2,0.5,0.3,0.9,0.3c0.3,0,0.6-0.1,0.8-0.3c0.3-0.2,0.4-0.5,0.4-1c0-0.1,0-0.3-0.1-0.4
	c-0.1-0.2-0.1-0.3-0.2-0.4c-0.1-0.1-0.2-0.2-0.4-0.3c-0.2-0.1-0.3-0.1-0.5-0.1c-0.2,0-0.4,0-0.6,0.1c-0.2,0.1-0.3,0.2-0.4,0.3
	s-0.2,0.3-0.2,0.4S317,45.7,317,45.8z"/>
<g enable-background="new    ">
	<path fill="#FFFFFF" d="M415,44.3h1.7v7.1c0,0.1,0,0.2,0,0.3s0.1,0.1,0.2,0.1h0.6v1.5h-1.1c-0.4,0-0.7-0.1-1-0.3
		c-0.3-0.2-0.4-0.7-0.4-1.3V44.3z"/>
	<path fill="#FFFFFF" d="M421.6,53.5c-0.5,0-0.9-0.1-1.3-0.3c-0.4-0.2-0.7-0.5-0.9-0.8s-0.4-0.7-0.5-1.1c-0.1-0.4-0.2-0.8-0.2-1.2
		v-5.9h1.7v6c0,0.5,0.1,0.9,0.4,1.2c0.3,0.4,0.6,0.5,1.1,0.5h0.8c0.5,0,0.9-0.2,1.1-0.5c0.3-0.4,0.4-0.8,0.4-1.2v-8.6h1.7v8.5
		c0,0.4-0.1,0.8-0.2,1.2c-0.1,0.4-0.3,0.8-0.6,1.1c-0.3,0.3-0.6,0.6-1,0.8c-0.4,0.2-0.8,0.3-1.4,0.3H421.6z"/>
	<path fill="#FFFFFF" d="M419.3,42.8l0.6-1.4h5.7v1.4H419.3z"/>
	<path fill="#FFFFFF" d="M432,53.2c-0.1,0.1-0.2,0.1-0.3,0.2c-0.1,0-0.2,0.1-0.4,0.1s-0.3,0-0.5,0c-0.6,0-1.1-0.1-1.5-0.4
		c-0.4-0.2-0.8-0.6-1.1-1c-0.3-0.4-0.6-0.9-0.7-1.5s-0.3-1.2-0.3-1.9c0-0.8,0.1-1.5,0.4-2.1c0.2-0.6,0.5-1.1,0.9-1.4
		s0.8-0.7,1.3-0.8c0.5-0.2,1-0.3,1.5-0.3c0.5,0,1,0.1,1.5,0.2s0.9,0.3,1.2,0.6c0.4,0.3,0.6,0.6,0.8,1c0.2,0.4,0.3,0.8,0.3,1.3v6.2
		h-1.7v-6c0-0.3-0.1-0.6-0.2-0.8c-0.1-0.2-0.3-0.4-0.5-0.5c-0.2-0.1-0.4-0.2-0.7-0.3c-0.3-0.1-0.5-0.1-0.8-0.1c-0.2,0-0.5,0-0.7,0.2
		c-0.3,0.1-0.5,0.3-0.8,0.5s-0.4,0.6-0.6,1s-0.2,0.9-0.2,1.5c0,0.4,0,0.8,0.1,1.2c0.1,0.4,0.2,0.7,0.3,1.1s0.3,0.6,0.6,0.8
		s0.6,0.3,1,0.3c0.2,0,0.3,0,0.5,0c0.1,0,0.2-0.1,0.3-0.1c0.1-0.1,0.2-0.1,0.3-0.2V53.2z"/>
	<path fill="#FFFFFF" d="M442.4,46.5c-0.2-0.1-0.4-0.3-0.6-0.4c-0.2-0.1-0.5-0.2-0.8-0.3c-0.3-0.1-0.7-0.1-1.2-0.1
		c-0.4,0-0.7,0.1-1,0.2c-0.3,0.2-0.4,0.4-0.4,0.7c0,0.3,0.1,0.5,0.3,0.6c0.2,0.2,0.5,0.3,0.8,0.4c0.3,0.1,0.7,0.2,1.1,0.3
		s0.7,0.3,1.1,0.5c0.3,0.2,0.6,0.5,0.8,0.8s0.3,0.8,0.3,1.4c0,0.3,0,0.7-0.1,1c-0.1,0.3-0.3,0.7-0.5,0.9c-0.2,0.3-0.6,0.5-1,0.7
		s-1,0.3-1.7,0.3c-0.4,0-0.8,0-1.2-0.1s-0.6-0.2-0.9-0.3c-0.3-0.1-0.6-0.2-0.8-0.4v-1.5c0.3,0.1,0.5,0.3,0.8,0.4
		c0.3,0.1,0.5,0.2,0.9,0.3c0.3,0.1,0.7,0.1,1,0.1c1.1,0,1.7-0.5,1.7-1.4c0-0.3-0.1-0.6-0.3-0.7c-0.2-0.2-0.5-0.3-0.8-0.4
		c-0.3-0.1-0.7-0.2-1.1-0.3s-0.7-0.2-1.1-0.4c-0.3-0.2-0.6-0.5-0.8-0.8c-0.2-0.3-0.3-0.8-0.3-1.4c0-0.3,0.1-0.7,0.2-1
		s0.4-0.6,0.7-0.8c0.3-0.2,0.6-0.4,1-0.5c0.4-0.1,0.8-0.2,1.2-0.2c0.4,0,0.8,0,1.1,0.1c0.3,0.1,0.6,0.2,0.8,0.3
		c0.3,0.1,0.5,0.3,0.7,0.4V46.5z"/>
	<path fill="#FFFFFF" d="M444.5,41.3l-0.6,1.5h-3.6c-0.3,0-0.5,0-0.8-0.1c-0.2-0.1-0.4-0.1-0.6-0.3c-0.2-0.1-0.3-0.3-0.4-0.6
		s-0.2-0.5-0.2-0.9v-0.8h1.7v0.7c0,0.2,0.1,0.3,0.2,0.4c0.1,0.1,0.3,0.1,0.7,0.1H444.5z"/>
	<path fill="#FFFFFF" d="M447.2,53.5c-0.5,0-1-0.1-1.3-0.3c-0.4-0.2-0.7-0.5-0.9-0.8s-0.4-0.7-0.5-1.1c-0.1-0.4-0.2-0.8-0.2-1.2
		v-5.9h1.7v6c0,0.5,0.1,0.9,0.4,1.2c0.3,0.4,0.6,0.5,1,0.5h0.8c0.5,0,0.9-0.2,1.2-0.5c0.3-0.4,0.4-0.8,0.4-1.2v-6h1.7v5.9
		c0,0.4-0.1,0.8-0.2,1.2c-0.1,0.4-0.3,0.8-0.6,1.1c-0.3,0.3-0.6,0.6-0.9,0.8c-0.4,0.2-0.8,0.3-1.3,0.3H447.2z"/>
	<path fill="#FFFFFF" d="M458.2,53.4v-4c-0.1,0.1-0.2,0.1-0.4,0.1c-0.1,0-0.4,0.1-0.6,0.1c-0.3,0-0.6,0-1,0c-0.2,0-0.4,0-0.6,0.1
		s-0.4,0.2-0.5,0.3c-0.2,0.1-0.3,0.2-0.4,0.4c-0.1,0.2-0.1,0.3-0.1,0.5c0,0.3,0.1,0.6,0.4,0.8c0.2,0.2,0.6,0.3,1,0.3
		c0.1,0,0.3,0,0.4,0c0.1,0,0.3-0.1,0.4-0.1c0.1-0.1,0.2-0.1,0.3-0.2l0,1.6c-0.1,0-0.2,0.1-0.3,0.1c-0.1,0-0.2,0.1-0.4,0.1
		c-0.1,0-0.3,0-0.4,0c-0.5,0-0.9-0.1-1.3-0.2s-0.7-0.3-1-0.5s-0.5-0.5-0.7-0.8c-0.2-0.3-0.2-0.7-0.2-1.2c0-0.5,0.1-0.9,0.3-1.3
		c0.2-0.4,0.5-0.7,0.8-0.9c0.3-0.2,0.7-0.4,1.1-0.5c0.4-0.1,0.8-0.2,1.2-0.2c0.5,0,0.8,0,1.1,0c0.3,0,0.5-0.1,0.6-0.1
		c0.2,0,0.3-0.1,0.3-0.1v-0.4c0-0.5-0.2-1-0.5-1.3c-0.3-0.3-0.8-0.5-1.4-0.5c-0.5,0-0.9,0.1-1.2,0.3c-0.3,0.2-0.6,0.4-0.9,0.6
		c-0.3,0.2-0.5,0.5-0.7,0.8l-0.6-1.5c0.2-0.3,0.5-0.6,0.8-0.8c0.3-0.2,0.6-0.4,1.1-0.6c0.4-0.2,0.9-0.3,1.5-0.3c0.4,0,0.8,0,1.1,0.1
		c0.3-0.1,0.5-0.3,0.6-0.4c0.1-0.2,0.2-0.4,0.2-0.7h1.7c0,0.4-0.1,0.7-0.3,1c-0.2,0.3-0.5,0.5-0.9,0.7c0.4,0.3,0.7,0.7,0.9,1.2
		c0.2,0.5,0.3,1.1,0.3,1.7v5.6H458.2z"/>
	<path fill="#FFFFFF" d="M461.5,44.3h1.7v6.3c0.2,0.2,0.4,0.4,0.6,0.5c0.2,0.1,0.4,0.3,0.6,0.4c0.2,0.1,0.5,0.1,0.8,0.1
		c0.8,0,1.3-0.2,1.6-0.5c0.3-0.3,0.4-0.8,0.4-1.5v-5.3h1.7v6c0,0.3-0.1,0.7-0.2,1.1s-0.3,0.7-0.6,1c-0.2,0.3-0.6,0.6-0.9,0.8
		c-0.4,0.2-0.8,0.3-1.3,0.3c-0.5,0-0.9-0.1-1.3-0.3c-0.4-0.2-0.7-0.3-0.9-0.5c-0.3-0.2-0.5-0.5-0.7-0.8v1.4h-1.7V44.3z"/>
	<path fill="#FFFFFF" d="M470.8,41.3l-0.6,1.5h-3.6c-0.3,0-0.5,0-0.8-0.1c-0.2-0.1-0.4-0.1-0.6-0.3c-0.2-0.1-0.3-0.3-0.4-0.6
		s-0.2-0.5-0.2-0.9v-0.8h1.7v0.7c0,0.2,0.1,0.3,0.2,0.4c0.1,0.1,0.3,0.1,0.7,0.1H470.8z"/>
	<path fill="#FFFFFF" d="M472.3,49.2c0.2-0.2,0.4-0.4,0.6-0.5c0.2-0.1,0.4-0.3,0.7-0.4c0.3-0.1,0.6-0.2,0.9-0.2v1.7
		c-0.4,0-0.7,0-1,0.1c-0.3,0.1-0.5,0.2-0.7,0.3c-0.2,0.1-0.4,0.3-0.6,0.4v2.7h-1.7v-6.2c0-0.5,0.1-0.9,0.3-1.2
		c0.2-0.4,0.5-0.7,0.9-1c0.4-0.3,0.8-0.5,1.2-0.6c0.5-0.1,0.9-0.2,1.5-0.2c0.5,0,1,0.1,1.4,0.2c0.5,0.1,0.9,0.3,1.2,0.6
		c0.4,0.3,0.7,0.6,0.9,0.9c0.2,0.4,0.3,0.8,0.3,1.3v6.2h-1.7v-6.2c0-0.4-0.2-0.8-0.6-1.1c-0.4-0.3-0.9-0.4-1.5-0.4
		c-0.6,0-1.1,0.1-1.5,0.4c-0.4,0.3-0.6,0.6-0.6,1.1V49.2z"/>
	<path fill="#FFFFFF" d="M485.5,46.5c-0.2-0.1-0.4-0.3-0.6-0.4c-0.2-0.1-0.5-0.2-0.8-0.3c-0.3-0.1-0.7-0.1-1.1-0.1
		c-0.4,0-0.7,0.1-1,0.2s-0.4,0.4-0.4,0.7c0,0.3,0.1,0.5,0.3,0.6c0.2,0.2,0.5,0.3,0.8,0.4s0.7,0.2,1.1,0.3c0.4,0.1,0.7,0.3,1.1,0.5
		c0.3,0.2,0.6,0.5,0.8,0.8c0.2,0.3,0.3,0.8,0.3,1.4c0,0.3,0,0.7-0.1,1s-0.3,0.7-0.5,0.9c-0.2,0.3-0.6,0.5-1,0.7s-1,0.3-1.7,0.3
		c-0.4,0-0.8,0-1.2-0.1s-0.6-0.2-0.9-0.3c-0.3-0.1-0.6-0.2-0.8-0.4v-1.5c0.3,0.1,0.5,0.3,0.8,0.4c0.3,0.1,0.5,0.2,0.9,0.3
		c0.3,0.1,0.7,0.1,1,0.1c1.1,0,1.7-0.5,1.7-1.4c0-0.3-0.1-0.6-0.3-0.7c-0.2-0.2-0.5-0.3-0.8-0.4c-0.3-0.1-0.7-0.2-1.1-0.3
		s-0.7-0.2-1.1-0.4c-0.3-0.2-0.6-0.5-0.8-0.8s-0.3-0.8-0.3-1.4c0-0.3,0.1-0.7,0.2-1s0.4-0.6,0.7-0.8c0.3-0.2,0.6-0.4,1-0.5
		c0.4-0.1,0.8-0.2,1.2-0.2c0.4,0,0.8,0,1.1,0.1c0.3,0.1,0.6,0.2,0.8,0.3c0.3,0.1,0.5,0.3,0.7,0.4V46.5z"/>
</g>
<path fill="#FFFFFF" d="M261.3,49.9c0,0.9-0.3,1.7-1,2.2s-1.6,0.8-2.8,0.8c-0.5,0-0.9-0.1-1.4-0.2c-0.5-0.1-0.8-0.3-1.1-0.5v-1.6
	c0.3,0.3,0.7,0.5,1.1,0.6c0.4,0.1,0.9,0.2,1.3,0.2c0.2,0,0.4,0,0.7-0.1s0.5-0.1,0.7-0.3s0.4-0.3,0.5-0.5c0.1-0.2,0.2-0.4,0.2-0.7
	c0-0.3-0.1-0.6-0.2-0.8c-0.1-0.2-0.3-0.4-0.6-0.5c-0.3-0.1-0.6-0.2-1.1-0.3s-1-0.1-1.7-0.1v-1.5c0.6,0,1.1,0,1.6-0.1
	c0.2,0,0.4-0.1,0.6-0.2c0.2-0.1,0.4-0.2,0.5-0.3c0.1-0.1,0.3-0.3,0.4-0.4s0.1-0.3,0.1-0.6c0-0.3,0-0.5-0.1-0.7
	c-0.1-0.2-0.2-0.3-0.3-0.4s-0.3-0.2-0.5-0.2c-0.2,0-0.3,0-0.5,0c-0.5,0-0.9,0.1-1.3,0.2c-0.4,0.1-0.8,0.3-1.1,0.5v-1.5
	c0.3-0.2,0.7-0.4,1.1-0.5c0.4-0.1,0.9-0.2,1.3-0.2c0.4,0,0.7,0.1,1.1,0.2c0.4,0.1,0.7,0.3,1,0.5c0.3,0.2,0.5,0.5,0.7,0.8
	c0.2,0.3,0.3,0.7,0.3,1.1c0,0.8-0.2,1.3-0.7,1.7c-0.5,0.4-1,0.7-1.7,0.8c0.3,0,0.6,0.1,1,0.2c0.3,0.1,0.6,0.3,0.9,0.5
	c0.3,0.2,0.5,0.4,0.6,0.7C261.2,49.2,261.3,49.6,261.3,49.9z"/>
<path fill="#FFFFFF" d="M270.1,47.7c0,0.8-0.1,1.6-0.3,2.2c-0.2,0.7-0.5,1.2-0.9,1.7c-0.4,0.5-0.8,0.8-1.3,1
	c-0.5,0.2-1.1,0.4-1.6,0.4c-1.1,0-2-0.4-2.7-1.3c-0.7-0.9-1-2.1-1-3.8c0-0.9,0.1-1.6,0.3-2.3c0.2-0.7,0.5-1.3,0.8-1.7
	c0.3-0.5,0.8-0.8,1.2-1.1c0.5-0.3,1-0.4,1.6-0.4c0.6,0,1.1,0.1,1.6,0.3c0.5,0.2,0.9,0.6,1.3,1c0.4,0.4,0.6,1,0.8,1.7
	C270,46.1,270.1,46.8,270.1,47.7z M268.3,47.8c0-0.7-0.1-1.3-0.2-1.8c-0.1-0.5-0.3-0.9-0.5-1.2c-0.2-0.3-0.5-0.5-0.7-0.7
	s-0.6-0.2-0.9-0.2c-0.3,0-0.5,0.1-0.8,0.2c-0.3,0.1-0.5,0.4-0.7,0.7c-0.2,0.3-0.4,0.7-0.5,1.2c-0.1,0.5-0.2,1.1-0.2,1.8
	c0,0.7,0.1,1.3,0.2,1.7c0.1,0.5,0.3,0.8,0.5,1.1c0.2,0.3,0.4,0.5,0.7,0.6c0.3,0.1,0.5,0.2,0.8,0.2c0.3,0,0.6-0.1,0.8-0.2
	c0.3-0.1,0.5-0.3,0.7-0.6c0.2-0.3,0.4-0.7,0.5-1.1C268.2,49,268.3,48.5,268.3,47.8z"/>
</svg>
