<?xml version="1.0" encoding="utf-8"?>
<!-- Generator: Adobe Illustrator 18.1.1, SVG Export Plug-In . SVG Version: 6.00 Build 0)  -->
<svg version="1.1" id="Layer_1" xmlns="http://www.w3.org/2000/svg" xmlns:xlink="http://www.w3.org/1999/xlink" x="0px" y="0px"
	 viewBox="58 97.8 461 625.1" enable-background="new 58 97.8 461 625.1" xml:space="preserve">
<g id="Layer_2_1_" display="none">
	<rect x="58" y="0.3" display="inline" width="461" height="722.5"/>
</g>
<path fill="#9BDDAF" d="M334.1,421c0,0,0,1.1-0.1,3.3c0,0.5,0,1.1-0.1,1.8c-0.1,0.7-0.2,1.4-0.3,2.1c-0.1,0.8-0.2,1.6-0.4,2.5
	c-0.2,0.9-0.4,1.8-0.7,2.8c-1.1,3.8-2.7,8.5-5.7,13.2c-3,4.8-7.2,9.6-12.8,13.8c-5.6,4.1-12.8,7.3-20.9,8.6c-1,0.2-2,0.2-3.1,0.3
	l-1.6,0.1l-0.8,0.1h-0.9c-2,0-4,0.1-6.2-0.3c-1.1-0.1-2.2-0.2-3.3-0.4c-1.1-0.2-2.2-0.5-3.2-0.7c-1.1-0.2-2.1-0.6-3.2-0.9l-1.6-0.5
	l-0.8-0.3l-0.8-0.3c-1-0.5-2.1-0.9-3.2-1.4c-1.1-0.5-2-1.1-3.1-1.6l-1.5-0.9c-0.5-0.3-1-0.7-1.5-1c-1-0.7-2-1.3-2.9-2
	c-3.7-2.9-7-6.5-9.8-10.5s-4.9-8.5-6.5-13.2l-1-3.6l-0.2-0.9l-0.2-0.9l-0.3-1.8c-0.2-1.2-0.4-2.5-0.4-3.7l-0.1-1.9l-0.1-0.9v-0.5
	v-0.2v-0.1c0-0.1,0,0.1,0-0.3l0.2-3.4l0.1-0.8c0-0.3,0-0.6,0.1-0.9l0.3-1.9l0.3-1.9l0.2-1l0.2-0.9l1-3.6c0.4-1.2,0.8-2.3,1.3-3.5
	c0.2-0.6,0.4-1.2,0.7-1.7l0.8-1.7l0.8-1.6c0.3-0.6,0.6-1.1,0.9-1.6c0.7-1,1.3-2.1,2-3.1c0.7-1,1.5-1.9,2.2-2.9
	c0.4-0.5,0.7-1,1.1-1.4l1.2-1.3l1.2-1.3l0.6-0.6c0.2-0.2,0.4-0.4,0.7-0.6c0.9-0.8,1.8-1.6,2.7-2.3c0.9-0.7,1.9-1.4,2.9-2
	c0.5-0.3,1-0.7,1.5-1l1.5-0.9c1-0.5,2-1.2,3.1-1.6c1.1-0.5,2.1-0.9,3.2-1.4c4.3-1.6,8.6-2.8,12.9-3.1c2.1-0.3,4.3-0.2,6.4-0.3h0.4
	h0.2h0.1c0,0,0.3,0,0.2,0l0.7,0.1l1.5,0.1l1.5,0.1c0.5,0,1,0.1,1.5,0.2c1,0.2,2,0.4,3.1,0.6c0.5,0.1,1,0.2,1.5,0.3
	c0.5,0.1,1,0.3,1.4,0.4c0.9,0.3,1.9,0.6,2.8,0.8c0.9,0.3,1.8,0.7,2.7,1.1c1.8,0.7,3.4,1.6,5,2.5c0.8,0.4,1.6,0.9,2.3,1.4
	c0.7,0.5,1.5,1,2.2,1.5c5.6,4.2,9.9,9,12.8,13.8c3,4.8,4.7,9.4,5.7,13.2c0.2,1,0.5,1.9,0.7,2.8s0.3,1.7,0.4,2.5
	c0.1,0.8,0.2,1.5,0.3,2.1c0.1,0.7,0.1,1.3,0.1,1.8C334.1,419.8,334.1,420.9,334.1,421L334.1,421z M333.6,420.9c0,0-0.1-1.1-0.2-3.2
	c0-0.5,0-1.1-0.1-1.8c-0.1-0.6-0.2-1.3-0.3-2.1c-0.1-0.8-0.2-1.6-0.4-2.4c-0.2-0.9-0.5-1.8-0.7-2.7c-1.1-3.8-2.8-8.3-5.8-12.9
	c-3-4.6-7.3-9.2-12.9-13c-5.6-3.7-12.6-6.5-20.3-7.4c-1-0.1-1.9-0.1-2.9-0.2l-1.5-0.1h-0.7c-0.2,0-0.5,0-0.7,0c-2,0.1-4,0.1-6,0.5
	c-4,0.5-8,1.8-11.9,3.4c-0.9,0.5-1.9,0.9-2.9,1.4c-1,0.5-1.8,1.1-2.8,1.6l-1.4,0.8c-0.4,0.3-0.9,0.6-1.3,1c-0.9,0.7-1.7,1.3-2.6,2
	c-3.3,2.8-6.2,6.1-8.7,9.8c-2.4,3.7-4.3,7.8-5.7,12c-1.3,4.3-1.8,8.7-1.9,13.3c0.1,4.4,0.7,9,1.9,13.2c1.4,4.3,3.2,8.3,5.7,12
	c2.5,3.6,5.4,7,8.7,9.8c0.8,0.7,1.7,1.3,2.6,2c0.4,0.3,0.9,0.7,1.3,1l1.4,0.8c0.9,0.5,1.8,1.2,2.8,1.6c1,0.5,1.9,0.9,2.9,1.4
	c3.9,1.6,7.9,2.9,11.9,3.4c2,0.4,4,0.4,6,0.5c0.2,0,0.5,0,0.7,0h0.7l1.5-0.1c1-0.1,2,0,2.9-0.2c7.7-0.9,14.7-3.7,20.3-7.4
	c5.6-3.8,9.9-8.4,12.9-13c3.1-4.6,4.8-9.1,5.8-12.9c0.2-1,0.5-1.9,0.7-2.7c0.2-0.9,0.3-1.7,0.4-2.4c0.1-0.8,0.2-1.5,0.3-2.1
	c0.1-0.6,0.1-1.2,0.1-1.8C333.6,422.1,333.6,420.9,333.6,420.9L333.6,420.9z"/>
<circle fill="#3DE073" cx="288" cy="421" r="46.2"/>
<path fill="#FFD37B" d="M334.1,296.1c0,0,0,1.1-0.1,3.3c0,0.5,0,1.1-0.1,1.8s-0.2,1.4-0.3,2.1c-0.1,0.8-0.2,1.6-0.4,2.5
	c-0.2,0.9-0.4,1.8-0.7,2.8c-1.1,3.8-2.7,8.5-5.7,13.2c-3,4.8-7.2,9.6-12.8,13.8c-5.6,4.1-12.8,7.3-20.9,8.6c-1,0.2-2,0.2-3.1,0.3
	l-1.6,0.1l-0.8,0.1h-0.9c-2,0-4,0.1-6.2-0.3c-1.1-0.1-2.2-0.2-3.3-0.4c-1.1-0.2-2.2-0.5-3.2-0.7c-1.1-0.2-2.1-0.6-3.2-0.9l-1.6-0.5
	l-0.8-0.3l-0.8-0.3c-1-0.5-2.1-0.9-3.2-1.4c-1.1-0.5-2-1.1-3.1-1.6l-1.5-0.9c-0.5-0.3-1-0.7-1.5-1c-1-0.7-2-1.3-2.9-2
	c-3.7-2.9-7-6.5-9.8-10.5c-2.8-4-4.9-8.5-6.5-13.2l-1-3.6l-0.2-0.9l-0.2-0.9l-0.3-1.8c-0.2-1.2-0.4-2.5-0.4-3.7l-0.1-1.9l-0.1-0.9
	v-0.5v-0.2v-0.1c0-0.1,0,0.1,0-0.3l0.2-3.4l0.1-0.8c0-0.3,0-0.6,0.1-0.9l0.3-1.9l0.3-1.9l0.2-1l0.2-0.9l1-3.6
	c0.4-1.2,0.8-2.3,1.3-3.5c0.2-0.6,0.4-1.2,0.7-1.7l0.8-1.7l0.8-1.6c0.3-0.6,0.6-1.1,0.9-1.6c0.7-1,1.3-2.1,2-3.1
	c0.7-1,1.5-1.9,2.2-2.9c0.4-0.5,0.7-1,1.1-1.4l1.2-1.3l1.2-1.3l0.6-0.6c0.2-0.2,0.4-0.4,0.7-0.6c0.9-0.8,1.8-1.6,2.7-2.3
	c0.9-0.7,1.9-1.4,2.9-2c0.5-0.3,1-0.7,1.5-1l1.5-0.9c1-0.5,2-1.2,3.1-1.6c1.1-0.5,2.1-0.9,3.2-1.4c4.3-1.6,8.6-2.8,12.9-3.1
	c2.1-0.3,4.3-0.2,6.4-0.3h0.4h0.2h0.1c0,0,0.3,0,0.2,0l0.7,0.1l1.5,0.1l1.5,0.1c0.5,0,1,0.1,1.5,0.2c1,0.2,2,0.4,3.1,0.6
	c0.5,0.1,1,0.2,1.5,0.3c0.5,0.1,1,0.3,1.4,0.4c0.9,0.3,1.9,0.6,2.8,0.8c0.9,0.3,1.8,0.7,2.7,1.1c1.8,0.7,3.4,1.6,5,2.5
	c0.8,0.4,1.6,0.9,2.3,1.4c0.7,0.5,1.5,1,2.2,1.5c5.6,4.2,9.9,9,12.8,13.8c3,4.8,4.7,9.4,5.7,13.2c0.2,1,0.5,1.9,0.7,2.8
	s0.3,1.7,0.4,2.5s0.2,1.5,0.3,2.1c0.1,0.7,0.1,1.3,0.1,1.8C334.1,294.9,334.1,296,334.1,296.1L334.1,296.1z M333.6,296
	c0,0-0.1-1.1-0.2-3.2c0-0.5,0-1.1-0.1-1.8c-0.1-0.6-0.2-1.3-0.3-2.1c-0.1-0.8-0.2-1.6-0.4-2.4c-0.2-0.9-0.5-1.8-0.7-2.7
	c-1.1-3.8-2.8-8.3-5.8-12.9c-3-4.6-7.3-9.2-12.9-13c-5.6-3.7-12.6-6.5-20.3-7.4c-1-0.1-1.9-0.1-2.9-0.2l-1.5-0.1h-0.7
	c-0.2,0-0.5,0-0.7,0c-2,0.1-4,0.1-6,0.5c-4,0.5-8,1.8-11.9,3.4c-0.9,0.5-1.9,0.9-2.9,1.4c-1,0.5-1.8,1.1-2.8,1.6l-1.4,0.8
	c-0.4,0.3-0.9,0.6-1.3,1c-0.9,0.7-1.7,1.3-2.6,2c-3.3,2.8-6.2,6.1-8.7,9.8c-2.4,3.7-4.3,7.8-5.7,12c-1.3,4.3-1.8,8.7-1.9,13.3
	c0.1,4.4,0.7,9,1.9,13.2c1.4,4.3,3.2,8.3,5.7,12c2.5,3.6,5.4,7,8.7,9.8c0.8,0.7,1.7,1.3,2.6,2c0.4,0.3,0.9,0.7,1.3,1l1.4,0.8
	c0.9,0.5,1.8,1.2,2.8,1.6c1,0.5,1.9,0.9,2.9,1.4c3.9,1.6,7.9,2.9,11.9,3.4c2,0.4,4,0.4,6,0.5c0.2,0,0.5,0,0.7,0h0.7l1.5-0.1
	c1-0.1,2,0,2.9-0.2c7.7-0.9,14.7-3.7,20.3-7.4c5.6-3.8,9.9-8.4,12.9-13c3.1-4.6,4.8-9.1,5.8-12.9c0.2-1,0.5-1.9,0.7-2.7
	c0.2-0.9,0.3-1.7,0.4-2.4c0.1-0.8,0.2-1.5,0.3-2.1c0.1-0.6,0.1-1.2,0.1-1.8C333.6,297.2,333.6,296,333.6,296L333.6,296z"/>
<circle fill="#FFB300" cx="288" cy="296.1" r="46.2"/>
<g>
	<g>
		<g>
			<path fill="#E5E5E5" d="M286.7,345.9h0.7v2.9h-0.7V345.9z M286.7,351.5h0.7v2.9h-0.7V351.5z M286.7,357.2h0.7v2.9h-0.7V357.2z
				 M286.7,362.9h0.7v2.9h-0.7V362.9z M286.7,368.6h0.7v2.9h-0.7V368.6z"/>
		</g>
	</g>
</g>
<g>
	<path fill="#E23B67" d="M131.3,663.8h-8.9c0.1-0.2,0.2-0.4,0.2-0.6c0-0.7-0.6-1.3-1.3-1.3c-0.7,0-1.3,0.6-1.3,1.3
		c0,0.2,0.1,0.4,0.2,0.6h-8.9c-0.7,0-1.2,0.6-1.2,1.2v13.3c0,0.7,0.5,1.2,1.2,1.2h7.3l-1.4,5c-0.1,0.3,0.1,0.7,0.5,0.8l0.6,0.1
		c0.4,0.1,0.7-0.2,0.8-0.5l1.5-5.4h1.7l1.5,5.4c0.1,0.3,0.5,0.6,0.8,0.5l0.6-0.1c0.4-0.1,0.6-0.4,0.5-0.8l-1.4-5h7.3
		c0.7,0,1.2-0.5,1.2-1.2V665C132.5,664.3,132,663.8,131.3,663.8L131.3,663.8z M130.2,677.2h-18V666h18V677.2z"/>
	<path fill="#E23B67" d="M114.4,675.3c0.5,0,0.9-0.4,0.9-0.9c0-0.1,0-0.2-0.1-0.3c1.2-1,3.3-2.7,4.3-3.4c0.2,0.1,0.3,0.2,0.5,0.2
		s0.3-0.1,0.5-0.1c0.6,0.5,1.7,1.4,2.4,2.1c0,0.1,0,0.1,0,0.2c0,0.5,0.4,0.9,0.9,0.9c0.5,0,0.9-0.4,0.9-0.9c0-0.1,0-0.2-0.1-0.3
		l2.4-2.2c0.1,0.1,0.3,0.1,0.4,0.1c0.5,0,0.9-0.4,0.9-0.9c0-0.5-0.4-0.9-0.9-0.9s-0.9,0.4-0.9,0.9c0,0.1,0,0.2,0.1,0.4
		c-0.7,0.6-1.7,1.6-2.4,2.1c-0.1-0.1-0.3-0.2-0.5-0.2s-0.4,0.1-0.6,0.2c-0.6-0.5-1.6-1.4-2.3-2c0-0.1,0.1-0.2,0.1-0.3
		c0-0.5-0.4-0.9-0.9-0.9c-0.5,0-0.9,0.4-0.9,0.9c0,0.1,0,0.2,0.1,0.3l-4.3,3.4c-0.1-0.1-0.3-0.2-0.5-0.2c-0.5,0-0.9,0.4-0.9,0.9
		S113.9,675.3,114.4,675.3L114.4,675.3z"/>
</g>
<path fill="#0098FF" d="M406.4,538.5c0,1.7-1.4,3-3,3c-1.7,0-3-1.4-3-3c0-1.7,1.4-3,3-3C405,535.5,406.4,536.8,406.4,538.5
	L406.4,538.5z"/>
<path fill="#0098FF" d="M413.8,546.8l-2.8-0.6c-1-0.2-1.9,0.2-2.4,1c-0.5-0.3-1-0.5-1.6-0.6v-1.7c0-1.3-1-2.3-2.3-2.3h-2.9
	c-1.3,0-2.3,1-2.3,2.3v1.7c-0.6,0.2-1.1,0.4-1.6,0.6c-0.5-0.8-1.5-1.2-2.4-1l-2.8,0.6c-1.2,0.3-2,1.5-1.8,2.7l0.7,3.4
	c0.3,1.2,1.5,2,2.7,1.8l0.9-0.2c0.5,0.7,1.1,1.3,1.9,1.8c1.7,1.1,3.8,1.7,6.2,1.7c3.5,0,6.5-1.4,7.9-3.5l0.9,0.2
	c1.2,0.3,2.5-0.5,2.7-1.8l0.7-3.4C415.9,548.3,415.1,547,413.8,546.8L413.8,546.8z M403.4,556.7c-2.1,0-4.1-0.5-5.5-1.5
	c-0.5-0.3-0.9-0.7-1.3-1.1l0.7-0.1c1.2-0.3,2.1-1.5,1.8-2.7l-0.6-3c0.4-0.2,0.8-0.4,1.2-0.5v0.6c0,1.3,1,2.3,2.3,2.3h2.9
	c1.3,0,2.3-1,2.3-2.3v-0.6c0.4,0.2,0.8,0.3,1.2,0.5l-0.6,3.1c-0.3,1.2,0.6,2.5,1.8,2.7l0.7,0.1C408.9,555.7,406.3,556.7,403.4,556.7
	L403.4,556.7z"/>
<g>
	<g>
		<g>
			<g>
				<g>
					<defs>
						<rect id="SVGID_1_" x="390.5" y="535.5" width="26.2" height="23.5"/>
					</defs>
					<clipPath id="SVGID_2_">
						<use xlink:href="#SVGID_1_"  overflow="visible"/>
					</clipPath>
					<path clip-path="url(#SVGID_2_)" fill="#0098FF" d="M416.3,542.5c0,1.7-1.4,3-3,3c-1.7,0-3-1.4-3-3c0-1.7,1.4-3,3-3
						C414.9,539.5,416.3,540.8,416.3,542.5L416.3,542.5z"/>
				</g>
			</g>
		</g>
	</g>
	<g>
		<g>
			<g>
				<g>
					<defs>
						<rect id="SVGID_3_" x="390.5" y="535.5" width="26.2" height="23.5"/>
					</defs>
					<clipPath id="SVGID_4_">
						<use xlink:href="#SVGID_3_"  overflow="visible"/>
					</clipPath>
					<path clip-path="url(#SVGID_4_)" fill="#0098FF" d="M394.1,545.4c1.6-0.3,2.7-1.9,2.3-3.6c-0.3-1.6-1.9-2.7-3.6-2.4
						c-1.6,0.3-2.7,1.9-2.3,3.6C390.9,544.7,392.5,545.7,394.1,545.4L394.1,545.4z"/>
				</g>
			</g>
		</g>
	</g>
</g>
<path fill="#FFB300" d="M412.3,290c0-6.6-5.4-8.1-9-7.8c-3.7,0.4-6.9,2.3-6.9,5.6c0,3.3-0.2,4.4-0.2,4.4l0.7,0.9c0,0-2.1,3.5-1.9,4
	c0.2,0.5,1.9,0.8,1.9,0.8s0.1,0.2,0,2.5c-0.2,2.6,1.7,2.6,3.1,2.4c0.7-0.1,1.1-0.2,1.6-0.3l0.4,3.3h9.2l-1.4-7
	C410.1,296.3,412.3,295.1,412.3,290L412.3,290z M402.1,292.8l3.2-3.7h-6.7l7.4-4.9l-3.1,3.5h6.4L402.1,292.8z"/>
<g>
	<path fill="#EA3636" d="M96,163.3c-5,0-8.9,4-8.9,8.9c0,4.9,4,8.9,8.9,8.9c4.9,0,8.9-4,8.9-8.9C105.1,167.3,101,163.3,96,163.3
		L96,163.3z M96.1,173.3c-0.1,0-0.3,0-0.4-0.1l-4.6,2.7l3.9-3.4c-0.1-0.1-0.1-0.3-0.1-0.4c0-0.5,0.3-0.9,0.8-1.1l0.7-6.1l0.4,6.3
		c0.2,0.2,0.4,0.5,0.4,0.9C97.2,172.9,96.7,173.3,96.1,173.3L96.1,173.3z"/>
	<path fill="#EA3636" d="M100.8,179.8l0.8,1.5h2.1l-1.5-2.6C101.8,179.1,101.4,179.4,100.8,179.8L100.8,179.8z"/>
	<g>
		<g>
			<g>
				<g>
					<defs>
						<rect id="SVGID_5_" x="86.8" y="160.9" width="19.4" height="20.7"/>
					</defs>
					<clipPath id="SVGID_6_">
						<use xlink:href="#SVGID_5_"  overflow="visible"/>
					</clipPath>
					<path clip-path="url(#SVGID_6_)" fill="#EA3636" d="M104.9,161.6c-1.5-1.1-3.6-0.8-4.7,0.6l5.3,4.1
						C106.6,164.8,106.4,162.7,104.9,161.6L104.9,161.6z"/>
				</g>
			</g>
		</g>
	</g>
	<g>
		<g>
			<g>
				<g>
					<defs>
						<rect id="SVGID_7_" x="85.8" y="160.9" width="19.4" height="20.7"/>
					</defs>
					<clipPath id="SVGID_8_">
						<use xlink:href="#SVGID_7_"  overflow="visible"/>
					</clipPath>
					<path clip-path="url(#SVGID_8_)" fill="#EA3636" d="M87.1,161.6c-1.5,1.1-1.8,3.2-0.6,4.7l5.3-4.1
						C90.7,160.7,88.6,160.4,87.1,161.6L87.1,161.6z"/>
				</g>
			</g>
		</g>
	</g>
	<path fill="#EA3636" d="M88.2,181.2h2.1l0.9-1.5c-0.5-0.3-1-0.7-1.4-1.2L88.2,181.2z"/>
</g>
<g>
	<path fill="#3DE073" d="M94.2,417.1l-0.5,0.2c-0.2-0.2-0.3-0.4-0.5-0.5l0.2-0.5c0.1-0.1,0-0.3-0.1-0.4l-0.8-0.3
		c-0.1-0.1-0.3,0-0.4,0.1l-0.2,0.5c-0.3,0-0.5,0-0.8,0l-0.2-0.5c-0.1-0.1-0.2-0.2-0.4-0.2l-0.8,0.3c-0.1,0.1-0.2,0.2-0.1,0.4
		l0.2,0.5c-0.2,0.2-0.4,0.3-0.5,0.5l-0.5-0.2c-0.1-0.1-0.3,0-0.4,0.1l-0.3,0.8c-0.1,0.1,0,0.3,0.1,0.4l0.5,0.2c0,0.3,0,0.5,0,0.8
		l-0.5,0.2c-0.1,0.1-0.2,0.2-0.1,0.4l0.3,0.8c0.1,0.1,0.2,0.2,0.4,0.1l0.5-0.2c0.2,0.2,0.3,0.4,0.5,0.5l-0.1,0.5
		c-0.1,0.1,0,0.3,0.1,0.4l0.8,0.3c0.1,0.1,0.3,0,0.4-0.1l0.2-0.5c0.3,0,0.5,0,0.8,0l0.2,0.5c0.1,0.1,0.2,0.2,0.4,0.1l0.8-0.3
		c0.1-0.1,0.2-0.2,0.1-0.4l-0.2-0.5c0.2-0.2,0.4-0.3,0.5-0.5l0.5,0.2c0.1,0.1,0.3,0,0.4-0.1l0.3-0.8c0.1-0.1,0-0.3-0.1-0.4l-0.5-0.2
		c0-0.3,0-0.5,0-0.8l0.5-0.2c0.1-0.1,0.2-0.2,0.1-0.4l-0.3-0.8C94.5,417.1,94.3,417,94.2,417.1L94.2,417.1z M92.1,420.2
		c-0.7,0.3-1.5,0-1.8-0.7c-0.3-0.7,0-1.5,0.7-1.8c0.7-0.3,1.5,0,1.8,0.7C93.1,419.1,92.8,419.9,92.1,420.2L92.1,420.2z"/>
	<path fill="#3DE073" d="M90.9,422.9v6.1h-10v-15.2h10v1.1H92v-3.2c0-1-0.8-1.8-1.8-1.8h-8.6c-1,0-1.8,0.8-1.8,1.8v19
		c0,1,0.8,1.8,1.8,1.8h8.6c1,0,1.8-0.8,1.8-1.8v-7.8H90.9L90.9,422.9z M84.9,411.9h1.8c0.1,0,0.2,0.1,0.2,0.2s-0.1,0.2-0.2,0.2h-1.8
		c-0.1,0-0.2-0.1-0.2-0.2C84.7,412,84.8,411.9,84.9,411.9L84.9,411.9z M85.8,431.5c-0.5,0-0.9-0.4-0.9-0.9s0.4-0.9,0.9-0.9
		c0.5,0,0.9,0.4,0.9,0.9C86.7,431.1,86.3,431.5,85.8,431.5L85.8,431.5z"/>
	<rect x="73.1" y="415.7" fill="#3DE073" width="5.5" height="1.1"/>
	<rect x="74.5" y="418" fill="#3DE073" width="4.1" height="1.1"/>
	<rect x="77.2" y="420.3" fill="#3DE073" width="1.4" height="1.1"/>
</g>
<g>
	<g>
		<g>
			<path fill="#E5E5E5" d="M286.9,97.8h0.7v2.9h-0.7V97.8z M286.9,103.4h0.7v2.9h-0.7V103.4z M286.9,109.1h0.7v2.9h-0.7V109.1z
				 M286.9,114.8h0.7v2.9h-0.7V114.8z M286.9,120.5h0.7v2.9h-0.7V120.5z"/>
		</g>
	</g>
</g>
<path fill="#EB6261" d="M334.4,171.9c0,0,0,1.1-0.1,3.3c0,0.5,0,1.1-0.1,1.8c-0.1,0.7-0.2,1.4-0.3,2.1c-0.1,0.8-0.2,1.6-0.4,2.5
	c-0.2,0.9-0.4,1.8-0.7,2.8c-1.1,3.8-2.7,8.5-5.7,13.2c-3,4.8-7.2,9.6-12.8,13.8c-5.6,4.1-12.8,7.3-20.9,8.6c-1,0.2-2,0.2-3.1,0.3
	l-1.6,0.1l-0.8,0.1H287c-2,0-4,0.1-6.2-0.3c-1.1-0.1-2.2-0.2-3.3-0.4c-1.1-0.2-2.2-0.5-3.2-0.7c-1.1-0.2-2.1-0.6-3.2-0.9l-1.6-0.5
	l-0.8-0.3l-0.8-0.3c-1-0.5-2.1-0.9-3.2-1.4c-1.1-0.5-2-1.1-3.1-1.6l-1.5-0.9c-0.5-0.3-1-0.7-1.5-1c-1-0.7-2-1.3-2.9-2
	c-3.7-2.9-7-6.5-9.8-10.5s-4.9-8.5-6.5-13.2l-1-3.6l-0.2-0.9l-0.2-0.9l-0.3-1.8c-0.2-1.2-0.4-2.5-0.4-3.7l-0.1-1.9l-0.1-0.9v-0.5
	v-0.2V172c0-0.1,0,0.1,0-0.3l0.2-3.4l0.1-0.8c0-0.3,0-0.6,0.1-0.9l0.3-1.9l0.3-1.9l0.2-1l0.2-0.9l1-3.6c0.4-1.2,0.8-2.3,1.3-3.5
	c0.2-0.6,0.4-1.2,0.7-1.7l0.8-1.7l0.8-1.6c0.3-0.6,0.6-1.1,0.9-1.6c0.7-1,1.3-2.1,2-3.1c0.7-1,1.5-1.9,2.2-2.9
	c0.4-0.5,0.7-1,1.1-1.4l1.2-1.3l1.2-1.3l0.6-0.6c0.2-0.2,0.4-0.4,0.7-0.6c0.9-0.8,1.8-1.6,2.7-2.3c0.9-0.7,1.9-1.4,2.9-2
	c0.5-0.3,1-0.7,1.5-1l1.5-0.9c1-0.5,2-1.2,3.1-1.6c1.1-0.5,2.1-0.9,3.2-1.4c4.3-1.6,8.6-2.8,12.9-3.1c2.1-0.3,4.3-0.2,6.4-0.3h0.4
	h0.2h0.1c0,0,0.3,0,0.2,0l0.7,0.1l1.5,0.1l1.5,0.1c0.5,0,1,0.1,1.5,0.2c1,0.2,2,0.4,3.1,0.6c0.5,0.1,1,0.2,1.5,0.3
	c0.5,0.1,1,0.3,1.4,0.4c0.9,0.3,1.9,0.6,2.8,0.8c0.9,0.3,1.8,0.7,2.7,1.1c1.8,0.7,3.4,1.6,5,2.5c0.8,0.4,1.6,0.9,2.3,1.4
	c0.7,0.5,1.5,1,2.2,1.5c5.6,4.2,9.9,9,12.8,13.8c3,4.8,4.7,9.4,5.7,13.2c0.2,1,0.5,1.9,0.7,2.8s0.3,1.7,0.4,2.5
	c0.1,0.8,0.2,1.5,0.3,2.1c0.1,0.7,0.1,1.3,0.1,1.8C334.4,170.7,334.4,171.8,334.4,171.9L334.4,171.9z M333.9,171.8
	c0,0-0.1-1.1-0.2-3.2c0-0.5,0-1.1-0.1-1.8c-0.1-0.6-0.2-1.3-0.3-2.1c-0.1-0.8-0.2-1.6-0.4-2.4c-0.2-0.9-0.5-1.8-0.7-2.7
	c-1.1-3.8-2.8-8.3-5.8-12.9c-3-4.6-7.3-9.2-12.9-13c-5.6-3.7-12.6-6.5-20.3-7.4c-1-0.1-1.9-0.1-2.9-0.2l-1.5-0.1h-0.7
	c-0.2,0-0.5,0-0.7,0c-2,0.1-4,0.1-6,0.5c-4,0.5-8,1.8-11.9,3.4c-0.9,0.5-1.9,0.9-2.9,1.4s-1.8,1.1-2.8,1.6l-1.4,0.8
	c-0.4,0.3-0.9,0.6-1.3,1c-0.9,0.7-1.7,1.3-2.6,2c-3.3,2.8-6.2,6.1-8.7,9.8c-2.4,3.7-4.3,7.8-5.7,12c-1.3,4.3-1.8,8.7-1.9,13.3
	c0.1,4.4,0.7,9,1.9,13.2c1.4,4.3,3.2,8.3,5.7,12c2.5,3.6,5.4,7,8.7,9.8c0.8,0.7,1.7,1.3,2.6,2c0.4,0.3,0.9,0.7,1.3,1l1.4,0.8
	c0.9,0.5,1.8,1.2,2.8,1.6c1,0.5,1.9,0.9,2.9,1.4c3.9,1.6,7.9,2.9,11.9,3.4c2,0.4,4,0.4,6,0.5c0.2,0,0.5,0,0.7,0h0.7l1.5-0.1
	c1-0.1,2,0,2.9-0.2c7.7-0.9,14.7-3.7,20.3-7.4c5.6-3.8,9.9-8.4,12.9-13c3.1-4.6,4.8-9.1,5.8-12.9c0.2-1,0.5-1.9,0.7-2.7
	c0.2-0.9,0.3-1.7,0.4-2.4c0.1-0.8,0.2-1.5,0.3-2.1c0.1-0.6,0.1-1.2,0.1-1.8C333.9,173,333.9,171.8,333.9,171.8L333.9,171.8z"/>
<circle fill="#EA3636" cx="287.9" cy="171.8" r="46.2"/>
<g enable-background="new    ">
	<path fill="#FFFFFF" d="M260.5,173.7c0,0.9-0.3,1.7-1,2.2s-1.6,0.8-2.8,0.8c-0.5,0-0.9-0.1-1.4-0.2s-0.8-0.3-1.1-0.5v-1.6
		c0.3,0.3,0.7,0.5,1.1,0.6c0.4,0.1,0.9,0.2,1.3,0.2c0.2,0,0.4,0,0.7-0.1s0.5-0.1,0.7-0.3s0.4-0.3,0.5-0.5c0.1-0.2,0.2-0.4,0.2-0.7
		c0-0.3-0.1-0.6-0.2-0.8c-0.1-0.2-0.3-0.4-0.6-0.5c-0.3-0.1-0.6-0.2-1.1-0.3s-1-0.1-1.7-0.1v-1.5c0.6,0,1.1,0,1.6-0.1
		c0.2,0,0.4-0.1,0.6-0.2c0.2-0.1,0.4-0.2,0.5-0.3c0.1-0.1,0.3-0.3,0.4-0.4s0.1-0.3,0.1-0.6c0-0.3,0-0.5-0.1-0.7
		c-0.1-0.2-0.2-0.3-0.3-0.4s-0.3-0.2-0.5-0.2c-0.2,0-0.3,0-0.5,0c-0.5,0-0.9,0.1-1.3,0.2c-0.4,0.1-0.8,0.3-1.1,0.5v-1.5
		c0.3-0.2,0.7-0.4,1.1-0.5s0.9-0.2,1.3-0.2c0.4,0,0.7,0.1,1.1,0.2c0.4,0.1,0.7,0.3,1,0.5c0.3,0.2,0.5,0.5,0.7,0.8
		c0.2,0.3,0.3,0.7,0.3,1.1c0,0.8-0.2,1.3-0.7,1.7c-0.5,0.4-1,0.7-1.7,0.8c0.3,0,0.6,0.1,1,0.2c0.3,0.1,0.6,0.3,0.9,0.5
		c0.3,0.2,0.5,0.4,0.6,0.7C260.4,173,260.5,173.3,260.5,173.7z"/>
	<path fill="#FFFFFF" d="M269.3,171.4c0,0.8-0.1,1.6-0.3,2.2c-0.2,0.7-0.5,1.2-0.9,1.7c-0.4,0.5-0.8,0.8-1.3,1
		c-0.5,0.2-1.1,0.4-1.6,0.4c-1.1,0-2-0.4-2.7-1.3c-0.7-0.9-1-2.1-1-3.8c0-0.9,0.1-1.6,0.3-2.3c0.2-0.7,0.5-1.3,0.8-1.7
		c0.3-0.5,0.8-0.8,1.2-1.1c0.5-0.3,1-0.4,1.6-0.4c0.6,0,1.1,0.1,1.6,0.3c0.5,0.2,0.9,0.6,1.3,1c0.4,0.4,0.6,1,0.8,1.7
		C269.2,169.8,269.3,170.6,269.3,171.4z M267.5,171.5c0-0.7-0.1-1.3-0.2-1.8c-0.1-0.5-0.3-0.9-0.5-1.2c-0.2-0.3-0.5-0.5-0.7-0.7
		s-0.6-0.2-0.9-0.2c-0.3,0-0.5,0.1-0.8,0.2c-0.3,0.1-0.5,0.4-0.7,0.7c-0.2,0.3-0.4,0.7-0.5,1.2c-0.1,0.5-0.2,1.1-0.2,1.8
		c0,0.7,0.1,1.3,0.2,1.7c0.1,0.5,0.3,0.8,0.5,1.1c0.2,0.3,0.4,0.5,0.7,0.6c0.3,0.1,0.5,0.2,0.8,0.2c0.3,0,0.6-0.1,0.8-0.2
		c0.3-0.1,0.5-0.3,0.7-0.6c0.2-0.3,0.4-0.7,0.5-1.1C267.5,172.8,267.5,172.2,267.5,171.5z"/>
	<path fill="#FFFFFF" d="M276.9,167.5h1.7v6.3c0.2,0.2,0.4,0.4,0.6,0.5c0.2,0.1,0.4,0.3,0.6,0.4c0.2,0.1,0.5,0.1,0.8,0.1
		c0.8,0,1.3-0.2,1.6-0.5s0.4-0.8,0.4-1.5v-5.3h1.7v6c0,0.3-0.1,0.7-0.2,1.1c-0.1,0.4-0.3,0.7-0.6,1c-0.2,0.3-0.6,0.6-0.9,0.8
		s-0.8,0.3-1.3,0.3c-0.5,0-0.9-0.1-1.3-0.3s-0.7-0.4-0.9-0.6c-0.3-0.2-0.5-0.5-0.7-0.8v1.4h-1.7V167.5z"/>
	<path fill="#FFFFFF" d="M277.8,166l0.6-1.4h5.7v1.4H277.8z"/>
	<path fill="#FFFFFF" d="M285.9,176.6v-1.6h1.7v1.6H285.9z"/>
	<path fill="#FFFFFF" d="M288.9,173.9c0-0.5,0.1-0.9,0.3-1.2c0.2-0.3,0.5-0.6,0.8-0.8c0.3-0.2,0.7-0.4,1.1-0.5
		c-0.4-0.1-0.7-0.2-1-0.3c-0.3-0.1-0.5-0.3-0.7-0.6c-0.2-0.2-0.3-0.6-0.3-1c0-0.4,0.1-0.7,0.2-1s0.3-0.5,0.5-0.7s0.5-0.3,0.7-0.4
		c0.3-0.1,0.5-0.1,0.8-0.1c0.3,0,0.5,0,0.7,0c0.2,0,0.4,0.1,0.6,0.1c0.2,0.1,0.3,0.1,0.5,0.2v1.6c-0.1-0.1-0.3-0.1-0.4-0.2
		c-0.1,0-0.3-0.1-0.5-0.1c-0.2,0-0.3-0.1-0.5-0.1c-0.2,0-0.4,0.1-0.6,0.2c-0.2,0.1-0.3,0.3-0.3,0.5c0,0.4,0.2,0.7,0.6,0.9
		c0.4,0.2,0.9,0.3,1.6,0.3v1.5c-0.4,0-0.8,0-1.1,0.1c-0.3,0.1-0.5,0.2-0.7,0.4c-0.2,0.2-0.3,0.3-0.4,0.5c-0.1,0.2-0.1,0.4-0.1,0.5
		c0,0.5,0.2,0.8,0.5,1.1c0.3,0.2,0.8,0.3,1.3,0.3c0.7,0,1.2-0.2,1.5-0.5c0.3-0.4,0.5-0.8,0.5-1.2v-6h1.7v5.9c0,0.4-0.1,0.8-0.2,1.2
		s-0.3,0.8-0.6,1.1c-0.3,0.3-0.7,0.6-1.2,0.8c-0.5,0.2-1.1,0.3-1.8,0.3c-0.7,0-1.2-0.1-1.7-0.2s-0.8-0.4-1.1-0.6
		c-0.3-0.3-0.5-0.6-0.6-0.9C288.9,174.6,288.9,174.2,288.9,173.9z"/>
	<path fill="#FFFFFF" d="M297.7,176.6v-1.6h1.7v1.6H297.7z"/>
	<path fill="#FFFFFF" d="M313.3,173.4c0,1-0.3,1.8-1,2.4c-0.7,0.6-1.6,0.9-2.9,0.9c-0.5,0-0.9-0.1-1.2-0.2s-0.6-0.2-0.8-0.3v-1.7
		c0.2,0.1,0.4,0.2,0.6,0.3c0.2,0.1,0.4,0.2,0.6,0.2c0.2,0.1,0.5,0.1,0.8,0.1c0.3,0,0.6,0,0.8-0.1s0.5-0.1,0.7-0.3s0.3-0.3,0.5-0.5
		s0.2-0.5,0.2-0.8c0-0.5-0.2-0.9-0.5-1.3c-0.3-0.4-0.8-0.6-1.5-0.6c-0.3,0-0.6,0-0.9,0c-0.3,0-0.5,0.1-0.7,0.1
		c-0.2,0.1-0.4,0.1-0.6,0.1v-5.6h5.3v1.5h-3.5v2.3h0.6c0.5,0,1,0.1,1.4,0.2c0.4,0.1,0.8,0.3,1.1,0.6c0.3,0.3,0.6,0.6,0.8,1
		C313.2,172.4,313.3,172.9,313.3,173.4z"/>
	<path fill="#FFFFFF" d="M314.6,168.9c0-0.4,0.1-0.7,0.2-1s0.3-0.6,0.6-0.9s0.6-0.5,0.9-0.6c0.4-0.2,0.8-0.2,1.2-0.2
		c0.4,0,0.8,0.1,1.2,0.2c0.4,0.2,0.7,0.4,1,0.6s0.5,0.6,0.6,0.9c0.2,0.3,0.2,0.7,0.2,1c0,0.5-0.1,0.9-0.3,1.2
		c-0.2,0.3-0.5,0.7-0.8,1c0.5,0.3,0.8,0.7,1.1,1.2s0.4,1,0.4,1.5c0,0.9-0.3,1.6-0.9,2.2c-0.6,0.5-1.4,0.8-2.5,0.8
		c-1.1,0-2-0.3-2.5-0.8c-0.6-0.5-0.9-1.3-0.9-2.2c0-1.1,0.5-2,1.5-2.7c-0.4-0.3-0.7-0.6-0.8-1C314.7,169.7,314.6,169.3,314.6,168.9z
		 M317.5,171.8c-0.2,0-0.4,0-0.6,0.1c-0.2,0.1-0.4,0.2-0.5,0.3c-0.2,0.1-0.3,0.3-0.4,0.5c-0.1,0.2-0.1,0.5-0.1,0.8
		c0,0.6,0.2,1,0.5,1.3c0.3,0.3,0.7,0.4,1.1,0.4s0.8-0.1,1.1-0.4c0.3-0.3,0.5-0.7,0.5-1.3c0-0.5-0.2-0.9-0.5-1.2
		C318.4,172,318,171.8,317.5,171.8z M316.3,169c0,0.4,0.1,0.8,0.3,1c0.2,0.2,0.5,0.3,0.9,0.3c0.3,0,0.6-0.1,0.8-0.3
		c0.3-0.2,0.4-0.5,0.4-1c0-0.1,0-0.3-0.1-0.4c-0.1-0.2-0.1-0.3-0.2-0.4c-0.1-0.1-0.2-0.2-0.4-0.3c-0.2-0.1-0.3-0.1-0.5-0.1
		c-0.2,0-0.4,0-0.6,0.1c-0.2,0.1-0.3,0.2-0.4,0.3s-0.2,0.3-0.2,0.4S316.3,168.9,316.3,169z"/>
</g>
<g>
	<g>
		<g>
			<path fill="#E5E5E5" d="M286.6,221.1h0.7v2.9h-0.7V221.1z M286.6,226.7h0.7v2.9h-0.7V226.7z M286.6,232.4h0.7v2.9h-0.7V232.4z
				 M286.6,238.1h0.7v2.9h-0.7V238.1z M286.6,243.8h0.7v2.9h-0.7V243.8z"/>
		</g>
	</g>
</g>
<path fill="#FFFFFF" d="M278.6,300.9v-5.8c0-0.4-0.1-0.7-0.2-0.9c-0.1-0.2-0.3-0.4-0.6-0.6c-0.2-0.1-0.5-0.2-0.8-0.3
	c-0.3-0.1-0.5-0.1-0.8-0.1c-0.3,0-0.6,0-0.9,0.1c-0.2,0.1-0.4,0.2-0.6,0.3c-0.2,0.1-0.3,0.3-0.5,0.4l1.2,1c-0.1,0.1-0.2,0.2-0.3,0.4
	c-0.1,0.1-0.1,0.3-0.2,0.5s-0.1,0.5-0.1,0.8v4.1h-1.7v-4.2c0-0.3,0-0.5,0.1-0.7c0-0.2,0.1-0.4,0.1-0.5c0.1-0.2,0.1-0.3,0.2-0.4
	c-0.2-0.2-0.4-0.4-0.6-0.5c-0.1-0.1-0.3-0.2-0.4-0.3c-0.1-0.1-0.2-0.2-0.2-0.2c0.2-0.5,0.5-0.9,0.9-1.2c0.3-0.3,0.7-0.6,1.2-0.8
	c0.5-0.3,1-0.4,1.7-0.4c0.5,0,1,0.1,1.5,0.2c0.5,0.1,1,0.3,1.3,0.6c0.4,0.3,0.7,0.6,0.9,1c0.2,0.4,0.4,0.8,0.4,1.3v4.8
	c0,0.2-0.1,0.4-0.2,0.5s-0.2,0.3-0.4,0.5c-0.1,0.1-0.3,0.3-0.5,0.4H278.6z"/>
<path fill="#FFFFFF" d="M281.8,300.9v-1.6h1.7v1.6H281.8z"/>
<path fill="#FFFFFF" d="M286.8,296.7c0.2-0.2,0.4-0.4,0.6-0.5c0.2-0.1,0.4-0.3,0.7-0.4s0.6-0.2,0.9-0.2v1.7c-0.4,0-0.7,0-1,0.1
	c-0.3,0.1-0.5,0.2-0.7,0.3c-0.2,0.1-0.4,0.3-0.6,0.4v2.7H285v-6.2c0-0.5,0.1-0.9,0.3-1.2c0.2-0.4,0.5-0.7,0.9-1
	c0.4-0.3,0.8-0.5,1.2-0.6s0.9-0.2,1.5-0.2c0.5,0,1,0.1,1.4,0.2c0.5,0.1,0.9,0.3,1.2,0.6c0.4,0.3,0.7,0.6,0.9,1
	c0.2,0.4,0.3,0.8,0.3,1.3v6.2H291v-6.2c0-0.4-0.2-0.8-0.6-1.1c-0.4-0.3-0.9-0.4-1.5-0.4s-1.1,0.1-1.5,0.4c-0.4,0.3-0.6,0.6-0.6,1.1
	V296.7z"/>
<path fill="#FFFFFF" d="M294.3,300.9v-1.6h1.7v1.6H294.3z"/>
<path fill="#FFFFFF" d="M309.9,297.8c0,1-0.3,1.8-1,2.4c-0.7,0.6-1.6,0.9-2.9,0.9c-0.5,0-0.9-0.1-1.2-0.2c-0.3-0.1-0.6-0.2-0.8-0.3
	V299c0.2,0.1,0.4,0.2,0.6,0.3c0.2,0.1,0.4,0.2,0.6,0.2c0.2,0.1,0.5,0.1,0.8,0.1c0.3,0,0.6,0,0.8-0.1c0.3-0.1,0.5-0.1,0.7-0.3
	c0.2-0.1,0.3-0.3,0.5-0.5s0.2-0.5,0.2-0.8c0-0.5-0.2-0.9-0.5-1.3c-0.3-0.4-0.8-0.6-1.5-0.6c-0.3,0-0.6,0-0.9,0s-0.5,0.1-0.7,0.1
	c-0.2,0.1-0.4,0.1-0.6,0.1v-5.6h5.3v1.5h-3.5v2.3h0.6c0.5,0,1,0.1,1.4,0.2c0.4,0.1,0.8,0.3,1.1,0.6c0.3,0.3,0.6,0.6,0.8,1
	C309.8,296.8,309.9,297.3,309.9,297.8z"/>
<path fill="#FFFFFF" d="M311.1,293.3c0-0.4,0.1-0.7,0.2-1s0.3-0.6,0.6-0.9s0.6-0.5,0.9-0.6c0.4-0.2,0.8-0.2,1.2-0.2
	c0.4,0,0.8,0.1,1.2,0.2c0.4,0.2,0.7,0.4,1,0.6s0.5,0.6,0.6,0.9c0.2,0.3,0.2,0.7,0.2,1c0,0.5-0.1,0.9-0.3,1.2c-0.2,0.3-0.5,0.7-0.8,1
	c0.5,0.3,0.8,0.7,1.1,1.2c0.3,0.5,0.4,1,0.4,1.5c0,0.9-0.3,1.6-0.9,2.2c-0.6,0.5-1.4,0.8-2.5,0.8c-1.1,0-2-0.3-2.5-0.8
	c-0.6-0.5-0.9-1.3-0.9-2.2c0-1.1,0.5-2,1.5-2.7c-0.4-0.3-0.7-0.6-0.8-1C311.2,294.1,311.1,293.7,311.1,293.3z M314.1,296.2
	c-0.2,0-0.4,0-0.6,0.1s-0.4,0.2-0.5,0.3c-0.2,0.1-0.3,0.3-0.4,0.5c-0.1,0.2-0.1,0.5-0.1,0.8c0,0.6,0.2,1,0.5,1.3
	c0.3,0.3,0.7,0.4,1.1,0.4s0.8-0.1,1.1-0.4c0.3-0.3,0.5-0.7,0.5-1.3c0-0.5-0.2-0.9-0.5-1.2C315,296.4,314.6,296.2,314.1,296.2z
	 M312.9,293.4c0,0.4,0.1,0.8,0.3,1c0.2,0.2,0.5,0.3,0.9,0.3c0.3,0,0.6-0.1,0.8-0.3c0.3-0.2,0.4-0.5,0.4-1c0-0.1,0-0.3-0.1-0.4
	c-0.1-0.2-0.1-0.3-0.2-0.4c-0.1-0.1-0.2-0.2-0.4-0.3s-0.3-0.1-0.5-0.1c-0.2,0-0.4,0-0.6,0.1s-0.3,0.2-0.4,0.3
	c-0.1,0.1-0.2,0.3-0.2,0.4S312.9,293.2,312.9,293.4z"/>
<g>
	<g>
		<g>
			<path fill="#E5E5E5" d="M234.2,172.2v0.7h-2.9v-0.7H234.2z M228.5,172.2v0.7h-2.9v-0.7H228.5z M222.9,172.2v0.7H220v-0.7H222.9z
				 M217.1,172.2v0.7h-2.9v-0.7H217.1z M211.5,172.2v0.7h-2.9v-0.7H211.5z M205.8,172.2v0.7h-2.9v-0.7H205.8z M200.1,172.2v0.7h-2.9
				v-0.7H200.1z M194.4,172.2v0.7h-2.9v-0.7H194.4z"/>
		</g>
		<g>
			<rect x="187.3" y="172.2" fill="#E5E5E5" width="1.4" height="0.7"/>
		</g>
	</g>
	<circle fill="#E5E5E5" cx="187.4" cy="172.6" r="2.2"/>
</g>
<g>
	<g>
		<g>
			<path fill="#E5E5E5" d="M337.3,296.5v-0.7h2.9v0.7H337.3z M343,296.5v-0.7h2.9v0.7H343z M348.6,296.5v-0.7h2.9v0.7H348.6z
				 M354.4,296.5v-0.7h2.9v0.7H354.4z M360,296.5v-0.7h2.9v0.7H360z M365.7,296.5v-0.7h2.9v0.7H365.7z M371.4,296.5v-0.7h2.9v0.7
				H371.4z M377.1,296.5v-0.7h2.9v0.7H377.1z"/>
		</g>
		<g>
			<rect x="382.8" y="295.8" fill="#E5E5E5" width="1.4" height="0.7"/>
		</g>
	</g>
	<circle fill="#E5E5E5" cx="384.1" cy="296.1" r="2.2"/>
</g>
<g>
	<g>
		<g>
			<path fill="#E5E5E5" d="M234.2,419.6v0.7h-2.9v-0.7H234.2z M228.5,419.6v0.7h-2.9v-0.7H228.5z M222.9,419.6v0.7H220v-0.7H222.9z
				 M217.1,419.6v0.7h-2.9v-0.7H217.1z M211.5,419.6v0.7h-2.9v-0.7H211.5z M205.8,419.6v0.7h-2.9v-0.7H205.8z M200.1,419.6v0.7h-2.9
				v-0.7H200.1z M194.4,419.6v0.7h-2.9v-0.7H194.4z"/>
		</g>
		<g>
			<rect x="187.3" y="419.6" fill="#E5E5E5" width="1.4" height="0.7"/>
		</g>
	</g>
	<circle fill="#E5E5E5" cx="187.4" cy="420" r="2.2"/>
</g>
<g enable-background="new    ">
	<path fill="#FFFFFF" d="M114.3,176.8c-0.5,0-0.9-0.1-1.3-0.3c-0.4-0.2-0.7-0.5-0.9-0.8c-0.2-0.3-0.4-0.7-0.5-1.1
		c-0.1-0.4-0.2-0.8-0.2-1.2v-5.9h1.7v6c0,0.5,0.1,0.9,0.4,1.2c0.3,0.4,0.6,0.5,1.1,0.5h0.8c0.5,0,0.9-0.2,1.1-0.5
		c0.3-0.4,0.4-0.8,0.4-1.2v-8.6h1.7v8.5c0,0.4-0.1,0.8-0.2,1.2c-0.1,0.4-0.3,0.8-0.6,1.1s-0.6,0.6-1,0.8c-0.4,0.2-0.8,0.3-1.4,0.3
		H114.3z"/>
	<path fill="#FFFFFF" d="M112.1,166l0.6-1.4h5.7v1.4H112.1z"/>
	<path fill="#FFFFFF" d="M124.7,176.4c-0.1,0.1-0.2,0.1-0.3,0.2c-0.1,0-0.2,0.1-0.4,0.1c-0.1,0-0.3,0-0.5,0c-0.6,0-1.1-0.1-1.5-0.4
		c-0.4-0.2-0.8-0.6-1.1-1c-0.3-0.4-0.6-0.9-0.7-1.5c-0.2-0.6-0.3-1.2-0.3-1.9c0-0.8,0.1-1.5,0.4-2.1c0.2-0.6,0.5-1.1,0.9-1.4
		c0.4-0.4,0.8-0.7,1.3-0.8c0.5-0.2,1-0.3,1.5-0.3c0.5,0,1,0.1,1.5,0.2s0.9,0.3,1.2,0.6c0.4,0.3,0.6,0.6,0.8,1s0.3,0.8,0.3,1.3v6.2
		h-1.7v-6c0-0.3-0.1-0.6-0.2-0.8c-0.1-0.2-0.3-0.4-0.5-0.5c-0.2-0.1-0.4-0.2-0.7-0.3c-0.3-0.1-0.5-0.1-0.8-0.1c-0.2,0-0.5,0-0.7,0.2
		c-0.3,0.1-0.5,0.3-0.8,0.5s-0.4,0.6-0.6,1s-0.2,0.9-0.2,1.5c0,0.4,0,0.8,0.1,1.2c0.1,0.4,0.2,0.7,0.3,1.1c0.1,0.3,0.3,0.6,0.6,0.8
		c0.3,0.2,0.6,0.3,1,0.3c0.2,0,0.3,0,0.5,0c0.1,0,0.2-0.1,0.3-0.1c0.1-0.1,0.2-0.1,0.3-0.2V176.4z"/>
	<path fill="#FFFFFF" d="M135.2,169.7c-0.2-0.1-0.4-0.3-0.6-0.4c-0.2-0.1-0.5-0.2-0.8-0.3c-0.3-0.1-0.7-0.1-1.1-0.1
		c-0.4,0-0.7,0.1-1,0.2c-0.3,0.2-0.4,0.4-0.4,0.7c0,0.3,0.1,0.5,0.3,0.6c0.2,0.2,0.5,0.3,0.8,0.4c0.3,0.1,0.7,0.2,1.1,0.3
		c0.4,0.1,0.7,0.3,1.1,0.5c0.3,0.2,0.6,0.5,0.8,0.8c0.2,0.3,0.3,0.8,0.3,1.4c0,0.3,0,0.7-0.1,1c-0.1,0.3-0.3,0.7-0.5,0.9
		c-0.2,0.3-0.6,0.5-1,0.7s-1,0.3-1.7,0.3c-0.4,0-0.8,0-1.2-0.1s-0.6-0.2-0.9-0.3c-0.3-0.1-0.6-0.2-0.8-0.4v-1.5
		c0.3,0.1,0.5,0.3,0.8,0.4c0.3,0.1,0.5,0.2,0.9,0.3c0.3,0.1,0.7,0.1,1,0.1c1.1,0,1.7-0.5,1.7-1.4c0-0.3-0.1-0.6-0.3-0.7
		c-0.2-0.2-0.5-0.3-0.8-0.4c-0.3-0.1-0.7-0.2-1.1-0.3s-0.7-0.2-1.1-0.4c-0.3-0.2-0.6-0.5-0.8-0.8c-0.2-0.3-0.3-0.8-0.3-1.4
		c0-0.3,0.1-0.7,0.2-1s0.4-0.6,0.7-0.8c0.3-0.2,0.6-0.4,1-0.5c0.4-0.1,0.8-0.2,1.2-0.2c0.4,0,0.8,0,1.1,0.1s0.6,0.2,0.8,0.3
		c0.3,0.1,0.5,0.3,0.7,0.4V169.7z"/>
	<path fill="#FFFFFF" d="M137.3,164.6l-0.6,1.5h-3.6c-0.3,0-0.5,0-0.8-0.1c-0.2-0.1-0.4-0.1-0.6-0.3c-0.2-0.1-0.3-0.3-0.4-0.6
		c-0.1-0.2-0.2-0.5-0.2-0.9v-0.8h1.7v0.7c0,0.2,0.1,0.3,0.2,0.4s0.3,0.1,0.7,0.1H137.3z"/>
	<path fill="#FFFFFF" d="M140,176.8c-0.5,0-1-0.1-1.3-0.3c-0.4-0.2-0.7-0.5-0.9-0.8c-0.2-0.3-0.4-0.7-0.5-1.1
		c-0.1-0.4-0.2-0.8-0.2-1.2v-5.9h1.7v6c0,0.5,0.1,0.9,0.4,1.2c0.3,0.4,0.6,0.5,1,0.5h0.8c0.5,0,0.9-0.2,1.2-0.5
		c0.3-0.4,0.4-0.8,0.4-1.2v-6h1.7v5.9c0,0.4-0.1,0.8-0.2,1.2c-0.1,0.4-0.3,0.8-0.6,1.1s-0.6,0.6-0.9,0.8c-0.4,0.2-0.8,0.3-1.3,0.3
		H140z"/>
	<path fill="#FFFFFF" d="M151,176.6v-4c-0.1,0.1-0.2,0.1-0.4,0.1c-0.1,0-0.4,0.1-0.6,0.1c-0.3,0-0.6,0-1,0c-0.2,0-0.4,0-0.6,0.1
		c-0.2,0.1-0.4,0.2-0.5,0.3c-0.2,0.1-0.3,0.2-0.4,0.4c-0.1,0.2-0.1,0.3-0.1,0.5c0,0.3,0.1,0.6,0.4,0.8c0.2,0.2,0.6,0.3,1,0.3
		c0.1,0,0.3,0,0.4,0s0.3-0.1,0.4-0.1c0.1-0.1,0.2-0.1,0.3-0.2l0,1.6c-0.1,0-0.2,0.1-0.3,0.1c-0.1,0-0.2,0.1-0.4,0.1
		c-0.1,0-0.3,0-0.4,0c-0.5,0-0.9-0.1-1.3-0.2s-0.7-0.3-1-0.5c-0.3-0.2-0.5-0.5-0.6-0.8c-0.2-0.3-0.2-0.7-0.2-1.2
		c0-0.5,0.1-0.9,0.3-1.3c0.2-0.4,0.5-0.7,0.8-0.9s0.7-0.4,1.1-0.5c0.4-0.1,0.8-0.2,1.2-0.2c0.5,0,0.8,0,1.1,0c0.3,0,0.5-0.1,0.6-0.1
		c0.2,0,0.3-0.1,0.3-0.1v-0.4c0-0.5-0.2-1-0.5-1.3c-0.3-0.3-0.8-0.5-1.4-0.5c-0.5,0-0.9,0.1-1.2,0.3c-0.3,0.2-0.6,0.4-0.9,0.6
		c-0.3,0.2-0.5,0.5-0.7,0.8l-0.6-1.5c0.2-0.3,0.5-0.6,0.8-0.8c0.3-0.2,0.6-0.4,1.1-0.6c0.4-0.2,0.9-0.3,1.5-0.3c0.4,0,0.8,0,1.1,0.1
		c0.3-0.1,0.5-0.3,0.6-0.4c0.1-0.2,0.2-0.4,0.2-0.7h1.7c0,0.4-0.1,0.7-0.3,1c-0.2,0.3-0.5,0.5-0.9,0.7c0.4,0.3,0.7,0.7,0.9,1.2
		s0.3,1.1,0.3,1.7v5.6H151z"/>
	<path fill="#FFFFFF" d="M154.3,167.5h1.7v6.3c0.2,0.2,0.4,0.4,0.6,0.5c0.2,0.1,0.4,0.3,0.6,0.4c0.2,0.1,0.5,0.1,0.8,0.1
		c0.8,0,1.3-0.2,1.6-0.5s0.4-0.8,0.4-1.5v-5.3h1.7v6c0,0.3-0.1,0.7-0.2,1.1s-0.3,0.7-0.6,1s-0.6,0.6-0.9,0.8
		c-0.4,0.2-0.8,0.3-1.3,0.3c-0.5,0-0.9-0.1-1.3-0.3c-0.4-0.2-0.7-0.3-0.9-0.5c-0.3-0.2-0.5-0.5-0.7-0.8v1.4h-1.7V167.5z"/>
	<path fill="#FFFFFF" d="M163.6,164.6l-0.6,1.5h-3.6c-0.3,0-0.5,0-0.8-0.1c-0.2-0.1-0.4-0.1-0.6-0.3c-0.2-0.1-0.3-0.3-0.4-0.6
		c-0.1-0.2-0.2-0.5-0.2-0.9v-0.8h1.7v0.7c0,0.2,0.1,0.3,0.2,0.4s0.3,0.1,0.7,0.1H163.6z"/>
	<path fill="#FFFFFF" d="M165,172.4c0.2-0.2,0.4-0.4,0.6-0.5c0.2-0.1,0.4-0.3,0.7-0.4c0.3-0.1,0.6-0.2,0.9-0.2v1.7
		c-0.4,0-0.7,0-1,0.1c-0.3,0.1-0.5,0.2-0.7,0.3c-0.2,0.1-0.4,0.3-0.6,0.4v2.7h-1.7v-6.2c0-0.5,0.1-0.9,0.3-1.2
		c0.2-0.4,0.5-0.7,0.9-1s0.8-0.5,1.2-0.6c0.5-0.1,0.9-0.2,1.5-0.2c0.5,0,1,0.1,1.4,0.2c0.5,0.1,0.9,0.3,1.2,0.6
		c0.4,0.3,0.7,0.6,0.9,0.9c0.2,0.4,0.3,0.8,0.3,1.3v6.2h-1.7v-6.2c0-0.4-0.2-0.8-0.6-1.1c-0.4-0.3-0.9-0.4-1.5-0.4s-1.1,0.1-1.5,0.4
		s-0.6,0.6-0.6,1.1V172.4z"/>
	<path fill="#FFFFFF" d="M178.3,169.7c-0.2-0.1-0.4-0.3-0.6-0.4c-0.2-0.1-0.5-0.2-0.8-0.3c-0.3-0.1-0.7-0.1-1.1-0.1
		c-0.4,0-0.7,0.1-1,0.2c-0.3,0.2-0.4,0.4-0.4,0.7c0,0.3,0.1,0.5,0.3,0.6c0.2,0.2,0.5,0.3,0.8,0.4c0.3,0.1,0.7,0.2,1.1,0.3
		c0.4,0.1,0.7,0.3,1.1,0.5c0.3,0.2,0.6,0.5,0.8,0.8c0.2,0.3,0.3,0.8,0.3,1.4c0,0.3,0,0.7-0.1,1c-0.1,0.3-0.3,0.7-0.5,0.9
		c-0.2,0.3-0.6,0.5-1,0.7s-1,0.3-1.7,0.3c-0.4,0-0.8,0-1.2-0.1s-0.6-0.2-0.9-0.3c-0.3-0.1-0.6-0.2-0.8-0.4v-1.5
		c0.3,0.1,0.5,0.3,0.8,0.4c0.3,0.1,0.5,0.2,0.9,0.3c0.3,0.1,0.7,0.1,1,0.1c1.1,0,1.7-0.5,1.7-1.4c0-0.3-0.1-0.6-0.3-0.7
		c-0.2-0.2-0.5-0.3-0.8-0.4c-0.3-0.1-0.7-0.2-1.1-0.3s-0.7-0.2-1.1-0.4c-0.3-0.2-0.6-0.5-0.8-0.8c-0.2-0.3-0.3-0.8-0.3-1.4
		c0-0.3,0.1-0.7,0.2-1s0.4-0.6,0.7-0.8c0.3-0.2,0.6-0.4,1-0.5c0.4-0.1,0.8-0.2,1.2-0.2c0.4,0,0.8,0,1.1,0.1s0.6,0.2,0.8,0.3
		c0.3,0.1,0.5,0.3,0.7,0.4V169.7z"/>
</g>
<g>
	<g enable-background="new    ">
		<path fill="#FFFFFF" d="M424.2,301.1c-0.5,0-0.9-0.1-1.3-0.3c-0.4-0.2-0.7-0.5-0.9-0.8s-0.4-0.7-0.5-1.1c-0.1-0.4-0.2-0.8-0.2-1.2
			v-5.9h1.7v6c0,0.5,0.1,0.9,0.4,1.2c0.3,0.4,0.6,0.5,1.1,0.5h0.8c0.5,0,0.9-0.2,1.1-0.5c0.3-0.4,0.4-0.8,0.4-1.2v-8.6h1.7v8.5
			c0,0.4-0.1,0.8-0.2,1.2c-0.1,0.4-0.3,0.8-0.6,1.1c-0.3,0.3-0.6,0.6-1,0.8c-0.4,0.2-0.8,0.3-1.4,0.3H424.2z"/>
		<path fill="#FFFFFF" d="M435.9,294.1c-0.2-0.1-0.4-0.3-0.6-0.4c-0.2-0.1-0.5-0.2-0.8-0.3c-0.3-0.1-0.7-0.1-1.2-0.1
			c-0.4,0-0.7,0.1-1,0.2c-0.3,0.2-0.4,0.4-0.4,0.7c0,0.3,0.1,0.5,0.3,0.6c0.2,0.2,0.5,0.3,0.8,0.4c0.3,0.1,0.7,0.2,1.1,0.3
			s0.7,0.3,1.1,0.5c0.3,0.2,0.6,0.5,0.8,0.8s0.3,0.8,0.3,1.4c0,0.3,0,0.7-0.1,1c-0.1,0.3-0.3,0.7-0.5,0.9c-0.2,0.3-0.6,0.5-1,0.7
			s-1,0.3-1.7,0.3c-0.4,0-0.8,0-1.2-0.1s-0.6-0.2-0.9-0.3c-0.3-0.1-0.6-0.2-0.8-0.4v-1.5c0.3,0.1,0.5,0.3,0.8,0.4
			c0.3,0.1,0.5,0.2,0.9,0.3c0.3,0.1,0.7,0.1,1,0.1c1.1,0,1.7-0.5,1.7-1.4c0-0.3-0.1-0.6-0.3-0.7c-0.2-0.2-0.5-0.3-0.8-0.4
			c-0.3-0.1-0.7-0.2-1.1-0.3s-0.7-0.2-1.1-0.4c-0.3-0.2-0.6-0.5-0.8-0.8c-0.2-0.3-0.3-0.8-0.3-1.4c0-0.3,0.1-0.7,0.2-1
			s0.4-0.6,0.7-0.8c0.3-0.2,0.6-0.4,1-0.5c0.4-0.1,0.8-0.2,1.2-0.2c0.4,0,0.8,0,1.1,0.1c0.3,0.1,0.6,0.2,0.8,0.3
			c0.3,0.1,0.5,0.3,0.7,0.4V294.1z"/>
		<path fill="#FFFFFF" d="M442.1,293.9l-0.6,1.5h-1.7c-0.7,0-1.2-0.2-1.5-0.5c-0.3-0.3-0.4-0.8-0.4-1.4v-0.8h1.7v0.7
			c0,0.2,0.1,0.3,0.2,0.4c0.1,0.1,0.3,0.1,0.7,0.1H442.1z M442.1,298.2l-0.6,1.5h-1.7c-0.7,0-1.2-0.1-1.5-0.5
			c-0.3-0.3-0.5-0.8-0.5-1.4V297h1.7v0.7c0,0.2,0.1,0.3,0.2,0.4s0.3,0.1,0.7,0.1H442.1z"/>
		<path fill="#FFFFFF" d="M449.5,300.9v-5.8c0-0.4-0.1-0.7-0.2-0.9c-0.1-0.2-0.3-0.4-0.6-0.6s-0.5-0.2-0.8-0.3
			c-0.3-0.1-0.5-0.1-0.8-0.1c-0.3,0-0.6,0-0.9,0.1c-0.2,0.1-0.4,0.2-0.6,0.3c-0.2,0.1-0.3,0.3-0.5,0.4l1.2,1
			c-0.1,0.1-0.2,0.2-0.3,0.4c-0.1,0.1-0.1,0.3-0.2,0.5c-0.1,0.2-0.1,0.5-0.1,0.8v4.1h-1.7v-4.2c0-0.3,0-0.5,0-0.7s0.1-0.4,0.1-0.5
			c0.1-0.2,0.1-0.3,0.2-0.4c-0.2-0.2-0.4-0.4-0.6-0.5c-0.1-0.1-0.3-0.2-0.4-0.3c-0.1-0.1-0.2-0.2-0.2-0.2c0.2-0.5,0.5-0.9,0.9-1.2
			c0.3-0.3,0.7-0.6,1.2-0.8c0.5-0.3,1-0.4,1.7-0.4c0.5,0,1,0.1,1.5,0.2c0.5,0.1,1,0.3,1.3,0.6c0.4,0.3,0.7,0.6,0.9,1
			s0.4,0.8,0.4,1.3v4.8c0,0.2-0.1,0.4-0.2,0.5s-0.2,0.3-0.4,0.4c-0.1,0.1-0.3,0.3-0.5,0.4H449.5z"/>
		<path fill="#FFFFFF" d="M452.4,292.6c0.2-0.2,0.4-0.3,0.7-0.5c0.2-0.1,0.5-0.2,0.8-0.3c0.3-0.1,0.6-0.2,1-0.2
			c0.5,0,0.9,0.1,1.4,0.2c0.4,0.1,0.8,0.4,1.2,0.6c0.3,0.3,0.6,0.6,0.8,1.1c0.2,0.4,0.3,0.9,0.3,1.5v5.8h-1.7v-5.6
			c0-0.4-0.1-0.7-0.2-1c-0.1-0.3-0.3-0.5-0.5-0.7c-0.2-0.2-0.4-0.3-0.7-0.4c-0.2-0.1-0.5-0.1-0.7-0.1c-0.3,0-0.6,0-0.9,0.2
			c-0.3,0.1-0.5,0.2-0.7,0.3c-0.3,0.1-0.5,0.3-0.7,0.5V292.6z"/>
		<path fill="#FFFFFF" d="M461.8,296.6c0.2-0.2,0.4-0.3,0.6-0.5c0.2-0.1,0.4-0.2,0.7-0.3c0.3-0.1,0.6-0.2,0.9-0.2v1.7
			c-0.4,0-0.7,0-1,0.1c-0.3,0.1-0.5,0.2-0.7,0.3c-0.2,0.1-0.4,0.3-0.6,0.4v2.7h-1.7v-6.2c0-0.5,0.1-0.9,0.3-1.3s0.5-0.7,0.9-1
			c0.4-0.3,0.8-0.5,1.2-0.6c0.4-0.1,0.9-0.2,1.4-0.2c0.2,0,0.5,0,0.7,0c0.3,0,0.5,0.1,0.7,0.1c0.3-0.1,0.5-0.2,0.6-0.4
			c0.1-0.2,0.2-0.4,0.2-0.7h1.7c0,0.4-0.1,0.8-0.3,1.2c-0.2,0.3-0.5,0.6-0.8,0.7c0.4,0.3,0.6,0.6,0.8,1c0.2,0.4,0.3,0.8,0.3,1.1v6.2
			h-1.7v-6.2c0-0.5-0.2-0.8-0.7-1.1c-0.4-0.3-1-0.4-1.6-0.4c-0.6,0-1.1,0.1-1.5,0.4c-0.4,0.3-0.6,0.6-0.6,1.1V296.6z"/>
		<path fill="#FFFFFF" d="M475,294.1c-0.2-0.1-0.4-0.3-0.6-0.4c-0.2-0.1-0.5-0.2-0.8-0.3c-0.3-0.1-0.7-0.1-1.1-0.1
			c-0.4,0-0.7,0.1-1,0.2s-0.4,0.4-0.4,0.7c0,0.3,0.1,0.5,0.3,0.6c0.2,0.2,0.5,0.3,0.8,0.4s0.7,0.2,1.1,0.3c0.4,0.1,0.7,0.3,1.1,0.5
			c0.3,0.2,0.6,0.5,0.8,0.8c0.2,0.3,0.3,0.8,0.3,1.4c0,0.3,0,0.7-0.1,1s-0.3,0.7-0.5,0.9c-0.2,0.3-0.6,0.5-1,0.7s-1,0.3-1.7,0.3
			c-0.4,0-0.8,0-1.2-0.1s-0.6-0.2-0.9-0.3c-0.3-0.1-0.6-0.2-0.8-0.4v-1.5c0.3,0.1,0.5,0.3,0.8,0.4c0.3,0.1,0.5,0.2,0.9,0.3
			c0.3,0.1,0.7,0.1,1,0.1c1.1,0,1.7-0.5,1.7-1.4c0-0.3-0.1-0.6-0.3-0.7c-0.2-0.2-0.5-0.3-0.8-0.4c-0.3-0.1-0.7-0.2-1.1-0.3
			s-0.7-0.2-1.1-0.4c-0.3-0.2-0.6-0.5-0.8-0.8s-0.3-0.8-0.3-1.4c0-0.3,0.1-0.7,0.2-1s0.4-0.6,0.7-0.8c0.3-0.2,0.6-0.4,1-0.5
			c0.4-0.1,0.8-0.2,1.2-0.2c0.4,0,0.8,0,1.1,0.1c0.3,0.1,0.6,0.2,0.8,0.3c0.3,0.1,0.5,0.3,0.7,0.4V294.1z"/>
		<path fill="#FFFFFF" d="M476.6,292.6c0.2-0.2,0.4-0.3,0.7-0.5c0.2-0.1,0.5-0.2,0.8-0.3c0.3-0.1,0.6-0.2,1-0.2
			c0.5,0,0.9,0.1,1.4,0.2c0.4,0.1,0.8,0.4,1.2,0.6c0.3,0.3,0.6,0.6,0.8,1.1c0.2,0.4,0.3,0.9,0.3,1.5v5.8H481v-5.6
			c0-0.4-0.1-0.7-0.2-1c-0.1-0.3-0.3-0.5-0.5-0.7c-0.2-0.2-0.4-0.3-0.7-0.4c-0.2-0.1-0.5-0.1-0.7-0.1c-0.3,0-0.6,0-0.9,0.2
			c-0.3,0.1-0.5,0.2-0.7,0.3c-0.3,0.1-0.5,0.3-0.7,0.5V292.6z"/>
		<path fill="#FFFFFF" d="M483.9,298.2c0-0.5,0.1-0.9,0.3-1.2s0.5-0.6,0.8-0.8c0.3-0.2,0.7-0.4,1.1-0.5c-0.4-0.1-0.7-0.2-1-0.3
			c-0.3-0.1-0.5-0.3-0.7-0.6c-0.2-0.2-0.3-0.6-0.3-1c0-0.4,0.1-0.7,0.2-1c0.1-0.3,0.3-0.5,0.5-0.7c0.2-0.2,0.5-0.3,0.7-0.4
			c0.3-0.1,0.5-0.1,0.8-0.1c0.3,0,0.5,0,0.7,0c0.2,0,0.4,0.1,0.6,0.1c0.2,0.1,0.3,0.1,0.5,0.2v1.6c-0.1-0.1-0.3-0.1-0.4-0.2
			c-0.1,0-0.3-0.1-0.5-0.1s-0.3-0.1-0.5-0.1c-0.2,0-0.4,0.1-0.6,0.2c-0.2,0.1-0.3,0.3-0.3,0.5c0,0.4,0.2,0.7,0.6,0.9
			c0.4,0.2,0.9,0.3,1.6,0.3v1.5c-0.4,0-0.8,0-1.1,0.1c-0.3,0.1-0.5,0.2-0.7,0.4c-0.2,0.2-0.3,0.3-0.4,0.5c-0.1,0.2-0.1,0.4-0.1,0.5
			c0,0.5,0.2,0.8,0.5,1.1c0.3,0.2,0.8,0.3,1.3,0.3c0.7,0,1.2-0.2,1.5-0.5c0.3-0.4,0.5-0.8,0.5-1.2v-6h1.7v5.9c0,0.4-0.1,0.8-0.2,1.2
			s-0.3,0.8-0.6,1.1c-0.3,0.3-0.7,0.6-1.2,0.8c-0.5,0.2-1.1,0.3-1.8,0.3c-0.7,0-1.2-0.1-1.7-0.2c-0.5-0.2-0.8-0.4-1.1-0.6
			s-0.5-0.6-0.6-0.9S483.9,298.6,483.9,298.2z"/>
		<path fill="#FFFFFF" d="M494.8,298.1c0,0.5,0.1,0.8,0.3,1.1c0.2,0.3,0.5,0.4,1,0.4c0.3,0,0.6-0.1,0.8-0.2s0.4-0.3,0.5-0.5
			s0.2-0.4,0.3-0.7c0.1-0.2,0.1-0.5,0.1-0.7c0-0.7-0.1-1.3-0.3-1.7s-0.5-0.6-0.9-0.6v-1.5c0.2,0,0.4-0.1,0.6-0.3s0.3-0.5,0.4-0.8
			s0.2-0.7,0.3-1.2c0.1-0.4,0.1-0.9,0.1-1.4h1.7c0,0.9-0.1,1.6-0.3,2.1c-0.2,0.6-0.4,1-0.6,1.3s-0.4,0.6-0.6,0.7
			c-0.2,0.1-0.3,0.2-0.3,0.2c0,0,0.1,0.1,0.3,0.2c0.2,0.1,0.3,0.3,0.5,0.5s0.4,0.6,0.5,1c0.2,0.4,0.2,0.9,0.2,1.5
			c0,0.5-0.1,0.9-0.2,1.3s-0.3,0.8-0.6,1.1c-0.3,0.3-0.6,0.6-1,0.8c-0.4,0.2-0.9,0.3-1.5,0.3c-0.6,0-1.1-0.1-1.5-0.3
			s-0.7-0.4-0.9-0.7c-0.2-0.3-0.4-0.6-0.5-1c-0.1-0.4-0.1-0.7-0.1-1.1v-0.9c0-0.5,0.1-1,0.3-1.4c0.2-0.4,0.4-0.7,0.6-1
			c0.1-0.1,0.2-0.2,0.3-0.4s0.2-0.3,0.2-0.4c0-0.1-0.1-0.3-0.3-0.4c-0.2-0.1-0.4-0.1-0.7-0.1h-1.1v-1.5h1.1c0.9,0,1.6,0.2,2,0.6
			c0.4,0.4,0.6,0.9,0.6,1.5c0,0.3-0.1,0.6-0.2,0.9c-0.1,0.3-0.3,0.5-0.5,0.7c-0.1,0.1-0.2,0.3-0.4,0.6c-0.2,0.3-0.3,0.6-0.3,1V298.1
			z"/>
		<path fill="#FFFFFF" d="M492.7,290.4l0.6-1.5h2.3v-1.2h1.3v1.2h0.6v-1.2h1.5v2.7H492.7z"/>
		<path fill="#FFFFFF" d="M500.6,294.9c0.1-0.6,0.3-1.1,0.6-1.6c0.3-0.4,0.7-0.8,1.2-1.1c0.5-0.3,1.2-0.5,2.1-0.5
			c0.8,0,1.5,0.2,2,0.5c0.5,0.3,1,0.7,1.3,1.1c0.3,0.5,0.6,1,0.7,1.5c0.1,0.6,0.2,1.1,0.2,1.6c0,0.8-0.1,1.5-0.3,2
			c-0.2,0.6-0.5,1.1-0.9,1.5s-0.8,0.7-1.3,0.9c-0.5,0.2-1.1,0.3-1.7,0.3c-0.6,0-1.1-0.1-1.6-0.3c-0.5-0.2-0.9-0.4-1.2-0.7
			c-0.3-0.3-0.6-0.7-0.8-1.1c-0.2-0.4-0.3-0.9-0.3-1.4c0-0.6,0.1-1,0.3-1.2c0.2-0.2,0.5-0.4,0.9-0.4h2.1v1.5l-1.3,0
			c-0.2,0-0.3,0.1-0.3,0.3c0.1,0.5,0.3,1,0.7,1.3s0.9,0.5,1.5,0.5c0.8,0,1.5-0.3,1.9-0.8s0.6-1.3,0.6-2.4c0-1-0.2-1.8-0.7-2.4
			c-0.5-0.5-1.1-0.8-1.8-0.8c-0.5,0-0.8,0.1-1.1,0.3c-0.3,0.2-0.5,0.4-0.7,0.6c-0.2,0.2-0.3,0.5-0.4,0.8H500.6z"/>
	</g>
	<g enable-background="new    ">
		<path fill="#FFFFFF" d="M496.9,283.7h1.7v2.7h-1.7V283.7z"/>
	</g>
</g>
<path fill="#33C1FF" d="M334.1,547.2c0,0,0,1.1-0.1,3.3c0,0.5,0,1.1-0.1,1.8c-0.1,0.7-0.2,1.4-0.3,2.1c-0.1,0.8-0.2,1.6-0.4,2.5
	c-0.2,0.9-0.4,1.8-0.7,2.8c-1.1,3.8-2.7,8.5-5.7,13.2c-3,4.8-7.2,9.6-12.8,13.8c-5.6,4.1-12.8,7.3-20.9,8.6c-1,0.2-2,0.2-3.1,0.3
	l-1.6,0.1l-0.8,0.1h-0.9c-2,0-4,0.1-6.2-0.3c-1.1-0.1-2.2-0.2-3.3-0.4s-2.2-0.5-3.2-0.7c-1.1-0.2-2.1-0.6-3.2-0.9l-1.6-0.5l-0.8-0.3
	l-0.8-0.3c-1-0.5-2.1-0.9-3.2-1.4c-1.1-0.5-2-1.1-3.1-1.6l-1.5-0.9c-0.5-0.3-1-0.7-1.5-1c-1-0.7-2-1.3-2.9-2
	c-3.7-2.9-7-6.5-9.8-10.5s-4.9-8.5-6.5-13.2l-1-3.6l-0.2-0.9l-0.2-0.9l-0.3-1.8c-0.2-1.2-0.4-2.5-0.4-3.7l-0.1-1.9l-0.1-0.9v-0.5
	v-0.2v-0.1c0-0.1,0,0.1,0-0.3l0.2-3.4l0.1-0.8c0-0.3,0-0.6,0.1-0.9l0.3-1.9l0.3-1.9l0.2-1l0.2-0.9l1-3.6c0.4-1.2,0.8-2.3,1.3-3.5
	c0.2-0.6,0.4-1.2,0.7-1.7l0.8-1.7l0.8-1.6c0.3-0.6,0.6-1.1,0.9-1.6c0.7-1,1.3-2.1,2-3.1c0.7-1,1.5-1.9,2.2-2.9
	c0.4-0.5,0.7-1,1.1-1.4l1.2-1.3l1.2-1.3l0.6-0.6c0.2-0.2,0.4-0.4,0.7-0.6c0.9-0.8,1.8-1.6,2.7-2.3c0.9-0.7,1.9-1.4,2.9-2
	c0.5-0.3,1-0.7,1.5-1l1.5-0.9c1-0.5,2-1.2,3.1-1.6c1.1-0.5,2.1-0.9,3.2-1.4c4.3-1.6,8.6-2.8,12.9-3.1c2.1-0.3,4.3-0.2,6.4-0.3h0.4
	h0.2h0.1c0,0,0.3,0,0.2,0l0.7,0.1l1.5,0.1l1.5,0.1c0.5,0,1,0.1,1.5,0.2c1,0.2,2,0.4,3.1,0.6c0.5,0.1,1,0.2,1.5,0.3
	c0.5,0.1,1,0.3,1.4,0.4c0.9,0.3,1.9,0.6,2.8,0.8c0.9,0.3,1.8,0.7,2.7,1.1c1.8,0.7,3.4,1.6,5,2.5c0.8,0.4,1.6,0.9,2.3,1.4
	c0.7,0.5,1.5,1,2.2,1.5c5.6,4.2,9.9,9,12.8,13.8c3,4.8,4.7,9.4,5.7,13.2c0.2,1,0.5,1.9,0.7,2.8s0.3,1.7,0.4,2.5
	c0.1,0.8,0.2,1.5,0.3,2.1c0.1,0.7,0.1,1.3,0.1,1.8C334.1,546,334.1,547.1,334.1,547.2L334.1,547.2z M333.6,547.1
	c0,0-0.1-1.1-0.2-3.2c0-0.5,0-1.1-0.1-1.8c-0.1-0.6-0.2-1.3-0.3-2.1c-0.1-0.8-0.2-1.6-0.4-2.4c-0.2-0.9-0.5-1.8-0.7-2.7
	c-1.1-3.8-2.8-8.3-5.8-12.9c-3-4.6-7.3-9.2-12.9-13c-5.6-3.7-12.6-6.5-20.3-7.4c-1-0.1-1.9-0.1-2.9-0.2l-1.5-0.1h-0.7
	c-0.2,0-0.5,0-0.7,0c-2,0.1-4,0.1-6,0.5c-4,0.5-8,1.8-11.9,3.4c-0.9,0.5-1.9,0.9-2.9,1.4c-1,0.5-1.8,1.1-2.8,1.6l-1.4,0.8
	c-0.4,0.3-0.9,0.6-1.3,1c-0.9,0.7-1.7,1.3-2.6,2c-3.3,2.8-6.2,6.1-8.7,9.8c-2.4,3.7-4.3,7.8-5.7,12c-1.3,4.3-1.8,8.7-1.9,13.3
	c0.1,4.4,0.7,9,1.9,13.2c1.4,4.3,3.2,8.3,5.7,12c2.5,3.6,5.4,7,8.7,9.8c0.8,0.7,1.7,1.3,2.6,2c0.4,0.3,0.9,0.7,1.3,1l1.4,0.8
	c0.9,0.5,1.8,1.2,2.8,1.6c1,0.5,1.9,0.9,2.9,1.4c3.9,1.6,7.9,2.9,11.9,3.4c2,0.4,4,0.4,6,0.5c0.2,0,0.5,0,0.7,0h0.7l1.5-0.1
	c1-0.1,2,0,2.9-0.2c7.7-0.9,14.7-3.7,20.3-7.4c5.6-3.8,9.9-8.4,12.9-13c3.1-4.6,4.8-9.1,5.8-12.9c0.2-1,0.5-1.9,0.7-2.7
	c0.2-0.9,0.3-1.7,0.4-2.4c0.1-0.8,0.2-1.5,0.3-2.1c0.1-0.6,0.1-1.2,0.1-1.8C333.6,548.3,333.6,547.1,333.6,547.1L333.6,547.1z"/>
<circle fill="#0098FF" cx="288" cy="547.3" r="46.2"/>
<g>
	<g>
		<g>
			<path fill="#E5E5E5" d="M286.7,470.6h0.7v2.9h-0.7V470.6z M286.7,476.2h0.7v2.9h-0.7V476.2z M286.7,481.9h0.7v2.9h-0.7V481.9z
				 M286.7,487.6h0.7v2.9h-0.7V487.6z M286.7,493.3h0.7v2.9h-0.7V493.3z"/>
		</g>
	</g>
</g>
<path fill="#FFFFFF" d="M259.8,420.6v-1.4h4.4v1.4H259.8z"/>
<path fill="#FFFFFF" d="M259,414.2v0.6l-3.6,9.6h-1.8l3.3-8.7h-4.9v-1.6L259,414.2z"/>
<path fill="#FFFFFF" d="M287.3,424.4v-5.8c0-0.4-0.1-0.7-0.2-0.9c-0.1-0.2-0.3-0.4-0.6-0.6c-0.2-0.1-0.5-0.2-0.8-0.3
	c-0.3-0.1-0.5-0.1-0.8-0.1c-0.3,0-0.6,0-0.9,0.1c-0.2,0.1-0.4,0.2-0.6,0.3c-0.2,0.1-0.3,0.3-0.5,0.4l1.2,1c-0.1,0.1-0.2,0.2-0.3,0.4
	c-0.1,0.1-0.1,0.3-0.2,0.5c-0.1,0.2-0.1,0.5-0.1,0.8v4.1h-1.7v-4.2c0-0.3,0-0.5,0.1-0.7c0-0.2,0.1-0.4,0.1-0.5
	c0.1-0.2,0.1-0.3,0.2-0.4c-0.2-0.2-0.4-0.4-0.6-0.5c-0.1-0.1-0.3-0.2-0.4-0.3c-0.1-0.1-0.2-0.2-0.2-0.2c0.2-0.5,0.5-0.9,0.9-1.2
	c0.3-0.3,0.7-0.6,1.2-0.8c0.5-0.3,1-0.4,1.7-0.4c0.5,0,1,0.1,1.5,0.2c0.5,0.1,1,0.3,1.3,0.6c0.4,0.3,0.7,0.6,0.9,1s0.4,0.8,0.4,1.3
	v4.8c0,0.2-0.1,0.4-0.2,0.5s-0.2,0.3-0.4,0.4c-0.1,0.1-0.3,0.3-0.5,0.4H287.3z"/>
<path fill="#FFFFFF" d="M290.5,424.4v-1.6h1.7v1.6H290.5z"/>
<path fill="#FFFFFF" d="M295.5,420.2c0.2-0.2,0.4-0.4,0.6-0.5c0.2-0.1,0.4-0.3,0.7-0.4c0.3-0.1,0.6-0.2,0.9-0.2v1.7
	c-0.4,0-0.7,0-1,0.1c-0.3,0.1-0.5,0.2-0.7,0.3c-0.2,0.1-0.4,0.3-0.6,0.4v2.7h-1.7v-6.2c0-0.5,0.1-0.9,0.3-1.2c0.2-0.4,0.5-0.7,0.9-1
	s0.8-0.5,1.2-0.6c0.5-0.1,0.9-0.2,1.5-0.2c0.5,0,1,0.1,1.4,0.2c0.5,0.1,0.9,0.3,1.2,0.6c0.4,0.3,0.7,0.6,0.9,0.9
	c0.2,0.4,0.3,0.8,0.3,1.3v6.2h-1.7v-6.2c0-0.4-0.2-0.8-0.6-1.1c-0.4-0.3-0.9-0.4-1.5-0.4s-1.1,0.1-1.5,0.4s-0.6,0.6-0.6,1.1V420.2z"
	/>
<path fill="#FFFFFF" d="M303,424.4v-1.6h1.7v1.6H303z"/>
<path fill="#FFFFFF" d="M313.6,421.3c0,1-0.3,1.8-1,2.4c-0.7,0.6-1.6,0.9-2.9,0.9c-0.5,0-0.9-0.1-1.2-0.2c-0.3-0.1-0.6-0.2-0.8-0.3
	v-1.7c0.2,0.1,0.4,0.2,0.6,0.3c0.2,0.1,0.4,0.2,0.7,0.2c0.2,0.1,0.5,0.1,0.8,0.1c0.3,0,0.6,0,0.9-0.1c0.3-0.1,0.5-0.1,0.7-0.3
	c0.2-0.1,0.3-0.3,0.5-0.5s0.2-0.5,0.2-0.8c0-0.5-0.2-0.9-0.5-1.3c-0.3-0.4-0.8-0.6-1.5-0.6c-0.3,0-0.6,0-0.9,0.1s-0.5,0.1-0.7,0.1
	c-0.2,0.1-0.4,0.1-0.6,0.1v-5.6h5.3v1.5h-3.5v2.3h0.6c0.5,0,1,0.1,1.4,0.2c0.4,0.1,0.8,0.3,1.1,0.6s0.6,0.6,0.8,1
	C313.5,420.3,313.6,420.7,313.6,421.3z"/>
<path fill="#FFFFFF" d="M314.8,416.7c0-0.4,0.1-0.7,0.2-1s0.3-0.6,0.6-0.9c0.3-0.3,0.6-0.5,0.9-0.6c0.4-0.2,0.8-0.2,1.2-0.2
	c0.4,0,0.8,0.1,1.2,0.2c0.4,0.2,0.7,0.4,1,0.6s0.5,0.6,0.6,0.9c0.2,0.3,0.2,0.7,0.2,1c0,0.5-0.1,0.9-0.3,1.2c-0.2,0.3-0.5,0.7-0.8,1
	c0.5,0.3,0.8,0.7,1.1,1.2c0.3,0.5,0.4,1,0.4,1.5c0,0.9-0.3,1.6-0.9,2.2c-0.6,0.5-1.4,0.8-2.5,0.8c-1.1,0-1.9-0.3-2.5-0.8
	s-0.9-1.3-0.9-2.2c0-1.1,0.5-2,1.5-2.7c-0.4-0.3-0.7-0.6-0.8-1C314.9,417.5,314.8,417.1,314.8,416.7z M317.8,419.7
	c-0.2,0-0.4,0-0.6,0.1c-0.2,0.1-0.4,0.2-0.5,0.3s-0.3,0.3-0.4,0.5s-0.1,0.5-0.1,0.8c0,0.6,0.2,1,0.5,1.3c0.3,0.3,0.7,0.4,1.1,0.4
	c0.4,0,0.8-0.1,1.1-0.4s0.5-0.7,0.5-1.3c0-0.5-0.2-0.9-0.5-1.2C318.7,419.8,318.3,419.7,317.8,419.7z M316.6,416.8
	c0,0.4,0.1,0.8,0.4,1c0.2,0.2,0.5,0.3,0.9,0.3c0.3,0,0.6-0.1,0.8-0.3c0.3-0.2,0.4-0.5,0.4-1c0-0.1,0-0.3-0.1-0.4
	c-0.1-0.2-0.1-0.3-0.2-0.4c-0.1-0.1-0.2-0.2-0.4-0.3c-0.2-0.1-0.3-0.1-0.5-0.1c-0.2,0-0.4,0-0.6,0.1c-0.2,0.1-0.3,0.2-0.4,0.3
	c-0.1,0.1-0.1,0.3-0.2,0.4S316.6,416.7,316.6,416.8z"/>
<g>
	<g enable-background="new    ">
		<path fill="#FFFFFF" d="M103.6,414.1c0,0.5,0.1,0.8,0.3,1.1s0.5,0.4,1,0.4c0.3,0,0.6-0.1,0.8-0.2s0.4-0.3,0.5-0.5
			c0.1-0.2,0.2-0.4,0.3-0.7c0.1-0.2,0.1-0.5,0.1-0.7c0-0.7-0.1-1.3-0.3-1.7s-0.5-0.6-0.9-0.6v-1.5c0.2,0,0.4-0.1,0.6-0.3
			c0.2-0.2,0.3-0.5,0.4-0.8s0.2-0.7,0.3-1.2c0.1-0.4,0.1-0.9,0.1-1.4h1.7c0,0.9-0.1,1.6-0.3,2.1c-0.2,0.6-0.4,1-0.6,1.3
			c-0.2,0.3-0.4,0.6-0.6,0.7c-0.2,0.1-0.3,0.2-0.3,0.2c0,0,0.1,0.1,0.3,0.2c0.2,0.1,0.3,0.3,0.5,0.5c0.2,0.2,0.4,0.6,0.5,1
			c0.2,0.4,0.2,0.9,0.2,1.5c0,0.5-0.1,0.9-0.2,1.3c-0.1,0.4-0.3,0.8-0.6,1.1c-0.3,0.3-0.6,0.6-1,0.8c-0.4,0.2-0.9,0.3-1.5,0.3
			s-1.1-0.1-1.5-0.3c-0.4-0.2-0.7-0.4-0.9-0.7c-0.2-0.3-0.4-0.6-0.5-1c-0.1-0.4-0.1-0.7-0.1-1.1v-0.9c0-0.5,0.1-1,0.3-1.4
			c0.2-0.4,0.4-0.7,0.6-1c0.1-0.1,0.2-0.2,0.3-0.4s0.2-0.3,0.2-0.4c0-0.1-0.1-0.3-0.3-0.4c-0.2-0.1-0.4-0.1-0.7-0.1h-1.1v-1.5h1.1
			c0.9,0,1.6,0.2,2,0.6c0.4,0.4,0.6,0.9,0.6,1.5c0,0.3-0.1,0.6-0.2,0.9c-0.1,0.3-0.3,0.5-0.5,0.7c-0.1,0.1-0.2,0.3-0.4,0.6
			c-0.2,0.3-0.3,0.6-0.3,1V414.1z"/>
		<path fill="#FFFFFF" d="M104.5,404.5c0-0.3,0-0.5,0.1-0.7s0.2-0.4,0.4-0.6c0.2-0.2,0.4-0.3,0.6-0.4c0.2-0.1,0.5-0.2,0.7-0.2
			c0.3,0,0.5,0,0.7,0.2c0.2,0.1,0.4,0.2,0.6,0.4c0.2,0.2,0.3,0.4,0.4,0.6s0.1,0.5,0.1,0.7s0,0.5-0.1,0.7s-0.2,0.4-0.4,0.6
			c-0.2,0.2-0.4,0.3-0.6,0.4c-0.2,0.1-0.5,0.2-0.7,0.2c-0.5,0-0.9-0.2-1.3-0.5C104.7,405.5,104.5,405,104.5,404.5z M105.7,404.5
			c0,0.2,0.1,0.3,0.2,0.4s0.3,0.2,0.4,0.2c0.2,0,0.3-0.1,0.4-0.2c0.1-0.1,0.2-0.3,0.2-0.4c0-0.2-0.1-0.3-0.2-0.4
			c-0.1-0.1-0.3-0.2-0.4-0.2c-0.2,0-0.3,0.1-0.4,0.2S105.7,404.4,105.7,404.5z M109.3,408.6c0.2-0.2,0.4-0.3,0.7-0.5
			c0.2-0.1,0.5-0.2,0.8-0.3c0.3-0.1,0.6-0.2,1-0.2c0.5,0,0.9,0.1,1.4,0.2c0.4,0.1,0.8,0.4,1.2,0.6c0.3,0.3,0.6,0.6,0.8,1.1
			s0.3,0.9,0.3,1.5v5.8h-1.7v-5.6c0-0.4-0.1-0.7-0.2-1c-0.1-0.3-0.3-0.5-0.5-0.7c-0.2-0.2-0.4-0.3-0.7-0.4c-0.2-0.1-0.5-0.1-0.7-0.1
			c-0.3,0-0.6,0-0.9,0.2c-0.3,0.1-0.5,0.2-0.7,0.3c-0.3,0.1-0.5,0.3-0.7,0.5V408.6z"/>
		<path fill="#FFFFFF" d="M122.7,410.1c-0.2-0.1-0.4-0.3-0.6-0.4c-0.2-0.1-0.5-0.2-0.8-0.3c-0.3-0.1-0.7-0.1-1.1-0.1
			c-0.4,0-0.7,0.1-1,0.2c-0.3,0.2-0.4,0.4-0.4,0.7c0,0.3,0.1,0.5,0.3,0.6c0.2,0.2,0.5,0.3,0.8,0.4c0.3,0.1,0.7,0.2,1.1,0.3
			c0.4,0.1,0.7,0.3,1.1,0.5c0.3,0.2,0.6,0.5,0.8,0.8c0.2,0.3,0.3,0.8,0.3,1.4c0,0.3,0,0.7-0.1,1c-0.1,0.3-0.3,0.7-0.5,0.9
			c-0.2,0.3-0.6,0.5-1,0.7s-1,0.3-1.7,0.3c-0.4,0-0.8,0-1.2-0.1s-0.6-0.2-0.9-0.3c-0.3-0.1-0.6-0.2-0.8-0.4v-1.5
			c0.3,0.1,0.5,0.3,0.8,0.4c0.3,0.1,0.5,0.2,0.9,0.3c0.3,0.1,0.7,0.1,1,0.1c1.1,0,1.7-0.5,1.7-1.4c0-0.3-0.1-0.6-0.3-0.7
			c-0.2-0.2-0.5-0.3-0.8-0.4c-0.3-0.1-0.7-0.2-1.1-0.3s-0.7-0.2-1.1-0.4c-0.3-0.2-0.6-0.5-0.8-0.8c-0.2-0.3-0.3-0.8-0.3-1.4
			c0-0.3,0.1-0.7,0.2-1s0.4-0.6,0.7-0.8c0.3-0.2,0.6-0.4,1-0.5c0.4-0.1,0.8-0.2,1.2-0.2c0.4,0,0.8,0,1.1,0.1s0.6,0.2,0.8,0.3
			c0.3,0.1,0.5,0.3,0.7,0.4V410.1z"/>
		<path fill="#FFFFFF" d="M128.9,409.9l-0.6,1.5h-1.7c-0.7,0-1.2-0.2-1.5-0.5c-0.3-0.3-0.4-0.8-0.4-1.4v-0.8h1.7v0.7
			c0,0.2,0.1,0.3,0.2,0.4c0.1,0.1,0.3,0.1,0.7,0.1H128.9z M128.9,414.2l-0.6,1.5h-1.7c-0.7,0-1.2-0.1-1.5-0.5
			c-0.3-0.3-0.5-0.8-0.5-1.4V413h1.7v0.7c0,0.2,0.1,0.3,0.2,0.4c0.1,0.1,0.3,0.1,0.7,0.1H128.9z"/>
		<path fill="#FFFFFF" d="M132.1,412.7c0.2-0.2,0.4-0.4,0.6-0.5c0.2-0.1,0.4-0.3,0.7-0.4c0.3-0.1,0.6-0.2,0.9-0.2v1.7
			c-0.4,0-0.7,0-1,0.1c-0.3,0.1-0.5,0.2-0.7,0.3c-0.2,0.1-0.4,0.3-0.6,0.4v2.7h-1.7v-6.2c0-0.5,0.1-0.9,0.3-1.2
			c0.2-0.4,0.5-0.7,0.9-1s0.8-0.5,1.2-0.6c0.5-0.1,0.9-0.2,1.5-0.2c0.5,0,1,0.1,1.4,0.2c0.5,0.1,0.9,0.3,1.2,0.6
			c0.4,0.3,0.7,0.6,0.9,0.9c0.2,0.4,0.3,0.8,0.3,1.3v6.2h-1.7v-6.2c0-0.4-0.2-0.8-0.6-1.1c-0.4-0.3-0.9-0.4-1.5-0.4
			s-1.1,0.1-1.5,0.4s-0.6,0.6-0.6,1.1V412.7z"/>
		<path fill="#FFFFFF" d="M136.3,403.7h1.7v2.7h-1.7V403.7z"/>
		<path fill="#FFFFFF" d="M139.3,408.6c0.2-0.2,0.4-0.3,0.7-0.5c0.2-0.1,0.5-0.2,0.8-0.3c0.3-0.1,0.6-0.2,1-0.2
			c0.5,0,0.9,0.1,1.4,0.2c0.4,0.1,0.8,0.4,1.2,0.6c0.3,0.3,0.6,0.6,0.8,1.1s0.3,0.9,0.3,1.5v5.8h-1.7v-5.6c0-0.4-0.1-0.7-0.2-1
			c-0.1-0.3-0.3-0.5-0.5-0.7c-0.2-0.2-0.4-0.3-0.7-0.4c-0.2-0.1-0.5-0.1-0.7-0.1c-0.3,0-0.6,0-0.9,0.2c-0.3,0.1-0.5,0.2-0.7,0.3
			c-0.3,0.1-0.5,0.3-0.7,0.5V408.6z"/>
		<path fill="#FFFFFF" d="M152,416.9v-4c-0.1,0.1-0.2,0.1-0.4,0.1c-0.1,0-0.4,0.1-0.6,0.1c-0.3,0-0.6,0-1,0c-0.2,0-0.4,0-0.6,0.1
			c-0.2,0.1-0.4,0.2-0.5,0.3c-0.2,0.1-0.3,0.2-0.4,0.4c-0.1,0.2-0.1,0.3-0.1,0.5c0,0.3,0.1,0.6,0.4,0.8c0.2,0.2,0.6,0.3,1,0.3
			c0.1,0,0.3,0,0.4,0s0.3-0.1,0.4-0.1c0.1-0.1,0.2-0.1,0.3-0.2l0,1.6c-0.1,0-0.2,0.1-0.3,0.1c-0.1,0-0.2,0.1-0.4,0.1
			c-0.1,0-0.3,0-0.4,0c-0.5,0-0.9-0.1-1.3-0.2s-0.7-0.3-1-0.5c-0.3-0.2-0.5-0.5-0.6-0.8c-0.2-0.3-0.2-0.7-0.2-1.2
			c0-0.5,0.1-0.9,0.3-1.3c0.2-0.4,0.5-0.7,0.8-0.9s0.7-0.4,1.1-0.5c0.4-0.1,0.8-0.2,1.2-0.2c0.5,0,0.8,0,1.1,0
			c0.3,0,0.5-0.1,0.6-0.1c0.2,0,0.3-0.1,0.3-0.1V411c0-0.5-0.2-1-0.5-1.3c-0.3-0.3-0.8-0.5-1.4-0.5c-0.5,0-0.9,0.1-1.2,0.3
			c-0.3,0.2-0.6,0.4-0.9,0.6c-0.3,0.2-0.5,0.5-0.7,0.8l-0.6-1.5c0.2-0.3,0.5-0.6,0.8-0.8c0.3-0.2,0.6-0.4,1.1-0.6
			c0.4-0.2,0.9-0.3,1.5-0.3c0.4,0,0.8,0,1.1,0.1c0.3-0.1,0.5-0.3,0.6-0.4c0.1-0.2,0.2-0.4,0.2-0.7h1.7c0,0.4-0.1,0.7-0.3,1
			c-0.2,0.3-0.5,0.5-0.9,0.7c0.4,0.3,0.7,0.7,0.9,1.2s0.3,1.1,0.3,1.7v5.6H152z"/>
		<path fill="#FFFFFF" d="M155.3,407.9h1.7v6.3c0.2,0.2,0.4,0.4,0.6,0.5c0.2,0.1,0.4,0.3,0.6,0.4c0.2,0.1,0.5,0.1,0.8,0.1
			c0.8,0,1.3-0.2,1.6-0.5s0.4-0.8,0.4-1.5v-5.3h1.7v6c0,0.3-0.1,0.7-0.2,1.1s-0.3,0.7-0.6,1s-0.6,0.6-0.9,0.8
			c-0.4,0.2-0.8,0.3-1.3,0.3c-0.5,0-0.9-0.1-1.3-0.3c-0.4-0.2-0.7-0.3-0.9-0.5c-0.3-0.2-0.5-0.5-0.7-0.8v1.4h-1.7V407.9z"/>
		<path fill="#FFFFFF" d="M164.6,404.9l-0.6,1.5h-3.6c-0.3,0-0.5,0-0.8-0.1c-0.2-0.1-0.4-0.1-0.6-0.3c-0.2-0.1-0.3-0.3-0.4-0.6
			c-0.1-0.2-0.2-0.5-0.2-0.9v-0.8h1.7v0.7c0,0.2,0.1,0.3,0.2,0.4s0.3,0.1,0.7,0.1H164.6z"/>
		<path fill="#FFFFFF" d="M166.1,412.7c0.2-0.2,0.4-0.4,0.6-0.5c0.2-0.1,0.4-0.3,0.7-0.4c0.3-0.1,0.6-0.2,0.9-0.2v1.7
			c-0.4,0-0.7,0-1,0.1c-0.3,0.1-0.5,0.2-0.7,0.3c-0.2,0.1-0.4,0.3-0.6,0.4v2.7h-1.7v-6.2c0-0.5,0.1-0.9,0.3-1.2
			c0.2-0.4,0.5-0.7,0.9-1s0.8-0.5,1.2-0.6c0.5-0.1,0.9-0.2,1.5-0.2c0.5,0,1,0.1,1.4,0.2c0.5,0.1,0.9,0.3,1.2,0.6
			c0.4,0.3,0.7,0.6,0.9,0.9c0.2,0.4,0.3,0.8,0.3,1.3v6.2h-1.7v-6.2c0-0.4-0.2-0.8-0.6-1.1c-0.4-0.3-0.9-0.4-1.5-0.4
			s-1.1,0.1-1.5,0.4s-0.6,0.6-0.6,1.1V412.7z"/>
		<path fill="#FFFFFF" d="M179.3,410.1c-0.2-0.1-0.4-0.3-0.6-0.4c-0.2-0.1-0.5-0.2-0.8-0.3c-0.3-0.1-0.7-0.1-1.1-0.1
			c-0.4,0-0.7,0.1-1,0.2c-0.3,0.2-0.4,0.4-0.4,0.7c0,0.3,0.1,0.5,0.3,0.6c0.2,0.2,0.5,0.3,0.8,0.4c0.3,0.1,0.7,0.2,1.1,0.3
			c0.4,0.1,0.7,0.3,1.1,0.5c0.3,0.2,0.6,0.5,0.8,0.8c0.2,0.3,0.3,0.8,0.3,1.4c0,0.3,0,0.7-0.1,1c-0.1,0.3-0.3,0.7-0.5,0.9
			c-0.2,0.3-0.6,0.5-1,0.7s-1,0.3-1.7,0.3c-0.4,0-0.8,0-1.2-0.1s-0.6-0.2-0.9-0.3c-0.3-0.1-0.6-0.2-0.8-0.4v-1.5
			c0.3,0.1,0.5,0.3,0.8,0.4c0.3,0.1,0.5,0.2,0.9,0.3c0.3,0.1,0.7,0.1,1,0.1c1.1,0,1.7-0.5,1.7-1.4c0-0.3-0.1-0.6-0.3-0.7
			c-0.2-0.2-0.5-0.3-0.8-0.4c-0.3-0.1-0.7-0.2-1.1-0.3s-0.7-0.2-1.1-0.4c-0.3-0.2-0.6-0.5-0.8-0.8c-0.2-0.3-0.3-0.8-0.3-1.4
			c0-0.3,0.1-0.7,0.2-1s0.4-0.6,0.7-0.8c0.3-0.2,0.6-0.4,1-0.5c0.4-0.1,0.8-0.2,1.2-0.2c0.4,0,0.8,0,1.1,0.1s0.6,0.2,0.8,0.3
			c0.3,0.1,0.5,0.3,0.7,0.4V410.1z"/>
	</g>
	<g enable-background="new    ">
		<path fill="#FFFFFF" d="M101.8,434.9c0-0.5,0.1-0.9,0.3-1.2s0.5-0.6,0.8-0.8c0.3-0.2,0.7-0.4,1.1-0.5c-0.4-0.1-0.7-0.2-1-0.3
			c-0.3-0.1-0.5-0.3-0.7-0.6c-0.2-0.2-0.3-0.6-0.3-1c0-0.4,0.1-0.7,0.2-1c0.1-0.3,0.3-0.5,0.5-0.7s0.5-0.3,0.7-0.4
			c0.3-0.1,0.5-0.1,0.8-0.1c0.3,0,0.5,0,0.7,0c0.2,0,0.4,0.1,0.6,0.1c0.2,0.1,0.3,0.1,0.5,0.2v1.6c-0.1-0.1-0.3-0.1-0.4-0.2
			c-0.1,0-0.3-0.1-0.5-0.1c-0.2,0-0.3-0.1-0.5-0.1c-0.2,0-0.4,0.1-0.6,0.2c-0.2,0.1-0.3,0.3-0.3,0.5c0,0.4,0.2,0.7,0.6,0.9
			c0.4,0.2,0.9,0.3,1.6,0.3v1.5c-0.4,0-0.8,0-1.1,0.1c-0.3,0.1-0.5,0.2-0.7,0.4c-0.2,0.2-0.3,0.3-0.4,0.5c-0.1,0.2-0.1,0.4-0.1,0.5
			c0,0.5,0.2,0.8,0.5,1.1c0.3,0.2,0.8,0.3,1.3,0.3c0.7,0,1.2-0.2,1.5-0.5c0.3-0.4,0.5-0.8,0.5-1.2v-6h1.7v5.9c0,0.4-0.1,0.8-0.2,1.2
			s-0.3,0.8-0.6,1.1c-0.3,0.3-0.7,0.6-1.2,0.8s-1.1,0.3-1.8,0.3c-0.7,0-1.2-0.1-1.7-0.2c-0.5-0.2-0.8-0.4-1.1-0.6
			c-0.3-0.3-0.5-0.6-0.6-0.9S101.8,435.3,101.8,434.9z"/>
		<path fill="#FFFFFF" d="M102.4,427.1l0.6-1.5h2.3v-1.2h1.3v1.2h0.6v-1.2h1.5v2.7H102.4z"/>
		<path fill="#FFFFFF" d="M116.4,428.7h1.7v8.9h-1.7v-1.4c-0.2,0.3-0.4,0.6-0.7,0.8c-0.2,0.2-0.5,0.4-0.9,0.5
			c-0.4,0.2-0.8,0.3-1.3,0.3c-0.5,0-0.9-0.1-1.2-0.3c-0.4-0.2-0.7-0.4-0.9-0.7c-0.3-0.3-0.5-0.6-0.6-1c-0.1-0.4-0.2-0.8-0.2-1.1
			v-5.9h1.7v5.4c0,0.4,0.1,0.7,0.2,1c0.1,0.3,0.3,0.5,0.4,0.6c0.2,0.1,0.4,0.3,0.6,0.3c0.2,0.1,0.4,0.1,0.7,0.1
			c0.3,0,0.6-0.1,0.9-0.2c0.3-0.1,0.5-0.2,0.7-0.4c0.2-0.1,0.4-0.3,0.6-0.5V428.7z"/>
		<path fill="#FFFFFF" d="M119.3,434.9c0-0.5,0.1-0.9,0.3-1.2s0.5-0.6,0.8-0.8c0.3-0.2,0.7-0.4,1.1-0.5c-0.4-0.1-0.7-0.2-1-0.3
			c-0.3-0.1-0.5-0.3-0.7-0.6c-0.2-0.2-0.3-0.6-0.3-1c0-0.4,0.1-0.7,0.2-1c0.1-0.3,0.3-0.5,0.5-0.7s0.5-0.3,0.7-0.4
			c0.3-0.1,0.5-0.1,0.8-0.1c0.3,0,0.5,0,0.7,0c0.2,0,0.4,0.1,0.6,0.1c0.2,0.1,0.3,0.1,0.5,0.2v1.6c-0.1-0.1-0.3-0.1-0.4-0.2
			c-0.1,0-0.3-0.1-0.5-0.1c-0.2,0-0.3-0.1-0.5-0.1c-0.2,0-0.4,0.1-0.6,0.2c-0.2,0.1-0.3,0.3-0.3,0.5c0,0.4,0.2,0.7,0.6,0.9
			c0.4,0.2,0.9,0.3,1.6,0.3v1.5c-0.4,0-0.8,0-1.1,0.1c-0.3,0.1-0.5,0.2-0.7,0.4c-0.2,0.2-0.3,0.3-0.4,0.5c-0.1,0.2-0.1,0.4-0.1,0.5
			c0,0.5,0.2,0.8,0.5,1.1c0.3,0.2,0.8,0.3,1.3,0.3c0.7,0,1.2-0.2,1.5-0.5c0.3-0.4,0.5-0.8,0.5-1.2v-6h1.7v5.9c0,0.4-0.1,0.8-0.2,1.2
			s-0.3,0.8-0.6,1.1c-0.3,0.3-0.7,0.6-1.2,0.8s-1.1,0.3-1.8,0.3c-0.7,0-1.2-0.1-1.7-0.2c-0.5-0.2-0.8-0.4-1.1-0.6
			c-0.3-0.3-0.5-0.6-0.6-0.9S119.3,435.3,119.3,434.9z"/>
		<path fill="#FFFFFF" d="M128.4,425.6l-0.6,1.5h-3.6c-0.3,0-0.5,0-0.8-0.1c-0.2-0.1-0.4-0.1-0.6-0.3c-0.2-0.1-0.3-0.3-0.4-0.6
			c-0.1-0.2-0.2-0.5-0.2-0.9v-0.8h1.7v0.7c0,0.2,0.1,0.3,0.2,0.4s0.3,0.1,0.7,0.1H128.4z"/>
		<path fill="#FFFFFF" d="M133.9,428.7h1.7v8.9h-1.7v-1.4c-0.2,0.3-0.4,0.6-0.7,0.8c-0.2,0.2-0.5,0.4-0.9,0.5
			c-0.4,0.2-0.8,0.3-1.3,0.3c-0.5,0-0.9-0.1-1.2-0.3c-0.4-0.2-0.7-0.4-0.9-0.7c-0.3-0.3-0.5-0.6-0.6-1c-0.1-0.4-0.2-0.8-0.2-1.1
			v-5.9h1.7v5.4c0,0.4,0.1,0.7,0.2,1c0.1,0.3,0.3,0.5,0.4,0.6c0.2,0.1,0.4,0.3,0.6,0.3c0.2,0.1,0.4,0.1,0.7,0.1
			c0.3,0,0.6-0.1,0.9-0.2c0.3-0.1,0.5-0.2,0.7-0.4c0.2-0.1,0.4-0.3,0.6-0.5V428.7z"/>
		<path fill="#FFFFFF" d="M142.3,437.6v-4c-0.1,0.1-0.2,0.1-0.4,0.1c-0.1,0-0.4,0.1-0.6,0.1c-0.3,0-0.6,0-1,0c-0.2,0-0.4,0-0.6,0.1
			c-0.2,0.1-0.4,0.2-0.5,0.3c-0.2,0.1-0.3,0.2-0.4,0.4c-0.1,0.2-0.1,0.3-0.1,0.5c0,0.3,0.1,0.6,0.4,0.8c0.2,0.2,0.6,0.3,1,0.3
			c0.1,0,0.3,0,0.4,0s0.3-0.1,0.4-0.1c0.1-0.1,0.2-0.1,0.3-0.2l0,1.6c-0.1,0-0.2,0.1-0.3,0.1c-0.1,0-0.2,0.1-0.4,0.1
			c-0.1,0-0.3,0-0.4,0c-0.5,0-0.9-0.1-1.3-0.2s-0.7-0.3-1-0.5c-0.3-0.2-0.5-0.5-0.6-0.8c-0.2-0.3-0.2-0.7-0.2-1.2
			c0-0.5,0.1-0.9,0.3-1.3c0.2-0.4,0.5-0.7,0.8-0.9s0.7-0.4,1.1-0.5c0.4-0.1,0.8-0.2,1.2-0.2c0.5,0,0.8,0,1.1,0
			c0.3,0,0.5-0.1,0.6-0.1c0.2,0,0.3-0.1,0.3-0.1v-0.4c0-0.5-0.2-1-0.5-1.3c-0.3-0.3-0.8-0.5-1.4-0.5c-0.5,0-0.9,0.1-1.2,0.3
			c-0.3,0.2-0.6,0.4-0.9,0.6c-0.3,0.2-0.5,0.5-0.7,0.8l-0.6-1.5c0.2-0.3,0.5-0.6,0.8-0.8c0.3-0.2,0.6-0.4,1.1-0.6
			c0.4-0.2,0.9-0.3,1.5-0.3c0.4,0,0.8,0,1.1,0.1c0.3-0.1,0.5-0.3,0.6-0.4c0.1-0.2,0.2-0.4,0.2-0.7h1.7c0,0.4-0.1,0.7-0.3,1
			c-0.2,0.3-0.5,0.5-0.9,0.7c0.4,0.3,0.7,0.7,0.9,1.2s0.3,1.1,0.3,1.7v5.6H142.3z"/>
		<path fill="#FFFFFF" d="M137.4,427.1l0.6-1.4h5.7v1.4H137.4z"/>
		<path fill="#FFFFFF" d="M147.3,437.6h-1.7v-9h1.7v1.4c0.2-0.3,0.4-0.6,0.7-0.8c0.2-0.2,0.5-0.4,0.9-0.6c0.4-0.2,0.8-0.3,1.3-0.3
			c0.5,0,0.9,0.1,1.2,0.3s0.7,0.4,0.9,0.8c0.3,0.3,0.5,0.7,0.6,1c0.1,0.4,0.2,0.8,0.2,1.2v6h-1.7v-5.4c0-0.3,0-0.6-0.1-0.8
			s-0.2-0.5-0.3-0.7c-0.1-0.2-0.3-0.3-0.6-0.4c-0.3-0.1-0.6-0.2-1-0.2c-0.3,0-0.6,0.1-0.8,0.2c-0.3,0.1-0.5,0.2-0.7,0.4
			c-0.2,0.1-0.4,0.3-0.6,0.5V437.6z"/>
		<path fill="#FFFFFF" d="M161.6,430.9c-0.3-0.2-0.6-0.3-1-0.5c-0.3-0.1-0.7-0.2-1.1-0.3c-0.4-0.1-0.9-0.1-1.4-0.1
			c-0.2,0-0.4,0-0.7,0s-0.5,0-0.7,0.1c-0.2,0.1-0.4,0.2-0.5,0.3c-0.1,0.1-0.2,0.3-0.2,0.5c0,0.3,0.1,0.5,0.4,0.6
			c0.3,0.1,0.6,0.2,1.1,0.2c0.4,0.1,0.9,0.1,1.4,0.2c0.5,0.1,1,0.2,1.4,0.4c0.4,0.2,0.8,0.5,1.1,0.9s0.4,1,0.4,1.8
			c0,0.3-0.1,0.7-0.2,1s-0.3,0.7-0.6,0.9s-0.7,0.5-1.1,0.7c-0.5,0.2-1,0.3-1.6,0.3c-0.3,0-0.7,0-1.2-0.1c-0.4-0.1-0.9-0.2-1.2-0.4
			s-0.7-0.5-1-0.9c-0.3-0.4-0.4-0.9-0.4-1.6v-1h1.8v1c0,0.4,0.1,0.7,0.2,0.9c0.1,0.2,0.3,0.4,0.5,0.5c0.2,0.1,0.4,0.1,0.6,0.2
			c0.2,0,0.4,0,0.6,0c0.3,0,0.5,0,0.7-0.1s0.4-0.2,0.6-0.3c0.2-0.1,0.3-0.3,0.4-0.4c0.1-0.2,0.2-0.4,0.2-0.6c0-0.5-0.1-0.9-0.4-1.1
			c-0.3-0.2-0.6-0.4-1.1-0.5c-0.4-0.1-0.9-0.2-1.4-0.2s-1-0.1-1.4-0.3c-0.4-0.1-0.8-0.3-1.1-0.6c-0.3-0.3-0.4-0.7-0.4-1.3
			c0-0.5,0.1-0.8,0.3-1.2c0.2-0.3,0.5-0.6,0.9-0.8s0.8-0.3,1.2-0.4s0.9-0.1,1.4-0.1c0.5,0,0.9,0,1.4,0.1c0.4,0.1,0.8,0.2,1.1,0.3
			c0.4,0.1,0.7,0.3,1,0.4V430.9z"/>
		<path fill="#FFFFFF" d="M154.8,427.1l0.6-1.4h5.7v1.4H154.8z"/>
	</g>
	<g enable-background="new    ">
		<path fill="#FFFFFF" d="M162,424h-1.8v-0.6c0-0.2,0.1-0.5,0.2-0.7c0.1-0.2,0.3-0.5,0.4-0.6c0.2-0.2,0.4-0.3,0.6-0.5
			c0.2-0.1,0.5-0.2,0.8-0.2h1.4l-0.6,1.5h-0.4c-0.3,0-0.5,0.1-0.6,0.2c-0.1,0.1-0.2,0.3-0.2,0.6V424z"/>
	</g>
</g>
<g enable-background="new    ">
	<path fill="#FFFFFF" d="M260.9,542v10.2h-1.7v-7.9c-0.2,0.1-0.5,0.3-1,0.5c-0.4,0.2-0.8,0.3-1.3,0.4v-1.5c0.3-0.1,0.6-0.3,0.9-0.5
		c0.3-0.2,0.5-0.4,0.8-0.6c0.2-0.2,0.5-0.4,0.7-0.7H260.9z"/>
	<path fill="#FFFFFF" d="M268.7,542v0.6l-3.6,9.6h-1.8l3.3-8.7h-4.9V542L268.7,542z"/>
	<path fill="#FFFFFF" d="M282,552.3v-5.8c0-0.4-0.1-0.7-0.2-0.9c-0.1-0.2-0.3-0.4-0.6-0.6c-0.2-0.1-0.5-0.2-0.8-0.3
		c-0.3-0.1-0.5-0.1-0.8-0.1c-0.3,0-0.6,0-0.9,0.1c-0.2,0.1-0.4,0.2-0.6,0.3c-0.2,0.1-0.3,0.3-0.5,0.4l1.2,1
		c-0.1,0.1-0.2,0.2-0.3,0.4c-0.1,0.1-0.1,0.3-0.2,0.5c-0.1,0.2-0.1,0.5-0.1,0.8v4.1h-1.7v-4.2c0-0.3,0-0.5,0.1-0.7
		c0-0.2,0.1-0.4,0.1-0.5c0.1-0.2,0.1-0.3,0.2-0.4c-0.2-0.2-0.4-0.4-0.6-0.5c-0.1-0.1-0.3-0.2-0.4-0.3c-0.1-0.1-0.2-0.2-0.2-0.2
		c0.2-0.5,0.5-0.9,0.9-1.2c0.3-0.3,0.7-0.6,1.2-0.8c0.5-0.3,1-0.4,1.7-0.4c0.5,0,1,0.1,1.5,0.2c0.5,0.1,1,0.3,1.3,0.6
		c0.4,0.3,0.7,0.6,0.9,1s0.4,0.8,0.4,1.3v4.8c0,0.2-0.1,0.4-0.2,0.5s-0.2,0.3-0.4,0.4c-0.1,0.1-0.3,0.3-0.5,0.4H282z"/>
	<path fill="#FFFFFF" d="M285.2,552.3v-1.6h1.7v1.6H285.2z"/>
	<path fill="#FFFFFF" d="M290.2,548.1c0.2-0.2,0.4-0.4,0.6-0.5c0.2-0.1,0.4-0.3,0.7-0.4c0.3-0.1,0.6-0.2,0.9-0.2v1.7
		c-0.4,0-0.7,0-1,0.1c-0.3,0.1-0.5,0.2-0.7,0.3c-0.2,0.1-0.4,0.3-0.6,0.4v2.7h-1.7v-6.2c0-0.5,0.1-0.9,0.3-1.2
		c0.2-0.4,0.5-0.7,0.9-1s0.8-0.5,1.2-0.6c0.5-0.1,0.9-0.2,1.5-0.2c0.5,0,1,0.1,1.4,0.2c0.5,0.1,0.9,0.3,1.2,0.6
		c0.4,0.3,0.7,0.6,0.9,0.9c0.2,0.4,0.3,0.8,0.3,1.3v6.2h-1.7v-6.2c0-0.4-0.2-0.8-0.6-1.1c-0.4-0.3-0.9-0.4-1.5-0.4s-1.1,0.1-1.5,0.4
		s-0.6,0.6-0.6,1.1V548.1z"/>
	<path fill="#FFFFFF" d="M297.6,552.3v-1.6h1.7v1.6H297.6z"/>
	<path fill="#FFFFFF" d="M313.2,549.2c0,1-0.3,1.8-1,2.4c-0.7,0.6-1.6,0.9-2.9,0.9c-0.5,0-0.9-0.1-1.2-0.2c-0.3-0.1-0.6-0.2-0.8-0.3
		v-1.7c0.2,0.1,0.4,0.2,0.6,0.3c0.2,0.1,0.4,0.2,0.6,0.2c0.2,0.1,0.5,0.1,0.8,0.1c0.3,0,0.6,0,0.9-0.1s0.5-0.1,0.7-0.3
		s0.3-0.3,0.5-0.5s0.2-0.5,0.2-0.8c0-0.5-0.2-0.9-0.5-1.3c-0.3-0.4-0.8-0.6-1.5-0.6c-0.3,0-0.6,0-0.9,0.1s-0.5,0.1-0.7,0.1
		c-0.2,0.1-0.4,0.1-0.6,0.1V542h5.3v1.5H309v2.3h0.6c0.5,0,1,0.1,1.4,0.2s0.8,0.3,1.2,0.6c0.3,0.3,0.6,0.6,0.8,1
		C313.1,548.2,313.2,548.6,313.2,549.2z"/>
	<path fill="#FFFFFF" d="M314.5,544.6c0-0.4,0.1-0.7,0.2-1s0.3-0.6,0.6-0.9c0.3-0.3,0.6-0.5,0.9-0.6s0.8-0.2,1.2-0.2
		c0.4,0,0.8,0.1,1.2,0.2c0.4,0.2,0.7,0.4,1,0.6s0.5,0.6,0.6,0.9c0.2,0.3,0.2,0.7,0.2,1c0,0.5-0.1,0.9-0.3,1.2
		c-0.2,0.3-0.5,0.7-0.8,1c0.5,0.3,0.8,0.7,1.1,1.2c0.3,0.5,0.4,1,0.4,1.5c0,0.9-0.3,1.6-0.9,2.2s-1.4,0.8-2.5,0.8
		c-1.1,0-2-0.3-2.5-0.8s-0.9-1.3-0.9-2.2c0-1.1,0.5-2,1.5-2.7c-0.4-0.3-0.7-0.6-0.8-1C314.6,545.4,314.5,545,314.5,544.6z
		 M317.5,547.5c-0.2,0-0.4,0-0.6,0.1c-0.2,0.1-0.4,0.2-0.5,0.3c-0.2,0.1-0.3,0.3-0.4,0.5c-0.1,0.2-0.1,0.5-0.1,0.8
		c0,0.6,0.2,1,0.5,1.3c0.3,0.3,0.7,0.4,1.1,0.4s0.8-0.1,1.1-0.4c0.3-0.3,0.5-0.7,0.5-1.3c0-0.5-0.2-0.9-0.5-1.2
		C318.4,547.7,318,547.5,317.5,547.5z M316.3,544.7c0,0.4,0.1,0.8,0.4,1c0.2,0.2,0.5,0.3,0.9,0.3c0.3,0,0.6-0.1,0.8-0.3
		c0.3-0.2,0.4-0.5,0.4-1c0-0.1,0-0.3-0.1-0.4c-0.1-0.2-0.1-0.3-0.2-0.4c-0.1-0.1-0.2-0.2-0.4-0.3c-0.2-0.1-0.3-0.1-0.6-0.1
		c-0.2,0-0.4,0-0.6,0.1c-0.2,0.1-0.3,0.2-0.4,0.3c-0.1,0.1-0.1,0.3-0.2,0.4C316.3,544.4,316.3,544.6,316.3,544.7z"/>
</g>
<g>
	<g>
		<g>
			<path fill="#E5E5E5" d="M336.3,547.6v-0.7h2.9v0.7H336.3z M342,547.6v-0.7h2.9v0.7H342z M347.6,547.6v-0.7h2.9v0.7H347.6z
				 M353.4,547.6v-0.7h2.9v0.7H353.4z M359,547.6v-0.7h2.9v0.7H359z M364.7,547.6v-0.7h2.9v0.7H364.7z M370.4,547.6v-0.7h2.9v0.7
				H370.4z M376.1,547.6v-0.7h2.9v0.7H376.1z"/>
		</g>
		<g>
			<rect x="381.8" y="546.9" fill="#E5E5E5" width="1.4" height="0.7"/>
		</g>
	</g>
	<circle fill="#E5E5E5" cx="383.1" cy="547.2" r="2.2"/>
</g>
<g enable-background="new    ">
	<path fill="#FFFFFF" d="M423.1,544.3h1.7v7.1c0,0.1,0,0.2,0,0.3s0.1,0.1,0.2,0.1h0.6v1.5h-1.1c-0.4,0-0.7-0.1-1-0.3
		s-0.4-0.7-0.4-1.3V544.3z"/>
	<path fill="#FFFFFF" d="M429.7,553.5c-0.5,0-0.9-0.1-1.3-0.3c-0.4-0.2-0.7-0.5-0.9-0.8s-0.4-0.7-0.5-1.1c-0.1-0.4-0.2-0.8-0.2-1.2
		v-5.9h1.7v6c0,0.5,0.1,0.9,0.4,1.2c0.3,0.4,0.6,0.5,1.1,0.5h0.8c0.5,0,0.9-0.2,1.1-0.5c0.3-0.4,0.4-0.8,0.4-1.2v-8.6h1.7v8.5
		c0,0.4-0.1,0.8-0.2,1.2c-0.1,0.4-0.3,0.8-0.6,1.1s-0.6,0.6-1,0.8c-0.4,0.2-0.8,0.3-1.4,0.3H429.7z"/>
	<path fill="#FFFFFF" d="M427.5,542.8l0.6-1.4h5.7v1.4H427.5z"/>
	<path fill="#FFFFFF" d="M440.1,553.2c-0.1,0.1-0.2,0.1-0.3,0.2c-0.1,0-0.2,0.1-0.4,0.1s-0.3,0-0.5,0c-0.6,0-1.1-0.1-1.5-0.4
		c-0.4-0.2-0.8-0.6-1.1-1c-0.3-0.4-0.6-0.9-0.7-1.5s-0.3-1.2-0.3-1.9c0-0.8,0.1-1.5,0.4-2.1c0.2-0.6,0.5-1.1,0.9-1.4
		s0.8-0.7,1.3-0.8c0.5-0.2,1-0.3,1.5-0.3c0.5,0,1,0.1,1.5,0.2s0.9,0.3,1.2,0.6c0.4,0.3,0.6,0.6,0.8,1s0.3,0.8,0.3,1.3v6.2h-1.7v-6
		c0-0.3-0.1-0.6-0.2-0.8c-0.1-0.2-0.3-0.4-0.5-0.5c-0.2-0.1-0.4-0.2-0.7-0.3c-0.3-0.1-0.5-0.1-0.8-0.1c-0.2,0-0.5,0-0.7,0.2
		c-0.3,0.1-0.5,0.3-0.8,0.5c-0.2,0.2-0.4,0.6-0.6,1s-0.2,0.9-0.2,1.5c0,0.4,0,0.8,0.1,1.2c0.1,0.4,0.2,0.7,0.3,1.1
		c0.1,0.3,0.3,0.6,0.6,0.8c0.3,0.2,0.6,0.3,1,0.3c0.2,0,0.3,0,0.5,0s0.2-0.1,0.3-0.1c0.1-0.1,0.2-0.1,0.3-0.2V553.2z"/>
	<path fill="#FFFFFF" d="M446.5,549.1c0.2-0.2,0.4-0.4,0.6-0.5c0.2-0.1,0.4-0.3,0.7-0.4c0.3-0.1,0.6-0.2,0.9-0.2v1.7
		c-0.4,0-0.7,0-1,0.1c-0.3,0.1-0.5,0.2-0.7,0.3c-0.2,0.1-0.4,0.3-0.6,0.4v2.7h-1.7v-6.2c0-0.5,0.1-0.9,0.3-1.2s0.5-0.7,0.9-1
		s0.8-0.5,1.2-0.6c0.5-0.1,0.9-0.2,1.5-0.2c0.5,0,1,0.1,1.4,0.2c0.5,0.1,0.9,0.3,1.2,0.6c0.4,0.3,0.7,0.6,0.9,0.9
		c0.2,0.4,0.3,0.8,0.3,1.3v6.2h-1.7v-6.2c0-0.4-0.2-0.8-0.6-1.1c-0.4-0.3-0.9-0.4-1.5-0.4c-0.6,0-1.1,0.1-1.5,0.4s-0.6,0.6-0.6,1.1
		V549.1z"/>
	<path fill="#FFFFFF" d="M450.8,540.1h1.7v2.7h-1.7V540.1z"/>
	<path fill="#FFFFFF" d="M453.7,545c0.2-0.2,0.4-0.3,0.7-0.5c0.2-0.1,0.5-0.2,0.8-0.3c0.3-0.1,0.6-0.2,1-0.2c0.5,0,0.9,0.1,1.4,0.2
		c0.4,0.1,0.8,0.4,1.2,0.6c0.3,0.3,0.6,0.6,0.8,1.1s0.3,0.9,0.3,1.5v5.8h-1.7v-5.6c0-0.4-0.1-0.7-0.2-1c-0.1-0.3-0.3-0.5-0.5-0.7
		c-0.2-0.2-0.4-0.3-0.7-0.4c-0.2-0.1-0.5-0.1-0.7-0.1c-0.3,0-0.6,0-0.9,0.2c-0.3,0.1-0.5,0.2-0.7,0.3c-0.3,0.1-0.5,0.3-0.7,0.5V545z
		"/>
	<path fill="#FFFFFF" d="M461,550.6c0-0.5,0.1-0.9,0.3-1.2s0.5-0.6,0.8-0.8c0.3-0.2,0.7-0.4,1.1-0.5c-0.4-0.1-0.7-0.2-1-0.3
		c-0.3-0.1-0.5-0.3-0.7-0.6c-0.2-0.2-0.3-0.6-0.3-1c0-0.4,0.1-0.7,0.2-1c0.1-0.3,0.3-0.5,0.5-0.7s0.5-0.3,0.7-0.4
		c0.3-0.1,0.5-0.1,0.8-0.1c0.3,0,0.5,0,0.7,0s0.4,0.1,0.5,0.1c0.2,0.1,0.3,0.1,0.5,0.2v1.6c-0.1-0.1-0.3-0.1-0.4-0.2
		c-0.1,0-0.3-0.1-0.5-0.1c-0.2,0-0.3-0.1-0.5-0.1c-0.2,0-0.4,0.1-0.5,0.2c-0.2,0.1-0.3,0.3-0.3,0.5c0,0.4,0.2,0.7,0.6,0.9
		c0.4,0.2,0.9,0.3,1.6,0.3v1.5c-0.4,0-0.8,0-1.1,0.1c-0.3,0.1-0.5,0.2-0.7,0.4c-0.2,0.2-0.3,0.3-0.4,0.5c-0.1,0.2-0.1,0.4-0.1,0.5
		c0,0.5,0.2,0.8,0.5,1.1c0.3,0.2,0.8,0.3,1.3,0.3c0.7,0,1.2-0.2,1.5-0.5s0.5-0.8,0.5-1.2v-6h1.7v5.9c0,0.4-0.1,0.8-0.2,1.2
		s-0.3,0.8-0.6,1.1c-0.3,0.3-0.7,0.6-1.2,0.8s-1.1,0.3-1.8,0.3c-0.7,0-1.2-0.1-1.7-0.2c-0.5-0.2-0.8-0.4-1.1-0.6s-0.5-0.6-0.6-0.9
		C461.1,551.4,461,551,461,550.6z"/>
</g>
<path fill="#DD6F97" d="M334.1,674.2c0,0,0,1.1-0.1,3.3c0,0.5,0,1.1-0.1,1.8c-0.1,0.7-0.2,1.4-0.3,2.1c-0.1,0.8-0.2,1.6-0.4,2.5
	c-0.2,0.9-0.4,1.8-0.7,2.8c-1.1,3.8-2.7,8.5-5.7,13.2c-3,4.8-7.2,9.6-12.8,13.8c-5.6,4.1-12.8,7.3-20.9,8.6c-1,0.2-2,0.2-3.1,0.3
	l-1.6,0.1l-0.8,0.1h-0.9c-2,0-4,0.1-6.2-0.3c-1.1-0.1-2.2-0.2-3.3-0.4s-2.2-0.5-3.2-0.7c-1.1-0.2-2.1-0.6-3.2-0.9l-1.6-0.5l-0.8-0.3
	l-0.8-0.3c-1-0.5-2.1-0.9-3.2-1.4c-1.1-0.5-2-1.1-3.1-1.6l-1.5-0.9c-0.5-0.3-1-0.7-1.5-1c-1-0.7-2-1.3-2.9-2
	c-3.7-2.9-7-6.5-9.8-10.5s-4.9-8.5-6.5-13.2l-1-3.6l-0.2-0.9l-0.2-0.9l-0.3-1.8c-0.2-1.2-0.4-2.5-0.4-3.7l-0.1-1.9l-0.1-0.9v-0.5
	v-0.2v-0.1c0-0.1,0,0.1,0-0.3l0.2-3.4l0.1-0.8c0-0.3,0-0.6,0.1-0.9l0.3-1.9l0.3-1.9l0.2-1l0.2-0.9l1-3.6c0.4-1.2,0.8-2.3,1.3-3.5
	c0.2-0.6,0.4-1.2,0.7-1.7l0.8-1.7l0.8-1.6c0.3-0.6,0.6-1.1,0.9-1.6c0.7-1,1.3-2.1,2-3.1c0.7-1,1.5-1.9,2.2-2.9
	c0.4-0.5,0.7-1,1.1-1.4l1.2-1.3l1.2-1.3l0.6-0.6c0.2-0.2,0.4-0.4,0.7-0.6c0.9-0.8,1.8-1.6,2.7-2.3c0.9-0.7,1.9-1.4,2.9-2
	c0.5-0.3,1-0.7,1.5-1l1.5-0.9c1-0.5,2-1.2,3.1-1.6c1.1-0.5,2.1-0.9,3.2-1.4c4.3-1.6,8.6-2.8,12.9-3.1c2.1-0.3,4.3-0.2,6.4-0.3h0.4
	h0.2h0.1c0,0,0.3,0,0.2,0l0.7,0.1l1.5,0.1l1.5,0.1c0.5,0,1,0.1,1.5,0.2c1,0.2,2,0.4,3.1,0.6c0.5,0.1,1,0.2,1.5,0.3s1,0.3,1.4,0.4
	c0.9,0.3,1.9,0.6,2.8,0.8c0.9,0.3,1.8,0.7,2.7,1.1c1.8,0.7,3.4,1.6,5,2.5c0.8,0.4,1.6,0.9,2.3,1.4c0.7,0.5,1.5,1,2.2,1.5
	c5.6,4.2,9.9,9,12.8,13.8c3,4.8,4.7,9.4,5.7,13.2c0.2,1,0.5,1.9,0.7,2.8s0.3,1.7,0.4,2.5c0.1,0.8,0.2,1.5,0.3,2.1
	c0.1,0.7,0.1,1.3,0.1,1.8C334.1,673,334.1,674.1,334.1,674.2L334.1,674.2z M333.6,674.1c0,0-0.1-1.1-0.2-3.2c0-0.5,0-1.1-0.1-1.8
	c-0.1-0.6-0.2-1.3-0.3-2.1c-0.1-0.8-0.2-1.6-0.4-2.4c-0.2-0.9-0.5-1.8-0.7-2.7c-1.1-3.8-2.8-8.3-5.8-12.9c-3-4.6-7.3-9.2-12.9-13
	c-5.6-3.7-12.6-6.5-20.3-7.4c-1-0.1-1.9-0.1-2.9-0.2l-1.5-0.1h-0.7c-0.2,0-0.5,0-0.7,0c-2,0.1-4,0.1-6,0.5c-4,0.5-8,1.8-11.9,3.4
	c-0.9,0.5-1.9,0.9-2.9,1.4c-1,0.5-1.8,1.1-2.8,1.6l-1.4,0.8c-0.4,0.3-0.9,0.6-1.3,1c-0.9,0.7-1.7,1.3-2.6,2
	c-3.3,2.8-6.2,6.1-8.7,9.8c-2.4,3.7-4.3,7.8-5.7,12c-1.3,4.3-1.8,8.7-1.9,13.3c0.1,4.4,0.7,9,1.9,13.2c1.4,4.3,3.2,8.3,5.7,12
	c2.5,3.6,5.4,7,8.7,9.8c0.8,0.7,1.7,1.3,2.6,2c0.4,0.3,0.9,0.7,1.3,1l1.4,0.8c0.9,0.5,1.8,1.2,2.8,1.6c1,0.5,1.9,0.9,2.9,1.4
	c3.9,1.6,7.9,2.9,11.9,3.4c2,0.4,4,0.4,6,0.5c0.2,0,0.5,0,0.7,0h0.7l1.5-0.1c1-0.1,2,0,2.9-0.2c7.7-0.9,14.7-3.7,20.3-7.4
	c5.6-3.8,9.9-8.4,12.9-13c3.1-4.6,4.8-9.1,5.8-12.9c0.2-1,0.5-1.9,0.7-2.7c0.2-0.9,0.3-1.7,0.4-2.4c0.1-0.8,0.2-1.5,0.3-2.1
	c0.1-0.6,0.1-1.2,0.1-1.8C333.6,675.3,333.6,674.1,333.6,674.1L333.6,674.1z"/>
<circle fill="#E23B67" cx="288" cy="674.3" r="46.2"/>
<g>
	<g>
		<g>
			<path fill="#E5E5E5" d="M287.7,597.6h0.7v2.9h-0.7V597.6z M287.7,603.2h0.7v2.9h-0.7V603.2z M287.7,608.9h0.7v2.9h-0.7V608.9z
				 M287.7,614.6h0.7v2.9h-0.7V614.6z M287.7,620.3h0.7v2.9h-0.7V620.3z"/>
		</g>
	</g>
</g>
<g enable-background="new    ">
	<path fill="#FFFFFF" d="M258.5,671.8c0-0.5-0.1-0.9-0.5-1.1c-0.3-0.2-0.6-0.3-1-0.3c-0.2,0-0.4,0-0.7,0.1c-0.2,0-0.5,0.1-0.7,0.2
		s-0.5,0.2-0.7,0.3c-0.2,0.1-0.4,0.3-0.6,0.4v-1.5c0.3-0.3,0.7-0.5,1.1-0.7c0.5-0.2,1-0.3,1.6-0.3c0.5,0,0.9,0.1,1.3,0.2
		c0.4,0.1,0.7,0.3,1,0.6c0.3,0.2,0.5,0.5,0.6,0.9c0.2,0.4,0.2,0.7,0.2,1.1c0,0.5-0.1,1-0.3,1.4c-0.2,0.4-0.4,0.8-0.7,1.1
		c-0.3,0.3-0.6,0.7-1,1c-0.4,0.3-0.7,0.6-1,0.9c-0.3,0.3-0.6,0.6-0.9,0.8s-0.5,0.6-0.6,0.9h4.9v1.5h-6.7V678c0-0.4,0.1-0.8,0.3-1.1
		c0.2-0.4,0.5-0.7,0.9-1.1c0.3-0.3,0.7-0.7,1.1-1c0.4-0.3,0.8-0.7,1.1-1c0.3-0.3,0.6-0.7,0.9-1C258.4,672.5,258.5,672.2,258.5,671.8
		z"/>
	<path fill="#FFFFFF" d="M269.2,674.2c0,0.8-0.1,1.6-0.3,2.2c-0.2,0.7-0.5,1.2-0.9,1.7c-0.4,0.5-0.8,0.8-1.3,1s-1.1,0.4-1.6,0.4
		c-1.1,0-2-0.4-2.7-1.3c-0.7-0.9-1-2.1-1-3.8c0-0.9,0.1-1.6,0.3-2.3c0.2-0.7,0.5-1.3,0.8-1.7s0.8-0.8,1.2-1.1c0.5-0.3,1-0.4,1.6-0.4
		c0.6,0,1.1,0.1,1.6,0.3c0.5,0.2,0.9,0.6,1.3,1c0.4,0.4,0.6,1,0.8,1.7C269.1,672.5,269.2,673.3,269.2,674.2z M267.4,674.2
		c0-0.7-0.1-1.3-0.2-1.8c-0.1-0.5-0.3-0.9-0.5-1.2s-0.5-0.5-0.7-0.7c-0.3-0.1-0.6-0.2-0.9-0.2c-0.3,0-0.5,0.1-0.8,0.2
		c-0.3,0.1-0.5,0.4-0.7,0.7c-0.2,0.3-0.4,0.7-0.5,1.2c-0.1,0.5-0.2,1.1-0.2,1.8c0,0.7,0.1,1.3,0.2,1.7c0.1,0.5,0.3,0.8,0.5,1.1
		c0.2,0.3,0.4,0.5,0.7,0.6c0.3,0.1,0.5,0.2,0.8,0.2c0.3,0,0.6-0.1,0.8-0.2c0.3-0.1,0.5-0.3,0.7-0.6c0.2-0.3,0.4-0.7,0.5-1.1
		C267.4,675.5,267.4,674.9,267.4,674.2z"/>
	<path fill="#FFFFFF" d="M282.7,679.3v-5.8c0-0.4-0.1-0.7-0.2-0.9c-0.1-0.2-0.3-0.4-0.6-0.6c-0.2-0.1-0.5-0.2-0.8-0.3
		c-0.3-0.1-0.5-0.1-0.8-0.1c-0.3,0-0.6,0-0.9,0.1c-0.2,0.1-0.4,0.2-0.6,0.3c-0.2,0.1-0.3,0.3-0.5,0.4l1.2,1
		c-0.1,0.1-0.2,0.2-0.3,0.4c-0.1,0.1-0.1,0.3-0.2,0.5c-0.1,0.2-0.1,0.5-0.1,0.8v4.1h-1.7v-4.2c0-0.3,0-0.5,0.1-0.7
		c0-0.2,0.1-0.4,0.1-0.5c0.1-0.2,0.1-0.3,0.2-0.4c-0.2-0.2-0.4-0.4-0.6-0.5c-0.1-0.1-0.3-0.2-0.4-0.3c-0.1-0.1-0.2-0.2-0.2-0.2
		c0.2-0.5,0.5-0.9,0.9-1.2c0.3-0.3,0.7-0.6,1.2-0.8c0.5-0.3,1-0.4,1.7-0.4c0.5,0,1,0.1,1.5,0.2c0.5,0.1,1,0.3,1.3,0.6
		c0.4,0.3,0.7,0.6,0.9,1s0.4,0.8,0.4,1.3v4.8c0,0.2-0.1,0.4-0.2,0.5s-0.2,0.3-0.4,0.4c-0.1,0.1-0.3,0.3-0.5,0.4H282.7z"/>
	<path fill="#FFFFFF" d="M286,679.3v-1.6h1.7v1.6H286z"/>
	<path fill="#FFFFFF" d="M290.9,675.1c0.2-0.2,0.4-0.4,0.6-0.5c0.2-0.1,0.4-0.3,0.7-0.4c0.3-0.1,0.6-0.2,0.9-0.2v1.7
		c-0.4,0-0.7,0-1,0.1c-0.3,0.1-0.5,0.2-0.7,0.3c-0.2,0.1-0.4,0.3-0.6,0.4v2.7h-1.7v-6.2c0-0.5,0.1-0.9,0.3-1.2
		c0.2-0.4,0.5-0.7,0.9-1s0.8-0.5,1.2-0.6c0.5-0.1,0.9-0.2,1.5-0.2c0.5,0,1,0.1,1.4,0.2c0.5,0.1,0.9,0.3,1.2,0.6
		c0.4,0.3,0.7,0.6,0.9,0.9c0.2,0.4,0.3,0.8,0.3,1.3v6.2h-1.7v-6.2c0-0.4-0.2-0.8-0.6-1.1c-0.4-0.3-0.9-0.4-1.5-0.4s-1.1,0.1-1.5,0.4
		s-0.6,0.6-0.6,1.1V675.1z"/>
	<path fill="#FFFFFF" d="M298.4,679.3v-1.6h1.7v1.6H298.4z"/>
	<path fill="#FFFFFF" d="M314,676.2c0,1-0.3,1.8-1,2.4c-0.7,0.6-1.6,0.9-2.9,0.9c-0.5,0-0.9-0.1-1.2-0.2c-0.3-0.1-0.6-0.2-0.8-0.3
		v-1.7c0.2,0.1,0.4,0.2,0.6,0.3c0.2,0.1,0.4,0.2,0.6,0.2c0.2,0.1,0.5,0.1,0.8,0.1c0.3,0,0.6,0,0.9-0.1s0.5-0.1,0.7-0.3
		s0.3-0.3,0.5-0.5s0.2-0.5,0.2-0.8c0-0.5-0.2-0.9-0.5-1.3c-0.3-0.4-0.8-0.6-1.5-0.6c-0.3,0-0.6,0-0.9,0.1s-0.5,0.1-0.7,0.1
		c-0.2,0.1-0.4,0.1-0.6,0.1V669h5.3v1.5h-3.5v2.3h0.6c0.5,0,1,0.1,1.4,0.2s0.8,0.3,1.2,0.6c0.3,0.3,0.6,0.6,0.8,1
		C313.9,675.2,314,675.6,314,676.2z"/>
	<path fill="#FFFFFF" d="M315.3,671.6c0-0.4,0.1-0.7,0.2-1s0.3-0.6,0.6-0.9c0.3-0.3,0.6-0.5,0.9-0.6s0.8-0.2,1.2-0.2
		c0.4,0,0.8,0.1,1.2,0.2c0.4,0.2,0.7,0.4,1,0.6s0.5,0.6,0.6,0.9c0.2,0.3,0.2,0.7,0.2,1c0,0.5-0.1,0.9-0.3,1.2
		c-0.2,0.3-0.5,0.7-0.8,1c0.5,0.3,0.8,0.7,1.1,1.2c0.3,0.5,0.4,1,0.4,1.5c0,0.9-0.3,1.6-0.9,2.2s-1.4,0.8-2.5,0.8
		c-1.1,0-2-0.3-2.5-0.8s-0.9-1.3-0.9-2.2c0-1.1,0.5-2,1.5-2.7c-0.4-0.3-0.7-0.6-0.8-1C315.4,672.4,315.3,672,315.3,671.6z
		 M318.3,674.5c-0.2,0-0.4,0-0.6,0.1c-0.2,0.1-0.4,0.2-0.5,0.3c-0.2,0.1-0.3,0.3-0.4,0.5c-0.1,0.2-0.1,0.5-0.1,0.8
		c0,0.6,0.2,1,0.5,1.3c0.3,0.3,0.7,0.4,1.1,0.4s0.8-0.1,1.1-0.4c0.3-0.3,0.5-0.7,0.5-1.3c0-0.5-0.2-0.9-0.5-1.2
		C319.1,674.7,318.7,674.5,318.3,674.5z M317,671.7c0,0.4,0.1,0.8,0.4,1c0.2,0.2,0.5,0.3,0.9,0.3c0.3,0,0.6-0.1,0.8-0.3
		c0.3-0.2,0.4-0.5,0.4-1c0-0.1,0-0.3-0.1-0.4c-0.1-0.2-0.1-0.3-0.2-0.4c-0.1-0.1-0.2-0.2-0.4-0.3c-0.2-0.1-0.3-0.1-0.6-0.1
		c-0.2,0-0.4,0-0.6,0.1c-0.2,0.1-0.3,0.2-0.4,0.3c-0.1,0.1-0.1,0.3-0.2,0.4C317.1,671.4,317,671.6,317,671.7z"/>
</g>
<g>
	<g>
		<g>
			<path fill="#E5E5E5" d="M235.2,673.6v0.7h-2.9v-0.7H235.2z M229.5,673.6v0.7h-2.9v-0.7H229.5z M223.9,673.6v0.7H221v-0.7H223.9z
				 M218.1,673.6v0.7h-2.9v-0.7H218.1z M212.5,673.6v0.7h-2.9v-0.7H212.5z M206.8,673.6v0.7h-2.9v-0.7H206.8z M201.1,673.6v0.7h-2.9
				v-0.7H201.1z M195.4,673.6v0.7h-2.9v-0.7H195.4z"/>
		</g>
		<g>
			<rect x="188.3" y="673.6" fill="#E5E5E5" width="1.4" height="0.7"/>
		</g>
	</g>
	<circle fill="#E5E5E5" cx="188.4" cy="674" r="2.2"/>
</g>
<g enable-background="new    ">
	<path fill="#FFFFFF" d="M142.3,678.5c-0.5,0-0.9-0.1-1.3-0.3c-0.4-0.2-0.7-0.5-0.9-0.8c-0.2-0.3-0.4-0.7-0.5-1.1
		c-0.1-0.4-0.2-0.8-0.2-1.2v-5.9h1.7v6c0,0.5,0.1,0.9,0.4,1.2c0.3,0.4,0.6,0.5,1.1,0.5h0.8c0.5,0,0.9-0.2,1.1-0.5
		c0.3-0.4,0.4-0.8,0.4-1.2v-8.6h1.7v8.5c0,0.4-0.1,0.8-0.2,1.2c-0.1,0.4-0.3,0.8-0.6,1.1s-0.6,0.6-1,0.8c-0.4,0.2-0.8,0.3-1.4,0.3
		H142.3z"/>
	<path fill="#FFFFFF" d="M140.1,667.8l0.6-1.4h5.7v1.4H140.1z"/>
	<path fill="#FFFFFF" d="M152.7,678.2c-0.1,0.1-0.2,0.1-0.3,0.2c-0.1,0-0.2,0.1-0.4,0.1c-0.1,0-0.3,0-0.5,0c-0.6,0-1.1-0.1-1.5-0.4
		c-0.4-0.2-0.8-0.6-1.1-1c-0.3-0.4-0.6-0.9-0.7-1.5c-0.2-0.6-0.3-1.2-0.3-1.9c0-0.8,0.1-1.5,0.4-2.1c0.2-0.6,0.5-1.1,0.9-1.4
		c0.4-0.4,0.8-0.7,1.3-0.8c0.5-0.2,1-0.3,1.5-0.3c0.5,0,1,0.1,1.5,0.2s0.9,0.3,1.2,0.6c0.4,0.3,0.6,0.6,0.8,1s0.3,0.8,0.3,1.3v6.2
		h-1.7v-6c0-0.3-0.1-0.6-0.2-0.8c-0.1-0.2-0.3-0.4-0.5-0.5c-0.2-0.1-0.4-0.2-0.7-0.3c-0.3-0.1-0.5-0.1-0.8-0.1c-0.2,0-0.5,0-0.7,0.2
		c-0.3,0.1-0.5,0.3-0.8,0.5s-0.4,0.6-0.6,1s-0.2,0.9-0.2,1.5c0,0.4,0,0.8,0.1,1.2c0.1,0.4,0.2,0.7,0.3,1.1c0.1,0.3,0.3,0.6,0.6,0.8
		c0.3,0.2,0.6,0.3,1,0.3c0.2,0,0.3,0,0.5,0c0.1,0,0.2-0.1,0.3-0.1c0.1-0.1,0.2-0.1,0.3-0.2V678.2z"/>
	<path fill="#FFFFFF" d="M159.1,674.1c0.2-0.2,0.4-0.4,0.6-0.5c0.2-0.1,0.4-0.3,0.7-0.4c0.3-0.1,0.6-0.2,0.9-0.2v1.7
		c-0.4,0-0.7,0-1,0.1c-0.3,0.1-0.5,0.2-0.7,0.3c-0.2,0.1-0.4,0.3-0.6,0.4v2.7h-1.7v-6.2c0-0.5,0.1-0.9,0.3-1.2
		c0.2-0.4,0.5-0.7,0.9-1s0.8-0.5,1.2-0.6c0.5-0.1,0.9-0.2,1.5-0.2c0.5,0,1,0.1,1.4,0.2c0.5,0.1,0.9,0.3,1.2,0.6
		c0.4,0.3,0.7,0.6,0.9,0.9c0.2,0.4,0.3,0.8,0.3,1.3v6.2h-1.7v-6.2c0-0.4-0.2-0.8-0.6-1.1c-0.4-0.3-0.9-0.4-1.5-0.4s-1.1,0.1-1.5,0.4
		s-0.6,0.6-0.6,1.1V674.1z"/>
	<path fill="#FFFFFF" d="M163.4,665.1h1.7v2.7h-1.7V665.1z"/>
	<path fill="#FFFFFF" d="M166.3,670c0.2-0.2,0.4-0.3,0.7-0.5c0.2-0.1,0.5-0.2,0.8-0.3c0.3-0.1,0.6-0.2,1-0.2c0.5,0,0.9,0.1,1.4,0.2
		c0.4,0.1,0.8,0.4,1.2,0.6c0.3,0.3,0.6,0.6,0.8,1.1s0.3,0.9,0.3,1.5v5.8h-1.7v-5.6c0-0.4-0.1-0.7-0.2-1c-0.1-0.3-0.3-0.5-0.5-0.7
		c-0.2-0.2-0.4-0.3-0.7-0.4c-0.2-0.1-0.5-0.1-0.7-0.1c-0.3,0-0.6,0-0.9,0.2c-0.3,0.1-0.5,0.2-0.7,0.3c-0.3,0.1-0.5,0.3-0.7,0.5V670z
		"/>
	<path fill="#FFFFFF" d="M173.6,675.6c0-0.5,0.1-0.9,0.3-1.2s0.5-0.6,0.8-0.8c0.3-0.2,0.7-0.4,1.1-0.5c-0.4-0.1-0.7-0.2-1-0.3
		c-0.3-0.1-0.5-0.3-0.7-0.6c-0.2-0.2-0.3-0.6-0.3-1c0-0.4,0.1-0.7,0.2-1c0.1-0.3,0.3-0.5,0.5-0.7s0.5-0.3,0.7-0.4
		c0.3-0.1,0.5-0.1,0.8-0.1c0.3,0,0.5,0,0.7,0c0.2,0,0.4,0.1,0.6,0.1c0.2,0.1,0.3,0.1,0.5,0.2v1.6c-0.1-0.1-0.3-0.1-0.4-0.2
		c-0.1,0-0.3-0.1-0.5-0.1c-0.2,0-0.3-0.1-0.5-0.1c-0.2,0-0.4,0.1-0.6,0.2c-0.2,0.1-0.3,0.3-0.3,0.5c0,0.4,0.2,0.7,0.6,0.9
		c0.4,0.2,0.9,0.3,1.6,0.3v1.5c-0.4,0-0.8,0-1.1,0.1c-0.3,0.1-0.5,0.2-0.7,0.4c-0.2,0.2-0.3,0.3-0.4,0.5c-0.1,0.2-0.1,0.4-0.1,0.5
		c0,0.5,0.2,0.8,0.5,1.1c0.3,0.2,0.8,0.3,1.3,0.3c0.7,0,1.2-0.2,1.5-0.5c0.3-0.4,0.5-0.8,0.5-1.2v-6h1.7v5.9c0,0.4-0.1,0.8-0.2,1.2
		s-0.3,0.8-0.6,1.1c-0.3,0.3-0.7,0.6-1.2,0.8s-1.1,0.3-1.8,0.3c-0.7,0-1.2-0.1-1.7-0.2c-0.5-0.2-0.8-0.4-1.1-0.6
		c-0.3-0.3-0.5-0.6-0.6-0.9S173.6,676,173.6,675.6z"/>
</g>
<g>
	<path fill="#FFFFFF" d="M268.4,424.4h-1.7v-7.9c-0.5,0.3-1.3,0.7-2.2,0.9v-1.5c0.6-0.2,1.2-0.6,1.7-1c0.2-0.2,0.5-0.4,0.7-0.7h1.6
		V424.4z"/>
	<path fill="#FFFFFF" d="M275.6,414.2v6.3h1.2v1.6h-1.2v2.3h-1.7v-2.3h-4.5v-1.4l4.6-6.5H275.6z M273.8,420.5v-3.4l-2.4,3.4H273.8z"
		/>
</g>
<path fill="#FFFFFF" d="M266.5,290.6v0.6l-3.6,9.6h-1.8l3.3-8.7h-4.9v-1.6L266.5,290.6z"/>
</svg>
